<svg width="16" height="16" viewBox="0 0 16 16" fill="none" xmlns="http://www.w3.org/2000/svg">
<path fill-rule="evenodd" clip-rule="evenodd" d="M4.03689 0.0674223C3.96777 0.10588 3.88368 0.173409 3.85009 0.2175C3.75979 0.335972 3.04725 2.11797 3.02817 2.27303C3.00111 2.49307 3.07583 2.6827 3.25977 2.86079L3.42244 3.01831L4.42943 3.32613C5.30348 3.59331 5.45894 3.63214 5.60697 3.62019C5.81321 3.60357 5.95693 3.51292 6.04587 3.34341C6.16587 3.11463 6.09572 2.8028 5.89257 2.66211C5.81743 2.61011 5.50965 2.50343 4.95905 2.33858C4.90154 2.32137 4.85446 2.30153 4.85446 2.29452C4.85446 2.26971 5.2284 2.1007 5.53025 1.98908C6.88694 1.48743 8.30998 1.40573 9.71516 1.74888C10.2077 1.86917 10.544 1.99086 11.0492 2.23172C12.9445 3.13531 14.3214 4.86759 14.7469 6.88359C15.1544 8.81454 14.6587 10.8308 13.3904 12.4014C13.1275 12.727 12.5101 13.3106 12.1544 13.5699C9.58197 15.4448 6.05472 15.3578 3.59181 13.3588C1.21491 11.4296 0.458579 8.14717 1.7623 5.41905C1.94653 5.03356 1.96053 4.92642 1.85366 4.7207C1.68677 4.39946 1.28159 4.31807 0.999303 4.54904C0.743728 4.75816 0.260767 6.05116 0.110807 6.92775C-0.383192 9.81536 0.79734 12.6934 3.19718 14.4522C4.32236 15.2768 5.55078 15.761 7.02663 15.9618C7.40842 16.0137 8.61479 16.0124 9.00572 15.9596C9.96334 15.8303 10.6941 15.6164 11.5319 15.2204C13.6153 14.2353 15.189 12.3591 15.763 10.176C15.9421 9.49462 16.0006 9.01338 16 8.22638C15.9994 7.41475 15.9381 6.93213 15.7456 6.22367C15.1623 4.07702 13.5847 2.20931 11.5319 1.23531C9.49067 0.266816 7.13476 0.185644 5.00732 1.01048C4.81707 1.08426 4.66138 1.14297 4.66138 1.14093C4.66138 1.1389 4.70483 1.02753 4.75792 0.893444C4.81102 0.759388 4.85446 0.60083 4.85446 0.541124C4.85446 0.134763 4.3948 -0.131565 4.03689 0.0674223ZM6.83355 5.07719C6.71262 5.13185 6.57469 5.27333 6.5299 5.38864C6.48134 5.51359 6.48311 8.66653 6.53186 8.8898C6.65752 9.4653 7.18499 9.96551 7.7792 10.0726C7.87455 10.0899 8.46512 10.1039 9.09161 10.1039C10.3292 10.1039 10.3583 10.1003 10.5242 9.92783C10.7329 9.71079 10.7329 9.40181 10.5242 9.18476C10.3586 9.01256 10.3275 9.00868 9.11133 9.00862C7.86261 9.00859 7.84095 9.00527 7.69501 8.79283L7.62197 8.6865L7.62126 7.0874C7.62045 5.29088 7.62438 5.32277 7.3818 5.14284C7.24095 5.03838 6.98673 5.00794 6.83355 5.07719Z" fill="#A5A5A5"/>
</svg>
