<svg width="16" height="16" viewBox="0 0 16 16" fill="none" xmlns="http://www.w3.org/2000/svg">
<path d="M3.991 0.0598192C3.93953 0.0910788 3.86877 0.14422 3.8366 0.178606C3.80765 0.212992 3.60822 0.67251 3.39592 1.19767C3.04852 2.06357 3.00992 2.1761 3.00992 2.35116C3.00992 2.59498 3.0839 2.76066 3.26082 2.91383C3.3734 3.01074 3.47955 3.05763 3.96527 3.20455C4.2805 3.30145 4.61503 3.40461 4.70831 3.43274L4.88201 3.48901L4.54105 3.73284C4.12932 4.03293 3.5857 4.56747 3.29299 4.97072C2.59176 5.9304 2.23793 7.02449 2.23793 8.22174C2.23793 9.15015 2.42449 9.93164 2.83622 10.735C3.13215 11.3102 3.41522 11.6916 3.90415 12.173C4.71153 12.967 5.68296 13.4796 6.85703 13.7234C7.26555 13.811 8.26271 13.8422 8.72269 13.786C9.70699 13.6672 10.6816 13.2827 11.4665 12.7075C11.7849 12.4731 12.3028 11.9823 12.5248 11.7072C13.0748 11.0226 13.4737 10.1848 13.6602 9.31583C13.76 8.85318 13.7825 7.9404 13.7085 7.44024C13.5734 6.53684 13.2324 5.70533 12.7017 4.97072C12.4251 4.58935 11.7367 3.92352 11.341 3.65156C9.95788 2.70127 8.17908 2.38867 6.53537 2.8013C6.06252 2.92008 6.06574 2.92008 6.06574 2.87007C6.06574 2.84819 6.02392 2.77942 5.97567 2.72002C5.89526 2.62937 5.81806 2.59186 5.37094 2.45119L4.8595 2.28864L5.08466 2.18861C5.75051 1.89164 6.45174 1.6947 7.1594 1.6103C7.7191 1.5384 8.61011 1.56029 9.15372 1.65407C10.6012 1.90414 11.8332 2.53246 12.869 3.54841C13.8822 4.53934 14.4966 5.7022 14.7668 7.14328C14.8375 7.51527 14.8665 8.52496 14.8182 8.92821C14.6349 10.4818 13.9626 11.8416 12.84 12.9295C12.2514 13.4984 11.7238 13.8672 11.0033 14.2111C10.0222 14.6769 9.10869 14.8801 7.99573 14.8801C6.88277 14.8801 5.96924 14.6769 4.98816 14.2111C4.25798 13.8641 3.73688 13.4984 3.13537 12.9138C2.04171 11.8479 1.36621 10.4912 1.17643 8.97197C1.13461 8.63124 1.13461 7.81223 1.17643 7.4715C1.26328 6.77754 1.45306 6.12421 1.75221 5.47088C1.99024 4.95197 1.97738 4.71439 1.70074 4.51121C1.59781 4.43306 1.556 4.42368 1.35013 4.42368C1.01238 4.42368 0.925532 4.4987 0.690717 4.99886C0.385135 5.64593 0.15997 6.39929 0.0441703 7.14328C-0.0201627 7.58091 -0.0137294 8.95634 0.0602535 9.40961C0.192136 10.2192 0.423735 10.9226 0.806516 11.6759C1.59138 13.2233 2.85552 14.4518 4.44133 15.2083C5.21333 15.5772 5.93386 15.8022 6.74124 15.9273C7.2559 16.0085 8.41711 16.0242 8.96072 15.9616C10.7749 15.746 12.4251 14.9613 13.6956 13.7047C14.3486 13.0607 14.7925 12.4543 15.1849 11.6759C15.7446 10.56 15.9666 9.66906 15.9955 8.40929C16.0148 7.68719 15.973 7.20267 15.8411 6.58373C15.3426 4.25488 13.6635 2.20111 11.4118 1.16641C10.7556 0.86632 9.9418 0.62562 9.16981 0.509959C8.65836 0.431809 7.32023 0.431809 6.812 0.509959C6.14294 0.613116 5.37094 0.825683 4.8595 1.04763C4.763 1.08826 4.68258 1.11952 4.68258 1.11327C4.68258 1.11015 4.72118 1.01637 4.76621 0.903831C4.93026 0.516211 4.84985 0.197362 4.54748 0.0441895C4.41881 -0.0214558 4.11002 -0.0120792 3.991 0.0598192ZM6.06896 3.18892C6.03036 3.35147 5.95959 3.45775 5.83092 3.53278C5.66044 3.63593 5.53821 3.64219 5.25514 3.56091C5.02033 3.49839 5.00103 3.48589 5.05571 3.44525C5.14256 3.38273 5.66687 3.1264 5.87274 3.04825C6.08182 2.96697 6.11399 2.99198 6.06896 3.18892ZM7.32667 4.50183C7.45855 4.53934 7.61938 4.65813 7.68371 4.76441C7.71266 4.8113 7.72553 5.25831 7.7384 6.48682C7.7577 8.32802 7.74483 8.24362 7.97321 8.37804C8.06971 8.43743 8.14369 8.44055 9.16981 8.44055C9.84209 8.44055 10.3117 8.45306 10.3857 8.47494C10.7813 8.58122 10.9325 9.02199 10.6752 9.31583C10.4983 9.52214 10.5144 9.51902 9.20197 9.51902C8.06006 9.51902 8.00216 9.51589 7.78343 9.45024C7.19478 9.26894 6.76375 8.78129 6.6769 8.19985C6.63187 7.89664 6.63509 5.06763 6.68012 4.89257C6.72515 4.72377 6.88277 4.56435 7.05325 4.51121C7.21087 4.46432 7.18835 4.46432 7.32667 4.50183Z" fill="#1A2B51"/>
</svg>
