<svg width="25" height="26" viewBox="0 0 25 26" fill="none" xmlns="http://www.w3.org/2000/svg">
<path fill-rule="evenodd" clip-rule="evenodd" d="M6.30765 0.109561C6.19964 0.172056 6.06825 0.28179 6.01576 0.353437C5.87467 0.545955 4.76133 3.4417 4.73152 3.69367C4.68923 4.05124 4.80598 4.35939 5.09339 4.64878L5.34757 4.90476L6.92098 5.40497C8.28668 5.83913 8.52959 5.90223 8.76089 5.88281C9.08314 5.8558 9.3077 5.70849 9.44668 5.43304C9.63418 5.06127 9.52456 4.55455 9.20714 4.32593C9.08973 4.24142 8.60883 4.06807 7.74852 3.8002C7.65866 3.77223 7.5851 3.73999 7.5851 3.7286C7.5851 3.68828 8.16937 3.41364 8.64102 3.23225C10.7608 2.41708 12.9843 2.28431 15.1799 2.84193C15.9496 3.0374 16.4749 3.23515 17.2643 3.62654C20.2257 5.09489 22.3772 7.90984 23.042 11.1858C23.6787 14.3236 22.9042 17.6 20.9225 20.1523C20.5118 20.6813 19.5471 21.6297 18.9912 22.051C14.9718 25.0978 9.46051 24.9565 5.6122 21.7081C1.8983 18.5731 0.716529 13.2392 2.75359 8.80596C3.04145 8.17954 3.06332 8.00543 2.89634 7.67115C2.63558 7.14912 2.00248 7.01686 1.56141 7.39218C1.16207 7.73201 0.407448 9.83313 0.173135 11.2576C-0.598738 15.95 1.24584 20.6268 4.9956 23.4848C6.75369 24.8248 8.67309 25.6117 10.9791 25.938C11.5757 26.0223 13.4606 26.0202 14.0714 25.9344C15.5677 25.7242 16.7095 25.3767 18.0185 24.7331C21.2739 23.1324 23.7328 20.0836 24.6296 16.5361C24.9095 15.4288 25.0009 14.6467 25 13.3679C24.999 12.049 24.9032 11.2647 24.6025 10.1135C23.6912 6.62516 21.2261 3.59014 18.0185 2.00738C14.8292 0.433577 11.1481 0.301672 7.82394 1.64202C7.52667 1.76193 7.28341 1.85732 7.28341 1.85402C7.28341 1.85071 7.35129 1.66974 7.43426 1.45185C7.51722 1.23401 7.5851 0.976349 7.5851 0.879327C7.5851 0.21899 6.86688 -0.213793 6.30765 0.109561ZM10.6774 8.25043C10.4885 8.33926 10.273 8.56915 10.203 8.75654C10.1271 8.95958 10.1299 14.0831 10.206 14.4459C10.4024 15.3811 11.2265 16.1939 12.155 16.3681C12.304 16.396 13.2268 16.4189 14.2056 16.4189C16.1394 16.4189 16.1849 16.4131 16.444 16.1327C16.7701 15.78 16.7701 15.2779 16.444 14.9252C16.1853 14.6454 16.1367 14.6391 14.2365 14.639C12.2853 14.639 12.2515 14.6336 12.0235 14.2883L11.9093 14.1156L11.9082 11.517C11.907 8.59768 11.9131 8.6495 11.5341 8.35711C11.314 8.18737 10.9168 8.1379 10.6774 8.25043Z" fill="#1A2B51"/>
</svg>
