<svg width="60" height="57" viewBox="0 0 60 57" fill="none" xmlns="http://www.w3.org/2000/svg">
<path fill-rule="evenodd" clip-rule="evenodd" d="M23.472 0.077284C23.1868 0.193846 22.8634 0.641022 22.8634 0.919037C22.8634 1.0488 22.995 1.4873 23.1559 1.89344C23.5055 2.77652 24.3229 4.74691 24.6277 5.44166L24.8462 5.93941L23.5928 6.41751C22.9035 6.68049 22.1737 6.95475 21.9712 7.027C21.0932 7.33999 20.7984 8.10747 21.3142 8.7371C21.4696 8.92687 24.6057 10.1941 24.9199 10.1941C24.9906 10.1941 25.2275 9.94482 25.4463 9.64021C25.665 9.33561 25.9485 8.97186 26.0763 8.83189L26.3087 8.57747L25.6817 8.36641C25.3367 8.25042 25.055 8.12644 25.0556 8.09099C25.0561 8.05564 25.3883 7.90103 25.7939 7.74757C26.7637 7.38054 26.9389 7.25435 27.0599 6.83597C27.1721 6.44872 27.0932 6.16376 26.4447 4.61358C26.2578 4.16689 26.1167 3.78965 26.131 3.7751C26.1454 3.76065 26.9621 4.28865 27.9459 4.94843C29.9366 6.2836 30.1193 6.3466 30.6555 5.88324C30.8919 5.67902 31.0469 5.37557 31.3324 4.55867C31.5359 3.97586 31.7456 3.49902 31.7982 3.49902C31.8509 3.49902 32.0856 3.76229 32.3199 4.08414C32.8455 4.80625 33.1907 5.0885 33.5476 5.0885C33.6987 5.0885 34.2526 4.87021 34.7785 4.60327C35.6146 4.17903 35.72 4.14579 35.6184 4.33836C35.5545 4.45955 35.2041 5.10054 34.8397 5.76283C33.7844 7.6811 33.8564 8.05294 35.4004 8.65656L36.2288 8.98043L35.4049 9.25816C34.9517 9.41085 34.581 9.57548 34.581 9.62384C34.581 9.701 35.4331 10.9729 35.6317 11.1919C35.7137 11.2823 35.7127 11.2826 38.0581 10.5167C39.8754 9.92334 40.2016 9.70572 40.2016 9.0863C40.2016 8.49 39.8598 8.23992 38.1057 7.55327C37.2412 7.21475 36.5415 6.901 36.5507 6.85601C36.56 6.81112 37.1531 5.71225 37.8687 4.41417C38.5844 3.11609 39.1931 1.91386 39.2216 1.74258C39.2947 1.30244 39.0961 0.889945 38.7256 0.712115C38.1775 0.449127 38.3493 0.384489 35.4591 1.94113C34.6061 2.40063 33.893 2.77652 33.8744 2.77652C33.8559 2.77652 33.4648 2.25401 33.0054 1.61533C32.1108 0.371772 31.8042 0.120633 31.298 0.216677C30.8195 0.307422 30.6242 0.608558 30.1083 2.05037C29.8442 2.78827 29.591 3.42966 29.5455 3.4757C29.4989 3.52281 28.3146 2.78095 26.8245 1.771C24.1596 -0.035136 23.9752 -0.12829 23.472 0.077284ZM15.3719 9.0365C15.1025 9.07734 14.561 9.26702 14.1685 9.45795C12.2303 10.4007 11.2831 12.7434 12.0113 14.7934C12.8803 17.2398 15.5815 18.3852 17.8797 17.2816C19.7755 16.3712 20.7593 14.2824 20.2405 12.2686C19.682 10.1004 17.5753 8.70184 15.3719 9.0365ZM42.5355 9.29573C41.3438 9.73712 40.5858 10.436 40.0414 11.5952C39.2572 13.265 39.6248 15.2129 40.9763 16.5494C41.4977 17.0649 42.5877 17.6027 43.3145 17.703C45.2793 17.974 47.1529 16.8941 47.9182 15.0494C48.1985 14.3736 48.2335 14.1911 48.2297 13.4213C48.2222 11.9037 47.5627 10.6135 46.39 9.82161C45.198 9.01665 43.8027 8.8263 42.5355 9.29573ZM29.008 10.1869C28.5515 10.3009 28.1522 10.5451 27.8551 10.8923C27.7033 11.0699 26.7645 12.4011 25.769 13.8506C24.7735 15.3001 23.8304 16.6263 23.6732 16.7978C23.461 17.0292 22.6446 17.4507 20.5052 18.4334L17.6229 19.7574L17.0757 19.6591C11.8153 18.7136 10.7648 18.5614 10.2467 18.6701C9.75545 18.7733 9.51272 18.959 5.96326 21.9485C3.89384 23.6916 2.1383 25.217 2.062 25.3384C1.83174 25.7047 1.64102 26.3983 0.994465 29.2198C0.654467 30.7033 0.291699 32.2613 0.188147 32.682C0.0846899 33.1028 0 33.6036 0 33.795C0 34.3149 0.415734 35.0756 0.876241 35.3983C1.21976 35.639 1.35637 35.6741 1.95178 35.6741C3.16783 35.6741 3.65263 35.1527 4.05674 33.4103C4.17344 32.9069 4.4056 31.9099 4.57259 31.1946C4.73959 30.4793 4.98023 29.439 5.10741 28.8826C5.23459 28.3263 5.36043 27.8003 5.3872 27.7138C5.44207 27.5363 7.41566 25.8491 7.48568 25.9199C7.52255 25.9572 6.45235 33.7965 5.85809 37.8416C4.74378 45.4266 3.51859 54.5398 3.55755 54.9538C3.61414 55.5554 3.79724 55.9325 4.24774 56.3749C5.05501 57.1677 6.37766 57.206 7.23781 56.4616C7.83492 55.9447 7.98649 55.5461 8.19312 53.9496C8.294 53.1701 8.50892 51.5136 8.67077 50.2685C8.83253 49.0234 9.04602 47.3544 9.14509 46.5597C9.24407 45.7649 9.47947 43.9226 9.66809 42.4655C9.85662 41.0085 10.0932 39.1498 10.1937 38.335C10.2942 37.5202 10.3945 36.8354 10.4165 36.8131C10.5495 36.6786 11.0264 36.9783 11.4945 37.4905C11.792 37.816 13.1898 39.3086 14.6007 40.8073L17.166 43.5321L17.064 44.1307C17.0079 44.46 16.8769 45.3362 16.7728 46.078C16.6687 46.8197 16.3655 48.9222 16.0991 50.7501C15.5611 54.4413 15.5186 55.0463 15.7574 55.6149C16.5756 57.563 19.4157 57.3886 20.0148 55.3534C20.066 55.1793 20.2125 54.3 20.3404 53.3993C20.4682 52.4986 20.7028 50.8729 20.8615 49.7868C21.6028 44.7152 21.8155 43.1276 21.8155 42.6667C21.8155 41.7892 21.7261 41.671 18.3508 38.0921L16.9343 36.5901L17.179 35.1206C17.3136 34.3123 17.5792 32.7624 17.7693 31.6763C17.9593 30.5901 18.1941 29.2246 18.291 28.6418C18.8685 25.1648 19.1782 23.5225 19.2757 23.4207C19.3366 23.3571 20.8381 22.6326 22.6126 21.8108C24.3871 20.9889 25.9362 20.252 26.0551 20.1732C26.234 20.0547 27.8339 17.8212 29.5632 15.2757C29.7702 14.9711 29.9657 14.722 29.9977 14.7224C30.0297 14.7228 30.1631 14.8847 30.2941 15.082C31.3278 16.6403 33.5151 19.7422 33.7586 19.9955C33.9768 20.2223 34.9868 20.7383 37.4386 21.8754L40.818 23.4427L40.8796 23.7785C40.9134 23.9631 41.0293 24.6344 41.1373 25.2702C41.2452 25.906 41.4893 27.3148 41.6799 28.401C41.8704 29.4871 42.1056 30.8526 42.2027 31.4354C42.2998 32.0183 42.5156 33.2754 42.6825 34.2291C43.0322 36.227 43.0897 35.6049 42.157 39.9127C41.3906 43.4522 41.4747 43.0017 41.2036 45.0183C41.0752 45.972 40.8593 47.5543 40.7236 48.5345C40.1121 52.9501 39.9159 54.4866 39.9159 54.8573C39.9157 55.7921 40.8312 56.8257 41.7875 56.9707C42.798 57.124 43.8928 56.5386 44.2409 55.6589C44.4353 55.1673 44.6044 54.0377 45.6312 46.367C45.9133 44.2592 47.262 37.5529 47.4538 37.3034C47.5449 37.185 49.5123 36.8206 49.5972 36.9066C49.6275 36.9372 49.752 37.7561 49.8739 38.7265C49.9958 39.6968 50.2294 41.5311 50.3928 42.8027C50.5563 44.0743 50.7714 45.7649 50.8709 46.5597C50.9702 47.3544 51.184 49.0234 51.3458 50.2685C51.5076 51.5136 51.7225 53.1701 51.8234 53.9496C52.0301 55.5461 52.1816 55.9447 52.7787 56.4616C53.3799 56.9818 54.2074 57.1384 54.952 56.8728C55.8211 56.5627 56.3714 55.8677 56.4593 54.9692C56.4867 54.6886 56.4396 53.9387 56.3544 53.3029C56.1559 51.8201 55.6937 48.2434 55.3898 45.8372C55.2592 44.804 55.0697 43.3084 54.9685 42.5137C54.8672 41.7189 54.6525 40.0283 54.4911 38.7567C54.2304 36.7015 53.0342 29.072 52.6217 26.8321C52.5359 26.3666 52.4875 25.9637 52.5143 25.9367C52.541 25.9096 53.0141 26.2688 53.5657 26.7348C54.4013 27.4407 54.5859 27.6465 54.6723 27.9675C54.7294 28.1794 55.0548 29.5666 55.3956 31.0501C56.1758 34.4471 56.2488 34.6919 56.6061 35.1033C56.9571 35.5076 57.1773 35.6361 57.6826 35.7318C58.548 35.8955 59.4302 35.4412 59.8174 34.6322C60.0877 34.0677 60.0709 33.7593 59.6792 32.0967C59.1737 29.9507 59.0153 29.271 58.6274 27.5821C58.2578 25.9727 58.0945 25.5343 57.7088 25.1145C57.476 24.8612 50.9882 19.3844 50.4292 18.9693C50.2181 18.8126 49.9519 18.7329 49.5242 18.6987C48.9197 18.6501 48.8124 18.6664 43.9548 19.542L42.4207 19.8185L39.4302 18.4339L36.4396 17.0492L34.6621 14.4834C32.0089 10.6534 31.9984 10.64 31.4386 10.3965C31.091 10.2454 30.8051 10.1943 30.4111 10.2131C30.111 10.2275 29.7368 10.2115 29.5796 10.1775C29.4224 10.1435 29.1652 10.1477 29.008 10.1869Z" fill="#00B0F0"/>
</svg>
