<svg width="65" height="65" viewBox="0 0 65 65" fill="none" xmlns="http://www.w3.org/2000/svg">
<path d="M32.5005 65C50.4497 65 65.0005 50.4493 65.0005 32.5C65.0005 14.5507 50.4497 0 32.5005 0C14.5512 0 0.000488281 14.5507 0.000488281 32.5C0.000488281 50.4493 14.5512 65 32.5005 65Z" fill="#D2A4CE"/>
<g style="mix-blend-mode:overlay" opacity="0.07">
<path d="M2.92361 35.4616C2.92033 29.2096 4.72039 23.0894 8.108 17.8347C11.4956 12.58 16.3269 8.4139 22.0227 5.83598C27.7185 3.25806 34.037 2.37771 40.2205 3.30049C46.404 4.22327 52.1902 6.91 56.8852 11.0386C53.9418 7.7322 50.354 5.06199 46.3419 3.19169C42.3297 1.32139 37.9778 0.290437 33.553 0.16205C29.1282 0.0336619 24.7238 0.81055 20.6099 2.44507C16.4961 4.07959 12.7595 6.53728 9.62938 9.66741C6.49926 12.7975 4.04158 16.5341 2.40706 20.6479C0.772537 24.7618 -0.0043632 29.1662 0.124025 33.591C0.252412 38.0158 1.28337 42.3677 3.15367 46.3799C5.02397 50.392 7.69419 53.9798 11.0005 56.9232C5.7777 50.9957 2.90472 43.3618 2.92361 35.4616Z" fill="black"/>
</g>
<mask id="mask0_581_711" style="mask-type:alpha" maskUnits="userSpaceOnUse" x="0" y="0" width="66" height="65">
<path d="M32.5005 65C50.4497 65 65.0005 50.4493 65.0005 32.5C65.0005 14.5507 50.4497 0 32.5005 0C14.5512 0 0.000488281 14.5507 0.000488281 32.5C0.000488281 50.4493 14.5512 65 32.5005 65Z" fill="#D2A4CE"/>
</mask>
<g mask="url(#mask0_581_711)">
<path d="M19.6546 29.8077C19.6546 29.8077 21.0777 38.4615 14.77 45.0769C37.1546 54.0769 48.0393 45.9231 48.0393 45.9231C48.0393 45.9231 44.847 37.3462 45.0777 29.8077H19.6546Z" fill="#FFCC65"/>
<g style="mix-blend-mode:overlay" opacity="0.24">
<path d="M19.6543 29.8077C19.6543 29.8077 25.1543 37.8462 26.0389 44.1538C30.2312 47.7308 38.0774 44.5385 38.0774 44.5385C38.0774 44.5385 38.1928 40.8077 45.0774 29.8077H19.6543Z" fill="black"/>
</g>
<path d="M23.116 24.9229C23.5776 27.3075 22.7699 29.6536 21.3084 30.1152C19.8468 30.5767 18.2699 28.9998 17.7699 26.5767C17.2699 24.1536 18.0776 21.8075 19.5391 21.346C21.0007 20.8844 22.616 22.4998 23.116 24.9229Z" fill="white"/>
<path d="M41.6161 24.9229C41.1161 27.3075 41.9238 29.6536 43.3853 30.1152C44.8468 30.5767 46.4622 28.9998 46.9238 26.5767C47.3853 24.1536 46.6161 21.8075 45.1545 21.346C43.693 20.8844 42.1161 22.4998 41.6161 24.9229Z" fill="#F4F1EF"/>
<g style="mix-blend-mode:overlay" opacity="0.5">
<path d="M53.6544 55.1923C53.6213 54.9956 53.5698 54.8024 53.5006 54.6153C53.4105 54.2384 53.2681 53.8759 53.0775 53.5384C52.6751 52.7379 52.1068 52.0324 51.4105 51.4687C50.7142 50.9049 49.9057 50.496 49.039 50.2692L42.8852 48.6153C42.6442 48.5732 42.4109 48.4955 42.1929 48.3846H42.1544C46.1159 47.3846 48.039 45.923 48.039 45.923C48.039 45.923 47.2698 43.8461 46.5006 40.8461C48.4621 43.9999 50.4621 45.0769 50.4621 45.0769C46.6929 40.4999 45.0775 29.8076 45.0775 29.8076C45.9236 29.2307 46.6544 28.0769 46.9236 26.5769C47.3852 24.3076 46.7313 22.1153 45.4236 21.4615C45.4236 21.4615 46.5775 15.6922 43.5006 11.423C41.0006 7.99994 37.2313 5.46149 33.6929 5.38456V66.1923H52.0775L53.6544 57.6153C53.7326 57.2098 53.7712 56.7976 53.7698 56.3846C53.7695 55.9844 53.7308 55.5851 53.6544 55.1923Z" fill="#51504F"/>
</g>
<path d="M42.8852 48.6152C41.3816 48.2121 40.0439 47.3442 39.063 46.1354C38.0822 44.9266 37.5084 43.4388 37.4236 41.8844L36.8467 31.3459H27.0006L26.3852 42.346C26.2991 43.9172 25.7107 45.4193 24.7067 46.6311C23.7027 47.8428 22.3362 48.7001 20.8083 49.0767L16.0006 50.3075C14.423 50.7096 13.0569 51.6959 12.1787 53.0667C11.3005 54.4376 10.9756 56.0908 11.2698 57.6921L12.8852 66.1921H52.0775L53.6544 57.6152C53.9519 56.0345 53.6418 54.3997 52.7861 53.0378C51.9305 51.6758 50.5922 50.687 49.039 50.269L42.8852 48.6152Z" fill="#F4F1EF"/>
<path d="M45.3081 22.3077C45.3081 31.3077 38.3466 42.0385 32.462 42.0385C26.5774 42.0385 19.6543 31.3077 19.6543 22.3077C19.6543 13.3077 25.3851 7.9231 32.462 7.9231C39.5389 7.9231 45.3081 13.3077 45.3081 22.3077Z" fill="white"/>
<path d="M28.4236 7.4614C26.0774 7.7691 22.6543 7.92294 20.4236 12.6152C18.1928 17.3076 19.1543 21.5383 19.1543 21.5383C21.7697 21.346 22.1159 25.7306 22.1159 25.7306C22.1159 25.7306 23.4236 24.2691 23.462 22.6922C25.3851 22.4999 33.3851 20.6152 35.7313 15.3076C41.462 15.346 42.039 23.346 42.0005 24.346L42.7697 25.7306C42.7697 25.7306 43.5005 21.4614 45.4236 21.4614C45.4236 21.4614 46.5774 15.6922 43.5005 11.4229C39.6928 6.23063 32.962 3.03833 28.4236 7.4614Z" fill="#FFCC65"/>
<path d="M49.039 50.269L42.8852 48.6152C42.3671 48.4737 41.8646 48.2805 41.3852 48.0383L41.6544 47.6921L38.0775 44.5383L32.2698 50.3844L26.039 44.1537L22.6929 47.6537L23.039 48.1152C22.3511 48.5519 21.5981 48.8764 20.8083 49.0767L16.0006 50.3075C14.423 50.7097 13.0569 51.6959 12.1787 53.0668C11.3005 54.4376 10.9756 56.0909 11.2698 57.6921L12.8852 66.1921H52.0775L53.6544 57.6152C53.9519 56.0345 53.6418 54.3998 52.7861 53.0378C51.9305 51.6758 50.5922 50.687 49.039 50.269Z" fill="white"/>
<path opacity="0.1" d="M25.0005 51.1923L29.8082 56.923L32.3082 50.3461L30.5774 59.6923L25.0005 51.1923Z" fill="black"/>
<path opacity="0.1" d="M39.6158 51.1922L34.8081 56.923L32.3081 50.3461L34.0389 59.6922L39.6158 51.1922Z" fill="black"/>
<path d="M23.039 48.1154C22.3511 48.552 21.5981 48.8766 20.8083 49.0769L16.0006 50.3077C14.423 50.7098 13.0569 51.6961 12.1787 53.067C11.3005 54.4378 10.9756 56.0911 11.2698 57.6923L12.8852 66.1923H30.9621L23.039 48.1154Z" fill="#D6BBB8"/>
<path d="M49.039 50.2692L42.8852 48.6154C42.3671 48.4739 41.8645 48.2806 41.3852 48.0384L33.6929 66.1923H52.0775L53.6544 57.6153C53.9519 56.0346 53.6418 54.3999 52.7861 53.0379C51.9304 51.676 50.5922 50.6872 49.039 50.2692Z" fill="#D6BBB8"/>
<g style="mix-blend-mode:overlay" opacity="0.24">
<path d="M18.0776 52.1922L22.8853 62.4614L25.5007 61.9614L23.8853 64.9999L24.3469 66.1922H25.3853L25.0007 64.9999L26.6161 61.1152L23.2699 61.6922L18.0776 52.1922Z" fill="black"/>
</g>
<g style="mix-blend-mode:overlay" opacity="0.24">
<path d="M46.2313 52.1922L41.4621 62.4614L38.8083 61.9614L40.4236 64.9999L39.9621 66.1922H38.9621L39.3467 64.9999L37.6929 61.1152L41.0775 61.6922L46.2313 52.1922Z" fill="black"/>
</g>
<g style="mix-blend-mode:overlay" opacity="0.24">
<path d="M29.1541 24.4231C34.5003 20.0769 35.5772 15.6154 35.5772 15.6154C35.5772 15.6154 23.1541 27 17.7695 26.5769C17.7695 26.5769 24.6541 28.0385 29.1541 24.4231Z" fill="black"/>
</g>
<path d="M45.0771 29.8077C45.0771 29.8077 46.6925 40.5 50.4617 45.0769C50.4617 45.0769 45.654 42.5 43.731 33.6539L45.0771 29.8077Z" fill="#FFCC65"/>
<path d="M35.7313 15.3075C35.7313 15.3075 28.9236 28.4614 16.6929 26.5768C16.6929 26.5768 23.6159 23.1537 23.2313 19.3075L35.7313 15.3075Z" fill="#FFCC65"/>
<path d="M34.5005 14.8075C34.5005 14.8075 39.0389 17.846 40.1928 21.8075C40.1928 21.8075 39.7313 15.9998 36.1159 13.846L34.5005 14.8075Z" fill="#FFCC65"/>
</g>
</svg>
