<svg width="24" height="24" viewBox="0 0 24 24" fill="none" xmlns="http://www.w3.org/2000/svg">
<path fill-rule="evenodd" clip-rule="evenodd" d="M10.568 0.667607C9.87061 1.03483 8.8208 1.58816 8.235 1.89721L7.16995 2.45916L9.58495 3.66687L12 4.87458L14.415 3.66687L16.83 2.45916L15.765 1.89721C12.2807 0.0588293 12.1639 0 12 0C11.8795 0 11.499 0.177378 10.568 0.667607ZM7.07812 6.44169C7.07812 8.03125 7.09509 8.89771 7.128 8.98471C7.21266 9.20877 7.38352 9.34321 7.92028 9.60806C8.20477 9.74846 8.4375 9.88022 8.4375 9.9009C8.4375 9.92157 8.00344 10.7285 7.47295 11.6941L6.50841 13.4496L5.80945 13.0996C5.38139 12.8852 5.05308 12.7495 4.96228 12.7495C4.82934 12.7495 3.23133 13.539 0.669328 14.8704L0.0964688 15.1682L2.52389 16.3774L4.95131 17.5867L7.37395 16.3752L9.79655 15.1637L8.87095 14.6854C8.36184 14.4224 7.90556 14.178 7.857 14.1424C7.77342 14.0811 7.82152 13.9812 8.74763 12.2918L9.72656 10.506L10.1719 10.7435C10.4168 10.8741 10.7701 11.064 10.957 11.1654L11.2969 11.3498V8.73298V6.11614L9.2108 5.07338C8.06344 4.49985 7.11422 4.03063 7.10142 4.03063C7.08862 4.03063 7.07812 5.11562 7.07812 6.44169ZM14.7773 5.07601L12.7031 6.11609V8.73298V11.3498L13.043 11.1654C13.2299 11.064 13.5832 10.8741 13.8281 10.7435L14.2734 10.506L15.2524 12.2918C16.1785 13.9812 16.2266 14.0811 16.143 14.1424C16.0944 14.178 15.6382 14.4224 15.129 14.6854L14.2035 15.1637L16.626 16.3752L19.0487 17.5867L21.4761 16.3774L23.9035 15.1682L23.3307 14.8704C20.7687 13.539 19.1707 12.7495 19.0377 12.7495C18.9469 12.7495 18.6186 12.8852 18.1905 13.0996L17.4916 13.4496L16.527 11.6941C15.9966 10.7285 15.5625 9.92157 15.5625 9.9009C15.5625 9.88022 15.7952 9.74846 16.0797 9.60806C16.6165 9.34321 16.7873 9.20877 16.872 8.98471C16.9297 8.83217 16.9439 4.02899 16.8867 4.03325C16.8674 4.0347 15.9181 4.50393 14.7773 5.07601ZM0 19.1496C0 21.7404 0.00074999 21.7493 0.240047 21.9695C0.301406 22.026 1.2322 22.5047 2.30859 23.0334L4.26562 23.9946V21.4059V18.8173L2.16797 17.7741C1.01428 17.2003 0.0545156 16.7316 0.0351562 16.7325C0.0157969 16.7333 0 17.821 0 19.1496ZM7.74609 17.7794L5.67188 18.8195V21.4097V24L7.62891 23.0205C8.7053 22.4818 9.63202 21.9913 9.68827 21.9305C9.86667 21.738 9.89062 21.5886 9.89062 20.6685V19.7809H12H14.1094V20.6685C14.1094 21.5886 14.1333 21.738 14.3117 21.9305C14.368 21.9913 15.2948 22.4818 16.3711 23.0205L18.3281 24V21.4097V18.8195L16.242 17.7768C15.0947 17.2032 14.1455 16.734 14.1327 16.734C14.1199 16.734 14.1094 17.1031 14.1094 17.5543V18.3747H12H9.89062V17.5543C9.89062 17.1031 9.87478 16.7352 9.85547 16.7366C9.83616 16.7381 8.88694 17.2073 7.74609 17.7794ZM21.8245 17.7758L19.7344 18.8175V21.406V23.9946L21.6914 23.0334C22.7677 22.5047 23.6986 22.026 23.76 21.9695C23.9993 21.7493 24 21.7404 24 19.1496C24 17.7285 23.9824 16.734 23.9573 16.734C23.9339 16.734 22.9741 17.2028 21.8245 17.7758Z" fill="#5E00F6"/>
</svg>
