<svg width="19" height="19" viewBox="0 0 19 19" fill="none" xmlns="http://www.w3.org/2000/svg">
<path fill-rule="evenodd" clip-rule="evenodd" d="M4.3059 0.0952307C4.18431 0.15695 4.07883 0.24826 4.01045 0.350974L3.90411 0.510672L3.89251 2.12091C3.88463 3.21996 3.894 3.77646 3.92211 3.87387C3.97018 4.04066 4.14858 4.26044 4.3011 4.34081C4.35996 4.37184 4.5152 4.40741 4.646 4.41988C5.08378 4.46152 5.40396 4.31705 5.56834 4.00364C5.65003 3.84792 5.65189 3.81537 5.66293 2.33555C5.67542 0.66446 5.66181 0.514688 5.4765 0.285618C5.31018 0.0800376 5.11639 0.00104119 4.77588 1.82192e-05C4.54873 -0.000663764 4.45886 0.0175604 4.3059 0.0952307ZM13.9432 0.0505229C13.7946 0.119555 13.6305 0.290922 13.5569 0.45384C13.5058 0.566974 13.4954 0.801879 13.4858 2.05393C13.4715 3.90668 13.4819 3.97371 13.8282 4.25938C13.9561 4.36486 13.9972 4.37646 14.2874 4.38885C14.6521 4.40446 14.8378 4.35948 15.0065 4.21479C15.2603 3.9972 15.2615 3.98792 15.2624 2.19525C15.2632 0.597777 15.2625 0.582091 15.1796 0.41671C15.1335 0.324945 15.0316 0.197718 14.9531 0.13399C14.8175 0.0239634 14.7913 0.0176361 14.4326 0.00842935C14.174 0.00179896 14.0196 0.0150598 13.9432 0.0505229ZM0.871955 1.60419C0.539808 1.69547 0.233243 1.96686 0.0794579 2.30573L0 2.48085V10.2858V18.0907L0.0985695 18.3049C0.214949 18.5578 0.437967 18.7906 0.680691 18.9124L0.855186 19H9.5H18.1448L18.3193 18.9124C18.562 18.7906 18.7851 18.5578 18.9014 18.3049L19 18.0907V10.2858V2.48085L18.897 2.26708C18.7768 2.0177 18.5277 1.76935 18.2815 1.65341C18.1175 1.5762 18.0436 1.57085 16.9829 1.55956L15.8581 1.54759V2.81259C15.8581 3.85728 15.848 4.10768 15.8003 4.2504C15.6635 4.65956 15.2673 4.93095 14.6979 5.00555C13.8978 5.11035 13.3093 4.82994 13.0172 4.20475L12.9022 3.95848L12.8901 2.75553L12.878 1.55259H9.57161H6.26517L6.26457 2.66081C6.26394 3.86179 6.24044 4.06604 6.06847 4.36505C5.93956 4.5892 5.7068 4.79789 5.45162 4.9181C5.17555 5.04817 4.60272 5.07989 4.27634 4.9832C3.88957 4.86862 3.58788 4.61076 3.40992 4.24264L3.3092 4.03425L3.29845 2.79342L3.28771 1.55259L2.1644 1.55513C1.40113 1.55687 0.986885 1.5726 0.871955 1.60419ZM17.7916 12.1423V17.8065H9.5H1.20841V12.1423V6.47803H9.5H17.7916V12.1423ZM10.0082 8.05671C9.99452 8.07057 9.98337 8.55308 9.98337 9.12893C9.98337 9.89272 9.99545 10.1882 10.028 10.2214C10.0918 10.2864 12.3661 10.2864 12.4299 10.2214C12.4936 10.1565 12.4936 8.14173 12.4299 8.0769C12.3971 8.04344 12.0744 8.03143 11.2091 8.03143C10.5622 8.03143 10.0218 8.0428 10.0082 8.05671ZM13.5776 8.05671C13.564 8.07057 13.5528 8.55308 13.5528 9.12893C13.5528 9.89272 13.5649 10.1882 13.5975 10.2214C13.6613 10.2864 15.9356 10.2864 15.9994 10.2214C16.063 10.1565 16.063 8.14173 15.9994 8.0769C15.9666 8.04344 15.6438 8.03143 14.7786 8.03143C14.1317 8.03143 13.5912 8.0428 13.5776 8.05671ZM2.88555 11.2281C2.85561 11.2649 2.84613 11.5887 2.85312 12.3363L2.86301 13.3926L4.04838 13.4026C4.89211 13.4097 5.24846 13.4002 5.28468 13.3695C5.3541 13.3108 5.36004 11.292 5.291 11.2216C5.22165 11.1509 2.9434 11.1571 2.88555 11.2281ZM6.45502 11.2281C6.42509 11.2649 6.4156 11.5887 6.42259 12.3363L6.43249 13.3926L7.61785 13.4026C8.46158 13.4097 8.81793 13.4002 8.85415 13.3695C8.92357 13.3108 8.92952 11.292 8.86047 11.2216C8.79113 11.1509 6.51287 11.1571 6.45502 11.2281ZM10.0245 11.2281C9.99456 11.2649 9.98508 11.5887 9.99207 12.3363L10.002 13.3926L11.1873 13.4026C12.0311 13.4097 12.3874 13.4002 12.4236 13.3695C12.493 13.3108 12.499 11.292 12.4299 11.2216C12.3606 11.1509 10.0823 11.1571 10.0245 11.2281ZM13.594 11.2281C13.564 11.2649 13.5545 11.5887 13.5615 12.3363L13.5714 13.3926L14.7568 13.4026C15.6005 13.4097 15.9569 13.4002 15.9931 13.3695C16.0625 13.3108 16.0685 11.292 15.9994 11.2216C15.9301 11.1509 13.6518 11.1571 13.594 11.2281ZM2.90949 14.3618C2.85 14.3971 2.84442 14.4904 2.84442 15.4518C2.84442 16.219 2.85647 16.5155 2.88904 16.5486C2.9218 16.582 3.23714 16.5941 4.07622 16.5941C5.0653 16.5941 5.2266 16.5861 5.2772 16.5346C5.3274 16.4834 5.33562 16.332 5.33562 15.4569C5.33562 14.4478 5.33487 14.4383 5.25296 14.3798C5.18261 14.3296 5.00723 14.321 4.07243 14.322C3.39617 14.3227 2.94957 14.338 2.90949 14.3618ZM6.47896 14.3618C6.41947 14.3971 6.41389 14.4904 6.41389 15.4518C6.41389 16.219 6.42594 16.5155 6.45851 16.5486C6.49127 16.582 6.80661 16.5941 7.6457 16.5941C8.63478 16.5941 8.79607 16.5861 8.84667 16.5346C8.89687 16.4834 8.90509 16.332 8.90509 15.4569C8.90509 14.4478 8.90434 14.4383 8.82243 14.3798C8.75208 14.3296 8.5767 14.321 7.6419 14.322C6.96564 14.3227 6.51904 14.338 6.47896 14.3618ZM10.0484 14.3618C9.98891 14.3971 9.98337 14.4907 9.98337 15.458C9.98337 16.4649 9.98682 16.5175 10.0553 16.5549C10.1003 16.5794 10.5448 16.5941 11.2425 16.5941C12.2067 16.5941 12.3656 16.586 12.4161 16.5346C12.4663 16.4834 12.4746 16.332 12.4746 15.4569C12.4746 14.4478 12.4738 14.4383 12.3919 14.3798C12.3216 14.3296 12.1462 14.321 11.2114 14.322C10.5351 14.3227 10.0885 14.338 10.0484 14.3618ZM13.6179 14.3618C13.5584 14.3971 13.5528 14.4907 13.5528 15.458C13.5528 16.4649 13.5563 16.5175 13.6247 16.5549C13.6697 16.5794 14.1142 16.5941 14.8119 16.5941C15.7762 16.5941 15.9351 16.586 15.9856 16.5346C16.0358 16.4834 16.044 16.332 16.044 15.4569C16.044 14.4478 16.0433 14.4383 15.9614 14.3798C15.891 14.3296 15.7156 14.321 14.7808 14.322C14.1046 14.3227 13.658 14.338 13.6179 14.3618Z" fill="#BABABA"/>
</svg>
