<svg width="31" height="41" viewBox="0 0 31 41" fill="none" xmlns="http://www.w3.org/2000/svg">
<path d="M16.6071 31.9411V34.8751H14.3929V31.9411C13.1197 31.4982 12.1786 30.2803 12.1786 28.7857C12.1786 26.9589 13.6732 25.4643 15.5 25.4643C17.3268 25.4643 18.8214 26.9589 18.8214 28.7857C18.8214 30.2251 17.8803 31.4429 16.6071 31.9411ZM7.1965 11.6251C7.1965 7.03046 10.9054 3.32143 15.5 3.32143C20.0946 3.32143 23.8035 7.03046 23.8035 11.6251V17.7697L15.5 17.1608L7.1965 17.7697V11.6251ZM27.1251 17.9911V11.6251C27.1251 5.20364 21.9214 0 15.5 0C9.07857 0 3.87493 5.20364 3.87493 11.6251V17.9911L0 18.2679V39.3036L15.5 40.4108L31 39.3036V18.2679L27.1251 17.9911Z" fill="#7F7F7F"/>
</svg>
