<svg width="12" height="9" viewBox="0 0 12 9" fill="none" xmlns="http://www.w3.org/2000/svg">
<path fill-rule="evenodd" clip-rule="evenodd" d="M10.796 0.03117C10.5491 0.112845 10.5415 0.12038 7.40618 3.38758L4.3213 6.6023L2.92543 5.14848C1.62884 3.79806 1.51832 3.68918 1.37182 3.61766C0.999426 3.43591 0.603411 3.49333 0.307966 3.77193C0.0735617 3.99295 -0.0423033 4.34463 0.0140926 4.66389C0.0718257 4.99071 0.0355577 4.94813 1.98194 6.97343C3.68457 8.74509 3.78997 8.84994 3.9341 8.91549C4.11661 8.99849 4.36922 9.02379 4.5382 8.976C4.82377 8.89521 4.70145 9.01613 8.35785 5.20018C12.1457 1.24699 11.9294 1.4891 11.9869 1.13862C12.0666 0.653443 11.7748 0.180988 11.3032 0.0316837C11.1704 -0.0103525 10.9224 -0.0105971 10.796 0.03117Z" fill="#00B050"/>
</svg>
