<svg width="21" height="21" viewBox="0 0 21 21" fill="none" xmlns="http://www.w3.org/2000/svg">
<path d="M21 19.878C20.9783 19.9341 20.9547 19.9896 20.9362 20.0463C20.8689 20.2625 20.7485 20.4585 20.586 20.6163C20.4235 20.7741 20.2242 20.8887 20.006 20.9498C19.7879 21.0108 19.5579 21.0163 19.3371 20.9658C19.1163 20.9152 18.9116 20.8103 18.7418 20.6604C18.678 20.6068 18.6218 20.5482 18.5644 20.4901C15.9413 17.8714 13.3182 15.2494 10.6951 12.6243C10.6362 12.5575 10.5808 12.4877 10.5292 12.4151C10.4412 12.4993 10.3825 12.5529 10.3264 12.6064C7.68328 15.2477 5.04103 17.8899 2.39963 20.5329C1.96457 20.9684 1.45998 21.1106 0.885855 20.9053C-0.000210555 20.5864 -0.281532 19.4794 0.328316 18.7626C0.392108 18.69 0.459089 18.6236 0.526708 18.556C3.14982 15.9351 5.77357 13.3149 8.39796 10.6953C8.47354 10.6294 8.55277 10.5679 8.63526 10.511C8.54781 10.4508 8.4637 10.3858 8.38329 10.3165C5.74316 7.67817 3.10474 5.04112 0.46802 2.40535C-0.18712 1.74981 -0.153949 0.794557 0.564345 0.290147C0.76784 0.146667 1.03513 0.0943776 1.27307 0H1.43702C1.9365 0.0605802 2.28162 0.365395 2.62163 0.705919C5.18733 3.28132 7.75749 5.85332 10.3321 8.42193C10.3838 8.47358 10.4387 8.52332 10.5401 8.61961C10.5821 8.54521 10.6308 8.47478 10.6855 8.40917C13.25 5.8427 15.8146 3.27601 18.3794 0.709107C18.7188 0.367945 19.0633 0.0624938 19.5634 0.00255129H19.7274C19.9749 0.103943 20.2377 0.176639 20.4661 0.313104C20.771 0.496758 20.8947 0.823254 20.9987 1.15039V1.60123C20.8979 2.01637 20.6306 2.31672 20.3366 2.60941C17.753 5.18397 15.1724 7.76107 12.5948 10.3407C12.5219 10.3972 12.4432 10.4457 12.3601 10.4855C12.4876 10.592 12.547 10.6372 12.5999 10.6902C15.1865 13.2698 17.7719 15.8505 20.3563 18.4323C20.6466 18.7212 20.9043 19.0196 21 19.429V19.878Z" fill="#FF0000"/>
</svg>
