<svg width="12" height="12" viewBox="0 0 12 12" fill="none" xmlns="http://www.w3.org/2000/svg">
<path fill-rule="evenodd" clip-rule="evenodd" d="M0.924349 0.029515C0.526477 0.127312 0.182991 0.475352 0.0912913 0.873584C0.0254365 1.15964 0.0748276 1.49239 0.219647 1.7381C0.251027 1.79133 1.20069 2.7687 2.33002 3.91005L4.38336 5.98522L2.30064 8.09659C0.0582701 10.3698 0.120677 10.2999 0.0341374 10.6359C-0.0355635 10.9066 0.00186675 11.1895 0.142793 11.457C0.364678 11.878 0.88333 12.0823 1.43191 11.9646C1.75879 11.8946 1.67366 11.9719 3.90327 9.7195C5.03846 8.57267 5.9776 7.63436 5.99024 7.63436C6.00286 7.63436 6.94206 8.57243 8.07733 9.71898C9.99145 11.6521 10.1525 11.8088 10.2939 11.8755C10.7788 12.1042 11.366 12.011 11.7016 11.6521C12.017 11.3147 12.0901 10.7988 11.8839 10.3637C11.8157 10.2197 11.6521 10.0489 9.70936 8.09282L7.60858 5.97768L9.65205 3.90628C10.9249 2.61602 11.718 1.79462 11.7551 1.72814C11.8589 1.54208 11.8951 1.36852 11.8832 1.1141C11.8705 0.841206 11.8141 0.675429 11.6664 0.476752C11.3781 0.0888619 10.8548 -0.0743065 10.3994 0.0816748C10.1399 0.170553 10.0213 0.281633 7.98509 2.34236L5.99289 4.35859L3.93945 2.29025C1.73487 0.0696727 1.7886 0.118678 1.46303 0.0329069C1.30128 -0.00969381 1.08931 -0.0110458 0.924349 0.029515Z" fill="#322E2F"/>
</svg>
