<svg width="15" height="15" viewBox="0 0 15 15" fill="none" xmlns="http://www.w3.org/2000/svg">
<path fill-rule="evenodd" clip-rule="evenodd" d="M1.15544 0.0368937C0.658096 0.15914 0.228738 0.59419 0.114114 1.09198C0.0317957 1.44956 0.0935345 1.86548 0.274559 2.17262C0.313783 2.23916 1.50086 3.46088 2.91253 4.88756L5.4792 7.48153L2.8758 10.1207C0.0728376 12.9623 0.150847 12.8749 0.0426718 13.2949C-0.0444544 13.6333 0.00233344 13.9869 0.178491 14.3212C0.455847 14.8475 1.10416 15.1028 1.78989 14.9558C2.19849 14.8682 2.09207 14.9649 4.87908 12.1494C6.29808 10.7158 7.472 9.54296 7.4878 9.54296C7.50357 9.54296 8.67757 10.7155 10.0967 12.1487C12.4893 14.5651 12.6907 14.761 12.8674 14.8444C13.4735 15.1302 14.2074 15.0137 14.627 14.5651C15.0213 14.1434 15.1126 13.4985 14.8549 12.9546C14.7696 12.7746 14.5652 12.5611 12.1367 10.116L9.51073 7.4721L12.0651 4.88285C13.6561 3.27002 14.6474 2.24328 14.6938 2.16017C14.8236 1.9276 14.8689 1.71065 14.854 1.39263C14.8381 1.05151 14.7676 0.844286 14.583 0.59594C14.2227 0.111077 13.5685 -0.0928832 12.9993 0.102094C12.6749 0.213191 12.5266 0.352041 9.98136 2.92795L7.49111 5.44824L4.92432 2.86281C2.16859 0.0870909 2.23575 0.148347 1.82879 0.0411337C1.6266 -0.0121173 1.36164 -0.0138073 1.15544 0.0368937Z" fill="#322E2F"/>
</svg>
