<svg width="20" height="20" viewBox="0 0 20 20" fill="none" xmlns="http://www.w3.org/2000/svg">
<path fill-rule="evenodd" clip-rule="evenodd" d="M4.70489 0.101902C3.92689 0.367164 3.3335 1.02073 3.14513 1.81982C3.1083 1.97602 3.07803 2.32129 3.07767 2.58954L3.07699 3.07599L2.59057 3.07667C2.02302 3.07743 1.64818 3.15509 1.25583 3.35315C0.919362 3.52302 0.436968 3.99372 0.261178 4.32379C-0.012756 4.83797 9.45449e-05 4.4814 9.45449e-05 11.5619C9.45449e-05 17.3573 0.00769634 18.0635 0.0722659 18.2834C0.308237 19.0868 0.913118 19.6917 1.71646 19.9277C1.93637 19.9923 2.64251 19.9999 8.43762 19.9999C15.5177 19.9999 15.1611 20.0128 15.6753 19.7388C16.0053 19.563 16.476 19.0806 16.6459 18.7441C16.8439 18.3517 16.9216 17.9769 16.9223 17.4093L16.923 16.9228L17.4094 16.9221C17.977 16.9214 18.3518 16.8437 18.7442 16.6457C19.0806 16.4758 19.563 16.0051 19.7388 15.675C20.0128 15.1608 19.9999 15.5174 19.9999 8.43693C19.9999 2.64149 19.9923 1.9353 19.9277 1.71538C19.6929 0.916015 19.0829 0.305894 18.2835 0.0710859C18.0635 0.00646734 17.356 -0.000953854 11.5189 8.6922e-05L5.00005 0.00126332L4.70489 0.101902ZM18.0217 1.50944C18.1992 1.58555 18.4388 1.83145 18.5039 2.00421C18.537 2.09187 18.5517 4.11016 18.5512 8.47512L18.5505 14.8187L18.449 14.9978C18.3932 15.0963 18.2596 15.2387 18.152 15.3143C17.9668 15.4446 17.9296 15.4526 17.4409 15.4681L16.9252 15.4845L16.9128 10.2192L16.9004 4.95391L16.8018 4.69589C16.4821 3.85951 15.8078 3.27057 15.0029 3.12468C14.8217 3.09182 13.0758 3.07599 9.62969 3.07599H4.52494L4.52521 2.65741C4.52535 2.42718 4.54648 2.16309 4.57218 2.07055C4.63118 1.8581 4.80521 1.64954 5.01683 1.53772C5.17638 1.45342 5.36127 1.45088 11.5286 1.44894C16.83 1.44726 17.9002 1.45726 18.0217 1.50944ZM14.9141 4.61032C15.0162 4.6567 15.1539 4.75299 15.2201 4.82426C15.4927 5.11812 15.4786 4.72525 15.4649 11.6359L15.4524 17.9558L15.3148 18.1517C15.2391 18.2594 15.0966 18.3933 14.9981 18.4492L14.819 18.5509L8.413 18.5401L2.007 18.5292L1.84786 18.4202C1.76035 18.3602 1.63967 18.2395 1.57972 18.152L1.47067 17.9929L1.4589 11.597C1.44746 5.3747 1.44949 5.19641 1.53365 5.03219C1.6408 4.82322 1.78551 4.68539 1.99134 4.59611C2.12998 4.53597 2.92201 4.52746 8.43893 4.52678C14.4792 4.52606 14.7358 4.52936 14.9141 4.61032Z" fill="#1A2B51"/>
</svg>
