<svg width="52" height="52" viewBox="0 0 52 52" fill="none" xmlns="http://www.w3.org/2000/svg">
<g filter="url(#filter0_d_591_2195)">
<rect x="4" y="4" width="44" height="44" rx="8" fill="white"/>
</g>
<path fill-rule="evenodd" clip-rule="evenodd" d="M6 12.6668C6 8.98481 8.98481 6 12.6668 6H39.3332C43.0151 6 46 8.98481 46 12.6668V39.3332C46 43.0151 43.0151 46 39.3332 46H12.6668C8.98481 46 6 43.0151 6 39.3332V12.6668Z" fill="#FF99CC"/>
<path d="M40.3055 16.4783C39.7452 14.2377 38.3034 12.3186 36.3071 11.1569C32.282 8.83043 27.133 10.2074 24.8064 14.2325C24.8032 14.2381 24.8 14.2437 24.7968 14.2492V14.2836L11.9423 36.4237C11.4496 37.2729 11.3137 38.2831 11.5643 39.2326C11.987 40.8496 13.4492 41.976 15.1205 41.9726C16.4475 41.9702 17.673 41.2619 18.3373 40.1129L30.552 19.0251L30.7237 18.6987L31.1747 17.9171C31.3622 17.5938 31.7117 17.3993 32.0852 17.4103C32.266 17.4111 32.4435 17.4584 32.6006 17.5477C32.7198 17.6178 32.8235 17.7113 32.9055 17.8226L32.9313 17.8569C33.1554 18.1848 33.1721 18.612 32.9743 18.9564C31.9519 20.7224 32.5547 22.9827 34.3207 24.0051C36.0867 25.0274 38.3471 24.4246 39.3692 22.6586C40.5105 20.8121 40.8486 18.5799 40.3055 16.4783ZM19.0889 36.2348L12.8957 37.3945C12.939 37.2769 12.9921 37.1634 13.0546 37.0551L14.5578 34.4781L20.794 33.3013L19.0889 36.2348ZM23.4224 28.7316L17.2035 29.9084L18.9214 26.9621L25.1404 25.7853L23.4224 28.7316ZM29.4353 18.368L27.8634 21.0781L21.6358 22.2549L23.3537 19.3086L29.5899 18.1318L29.4353 18.368ZM32.0809 16.1218C31.4462 16.1191 30.8386 16.3787 30.4016 16.8391C30.131 14.9063 29.4997 13.7811 28.8984 13.1326C28.679 12.8913 28.4259 12.683 28.1468 12.5141C28.9622 11.9724 29.8803 11.604 30.844 11.4318C31.9263 12.6129 32.6264 14.2363 32.9399 16.285C32.6669 16.1752 32.3752 16.1197 32.0809 16.1218ZM33.8246 21.3186C33.7223 20.8569 33.7613 20.375 33.9363 19.9357C33.9781 19.8211 34.0299 19.7105 34.0909 19.605C34.3511 19.1513 34.451 18.6233 34.3744 18.106C34.4431 18.0674 34.5118 18.0287 34.5762 17.9858C36.6594 16.7403 37.6988 15.6236 38.2225 14.8033C38.5981 15.4207 38.8791 16.0911 39.0557 16.7918C39.128 17.0744 39.1828 17.3613 39.2191 17.6508C37.64 19.168 35.8162 20.408 33.8246 21.3186Z" fill="white"/>
<defs>
<filter id="filter0_d_591_2195" x="0" y="0" width="52" height="52" filterUnits="userSpaceOnUse" color-interpolation-filters="sRGB">
<feFlood flood-opacity="0" result="BackgroundImageFix"/>
<feColorMatrix in="SourceAlpha" type="matrix" values="0 0 0 0 0 0 0 0 0 0 0 0 0 0 0 0 0 0 127 0" result="hardAlpha"/>
<feOffset/>
<feGaussianBlur stdDeviation="2"/>
<feComposite in2="hardAlpha" operator="out"/>
<feColorMatrix type="matrix" values="0 0 0 0 0 0 0 0 0 0 0 0 0 0 0 0 0 0 0.25 0"/>
<feBlend mode="normal" in2="BackgroundImageFix" result="effect1_dropShadow_591_2195"/>
<feBlend mode="normal" in="SourceGraphic" in2="effect1_dropShadow_591_2195" result="shape"/>
</filter>
</defs>
</svg>
