<svg width="51" height="57" viewBox="0 0 51 57" fill="none" xmlns="http://www.w3.org/2000/svg">
<path fill-rule="evenodd" clip-rule="evenodd" d="M7.74828 0.739132C7.59192 1.14561 7.46412 3.77368 7.46412 6.5793V11.6803H28.9481C48.1069 11.6803 50.4631 11.6004 50.7163 10.9412C51.1905 9.70822 51.0337 1.86979 50.516 0.903589C50.0478 0.0308352 49.3143 0 29.0319 0C10.3151 0 8.00154 0.080361 7.74828 0.739132ZM7.46412 15.418C7.46412 16.5314 7.52591 16.5361 10.4644 15.6465C16.3418 13.8674 23.0024 15.874 27.5456 20.7929C37.0674 31.1028 30.3745 48.2131 16.3605 49.3858C13.5213 49.6232 10.6591 49.2466 8.22671 48.315C7.56102 48.0603 7.46412 48.5 7.46412 51.7724C7.46412 53.8346 7.59192 55.8544 7.74828 56.2609C7.99966 56.915 9.86237 57 23.8989 57H39.7653V52.3662C39.7653 49.8175 39.8931 47.3997 40.0494 46.9932C40.2845 46.3826 41.2104 46.2541 45.3829 46.2541C49.3339 46.2541 50.4883 46.1083 50.6896 45.5846C51.0576 44.6273 51.0852 17.8223 50.7201 16.0021L50.4153 14.4836H28.9397C7.77636 14.4836 7.46412 14.4972 7.46412 15.418ZM11.4152 17.6962C8.80579 18.3718 5.53869 20.2691 3.93627 22.0394C1.26885 24.9856 0.304026 27.3703 0.0718324 31.5892C-0.114484 34.9737 0.00114368 35.6853 1.15228 38.2456C2.63252 41.5371 5.50732 44.4352 8.78613 45.9406C12.1632 47.4913 18.1118 47.3721 21.3246 45.6892C24.4644 44.0446 27.7853 40.3177 28.7834 37.3191C31.2364 29.9484 27.6982 21.6834 20.7834 18.6306C18.4849 17.6158 13.606 17.129 11.4152 17.6962ZM20.4351 21.3091C26.3767 24.1521 28.9093 31.7523 25.9142 37.7513C22.7299 44.1292 15.3863 46.5139 8.95231 43.2597C0.803056 39.1384 0.00395373 27.3525 7.52123 22.1534C11.4395 19.4431 15.9219 19.1501 20.4351 21.3091ZM46.0851 21.4918V22.6598L38.7523 22.7883L31.4194 22.9168L30.4031 21.4927L29.3868 20.0682L37.7359 20.1962L46.0851 20.3238V21.4918ZM16.3535 30.1404L11.0023 35.496L9.32214 33.8589L7.64248 32.2218L6.62429 33.303L5.60657 34.3846L8.30067 37.0453L10.9948 39.7056L17.4368 33.2642L23.8792 26.8222L22.7922 25.8032L21.7052 24.7843L16.3535 30.1404ZM37.1419 27.374C37.5903 28.5402 37.0454 28.9672 35.1111 28.9672C33.5728 28.9672 33.2891 28.8028 33.0967 27.7992C32.8865 26.7012 32.9928 26.6311 34.8649 26.6311C36.2534 26.6311 36.9429 26.8559 37.1419 27.374ZM46.2349 27.916C46.3767 28.9144 46.2302 28.9672 43.3091 28.9672C40.6388 28.9672 40.2334 28.8541 40.2334 28.1108C40.2334 26.7797 40.7039 26.5802 43.4916 26.7274C45.7752 26.8484 46.1029 26.9904 46.2349 27.916ZM35.2029 33.2889C35.524 34.2411 35.024 35.5082 34.327 35.5082C33.9197 35.5082 33.6796 34.9887 33.6796 34.1066C33.6796 32.6928 34.7993 32.0915 35.2029 33.2889ZM46.0851 34.1066C46.0851 35.2475 45.9947 35.2779 42.2155 35.4105C39.0762 35.5208 38.2939 35.4105 38.0692 34.8265C37.3853 33.0474 38.1764 32.661 42.2155 32.8026C45.9947 32.9353 46.0851 32.9656 46.0851 34.1066ZM46.2349 40.5307L46.3842 41.582H38.8716H31.359L31.8978 40.4018L32.4362 39.2221L39.2606 39.3506C45.9367 39.4767 46.0884 39.5024 46.2349 40.5307ZM42.5741 52.4321V55.8067L45.851 52.5615C47.6533 50.7767 49.1279 49.2578 49.1279 49.1868C49.1279 49.1158 47.6533 49.0574 45.851 49.0574H42.5741V52.4321Z" fill="#FF9900"/>
</svg>
