<svg width="26" height="26" viewBox="0 0 26 26" fill="none" xmlns="http://www.w3.org/2000/svg">
<path fill-rule="evenodd" clip-rule="evenodd" d="M12.1464 0.11475C11.983 0.183068 11.7653 0.297493 11.6627 0.36897C11.5601 0.440447 8.98673 2.99268 5.94413 6.04062C1.47967 10.5129 0.386555 11.6338 0.279535 11.8489C-0.210712 12.8348 -0.0479924 13.9163 0.703798 14.6686C1.17057 15.1357 1.76657 15.3778 2.44963 15.3778H2.79533V19.451C2.79533 22.2084 2.81335 23.6113 2.85118 23.7941C3.04338 24.723 3.79441 25.5621 4.72037 25.8822C5.05814 25.999 5.08176 26 7.53926 26C9.96285 26 10.0206 25.9977 10.1582 25.8949C10.2355 25.8372 10.346 25.7266 10.4038 25.6493C10.5067 25.5114 10.5093 25.4429 10.5342 22.1076L10.5597 18.7066L10.7142 18.4559C10.9068 18.1436 11.3002 17.8938 11.6725 17.8475C11.8165 17.8297 12.53 17.8226 13.2581 17.8318L14.5818 17.8487L14.8493 17.997C15.1043 18.1383 15.269 18.3067 15.4267 18.5874C15.4854 18.6919 15.5029 19.3229 15.5237 22.1117C15.5487 25.4429 15.5512 25.5114 15.6542 25.6493C15.7119 25.7266 15.8224 25.8372 15.8998 25.8949C16.0373 25.9977 16.0951 26 18.5187 26C20.9762 26 20.9998 25.999 21.3376 25.8822C22.2635 25.5621 23.0146 24.723 23.2068 23.7941C23.2446 23.6113 23.2626 22.2084 23.2626 19.451V15.3778H23.6083C24.5657 15.3778 25.4003 14.8669 25.8119 14.0288C25.9847 13.677 25.9865 13.6661 25.9865 12.9833C25.9865 11.8215 26.5719 12.5113 20.0363 5.97154C13.5379 -0.53104 14.1889 0.0275814 13.0814 0.00404444C12.5028 -0.00828447 12.4158 0.00200661 12.1464 0.11475ZM13.4075 1.57032C13.704 1.71465 24.3495 12.3773 24.4571 12.6378C24.5636 12.8952 24.5555 13.1135 24.43 13.3729C24.2409 13.7637 24.0842 13.8199 23.1007 13.8494C22.1764 13.8771 22.1108 13.8971 21.8656 14.2256C21.7619 14.3646 21.7604 14.4195 21.7352 18.9859L21.7097 23.6055L21.5686 23.8458C21.491 23.978 21.3519 24.1437 21.2596 24.2141C20.9052 24.4847 20.7996 24.4971 18.8522 24.4971H17.0511V21.6466C17.0511 19.7763 17.032 18.7033 16.9953 18.5262C16.7975 17.5704 16.0255 16.7438 15.0401 16.4328C14.703 16.3264 14.5941 16.3203 13.029 16.3203C11.2067 16.3203 11.1157 16.3324 10.4605 16.6626C9.81846 16.9861 9.21472 17.791 9.06264 18.5262C9.02599 18.7033 9.00679 19.7763 9.00679 21.6466V24.4971H7.20577C5.25838 24.4971 5.15278 24.4847 4.79832 24.2141C4.70602 24.1437 4.56697 23.978 4.48933 23.8458L4.3482 23.6055L4.32274 18.9859C4.29759 14.4196 4.29606 14.3647 4.1923 14.2256C3.94715 13.8971 3.88157 13.8771 2.95724 13.8494C1.97379 13.8199 1.81702 13.7637 1.62793 13.3729C1.50243 13.1135 1.49439 12.8952 1.60079 12.6378C1.70613 12.383 12.3517 1.71746 12.6471 1.57073C12.9054 1.4425 13.1446 1.4424 13.4075 1.57032Z" fill="#1A2B51"/>
</svg>
