<svg width="31" height="31" viewBox="0 0 31 31" fill="none" xmlns="http://www.w3.org/2000/svg">
<path d="M0.5 15.5C0.5 7.21577 7.2157 0.5 15.5 0.5C23.7843 0.5 30.5 7.21577 30.5 15.5C30.5 23.7843 23.7843 30.5 15.5 30.5C7.2157 30.5 0.5 23.7843 0.5 15.5Z" fill="white" stroke="#FF6600"/>
<path d="M22.8544 7.5903C22.2857 7.49259 21.7099 7.4423 21.1328 7.43994C19.164 7.43833 17.2361 8.00148 15.5792 9.06225C13.9179 8.0154 11.9905 7.46608 10.0255 7.47951C9.44847 7.48187 8.87261 7.53216 8.30391 7.62987C7.91906 7.69605 7.63973 8.03174 7.64541 8.42124V17.9177C7.63902 18.3546 7.98901 18.7141 8.42714 18.7205C8.47623 18.7212 8.52528 18.7173 8.57366 18.7091C10.8705 18.3124 13.2306 18.8574 15.119 20.2206L15.2142 20.2759H15.3015C15.4792 20.3498 15.6791 20.3498 15.8569 20.2759H15.9441L16.0394 20.2206C17.9146 18.8268 20.2759 18.2502 22.5847 18.622C23.0164 18.6963 23.4269 18.4074 23.5014 17.9768C23.5098 17.9285 23.5137 17.8796 23.5129 17.8306V8.33419C23.4959 7.9627 23.2219 7.65313 22.8544 7.5903ZM14.7858 18.1076C13.3179 17.3374 11.6841 16.9353 10.0255 16.9364C9.76372 16.9364 9.50191 16.9364 9.23216 16.9364V9.02268C9.4964 9.00749 9.7613 9.00749 10.0255 9.02268C11.7181 9.02081 13.3737 9.51625 14.7858 10.4471V18.1076ZM21.9262 16.968C21.6565 16.968 21.3946 16.968 21.1328 16.968C19.4743 16.967 17.8404 17.369 16.3725 18.1393V10.4471C17.7846 9.51625 19.4402 9.02081 21.1328 9.02268C21.3971 9.00749 21.6619 9.00749 21.9262 9.02268V16.968ZM22.8544 20.2522C22.2857 20.1545 21.7099 20.1042 21.1328 20.1019C19.164 20.1003 17.2361 20.6634 15.5792 21.7242C13.9222 20.6634 11.9944 20.1003 10.0255 20.1019C9.44847 20.1042 8.87261 20.1545 8.30391 20.2522C7.87116 20.3207 7.57601 20.7262 7.64469 21.1579C7.64493 21.1593 7.64516 21.1608 7.64541 21.1623C7.72935 21.5902 8.14442 21.8697 8.57366 21.7875C10.8705 21.3909 13.2306 21.9358 15.119 23.299C15.3945 23.4946 15.7639 23.4946 16.0394 23.299C17.9277 21.9358 20.2879 21.3907 22.5847 21.7875C23.0139 21.8697 23.429 21.5902 23.5129 21.1623C23.5841 20.731 23.2913 20.3239 22.8589 20.2529C22.8574 20.2527 22.8559 20.2524 22.8544 20.2522Z" fill="#FF6600"/>
</svg>
