<svg width="52" height="52" viewBox="0 0 52 52" fill="none" xmlns="http://www.w3.org/2000/svg">
<g filter="url(#filter0_d_591_2220)">
<rect x="4" y="4" width="44" height="44" rx="8" fill="white"/>
</g>
<path fill-rule="evenodd" clip-rule="evenodd" d="M6 12.6668C6 8.98482 8.98482 6 12.6668 6H39.3332C43.0151 6 46 8.98482 46 12.6668V39.3332C46 43.0151 43.0151 46 39.3332 46H12.6668C8.98482 46 6 43.0151 6 39.3332V12.6668Z" fill="#F4B183"/>
<path fill-rule="evenodd" clip-rule="evenodd" d="M26.6561 17.7545C26.9269 17.22 27.0771 16.6366 27.0771 16.005C27.0771 13.4534 24.5214 11.3881 21.3644 11.3881C18.2075 11.3881 15.6518 13.4534 15.6518 16.005C15.6518 16.6124 15.802 17.1957 16.0727 17.7545C14.9601 17.9244 14.1484 18.7265 14.1484 19.6499C14.1484 20.719 15.2309 21.5939 16.5537 21.5939C17.6663 21.5939 18.5983 20.962 18.8687 20.1359H19.0192C19.2897 20.962 20.2217 21.5939 21.3343 21.5939C22.4469 21.5939 23.3789 20.962 23.6494 20.1359H23.7998C24.0706 20.962 25.0026 21.5939 26.1149 21.5939C27.438 21.5939 28.5201 20.719 28.5201 19.6499C28.5804 18.7022 27.7386 17.9244 26.6561 17.7545Z" fill="white"/>
<path fill-rule="evenodd" clip-rule="evenodd" d="M26.3833 25.2497C24.8562 25.2497 23.4768 24.7326 22.442 23.9134C21.506 24.6461 20.3239 25.1206 19.043 25.2064L22.5408 32.664L22.8854 33.3538L26.3833 40.7687L33.231 26.2407L33.7236 25.2064C32.443 25.1206 31.2605 24.6032 30.3245 23.9134C29.29 24.7326 27.9103 25.2497 26.3833 25.2497ZM27.1224 34.733C26.679 34.7766 26.2356 34.8631 25.743 34.9063L24.9547 33.224C26.0879 33.1388 27.0731 32.9658 28.0091 32.8373L27.1224 34.733ZM29.7827 29.086C28.1076 29.4307 25.9891 29.7754 23.4276 29.9055L22.6393 28.2244C26.2356 28.0514 28.9943 27.535 30.7679 27.1034L29.7827 29.086Z" fill="white"/>
<path fill-rule="evenodd" clip-rule="evenodd" d="M36.2698 17.7545C36.5434 17.22 36.6951 16.6366 36.6951 16.005C36.6951 13.4534 34.1123 11.3881 30.9218 11.3881C27.7311 11.3881 25.1483 13.4534 25.1483 16.005C25.1483 16.6124 25.3003 17.1957 25.5738 17.7545C24.4495 17.9244 23.6289 18.7265 23.6289 19.6499C23.6289 20.719 24.7228 21.5939 26.0597 21.5939C27.184 21.5939 28.1261 20.962 28.3997 20.1359H28.5517C28.8249 20.962 29.7671 21.5939 30.8914 21.5939C32.0157 21.5939 32.9575 20.962 33.2311 20.1359H33.3831C33.6566 20.962 34.5985 21.5939 35.7228 21.5939C37.06 21.5939 38.1538 20.719 38.1538 19.6499C38.2145 18.7022 37.3637 17.9244 36.2698 17.7545Z" fill="white"/>
<defs>
<filter id="filter0_d_591_2220" x="0" y="0" width="52" height="52" filterUnits="userSpaceOnUse" color-interpolation-filters="sRGB">
<feFlood flood-opacity="0" result="BackgroundImageFix"/>
<feColorMatrix in="SourceAlpha" type="matrix" values="0 0 0 0 0 0 0 0 0 0 0 0 0 0 0 0 0 0 127 0" result="hardAlpha"/>
<feOffset/>
<feGaussianBlur stdDeviation="2"/>
<feComposite in2="hardAlpha" operator="out"/>
<feColorMatrix type="matrix" values="0 0 0 0 0 0 0 0 0 0 0 0 0 0 0 0 0 0 0.25 0"/>
<feBlend mode="normal" in2="BackgroundImageFix" result="effect1_dropShadow_591_2220"/>
<feBlend mode="normal" in="SourceGraphic" in2="effect1_dropShadow_591_2220" result="shape"/>
</filter>
</defs>
</svg>
