<svg width="9" height="5" viewBox="0 0 9 5" fill="none" xmlns="http://www.w3.org/2000/svg">
<path fill-rule="evenodd" clip-rule="evenodd" d="M0.264124 0.0509413C0.0958402 0.132647 -0.000798677 0.287389 4.97284e-06 0.473952C0.000627801 0.620846 0.0536888 0.717719 0.235595 0.904126C0.322791 0.993464 1.19226 1.8944 2.16773 2.90618C3.1432 3.91796 3.97887 4.77978 4.02476 4.8213C4.07067 4.86283 4.15343 4.92004 4.20868 4.94841C4.2968 4.99368 4.33258 5 4.5 5C4.66742 5 4.7032 4.99368 4.79132 4.94841C4.84657 4.92004 4.92933 4.86283 4.97524 4.8213C5.02113 4.77978 5.8568 3.91796 6.83227 2.90618C7.80774 1.8944 8.67721 0.993464 8.76441 0.904126C8.94631 0.717719 8.99937 0.620846 9 0.473952C9.0008 0.286567 8.89751 0.122275 8.73156 0.0470076L8.62875 0.000391488L4.49892 0.000195595L0.369101 0L0.264124 0.0509413Z" fill="#322E2F"/>
</svg>
