<svg width="40" height="40" viewBox="0 0 40 40" fill="none" xmlns="http://www.w3.org/2000/svg">
<circle cx="20" cy="20" r="20" fill="#1A2B51"/>
<path fill-rule="evenodd" clip-rule="evenodd" d="M12.1804 14.0517C12.074 14.0788 11.9713 14.1157 11.9523 14.1337C11.9137 14.1702 19.5616 21.4358 19.7252 21.5181C19.8477 21.5797 20.1523 21.5797 20.2748 21.5181C20.4371 21.4364 28.0863 14.1702 28.048 14.134C28.0291 14.1162 27.9192 14.0783 27.8038 14.0499C27.617 14.0039 26.7519 13.9984 19.9838 14.0003C13.3916 14.0022 12.3479 14.0091 12.1804 14.0517ZM11.0645 15.04C11.0031 15.2064 11 15.4488 11 19.9991C11 24.5494 11.0031 24.7917 11.0645 24.9582C11.0999 25.0544 11.1396 25.1332 11.1526 25.1332C11.1656 25.1332 12.3968 23.978 13.8885 22.5661L16.6006 19.9991L13.8885 17.432C12.3968 16.0201 11.1656 14.8649 11.1526 14.8649C11.1396 14.8649 11.0999 14.9437 11.0645 15.04ZM26.1115 17.432L23.3994 19.9991L26.1115 22.5661C27.6032 23.978 28.8344 25.1332 28.8474 25.1332C28.8604 25.1332 28.9001 25.0544 28.9355 24.9582C28.9969 24.7917 29 24.5494 29 19.9991C29 15.4488 28.9969 15.2064 28.9355 15.04C28.9001 14.9437 28.8604 14.8649 28.8474 14.8649C28.8344 14.8649 27.6032 16.0201 26.1115 17.432ZM14.6114 23.2821C12.8654 24.9347 11.9298 25.8431 11.952 25.8641C11.9709 25.8819 12.0808 25.9198 12.1962 25.9483C12.3828 25.9942 13.2514 26 20 26C26.7486 26 27.6172 25.9942 27.8038 25.9483C27.9192 25.9198 28.0292 25.8819 28.048 25.8641C28.0703 25.8431 27.1334 24.9336 25.3808 23.2748L22.6793 20.718L21.8416 21.5035C21.0751 22.2222 20.9801 22.3 20.7239 22.4192L20.444 22.5495H20H19.556L19.2761 22.4187C19.0207 22.2996 18.9229 22.2195 18.1656 21.5103C17.7088 21.0825 17.3283 20.7325 17.3201 20.7325C17.3118 20.7325 16.0929 21.8798 14.6114 23.2821Z" fill="white"/>
</svg>
