<svg width="16" height="16" viewBox="0 0 16 16" fill="none" xmlns="http://www.w3.org/2000/svg">
<path d="M2.65036 0.0759668C2.47454 0.188437 2.42978 0.313406 2.42978 0.682061V1.00385H1.87674C1.28215 1.00385 1.12551 1.02885 0.818619 1.18193C0.607633 1.28503 0.339106 1.54121 0.208039 1.75678C-0.015734 2.13169 0.000249746 1.6037 0.000249746 8.50817C0.000249746 14.1161 0.00664325 14.7566 0.0513978 14.9065C0.201645 15.397 0.617223 15.8032 1.11911 15.95C1.27256 15.9938 1.95666 16 7.99533 16C14.5679 16 14.7021 16 14.9003 15.9375C15.4022 15.7876 15.7538 15.4376 15.9393 14.9065C15.9968 14.7409 16 14.5316 16 8.50193V2.26915L15.9265 2.06296C15.7475 1.55684 15.3798 1.21005 14.8652 1.06321C14.6957 1.01635 14.5519 1.00385 14.1075 1.00385H13.5545V0.66644C13.5545 0.388387 13.5449 0.31653 13.4905 0.229053C13.2923 -0.0864925 12.8 -0.0739956 12.6242 0.254045C12.5763 0.338399 12.5635 0.432125 12.5635 0.682061V1.00385H12.1H11.6364V0.66644C11.6364 0.388387 11.6268 0.31653 11.5725 0.229053C11.3743 -0.0864925 10.882 -0.0739956 10.7062 0.254045C10.6582 0.338399 10.6454 0.432125 10.6454 0.682061V1.00385H7.99213H5.33883V0.682061C5.33883 0.313406 5.29407 0.188437 5.11825 0.0759668C4.968 -0.0240078 4.71866 -0.0240078 4.56841 0.0759668C4.39259 0.188437 4.34783 0.313406 4.34783 0.682061V1.00385H3.88431H3.42078V0.66644C3.42078 0.288412 3.37922 0.179065 3.19061 0.0665941C3.04036 -0.0208836 2.79102 -0.0177593 2.65036 0.0759668ZM2.42978 2.29102C2.42978 2.56908 2.43937 2.62219 2.5065 2.73778C2.65036 2.97522 2.99241 3.04395 3.22897 2.87837C3.37922 2.77215 3.42078 2.64718 3.42078 2.28477V1.97235H3.88431H4.34783V2.2879C4.34783 2.64718 4.39259 2.77527 4.55243 2.88774C4.69308 2.98459 4.99358 2.98459 5.13424 2.88774C5.29407 2.77527 5.33883 2.64718 5.33883 2.2879V1.97235H7.99213H10.6454V2.2754C10.6454 2.51284 10.6582 2.60344 10.7094 2.70654C10.8692 3.03146 11.3551 3.05958 11.5629 2.75653C11.6268 2.6628 11.6364 2.61281 11.6364 2.31289V1.97235H12.1H12.5635V2.2754C12.5635 2.51284 12.5763 2.60344 12.6274 2.70654C12.7969 3.0502 13.3211 3.05958 13.4969 2.71904C13.5417 2.63781 13.5545 2.53471 13.5545 2.29102V1.97235H14.0436C14.587 1.97235 14.7181 2.00672 14.8715 2.1848C14.9962 2.33164 15.025 2.53159 15.025 3.28452V3.97184H8.00812H0.991243V3.19079C0.991243 2.48472 0.997637 2.39725 1.05198 2.29102C1.19264 2.02234 1.32371 1.97548 1.94388 1.97235H2.42978V2.29102ZM15.0186 9.77347C15.009 14.213 15.0058 14.616 14.9547 14.7035C14.8843 14.8284 14.7437 14.9565 14.6318 14.9971C14.5679 15.0221 12.5379 15.0315 7.98254 15.0315C1.65297 15.0315 1.41641 15.0284 1.31092 14.9721C1.25018 14.9409 1.15747 14.8628 1.10313 14.8003L1.00723 14.6816L0.997637 9.81097L0.991243 4.94034H8.00812H15.025L15.0186 9.77347Z" fill="#A5A5A5"/>
<path d="M7.59596 6.25556C6.32045 6.38052 5.16323 7.1522 4.58142 8.27379C4.28092 8.84552 4.15625 9.35164 4.15625 9.9796C4.15625 10.8263 4.4024 11.5729 4.8979 12.2259C6.53463 14.3816 9.88483 14.2254 11.3042 11.926C11.9915 10.8106 12.0171 9.3079 11.3649 8.17381C10.6137 6.85853 9.1304 6.1056 7.59596 6.25556ZM8.75957 7.31466C9.70901 7.58334 10.4698 8.3269 10.7416 9.25166C10.8279 9.54534 10.863 10.1514 10.8087 10.4545C10.537 11.9791 9.01851 13.0194 7.48087 12.732C6.40357 12.5321 5.54684 11.7573 5.23675 10.6982C5.17601 10.492 5.16323 10.3826 5.16642 9.98585C5.16962 9.57033 5.17921 9.48598 5.25274 9.24229C5.56922 8.23317 6.37799 7.49586 7.41694 7.2678C7.72702 7.19906 8.44629 7.22406 8.75957 7.31466Z" fill="#A5A5A5"/>
<path d="M9.14261 8.70812C9.07867 8.73623 8.73342 9.04553 8.31784 9.44855L7.60816 10.1421L7.26291 9.80783C7.07431 9.62663 6.88889 9.46105 6.85053 9.4423C6.76102 9.39856 6.53725 9.39856 6.44774 9.4423C6.23036 9.55165 6.11528 9.77034 6.15684 9.99528C6.17282 10.0921 6.26872 10.1984 6.74184 10.667C7.05193 10.9732 7.34283 11.245 7.39078 11.27C7.50267 11.3262 7.74562 11.3262 7.85751 11.27C7.90546 11.245 8.3626 10.8138 8.87728 10.3077C9.87786 9.32358 9.88425 9.31733 9.8331 9.04865C9.79155 8.83621 9.55179 8.655 9.31843 8.65813C9.28326 8.66125 9.20334 8.68312 9.14261 8.70812Z" fill="#A5A5A5"/>
</svg>
