<svg width="16" height="22" viewBox="0 0 16 22" fill="none" xmlns="http://www.w3.org/2000/svg">
<path fill-rule="evenodd" clip-rule="evenodd" d="M0.436026 0.428067C0.324131 0.507555 0.197424 0.687054 0.154428 0.826878C0.0461801 1.17922 0.0461801 20.8208 0.154428 21.1731C0.197424 21.3129 0.324131 21.4924 0.436026 21.5719C0.628442 21.7087 0.712456 21.7154 1.99738 21.6952L3.35531 21.6739L3.53854 21.4813L3.72168 21.2886V16.8629C3.72168 13.3844 3.74204 12.4302 3.81671 12.4042C3.8689 12.3861 5.31973 12.3794 7.04069 12.3892L10.1697 12.4072L9.59254 13.5741C8.94487 14.8836 8.8961 15.1174 9.21811 15.3677C9.5955 15.661 9.85552 15.5977 10.6125 15.0281C12.0244 13.9655 14.9405 11.5483 15.0946 11.3127C15.2261 11.1115 15.2123 10.8563 15.0587 10.6526C14.8638 10.3939 11.6926 7.77361 10.4243 6.82339C9.91227 6.43975 9.54438 6.37873 9.22761 6.62495C8.89177 6.88599 8.93659 7.1073 9.59231 8.42591L10.1727 9.59283L7.04213 9.61075C5.32042 9.62063 3.8689 9.6139 3.81671 9.59578C3.74204 9.56984 3.72168 8.61557 3.72168 5.13706V0.711353L3.53854 0.518743L3.35531 0.326133L1.99738 0.304786C0.712456 0.284605 0.628442 0.291263 0.436026 0.428067Z" fill="#B6B6B6"/>
</svg>
