<svg width="60" height="45" viewBox="0 0 60 45" fill="none" xmlns="http://www.w3.org/2000/svg">
<path fill-rule="evenodd" clip-rule="evenodd" d="M41.699 0.252178C38.2921 1.67993 38.2151 6.34864 41.5735 7.87725C43.619 8.80844 46.0417 7.92015 47.0103 5.88368C47.9928 3.81795 47.2351 1.51566 45.2198 0.443618C44.5625 0.0939662 44.3576 0.0446493 43.4226 0.0106051C42.5177 -0.0223897 42.272 0.012004 41.699 0.252178ZM26.2203 3.05709C24.3762 3.81119 23.3211 5.68012 23.6674 7.57913C23.8301 8.47115 24.1245 9.06063 24.7376 9.72181C26.7435 11.8856 30.2752 11.337 31.5349 8.66609C31.7164 8.28135 31.8987 7.67613 31.9403 7.32111C32.0884 6.05542 31.4142 4.46281 30.3909 3.66056C29.2458 2.76293 27.5424 2.51646 26.2203 3.05709ZM12.3477 8.89402C11.8152 9.13711 11.5897 9.36131 8.60703 12.6129C5.63874 15.8487 5.51737 16.0317 5.63757 17.0911C5.79892 18.5146 7.51695 19.421 8.85622 18.7891C9.1088 18.6699 10.1843 17.6037 11.6201 16.0492C12.9128 14.6497 14.0012 13.5049 14.0386 13.5053C14.1642 13.5067 16.7864 14.2062 16.8305 14.2501C16.8699 14.2893 13.6585 17.4558 10.9264 20.0716C9.62945 21.3132 9.19253 22.0362 9.18737 22.9483C9.18432 23.5083 9.35036 23.9799 10.4993 26.6721C11.2229 28.3674 11.8 29.7693 11.7818 29.7873C11.7636 29.8054 9.35553 31.0541 6.4305 32.562C3.50548 34.07 1.00952 35.3962 0.883935 35.5092C0.758463 35.6222 0.532027 35.9245 0.380757 36.1811C-0.685638 37.9904 0.611415 40.2035 2.73822 40.2035C3.37778 40.2035 3.58487 40.1261 5.36891 39.22C11.7076 36.0004 16.6281 33.4092 17.0194 33.0846L17.4695 32.7113L18.1559 33.4552C18.5824 33.9174 18.8214 34.2711 18.7872 34.389C18.1002 36.7491 16.7463 41.9991 16.7463 42.3022C16.7465 43.3139 17.3568 44.2876 18.2862 44.7589C19.0903 45.1669 20.2607 45.048 21.118 44.4713C21.7445 44.0498 22.0071 43.3509 23.2768 38.7254C24.6217 33.8263 24.7254 33.1906 24.3153 32.3528C24.1949 32.1068 22.8249 30.5036 21.2709 28.7904C19.7169 27.0771 18.3787 25.5932 18.2972 25.493C18.1702 25.3366 18.4092 25.0552 19.975 23.5174C20.9793 22.531 21.8426 21.7093 21.8933 21.6912C21.9441 21.6732 22.1056 22.0667 22.2523 22.5657C22.5967 23.7371 22.9017 24.2761 23.4205 24.6301C23.8291 24.909 31.3994 27.1463 31.9293 27.1448C33.9136 27.1395 34.9331 24.7863 33.588 23.3161C33.1947 22.8863 32.9135 22.7809 29.8105 21.9005C28.2034 21.4445 26.8052 21.0472 26.7033 21.0173C26.5827 20.9821 26.3606 20.4522 26.0661 19.4963C25.6988 18.3048 25.6405 17.9931 25.7557 17.8364C26.4556 16.8846 26.6527 15.4774 26.2389 14.3873C25.9033 13.5034 24.2954 11.7924 23.3833 11.3488C22.6425 10.9884 13.8156 8.72555 13.1686 8.73022C12.9106 8.73196 12.5412 8.80577 12.3477 8.89402ZM45.3921 10.2424C44.9676 10.2877 44.2107 10.5082 43.5746 10.7716C42.7117 11.1288 42.3479 11.3578 41.829 11.8694C40.9803 12.7064 40.7308 13.3906 40.8129 14.6563L40.8705 15.5449L39.9244 16.6525C39.4041 17.2616 38.9653 17.7792 38.9493 17.8025C38.9334 17.8258 37.5765 17.6815 35.9341 17.4819C34.2917 17.2822 32.6774 17.1188 32.3467 17.1188C31.5608 17.1188 30.9054 17.4569 30.4944 18.0745C30.2237 18.4812 30.1718 18.6838 30.1718 19.334C30.1718 19.9796 30.2243 20.1878 30.4865 20.5818C31.0298 21.398 31.3569 21.4877 35.7438 22.022C38.0738 22.3058 39.879 22.4728 40.1838 22.433C40.9004 22.3391 41.3223 22.0444 42.1178 21.0819C42.4966 20.6236 42.8478 20.2922 42.8983 20.3452C42.9874 20.4387 45.1229 25.4472 45.1229 25.5627C45.1229 25.5943 44.2229 26.2592 43.123 27.0402C42.023 27.8213 40.998 28.6235 40.8451 28.8231C40.6923 29.0226 39.1835 31.9539 37.4922 35.3372C34.2202 41.8827 34.1594 42.0378 34.4461 43.0966C34.613 43.7134 35.2909 44.4824 35.9177 44.7662C36.94 45.2291 38.4158 44.9323 39.1041 44.1253C39.2757 43.9241 40.4594 41.6479 41.7349 39.0668C43.0103 36.4859 44.0796 34.3741 44.1112 34.3741C44.1427 34.3741 46.0481 36.6275 48.3455 39.3816C50.8684 42.406 52.6943 44.4949 52.9562 44.6561C53.5839 45.0425 54.8747 45.0979 55.5282 44.7664C56.9469 44.0467 57.4779 42.2936 56.6778 40.9708C56.5195 40.7091 54.7274 38.505 52.6953 36.0727L49.0007 31.6502L51.4068 29.3227C52.7338 28.0391 53.9153 26.7958 54.0412 26.5503C54.3578 25.9336 54.3381 25.0004 53.9879 24.0245C53.833 23.5929 52.9624 21.4865 52.0533 19.3436C51.144 17.2006 50.4161 15.4315 50.4354 15.4123C50.4779 15.3701 53.3337 15.7986 53.3865 15.8551C53.4069 15.8768 53.8465 17.0751 54.3635 18.5179C55.7374 22.3517 55.7589 22.4027 56.1748 22.8014C56.6445 23.252 57.0597 23.4147 57.7401 23.4147C58.4348 23.4147 58.9428 23.1896 59.3892 22.6842C59.84 22.1737 60.0611 21.5423 59.9854 20.9818C59.9219 20.5119 57.4161 13.459 57.0751 12.7906C56.814 12.2786 56.2863 11.8191 55.7675 11.6519C55.4786 11.5589 49.5201 10.6375 46.4128 10.2054C46.2516 10.1829 45.7922 10.1996 45.3921 10.2424ZM27.4496 36.875C25.3913 37.5146 24.1667 39.4472 24.5013 41.5282C24.7158 42.8627 25.5992 44.0355 26.8298 44.6194C27.3928 44.8866 27.6237 44.9254 28.6474 44.9254C29.7606 44.9254 29.8577 44.9051 30.5618 44.5255C31.4235 44.061 32.0119 43.4375 32.4404 42.5353C32.6923 42.0047 32.7454 41.7232 32.7482 40.9031C32.7512 40.0289 32.7084 39.8228 32.3854 39.1542C31.4595 37.2382 29.3764 36.2763 27.4496 36.875Z" fill="#5E00F7"/>
</svg>
