<svg width="17" height="17" viewBox="0 0 17 17" fill="none" xmlns="http://www.w3.org/2000/svg">
<path fill-rule="evenodd" clip-rule="evenodd" d="M16.2893 0.0527572C16.2345 0.0812484 15.3001 0.992402 14.2127 2.07752L12.2359 4.05049L11.8711 3.87038C9.05734 2.48082 6.35713 2.80581 3.46846 4.88165C2.36225 5.67661 0.992912 7.01527 0.166368 8.10975C-0.00541802 8.33722 -0.0426848 8.52304 0.0476921 8.70116C0.127374 8.85813 0.648344 9.49908 1.08458 9.97682C1.84387 10.8083 2.83885 11.6901 3.64041 12.2419L3.87876 12.406L2.00237 14.2796C0.970326 15.3101 0.0970489 16.2087 0.0617418 16.2764C-0.0203646 16.434 -0.0195674 16.5706 0.064399 16.7352C0.139597 16.8825 0.330946 17 0.495757 17C0.552022 17 0.653493 16.9711 0.721284 16.9358C0.875632 16.8554 16.8769 0.853001 16.9504 0.705564C17.1533 0.298552 16.6922 -0.156809 16.2893 0.0527572ZM9.32555 5.11333C9.47791 5.15261 9.70915 5.22869 9.83945 5.28239C10.0809 5.38194 10.5598 5.6625 10.5598 5.70444C10.5598 5.71716 10.4044 5.88243 10.2144 6.0717L9.86897 6.41586L9.69124 6.31587C9.19997 6.03959 8.57447 5.94495 8.00916 6.06138C6.7016 6.33068 5.83158 7.58336 6.04385 8.89117C6.08786 9.16213 6.15366 9.35815 6.29608 9.64247L6.41137 9.87262L6.06979 10.2153C5.88193 10.4038 5.71782 10.5579 5.7051 10.5579C5.66305 10.5579 5.38238 10.0789 5.28237 9.83639C5.08359 9.35447 5.03104 9.06829 5.03373 8.48253C5.03572 8.05559 5.04961 7.90211 5.10438 7.70115C5.28782 7.02835 5.5919 6.48841 6.03917 6.04125C6.55542 5.52512 7.27455 5.15776 7.98564 5.04695C8.30816 4.99668 9.00732 5.03134 9.32555 5.11333ZM12.8547 6.25457L11.7828 7.32655L11.8509 7.54667C12.2074 8.70096 11.8505 10.0685 10.9604 10.9584C10.0702 11.8484 8.70235 12.2052 7.54771 11.8487L7.32743 11.7807L6.52868 12.5793C6.08936 13.0184 5.73907 13.387 5.7503 13.3982C5.78959 13.4375 6.51191 13.6793 6.8334 13.7608C7.47032 13.9222 7.77367 13.9575 8.51707 13.9568C9.08866 13.9562 9.28656 13.943 9.61316 13.8835C10.7981 13.6676 11.9593 13.1781 13.1173 12.4063C14.3379 11.5928 15.5619 10.4604 16.6048 9.17983C17.1317 8.5328 17.1317 8.46546 16.6048 7.81843C15.8364 6.87494 14.6708 5.71766 14.0118 5.2439L13.9266 5.1826L12.8547 6.25457ZM9.55081 9.55766C8.48456 10.6239 8.17467 10.9517 8.21755 10.9682C8.39969 11.0381 9.06193 10.9552 9.41015 10.819C10.1122 10.5443 10.7096 9.87295 10.9094 9.13398C10.9714 8.90445 11.0121 8.2975 10.9704 8.22305C10.9455 8.17856 10.6856 8.42289 9.55081 9.55766Z" fill="#898989"/>
</svg>
