<svg width="16" height="16" viewBox="0 0 16 16" fill="none" xmlns="http://www.w3.org/2000/svg">
<path d="M8.22909 0.0303164C8.28634 0.0494528 9.90857 1.20723 11.833 2.60103C14.2472 4.34886 15.386 5.19088 15.5005 5.31527C15.5927 5.41414 15.72 5.59594 15.7868 5.72033C16.0126 6.15091 15.9999 5.8511 15.9999 10.9064C15.9999 14.9507 15.9935 15.4737 15.949 15.579C15.8854 15.7353 15.7581 15.866 15.6023 15.9394C15.4814 15.9968 15.3351 16 12.7554 16C10.1376 16 10.0294 15.9968 9.89902 15.9362C9.74316 15.866 9.61911 15.7417 9.54595 15.5854C9.50142 15.4865 9.49188 15.2345 9.47915 13.5919L9.46325 11.7102L9.34874 11.4678C9.19606 11.152 8.97022 10.9256 8.65532 10.7725C8.41994 10.6608 8.40085 10.6576 8.04778 10.6576C7.70425 10.6576 7.66926 10.664 7.47523 10.7565C7.10307 10.9351 6.85178 11.1998 6.70546 11.5603C6.63231 11.7421 6.63231 11.7484 6.6164 13.6238L6.6005 15.5056L6.51143 15.6555C6.41919 15.8182 6.31104 15.9043 6.14246 15.9617C6.06294 15.9904 5.28045 16 3.29561 16C0.696864 16 0.550546 15.9968 0.429673 15.9394C0.359695 15.9075 0.257908 15.831 0.200653 15.7735C-0.0156441 15.5439 0.000260353 15.9011 0.000260353 10.8905C0.000260353 5.87343 -0.00928116 6.16367 0.207015 5.7299C0.420131 5.30889 0.49329 5.24829 4.17988 2.58508C6.0693 1.22318 7.65653 0.0845366 7.71061 0.059021C7.83784 -0.00476837 8.09867 -0.0207157 8.22909 0.0303164ZM4.78424 3.87044C3.00297 5.16537 1.5207 6.26254 1.48889 6.3072C1.4539 6.35185 1.41573 6.44434 1.39983 6.51451C1.38074 6.58468 1.36802 8.35803 1.36802 10.6481V14.6604H3.29243H5.21683V13.2602C5.21683 12.1503 5.22638 11.8058 5.26455 11.5826C5.46494 10.4408 6.3842 9.51899 7.52294 9.31806C9.04656 9.05333 10.5034 10.0676 10.7674 11.5826C10.8056 11.8027 10.8151 12.1503 10.8151 13.2443V14.6285H12.7395H14.6639V10.6162C14.6639 8.32613 14.6512 6.55278 14.6321 6.48262C14.6162 6.41245 14.578 6.31995 14.543 6.2753C14.5017 6.21789 8.10503 1.55488 8.02551 1.52299C8.02233 1.5198 6.56233 2.5787 4.78424 3.87044Z" fill="#A5A5A5"/>
</svg>
