<svg width="57" height="57" viewBox="0 0 57 57" fill="none" xmlns="http://www.w3.org/2000/svg">
<path fill-rule="evenodd" clip-rule="evenodd" d="M25.9365 0.261711C17.9305 2.33356 15.1213 12.1457 20.8351 18.0808C24.439 21.8241 30.373 22.4148 34.5546 19.4464C37.5283 17.3354 39.1537 14.2288 39.1537 10.6563C39.1537 5.68467 35.8566 1.48087 30.9958 0.255005C29.6369 -0.087711 27.2747 -0.0844919 25.9365 0.261711ZM30.2715 4.4922C30.3629 4.52051 30.6458 4.86926 30.9002 5.2671L31.3627 5.99063L32.2124 6.05877C33.2336 6.14086 33.9799 6.49686 34.6225 7.20858C35.2866 7.94418 35.4495 8.52927 35.3653 9.87787C35.318 10.6373 35.3558 11.2019 35.4818 11.6212C35.7483 12.5069 35.7165 13.8924 35.415 14.5462C34.3352 16.8871 31.0995 16.2017 29.6203 13.3186C29.2392 12.5757 28.7507 12.2706 28.1529 12.4019C27.8309 12.4727 27.6723 12.6475 27.3495 13.2873C26.5205 14.9305 25.3076 15.8166 23.8838 15.8191C22.9419 15.8209 22.1805 15.3881 21.7262 14.5929C21.43 14.0744 21.3953 13.8681 21.4133 12.7354C21.4246 12.0345 21.4292 11.0084 21.4235 10.4551C21.3989 8.04987 21.3949 8.08193 21.8048 7.4236C22.3719 6.51282 23.2616 6.04656 24.6346 5.9406L25.7011 5.85837L26.0728 5.19668C26.2774 4.83277 26.5745 4.48174 26.7334 4.41655C26.9963 4.30884 29.8781 4.37041 30.2715 4.4922ZM27.3991 6.46453C27.1579 7.00281 27.3083 7.10167 28.3691 7.10167C29.2316 7.10167 29.3775 7.06613 29.5066 6.82482C29.7605 6.35011 29.4573 6.16272 28.4348 6.16272C27.6305 6.16272 27.5199 6.19492 27.3991 6.46453ZM23.5549 8.05041C23.2497 8.29051 23.2017 8.42881 23.2017 9.06702V9.80571L23.5792 9.72268C24.0919 9.61 24.6763 10.0657 24.6763 10.5782C24.6763 11.0082 24.3673 11.3331 23.8308 11.4671C23.2564 11.6105 23.024 12.0727 23.095 12.93C23.1681 13.8102 23.3638 14.0767 23.9374 14.0767C24.6464 14.0767 25.3067 13.4799 25.8166 12.378C26.1938 11.5629 26.557 11.185 27.2902 10.8443C28.688 10.1947 30.3451 10.8086 31.0597 12.2407C31.6221 13.3677 32.5576 14.2108 33.2457 14.2108C34.0112 14.2108 34.1751 12.4479 33.4663 11.8379C33.2683 11.6675 32.9985 11.5281 32.8666 11.5281C32.527 11.5281 32.1831 11.101 32.1831 10.6792C32.1831 10.1617 32.6399 9.75634 33.164 9.80879C33.5458 9.84702 33.5952 9.8112 33.6344 9.46822C33.7457 8.49467 32.9071 7.78147 31.6438 7.7753C31.0896 7.77262 31.0163 7.81178 30.7902 8.23216C30.4166 8.92631 30.0393 9.02209 28.1173 8.91116C27.2018 8.85831 26.3932 8.77662 26.3205 8.72967C26.2477 8.68272 26.0878 8.44799 25.965 8.20829C25.7461 7.78066 25.7241 7.77235 24.8249 7.77235C24.1004 7.77235 23.834 7.8307 23.5549 8.05041ZM7.71893 14.8032C5.41206 15.2531 3.4568 16.4262 1.99968 18.2349C-0.691377 21.575 -0.663494 26.4881 2.06617 29.9176C4.66674 33.185 9.42391 34.2996 13.2128 32.5296C18.8388 29.9011 20.4432 22.7165 16.4606 17.9854C14.3651 15.4963 10.8069 14.2009 7.71893 14.8032ZM46.0573 14.814C43.819 15.2355 41.9392 16.3146 40.5328 17.9854C39.0545 19.7415 38.3494 21.7034 38.3494 24.0604C38.3494 30.3686 44.4717 34.8415 50.4914 32.9313C51.9815 32.4583 53.132 31.7457 54.306 30.5686C57.6134 27.2521 57.9141 21.8598 54.9937 18.2349C53.5115 16.3952 51.5449 15.2295 49.2074 14.8052C47.9793 14.5821 47.2787 14.5841 46.0573 14.814ZM48.6982 18.7861C50.3155 19.1246 51.8316 20.3265 52.5346 21.8273C52.8527 22.5066 52.8938 22.7554 52.8938 24.0027C52.8938 25.304 52.8619 25.4775 52.4756 26.283C51.9486 27.3816 51.0048 28.3224 49.8777 28.8725C49.0763 29.2635 48.8987 29.2976 47.6659 29.2976C46.4319 29.2976 46.2558 29.2636 45.4499 28.8706C44.3106 28.3149 43.3725 27.3806 42.8517 26.283C42.4709 25.4808 42.4379 25.2987 42.4379 24.0027C42.4379 22.7554 42.4791 22.5066 42.7972 21.8273C43.4784 20.3729 44.9071 19.2009 46.4594 18.8232C47.3279 18.612 47.8267 18.6036 48.6982 18.7861ZM14.1021 21.0359L14.6225 21.5568L14.622 23.9534C14.6212 27.7282 14.7709 27.6244 9.32753 27.6244C3.88416 27.6244 4.03389 27.7282 4.03308 23.9534L4.03255 21.5568L4.55293 21.0359L5.07345 20.5152H9.32753H13.5816L14.1021 21.0359ZM46.3917 20.6937C45.7126 21.0108 45.7066 21.0326 46.1311 21.6191C46.674 22.369 46.9798 23.4674 46.8894 24.3433C46.8066 25.1466 46.3495 26.2929 45.9779 26.6296C45.6275 26.9469 45.6487 27.0031 46.2231 27.2771C47.0374 27.6658 47.9517 27.6945 48.8388 27.3596C49.2628 27.1996 49.6096 27.0218 49.6096 26.9648C49.6096 26.9078 49.4946 26.7569 49.3538 26.6296C48.9822 26.2929 48.5251 25.1466 48.4423 24.3433C48.3522 23.4703 48.6573 22.3695 49.195 21.6266C49.4132 21.3252 49.5506 21.0371 49.5002 20.9863C49.0639 20.5467 47.1022 20.362 46.3917 20.6937ZM5.7752 24.0027V25.7465H9.32753H12.8799V24.0027V22.259H9.32753H5.7752V24.0027ZM44.2607 22.9496C44.1797 23.1819 44.1135 23.6428 44.1135 23.9736C44.1135 24.5926 44.359 25.6123 44.508 25.6123C44.5541 25.6123 44.7039 25.4227 44.8407 25.1909C45.1622 24.6463 45.178 23.5428 44.8725 22.9632C44.5848 22.4171 44.4473 22.4142 44.2607 22.9496ZM50.4592 22.9632C50.1458 23.5578 50.1566 24.6275 50.4817 25.1764C50.6237 25.4161 50.7776 25.6123 50.8237 25.6123C50.9643 25.6123 51.2182 24.6075 51.2174 24.0542C51.2166 23.4143 50.9817 22.5272 50.8132 22.5272C50.7449 22.5272 50.5855 22.7235 50.4592 22.9632ZM9.43611 23.6658L10.0809 24.0377L9.40742 24.4226C9.03691 24.6344 8.70151 24.8075 8.66197 24.8075C8.62256 24.8075 8.59025 24.4417 8.59025 23.9948C8.59025 23.5479 8.63556 23.2072 8.69079 23.2379C8.74602 23.2686 9.08154 23.4611 9.43611 23.6658ZM27.8472 23.4432C27.5225 23.8022 27.5385 25.2239 27.8705 25.5245C28.1959 25.8192 28.8698 25.8068 29.1462 25.5011C29.4708 25.1422 29.4549 23.7205 29.1228 23.4199C28.7975 23.1252 28.1236 23.1375 27.8472 23.4432ZM26.7984 27.3501C22.2943 28.1767 18.8218 31.5418 17.9689 35.9062C17.7049 37.2573 17.8684 40.1425 18.3039 41.8166C19.2962 45.6302 21.3215 48.9414 23.6181 50.5044C24.1767 50.8846 24.7086 51.2206 24.8001 51.2511C24.9291 51.2942 24.9361 51.527 24.8311 52.2849C24.5764 54.124 23.7819 55.1221 22.5726 55.1221C22.1254 55.1221 21.9036 55.2016 21.6541 55.4514C21.2521 55.8535 21.238 56.1824 21.6029 56.6466L21.8806 57H28.4967H35.1127L35.3905 56.6466C35.5433 56.4522 35.6684 56.1779 35.6684 56.0369C35.6684 55.6333 35.0689 55.1221 34.5954 55.1221C33.3191 55.1221 32.5309 53.9846 32.3805 51.9259L32.3053 50.8968L32.9907 50.4274C35.081 48.9956 37.381 45.486 38.462 42.0785C39.0471 40.2342 39.1991 39.1521 39.1186 37.4039C39.0353 35.5998 38.8014 34.6574 38.0668 33.1666C36.7732 30.5418 34.2287 28.4351 31.3751 27.6263C30.2537 27.3084 27.8243 27.1617 26.7984 27.3501ZM8.66492 35.4341C8.48609 35.6894 8.4562 36.3729 8.4562 40.1959C8.4562 44.4808 8.46693 44.6703 8.7243 44.9278C8.9798 45.1835 9.17109 45.1961 12.7829 45.1961C17.0345 45.1961 17.1695 45.1697 17.1695 44.3374C17.1695 43.4794 17.0552 43.4523 13.439 43.4523H10.1989V39.5161C10.1989 35.8732 10.1806 35.5634 9.95368 35.3579C9.59429 35.0324 8.91814 35.0724 8.66492 35.4341ZM47.0164 35.3813C46.8207 35.5976 46.7945 36.0867 46.7945 39.5395V43.4523H43.397C40.1888 43.4523 39.9863 43.4671 39.7609 43.7162C39.6297 43.8613 39.5223 44.1349 39.5223 44.3242C39.5223 44.5135 39.6297 44.7871 39.7609 44.9322C39.988 45.1833 40.1923 45.1961 44.0003 45.1961C47.8223 45.1961 48.0129 45.1842 48.2691 44.9278C48.5265 44.6703 48.5372 44.4808 48.5372 40.1959C48.5372 36.3729 48.5073 35.6894 48.3285 35.4341C48.0655 35.0583 47.3352 35.0288 47.0164 35.3813ZM37.3695 38.4777C37.1118 42.651 33.9454 48.1554 30.9757 49.5924C28.2165 50.9276 25.0953 50.1044 23.0134 47.4922C21.0498 45.0288 19.8104 41.8259 19.6218 38.7282L19.5404 37.3921L20.3321 38.2229C21.416 39.3603 22.1261 39.7592 23.0663 39.7592C24.0027 39.7592 24.5846 39.4165 25.3331 38.4244C26.2539 37.204 26.468 37.1897 27.2299 38.2978C28.0857 39.5426 30.2447 40.5291 32.1077 40.5268C33.7006 40.525 34.5607 40.1652 35.6684 39.0375C36.1637 38.5331 36.6807 37.8451 36.8666 37.4428C37.3157 36.471 37.4734 36.7953 37.3695 38.4777ZM27.2842 45.7937C26.8853 46.1927 26.8646 46.581 27.2232 46.9399C27.4436 47.1604 27.67 47.2081 28.4967 47.2081C29.3234 47.2081 29.5498 47.1604 29.7702 46.9399C30.1288 46.581 30.1081 46.1927 29.7092 45.7937C29.4265 45.5106 29.256 45.4644 28.4967 45.4644C27.7374 45.4644 27.5669 45.5106 27.2842 45.7937Z" fill="#FF5050"/>
</svg>
