<svg width="60" height="60" viewBox="0 0 60 60" fill="none" xmlns="http://www.w3.org/2000/svg">
<circle cx="30" cy="30" r="30" fill="#FFC107"/>
<path fill-rule="evenodd" clip-rule="evenodd" d="M14.6919 19.356C14.4852 19.4402 14.2644 19.5602 14.2013 19.6228C14.0904 19.7327 14.3476 19.978 21.7192 26.7913C25.9172 30.6713 29.3868 33.8459 29.4293 33.8459C29.5142 33.8459 44.4721 19.5909 44.4721 19.51C44.4721 19.4824 44.3144 19.4014 44.1215 19.3299L43.771 19.2L29.4193 19.2015L15.0676 19.2029L14.6919 19.356ZM40.6739 26.0828C37.9756 28.6595 35.7679 30.7874 35.7679 30.8115C35.7679 30.8752 45.5507 39.9173 45.584 39.8843C45.5994 39.869 45.6048 35.7033 45.5959 30.6272L45.5799 21.3978L40.6739 26.0828ZM13.2065 30.9346C13.21 35.9511 13.2316 40.1216 13.2545 40.2025C13.2919 40.3345 13.7902 39.8781 18.17 35.7009C20.8507 33.1442 23.0522 31.0282 23.0624 30.9987C23.0725 30.9691 21.05 29.0726 18.5678 26.7842C16.0856 24.4958 13.8625 22.4413 13.6275 22.2186L13.2002 21.8138L13.2065 30.9346ZM32.1199 34.2594C30.9928 35.335 29.9789 36.2535 29.8669 36.3006C29.6058 36.4103 29.2669 36.4097 29.0082 36.2991C28.8962 36.2512 27.8848 35.36 26.7608 34.3189L24.7172 32.4258L24.5032 32.6027C24.3855 32.7 22.1508 34.825 19.5371 37.325C16.2687 40.4512 14.8054 41.8906 14.8503 41.9352C14.895 41.9794 19.5302 42 29.4249 42C43.8022 42 43.9365 41.9988 44.2028 41.8745L44.4715 41.7491L39.3835 37.0473C36.5851 34.4613 34.2671 32.3362 34.2324 32.3247C34.1977 32.3132 33.2471 33.1838 32.1199 34.2594Z" fill="white"/>
</svg>
