<svg width="21" height="5" viewBox="0 0 21 5" fill="none" xmlns="http://www.w3.org/2000/svg">
<path fill-rule="evenodd" clip-rule="evenodd" d="M2.04783 4.94187C1.08912 4.74561 0.259859 3.94786 0.0578266 3.02759C-0.332287 1.25031 1.31166 -0.316744 3.17615 0.0551214C4.35729 0.290725 5.24674 1.34073 5.24674 2.49959C5.24674 4.08702 3.68739 5.27752 2.04783 4.94187ZM9.9256 4.94187C8.96689 4.74561 8.13763 3.94786 7.9356 3.02759C7.54549 1.25031 9.18944 -0.316744 11.0539 0.0551214C12.0293 0.249659 12.8604 1.04181 13.0644 1.97159C13.456 3.75524 11.7971 5.325 9.9256 4.94187ZM17.8034 4.94187C16.8447 4.74561 16.0154 3.94786 15.8134 3.02759C15.4233 1.25031 17.0672 -0.316744 18.9317 0.0551214C19.9071 0.249659 20.7381 1.04181 20.9422 1.97159C21.3337 3.75524 19.6749 5.325 17.8034 4.94187Z" fill="#1A2B51"/>
</svg>
