<svg width="16" height="16" viewBox="0 0 16 16" fill="none" xmlns="http://www.w3.org/2000/svg">
<path fill-rule="evenodd" clip-rule="evenodd" d="M1.23247 0.0393533C0.701969 0.169749 0.243988 0.633803 0.121722 1.16478C0.0339154 1.54619 0.0997701 1.98985 0.292863 2.31747C0.334702 2.38843 1.60092 3.6916 3.1067 5.2134L5.84448 7.9803L3.06752 10.7955C0.0776934 13.8264 0.160903 13.7332 0.0455166 14.1812C-0.047418 14.5421 0.002489 14.9194 0.190391 15.2759C0.486237 15.8373 1.17777 16.1097 1.90921 15.9529C2.34505 15.8594 2.23154 15.9625 5.20436 12.9593C6.71795 11.4302 7.97013 10.1792 7.98698 10.1792C8.00381 10.1792 9.25608 11.4299 10.7698 12.9586C13.3219 15.5362 13.5367 15.7451 13.7252 15.834C14.3717 16.1389 15.1546 16.0147 15.6021 15.5361C16.0227 15.0863 16.1201 14.3984 15.8452 13.8182C15.7542 13.6262 15.5362 13.3985 12.9458 10.7904L10.1448 7.97024L12.8694 5.20837C14.5665 3.48802 15.6239 2.39283 15.6734 2.30418C15.8118 2.0561 15.8601 1.82469 15.8443 1.48547C15.8273 1.12161 15.7521 0.900571 15.5552 0.635669C15.1708 0.118483 14.4731 -0.0990754 13.8659 0.1089C13.5199 0.227404 13.3617 0.37551 10.6468 3.12315L7.99052 5.81145L5.2526 3.05366C2.31316 0.092897 2.3848 0.158237 1.95071 0.0438759C1.73504 -0.0129251 1.45242 -0.0147278 1.23247 0.0393533Z" fill="white"/>
</svg>
