<svg width="29" height="29" viewBox="0 0 29 29" fill="none" xmlns="http://www.w3.org/2000/svg">
<circle cx="14.5" cy="14.5" r="13.5" fill="#1A2B51" stroke="white" stroke-width="2"/>
<path fill-rule="evenodd" clip-rule="evenodd" d="M18.1889 8.01489C17.8629 8.07328 17.6195 8.22591 17.2393 8.6103L16.998 8.85441L18.5682 10.4255L20.1383 11.9966L20.3823 11.7551C20.7649 11.3764 20.9119 11.1395 20.9795 10.7931C21.0371 10.498 20.9709 10.1305 20.8095 9.84857C20.7202 9.69268 19.3783 8.34024 19.1898 8.21621C19.1085 8.16274 18.9712 8.09562 18.8846 8.06712C18.6994 8.00611 18.3742 7.9817 18.1889 8.01489ZM12.6923 13.1616L8.9468 16.9094L10.5176 18.481L12.0883 20.0525L15.8338 16.3048C17.8938 14.2435 19.5792 12.5456 19.5792 12.5316C19.5792 12.4983 16.4964 9.41386 16.4632 9.41386C16.4492 9.41386 14.7523 11.1003 12.6923 13.1616ZM8.53198 17.6249C8.52456 17.6513 8.3959 18.341 8.24605 19.1577C7.94723 20.7863 7.95003 20.7535 8.09819 20.9017C8.24633 21.05 8.21362 21.0527 9.84116 20.7544C10.6574 20.6047 11.3453 20.4744 11.3699 20.4647C11.4054 20.4507 11.1196 20.1519 9.98005 19.012C8.84912 17.8806 8.54264 17.587 8.53198 17.6249Z" fill="white"/>
</svg>
