<svg width="40" height="40" viewBox="0 0 40 40" fill="none" xmlns="http://www.w3.org/2000/svg">
<circle cx="20" cy="20" r="20" fill="#1A2B51"/>
<path fill-rule="evenodd" clip-rule="evenodd" d="M14.7697 12.0422C14.3818 12.1264 14.307 12.1848 13.2933 13.1958C12.4086 14.0781 12.3401 14.1544 12.2363 14.3739C12.0653 14.7356 12.0226 14.9321 12.0041 15.4435C11.9854 15.9599 12.0277 16.3011 12.1842 16.8951C13.1267 20.4735 17.3515 25.1799 21.395 27.1561C22.5942 27.7421 23.4995 27.997 24.3924 28C24.9389 28.0018 25.2153 27.9466 25.594 27.7604C25.8379 27.6404 25.902 27.5835 26.7824 26.7066C27.7682 25.7247 27.8272 25.6504 27.9511 25.2343C28.0163 25.0152 28.0163 24.6043 27.9511 24.3851C27.8388 24.0076 27.793 23.9528 26.5461 22.7024C25.888 22.0424 25.2649 21.4423 25.1613 21.3688C24.5386 20.9268 23.739 20.9881 23.2182 21.5178C23.0605 21.678 22.9999 21.7719 22.891 22.024C22.8175 22.1942 22.7192 22.385 22.6725 22.448C22.3726 22.8532 21.7935 23.1112 21.3009 23.0591C20.5665 22.9813 19.4708 22.3198 18.5426 21.3937C17.419 20.2725 16.7563 18.9825 16.9179 18.2311C16.9932 17.8812 17.2395 17.5151 17.5309 17.3201C17.602 17.2725 17.752 17.1945 17.8642 17.1469C18.1902 17.0084 18.2703 16.963 18.4217 16.8313C18.9439 16.3764 19.0582 15.5251 18.6781 14.9215C18.5662 14.7439 16.402 12.5607 16.138 12.3591C15.9275 12.1983 15.6512 12.0745 15.4025 12.0295C15.1669 11.9868 15.0107 11.99 14.7697 12.0422Z" fill="white"/>
</svg>
