<svg width="24" height="24" viewBox="0 0 24 24" fill="none" xmlns="http://www.w3.org/2000/svg">
<path d="M22.9892 0.225464C22.1302 0.0789479 21.2605 0.00353866 20.3887 5.14831e-06C17.4148 -0.00240578 14.5028 0.841998 12 2.43259C9.49075 0.862883 6.57923 0.0391978 3.61125 0.0593365C2.7396 0.06287 1.86975 0.138279 1.01074 0.284795C0.429426 0.384035 0.00749298 0.887391 0.0160757 1.47142V15.7109C0.00642774 16.3662 0.535089 16.9051 1.19688 16.9148C1.27102 16.9158 1.34512 16.91 1.41819 16.8976C4.88757 16.3029 8.45252 17.1201 11.3049 19.164L11.4487 19.2471H11.5805C11.849 19.3578 12.151 19.3578 12.4195 19.2471H12.5512L12.6951 19.164C15.5277 17.0741 19.0945 16.2094 22.5818 16.767C23.234 16.8785 23.854 16.4453 23.9666 15.7996C23.9793 15.7272 23.985 15.6539 23.9839 15.5804V1.34089C23.9583 0.783857 23.5443 0.319679 22.9892 0.225464ZM10.8016 15.9958C8.58446 14.8408 6.11653 14.238 3.61125 14.2395C3.21578 14.2395 2.82031 14.2395 2.41286 14.2395V2.37326C2.812 2.35048 3.21211 2.35048 3.61125 2.37326C6.16789 2.37046 8.66869 3.11334 10.8016 4.50919V15.9958ZM21.5871 14.287C21.1797 14.287 20.7842 14.287 20.3887 14.287C17.8835 14.2854 15.4155 14.8883 13.1984 16.0432V4.50919C15.3313 3.11334 17.8321 2.37046 20.3887 2.37326C20.7879 2.35049 21.188 2.35049 21.5871 2.37326V14.287ZM22.9892 19.2115C22.1302 19.065 21.2605 18.9896 20.3887 18.9861C17.4148 18.9837 14.5028 19.8281 12 21.4186C9.49714 19.8281 6.58524 18.9837 3.61125 18.9861C2.7396 18.9896 1.86975 19.065 1.01074 19.2115C0.357065 19.3143 -0.0887511 19.9222 0.0149877 20.5694C0.0153453 20.5716 0.0157029 20.5739 0.0160757 20.5761C0.142862 21.2178 0.76983 21.6368 1.41819 21.5135C4.88757 20.9188 8.45252 21.736 11.3049 23.78C11.721 24.0733 12.279 24.0733 12.6951 23.78C15.5475 21.736 19.1124 20.9187 22.5818 21.5135C23.2301 21.6368 23.8571 21.2178 23.9839 20.5761C24.0914 19.9294 23.649 19.319 22.996 19.2125C22.9938 19.2122 22.9915 19.2119 22.9892 19.2115Z" fill="white"/>
</svg>
