<svg width="16" height="16" viewBox="0 0 16 16" fill="none" xmlns="http://www.w3.org/2000/svg">
<path d="M7.74209 0.0611033C7.60267 0.130705 7.58939 0.153906 7.1479 1.04879C6.90225 1.55258 6.66325 2.04311 6.6201 2.13591C6.57694 2.23203 6.53047 2.31158 6.51719 2.31158C6.5006 2.31158 5.9728 2.39112 5.34209 2.48724C4.10724 2.67616 4.03421 2.69936 3.89479 2.90817C3.80517 3.03743 3.79521 3.23298 3.87156 3.38213C3.90143 3.44178 4.30973 3.85608 4.77778 4.30684L5.63089 5.12881L5.42176 6.32862C5.18608 7.66101 5.18608 7.68421 5.38193 7.87313C5.49479 7.98582 5.73047 8.05873 5.86989 8.02559C5.91968 8.01233 6.43089 7.76375 7.00516 7.47209L8.04748 6.93847L9.14623 7.4986L10.245 8.05542L10.4076 8.01565C10.6566 7.95267 10.7429 7.89301 10.8226 7.73061L10.8956 7.57815L10.6832 6.35514L10.4707 5.13212L11.2807 4.32673C11.7255 3.8826 12.1105 3.47493 12.1371 3.41527C12.2002 3.27275 12.1968 3.06063 12.1305 2.92142C12.0276 2.70599 11.9512 2.68279 10.6798 2.49055C10.0359 2.39112 9.50142 2.31158 9.48814 2.31158C9.47486 2.31158 9.44167 2.26186 9.41511 2.2022C9.39188 2.14586 9.15287 1.65533 8.88731 1.11839C8.35951 0.0445309 8.35287 0.0379028 8.04416 0.00475883C7.92134 -0.00849915 7.85163 0.00475883 7.74209 0.0611033ZM8.36615 2.41432C8.55868 2.79879 8.75121 3.1468 8.79769 3.18658C8.86739 3.24292 9.03337 3.27938 9.67735 3.38544C10.1155 3.45504 10.4873 3.52133 10.5006 3.53127C10.5172 3.5379 10.2749 3.79974 9.96615 4.11461C9.24582 4.84377 9.27901 4.74103 9.44499 5.77512C9.5147 6.1861 9.56117 6.5308 9.55121 6.54074C9.54125 6.55069 9.22258 6.38828 8.84416 6.1861C7.90474 5.68231 8.02424 5.68231 7.08151 6.15296C6.66989 6.35514 6.34126 6.50097 6.34126 6.47777C6.34126 6.45788 6.39769 6.0933 6.46408 5.67237C6.57031 5.01281 6.58026 4.88686 6.54707 4.77748C6.51719 4.68137 6.37114 4.50239 5.98607 4.10466C5.53462 3.63402 5.47487 3.55447 5.5313 3.53459C5.5645 3.51802 5.90973 3.4683 6.29147 3.4219C7.10142 3.32247 7.06159 3.33241 7.22757 3.20978C7.34043 3.13023 7.39022 3.03743 7.66906 2.41764C7.84167 2.02985 7.99105 1.71499 8.00101 1.71499C8.01097 1.71499 8.17694 2.02985 8.36615 2.41432Z" fill="#A5A5A5"/>
<path d="M5.20831 9.08286C4.98922 9.2287 4.97926 9.2751 4.97926 10.3556V11.3234L2.66558 11.3333C0.0896486 11.3433 0.20915 11.3333 0.0664122 11.5687C0.00334181 11.6714 2.23112e-05 11.7509 2.23112e-05 13.6733C2.23112e-05 15.8774 -0.00661668 15.8045 0.20915 15.9337C0.312055 16 0.438196 16 8 16C15.5618 16 15.688 16 15.7909 15.9337C16.0033 15.8045 16 15.8442 16 14.0114C16 12.1288 16.0066 12.1785 15.7543 12.0559C15.6182 11.9896 15.5618 11.9896 13.3178 11.9896H11.0207V10.687C11.0207 9.23864 11.0207 9.23532 10.7917 9.08286L10.6788 9.00663H8H5.32117L5.20831 9.08286ZM9.9917 12.5033V14.9725H8H6.00831V12.5033V10.0341H8H9.9917V12.5033ZM4.97926 13.6634V14.9725H3.00416H1.02907V13.6634V12.3542H3.00416H4.97926V13.6634ZM14.9709 13.9948V14.9725H12.9958H11.0207V13.9948V13.017H12.9958H14.9709V13.9948Z" fill="#A5A5A5"/>
</svg>
