<svg width="11" height="11" viewBox="0 0 11 11" fill="none" xmlns="http://www.w3.org/2000/svg">
<path fill-rule="evenodd" clip-rule="evenodd" d="M4.59402 0.00619657C3.80057 0.0968633 3.31164 0.232053 2.74012 0.518817C2.26373 0.757843 1.91003 1.0077 1.52251 1.37895C-0.0387674 2.87474 -0.446189 5.20882 0.518828 7.129C1.57349 9.22761 3.91532 10.2966 6.17994 9.7133C6.80242 9.55295 7.3399 9.28862 7.98217 8.82695C8.00916 8.80756 8.26733 9.05023 9.07981 9.85883C10.252 11.0254 10.2495 11.0234 10.5197 10.9915C10.8596 10.9512 11.0703 10.6274 10.9784 10.2863C10.9482 10.1738 10.86 10.0783 9.87483 9.08987C9.05936 8.27176 8.81015 8.00735 8.82951 7.98078C9.33191 7.29024 9.62594 6.64904 9.78312 5.90131C9.86558 5.50898 9.89671 4.77128 9.84764 4.37325C9.76139 3.67399 9.52726 2.97963 9.18971 2.42205C8.67045 1.56438 7.96735 0.921943 7.07846 0.492993C6.59282 0.258623 6.19135 0.132641 5.681 0.054475C5.4315 0.0162535 4.76508 -0.0133514 4.59402 0.00619657ZM5.70792 1.17169C6.71802 1.38595 7.55689 1.94796 8.12287 2.78955C8.99783 4.0906 9.00012 5.76036 8.12872 7.07612C7.89747 7.42531 7.42633 7.89592 7.07655 8.12716C6.34554 8.61038 5.49506 8.83163 4.63771 8.76164C3.28417 8.65117 2.11579 7.86923 1.51353 6.6708C0.621372 4.89551 1.20976 2.75513 2.88447 1.68378C3.3057 1.4143 3.90582 1.19842 4.44171 1.12362C4.72149 1.08455 5.42267 1.11117 5.70792 1.17169Z" fill="#A5A5A5"/>
</svg>
