<svg width="26" height="26" viewBox="0 0 26 26" fill="none" xmlns="http://www.w3.org/2000/svg">
<path fill-rule="evenodd" clip-rule="evenodd" d="M10.5156 0.0927713C10.0985 0.223261 9.7368 0.482971 9.502 0.820477C9.31016 1.09614 9.23861 1.32953 8.86872 2.8856L8.72986 3.46996L8.12432 3.7629C7.79129 3.92398 7.28909 4.20239 7.00839 4.38151L6.49795 4.70723L5.41865 4.37877C4.17616 4.00061 3.80004 3.94649 3.32666 4.07785C2.95582 4.18075 2.51102 4.44904 2.33052 4.67867C2.03965 5.04875 0.164948 8.21628 0.0856689 8.47167C-0.0264088 8.83265 -0.0226818 9.15878 0.0978084 9.52819C0.243749 9.97566 0.396185 10.1558 1.33519 10.9904L2.19273 11.7526L2.19427 12.9976L2.19582 14.2425L1.33758 15.0047C0.865527 15.4239 0.418601 15.8467 0.344326 15.9443C0.171178 16.1718 0 16.7006 0 17.008C0 17.1397 0.0386016 17.3717 0.0858286 17.5235C0.205786 17.9091 2.19512 21.1779 2.47103 21.4427C2.59083 21.5577 2.84454 21.7225 3.03488 21.8089C3.34726 21.9509 3.42761 21.9656 3.86016 21.9603C4.29659 21.955 4.43583 21.9246 5.4212 21.6204L6.50306 21.2863L7.00664 21.6099C7.28356 21.7879 7.77909 22.064 8.10777 22.2235C8.43639 22.383 8.71299 22.5197 8.7223 22.5271C8.73167 22.5346 8.85509 23.0288 8.99661 23.6254C9.13808 24.222 9.28184 24.7788 9.31607 24.8626C9.4232 25.1252 9.77658 25.5257 10.0449 25.6887C10.5592 26.0011 10.6664 26.0117 13.1337 25.9953L15.3633 25.9805L15.7172 25.8141C16.1288 25.6207 16.5566 25.2079 16.6891 24.8762C16.7368 24.7569 16.8887 24.1819 17.0267 23.5985L17.2775 22.5375L17.8687 22.2493C18.194 22.0908 18.6991 21.8092 18.9912 21.6236L19.5225 21.2861L20.6096 21.6221C21.6078 21.9306 21.736 21.9584 22.1771 21.9621C22.6168 21.9659 22.6874 21.9521 23.0122 21.7995C23.2361 21.6943 23.4518 21.542 23.5967 21.3865C23.8482 21.1171 25.8221 17.8732 25.9341 17.5454C26.0396 17.2366 26.0156 16.6795 25.8824 16.3469C25.7204 15.9422 25.5778 15.7834 24.6554 14.9805L23.8337 14.2653V12.9976V11.7299L24.6536 11.0142C25.5382 10.2421 25.7677 9.97927 25.9111 9.57433C26.0248 9.25304 26.0233 8.68641 25.9078 8.38138C25.7706 8.01862 23.8451 4.87573 23.5967 4.60906C23.4513 4.45285 23.2368 4.30118 23.0122 4.19563C22.6881 4.04335 22.6159 4.02917 22.1771 4.03212C21.7346 4.03506 21.6108 4.06189 20.6089 4.37171L19.521 4.70809L18.9905 4.37104C18.6987 4.18568 18.1943 3.90447 17.8696 3.74619L17.2793 3.45838L17.031 2.40541C16.8944 1.82624 16.7421 1.25107 16.6926 1.12724C16.5567 0.787803 16.1324 0.376109 15.7172 0.180984L15.3633 0.0146196L13.0992 0.00369458C10.9738 -0.006519 10.8155 -0.00108192 10.5156 0.0927713ZM15.0693 1.69305C15.1065 1.73584 15.2744 2.35196 15.4424 3.06228C15.6286 3.84949 15.7913 4.42084 15.8592 4.52567C15.9772 4.70789 16.0816 4.76851 16.7185 5.02492C17.267 5.24575 17.8404 5.56736 18.474 6.00964C18.8212 6.25197 19.0789 6.39415 19.2081 6.41478C19.368 6.44029 19.6748 6.36589 20.7628 6.03804C21.5084 5.8134 22.1584 5.62955 22.2072 5.62955C22.2561 5.62955 22.32 5.65816 22.3493 5.69307C22.4114 5.76695 24.116 8.57437 24.2448 8.81492C24.2925 8.90394 24.3172 9.01243 24.2998 9.05593C24.2822 9.09943 23.8015 9.54954 23.2313 10.0563C22.6611 10.563 22.1564 11.0539 22.1098 11.1472C22.0358 11.2953 22.0329 11.3864 22.0872 11.865C22.1662 12.561 22.1666 13.4307 22.0882 14.1212C22.0319 14.6176 22.0351 14.676 22.1281 14.8563C22.1907 14.9776 22.6109 15.391 23.2327 15.943C23.7846 16.4331 24.2587 16.8735 24.2862 16.9218C24.321 16.9827 24.3087 17.0605 24.2463 17.1759C24.108 17.4315 22.4098 20.2301 22.3493 20.3021C22.32 20.337 22.257 20.3655 22.2094 20.3654C22.1617 20.3653 21.517 20.1823 20.7769 19.9589C20.0366 19.7354 19.3829 19.5525 19.3243 19.5525C19.1337 19.5525 18.8844 19.6839 18.369 20.0556C18.0411 20.2922 17.5917 20.5464 17.0912 20.7785C15.9566 21.3045 15.955 21.3055 15.8466 21.4804C15.7917 21.5691 15.6086 22.2238 15.4397 22.9354C15.2709 23.647 15.1032 24.263 15.0672 24.3045C15.0114 24.3686 14.7064 24.3799 13.0198 24.3799C11.1991 24.3799 11.0313 24.3727 10.9558 24.2909C10.9106 24.2421 10.7369 23.6191 10.5698 22.9067C10.4027 22.1942 10.2465 21.5768 10.2226 21.5347C10.126 21.3639 9.90016 21.2217 9.3814 21.0052C8.74067 20.7377 8.10931 20.3823 7.48231 19.9362C7.2112 19.7433 6.9527 19.6012 6.83455 19.58C6.67354 19.5512 6.38379 19.6209 5.2323 19.9656C4.15566 20.2878 3.80563 20.3739 3.7369 20.3333C3.68754 20.3041 3.20627 19.5537 2.66739 18.6656C1.83717 17.2975 1.6949 17.0332 1.73563 16.9349C1.76204 16.871 2.24299 16.4161 2.80439 15.9239C4.00743 14.8693 4.03586 14.8262 3.94401 14.1961C3.87027 13.69 3.87027 12.3051 3.94401 11.7991C4.03586 11.1689 4.00743 11.1258 2.80439 10.0712C2.24299 9.57906 1.76183 9.12361 1.73515 9.05913C1.69389 8.95923 1.8319 8.70282 2.66692 7.32811C3.20606 6.44059 3.68701 5.69099 3.73567 5.66238C3.8026 5.623 4.16679 5.71278 5.22942 6.03062C6.38443 6.37606 6.66992 6.44461 6.83248 6.41549C6.95393 6.39374 7.21695 6.24755 7.51383 6.03682C8.15643 5.58067 8.71842 5.26628 9.38258 4.99143C10.2218 4.64407 10.1929 4.69026 10.5686 3.0944C10.7422 2.35688 10.9168 1.72232 10.9566 1.68431C11.0151 1.62857 11.4121 1.61526 13.0153 1.61526C14.7337 1.61526 15.0107 1.62572 15.0693 1.69305ZM12.5655 7.59295C12.4923 7.60321 12.2574 7.63624 12.0436 7.66637C11.5352 7.73802 10.8433 7.96389 10.3364 8.22365C8.94614 8.93616 7.95139 10.1342 7.51905 11.6166C7.38845 12.0645 7.37567 12.1876 7.37567 12.9976C7.37567 13.8049 7.38871 13.9313 7.51708 14.3695C8.16862 16.5942 10.0394 18.1179 12.4473 18.385C13.1016 18.4576 13.8923 18.3898 14.5668 18.2033C16.4984 17.6691 17.9891 16.2061 18.5144 14.3292C18.6365 13.893 18.6524 13.7391 18.6524 12.9976C18.6524 12.256 18.6365 12.1022 18.5144 11.6659C17.9889 9.78846 16.5004 8.3266 14.5706 7.7929C13.9401 7.61851 13.0305 7.5278 12.5655 7.59295ZM14.0404 9.34161C15.1966 9.62377 16.2576 10.5331 16.7053 11.6256C16.913 12.1325 16.9531 12.354 16.9531 12.9976C16.9531 13.6411 16.913 13.8626 16.7053 14.3695C16.4983 14.8746 16.2298 15.2524 15.7653 15.6921C14.9829 16.4326 14.1318 16.7669 13.018 16.7713C11.4668 16.7774 10.1222 15.9774 9.45115 14.649C9.16848 14.0894 9.0514 13.6058 9.0514 12.9976C9.0514 11.3937 10.0783 9.98862 11.6507 9.44095C12.4209 9.1727 13.2134 9.13972 14.0404 9.34161Z" fill="#1A2B51"/>
</svg>
