<svg width="16" height="16" viewBox="0 0 16 16" fill="none" xmlns="http://www.w3.org/2000/svg">
<path d="M6.08599 0.0656424C5.93528 0.137537 5.80059 0.2782 5.73967 0.421989C5.71722 0.472002 5.63705 0.950256 5.56009 1.48165L5.41899 2.44441L5.16246 2.56944C5.02136 2.63821 4.78406 2.77262 4.63656 2.8664L4.36398 3.03832L3.43083 2.67572C2.61312 2.35689 2.47202 2.31312 2.30848 2.31312C2.09363 2.31312 1.90123 2.38814 1.77296 2.52256C1.70241 2.59758 0.304282 4.92633 0.0766047 5.34832C-0.0228035 5.53274 -0.0260102 5.83595 0.0701913 6.01725C0.156773 6.17979 0.185633 6.2048 1.04183 6.85185L1.76334 7.39887L1.76013 8.00529L1.75692 8.60858L1.08672 9.12121C0.169599 9.81828 0.153566 9.83391 0.073398 9.98082C-0.0195968 10.159 -0.0195968 10.4685 0.0701913 10.6435C0.220907 10.928 1.66072 13.3411 1.7441 13.4411C1.87237 13.6005 2.07439 13.6912 2.30527 13.6912C2.47202 13.6912 2.6067 13.6474 3.43083 13.3286L4.36719 12.966L4.57242 13.1004C4.68466 13.1754 4.92195 13.3098 5.09832 13.4005L5.41899 13.5599L5.5665 14.5633C5.73005 15.6792 5.74608 15.7261 6.01865 15.9012L6.15333 15.9887L7.93306 15.9981C9.08427 16.0043 9.75448 15.9949 9.82823 15.9762C9.98536 15.9293 10.1649 15.7793 10.2419 15.623C10.2868 15.5292 10.3445 15.2197 10.4375 14.5821C10.5081 14.0819 10.5722 13.6474 10.5818 13.6131C10.5914 13.5693 10.6716 13.513 10.8287 13.4411C10.957 13.3817 11.1911 13.2505 11.3482 13.1473L11.6368 12.966L12.5764 13.3317C13.3588 13.6349 13.5448 13.6943 13.6859 13.6943C13.9104 13.6943 14.1028 13.6162 14.2311 13.4724C14.3144 13.3786 15.7126 11.0499 15.9402 10.6279C16.0236 10.4716 16.0172 10.1527 15.9274 9.98082C15.8472 9.83078 15.7895 9.78077 14.898 9.10558L14.2471 8.60858V8.00216V7.39575L14.9141 6.88624C15.828 6.18917 15.8472 6.17354 15.9274 6.0235C16.0268 5.83908 16.0236 5.53587 15.921 5.34519C15.7254 4.97322 14.3016 2.59758 14.2246 2.51943C14.0996 2.38814 13.9136 2.31312 13.6955 2.31312C13.5256 2.31312 13.3973 2.35376 12.5796 2.6726C11.8004 2.9758 11.6432 3.02582 11.5855 2.99768C11.5502 2.97893 11.4156 2.89766 11.2905 2.81639C11.1622 2.73824 10.9538 2.62258 10.8287 2.56319C10.6716 2.4913 10.5914 2.43503 10.5818 2.39127C10.5754 2.35689 10.5081 1.91927 10.4343 1.42226C10.3638 0.922124 10.2836 0.472002 10.2611 0.421989C10.2002 0.275074 10.0623 0.134411 9.91481 0.0656424C9.78013 0.00312553 9.73203 -3.107e-07 7.9972 -3.107e-07C6.25595 -3.107e-07 6.21747 -3.107e-07 6.08599 0.0656424ZM8.65778 5.43897C9.62941 5.68279 10.367 6.3986 10.6331 7.36136C10.6876 7.55517 10.7037 7.69895 10.7037 8.00216C10.7037 8.30537 10.6876 8.44916 10.6331 8.64296C10.367 9.60259 9.64224 10.309 8.65778 10.5685C8.29542 10.6654 7.70538 10.6654 7.34302 10.5685C6.35856 10.309 5.63064 9.60259 5.36769 8.64296C5.27149 8.29287 5.27149 7.71146 5.36769 7.36136C5.75891 5.93285 7.22117 5.0795 8.65778 5.43897Z" fill="#1A2B51"/>
</svg>
