<svg width="47" height="47" viewBox="0 0 47 47" fill="none" xmlns="http://www.w3.org/2000/svg">
<path fill-rule="evenodd" clip-rule="evenodd" d="M22.0776 0.145342C19.914 0.608803 17.949 2.24653 17.1258 4.27233C15.5113 8.24508 17.9281 12.748 22.142 13.6183C24.4014 14.085 26.7199 13.3746 28.3593 11.7133C29.6238 10.4319 30.2359 9.06091 30.3546 7.24407C30.6094 3.34513 27.3748 -0.0408506 23.435 0.000372515C23.0414 0.00441219 22.4307 0.0696897 22.0776 0.145342ZM6.89897 5.87076C5.89389 6.13407 5.18228 6.55062 4.39813 7.33459C3.60278 8.12986 3.19519 8.83423 2.92982 9.87132C2.69963 10.7714 2.69963 11.6161 2.92982 12.5162C3.19519 13.5533 3.60278 14.2577 4.39813 15.0529C5.18228 15.8369 5.89389 16.2535 6.89897 16.5168C7.26754 16.6133 7.54841 16.6952 7.52316 16.6986C7.49791 16.7021 7.10464 16.7817 6.64921 16.8758C3.5341 17.5186 1.11094 19.8006 0.252418 22.8997C0.0585844 23.5994 0.0473823 23.8344 0.0156123 27.8728C-0.0168923 32.0136 -0.0133113 32.12 0.172626 32.4843C0.452496 33.0328 0.784704 33.1742 1.92062 33.2284L2.88327 33.2743L3.50508 39.5633C4.19704 46.5612 4.17997 46.4693 4.85393 46.8131C5.20065 46.9899 5.38374 47 8.25773 47C11.1317 47 11.3148 46.9899 11.6615 46.8131C12.3234 46.4755 12.3285 46.4501 12.8967 40.712C13.1957 37.6927 13.3701 35.5597 13.3194 35.5427C13.2718 35.527 13.043 35.3881 12.8108 35.2343C12.0335 34.7196 11.403 33.8081 11.1373 32.8152C10.9536 32.1285 10.9607 23.1552 11.146 21.9356C11.3191 20.7951 11.6734 19.5947 12.1147 18.6533L12.4701 17.8948L12.1774 17.738C11.3217 17.2793 9.87589 16.7942 9.36463 16.7942C8.87899 16.7942 8.99863 16.6683 9.63872 16.5058C10.6138 16.2581 11.3343 15.8358 12.1173 15.0529C12.9127 14.2577 13.3203 13.5533 13.5856 12.5162C13.9169 11.2209 13.7449 9.81238 13.1066 8.59424C12.7164 7.84947 11.6024 6.73562 10.8575 6.34542C9.64267 5.70899 8.18418 5.53409 6.89897 5.87076ZM37.3835 5.87076C36.3784 6.13407 35.6668 6.55062 34.8827 7.33459C34.0873 8.12986 33.6797 8.83423 33.4144 9.87132C33.1842 10.7714 33.1842 11.6161 33.4144 12.5162C33.6797 13.5533 34.0873 14.2577 34.8827 15.0529C35.6657 15.8358 36.3862 16.2581 37.3613 16.5058C38.0014 16.6683 38.121 16.7942 37.6354 16.7942C37.2282 16.7942 35.845 17.2303 35.163 17.5737L34.529 17.8929L34.885 18.6524C35.3265 19.5947 35.6808 20.7947 35.854 21.9356C36.0393 23.1552 36.0464 32.1285 35.8627 32.8152C35.597 33.8081 34.9665 34.7196 34.1892 35.2343C33.957 35.3881 33.7282 35.527 33.6806 35.5427C33.6299 35.5597 33.8043 37.6927 34.1033 40.712C34.6715 46.4501 34.6766 46.4755 35.3385 46.8131C35.6852 46.9899 35.8683 47 38.7423 47C41.6163 47 41.7994 46.9899 42.1461 46.8131C42.82 46.4693 42.803 46.5612 43.4949 39.5633L44.1167 33.2743L45.0794 33.2284C46.2153 33.1742 46.5475 33.0328 46.8274 32.4843C47.0133 32.12 47.0169 32.0136 46.9844 27.8728C46.9526 23.8344 46.9414 23.5994 46.7476 22.8997C46.0734 20.466 44.4675 18.5498 42.2031 17.4772C41.5225 17.1548 40.2775 16.7942 39.8448 16.7942C39.3633 16.7942 39.4854 16.6677 40.1233 16.5058C41.0983 16.2581 41.8188 15.8358 42.6019 15.0529C43.3972 14.2577 43.8048 13.5533 44.0702 12.5162C44.4015 11.2209 44.2295 9.81238 43.5911 8.59424C43.2009 7.84947 42.0869 6.73562 41.3421 6.34542C40.1272 5.70899 38.6687 5.53409 37.3835 5.87076ZM20.8587 14.1822C18.2222 14.9617 16.0686 16.7492 14.8787 19.1455C14.4288 20.0514 14.0872 21.1334 13.9582 22.0609C13.8977 22.4952 13.8588 24.5733 13.8588 27.3628C13.8588 31.7794 13.8657 31.9639 14.0436 32.3127C14.3732 32.9585 14.6789 33.0448 16.638 33.0448H18.3227L18.8562 39.4945C19.4489 46.6574 19.4164 46.4663 20.1002 46.8152C20.4418 46.9893 20.637 47 23.5 47C26.363 47 26.5582 46.9893 26.8998 46.8152C27.5819 46.4672 27.5499 46.6557 28.1436 39.4945L28.6783 33.0448H30.3625C32.3211 33.0448 32.6268 32.9585 32.9564 32.3127C33.1343 31.9639 33.1412 31.7794 33.1412 27.3628C33.1412 22.4997 33.0999 21.8503 32.7118 20.6081C31.7321 17.4732 29.3012 15.1029 26.1205 14.1812C25.6779 14.053 25.2172 13.9481 25.0966 13.9481H24.8773V18.8177C24.8773 23.517 24.8709 23.7001 24.6925 24.0497C24.4835 24.4592 23.9551 24.7818 23.4932 24.7818C23.0661 24.7818 22.4989 24.4247 22.2969 24.0287C22.1323 23.7062 22.1227 23.4178 22.1227 18.8177V13.9481L21.8702 13.953C21.7313 13.9556 21.2761 14.0588 20.8587 14.1822Z" fill="#CF0019"/>
</svg>
