<svg width="52" height="57" viewBox="0 0 52 57" fill="none" xmlns="http://www.w3.org/2000/svg">
<path fill-rule="evenodd" clip-rule="evenodd" d="M24.3702 0.074145C23.0355 0.497715 22.0713 1.4909 21.6551 2.87106C21.5128 3.34295 21.5083 3.34568 20.5592 3.5603C18.9493 3.92418 16.5342 4.70428 15.1931 5.29355C12.8959 6.30285 10.3074 7.96621 8.59881 9.53079C7.88711 10.1825 7.77697 10.623 8.21147 11.0808C8.60786 11.4987 9.0929 11.42 9.74996 10.8314C12.6006 8.27702 16.2373 6.3783 20.1293 5.41224C20.9031 5.22012 21.5958 5.06282 21.6686 5.0627C21.7415 5.06246 21.9023 5.28266 22.0259 5.55189C22.3189 6.18997 23.1329 6.9812 23.8558 7.33074C24.3374 7.56361 24.6182 7.60897 25.5772 7.60897C26.9099 7.60897 27.5783 7.36154 28.3848 6.56959C29.1451 5.82302 29.4977 4.94982 29.4957 3.81864C29.4936 2.6967 29.2374 2.04157 28.4883 1.24358C27.728 0.433635 26.8087 0.0336358 25.6375 0.00319471C25.1068 -0.0105452 24.5364 0.0213172 24.3702 0.074145ZM32.9376 4.14864C32.5536 4.33934 32.3684 4.83788 32.5222 5.26726C32.6213 5.54372 32.8213 5.65518 33.9026 6.03646C37.7295 7.38582 41.4236 9.77041 43.782 12.4136C44.3296 13.0271 44.4122 13.1772 44.2917 13.3387C44.2126 13.4447 44.0017 13.8245 43.823 14.1828C43.3625 15.1068 43.3671 16.3584 43.8344 17.2964C45.0588 19.7536 48.2279 20.4109 50.1847 18.6137C51.888 17.0493 51.8618 14.4645 50.1268 12.8942C49.8174 12.6141 49.3138 12.2762 49.0076 12.1433C48.2895 11.8313 47.1356 11.744 46.5062 11.954L46.0237 12.115L44.5158 10.6186C42.8499 8.96544 41.8913 8.18818 40.0838 7.02526C38.6317 6.09106 36.0711 4.86501 34.5221 4.36232C33.2259 3.94159 33.327 3.95521 32.9376 4.14864ZM2.54485 12.9026C1.7165 13.2149 0.888507 14.0144 0.42035 14.954C0.118779 15.5592 0.0690809 15.7933 0.0807818 16.5516C0.0974285 17.6367 0.419747 18.3899 1.15992 19.0739L1.6668 19.5422L1.25618 20.7396C0.784526 22.1148 0.329758 24.1485 0.119021 25.8237C-0.228509 28.5881 0.233738 33.9725 0.876324 34.6442C1.19478 34.9771 1.73242 34.9908 2.05474 34.6743C2.31904 34.4148 2.35197 34.0384 2.17428 33.3122C1.93628 32.34 1.69298 29.9581 1.69659 28.637C1.70311 26.283 2.13544 23.5465 2.84654 21.3591L3.15788 20.4014L4.02363 20.3972C6.21387 20.3869 7.88349 18.7502 7.88481 16.6123C7.88506 16.1556 7.82209 15.5636 7.74488 15.2968C7.16165 13.2826 4.62942 12.1167 2.54485 12.9026ZM10.7074 18.0173C9.34453 18.5786 8.50508 19.4828 8.07046 20.8577C7.42281 22.9064 8.4397 25.1297 10.4725 26.1097C11.0886 26.4067 11.2909 26.4422 12.3684 26.4422C13.4197 26.4422 13.6618 26.402 14.2526 26.1301C15.6154 25.5027 16.5031 24.3331 16.7733 22.8092C17.1086 20.9184 16.0363 18.9271 14.2384 18.1025C13.2617 17.6545 11.681 17.6164 10.7074 18.0173ZM36.053 17.8946C34.7993 18.3535 33.8566 19.1911 33.3137 20.3279C33.0402 20.9007 32.9958 21.1505 32.9958 22.1188C32.9958 23.0927 33.0395 23.3355 33.3201 23.9235C33.7344 24.7915 34.6769 25.7169 35.5609 26.1238C36.1597 26.3993 36.407 26.4422 37.3988 26.4422C38.3875 26.4422 38.6386 26.399 39.2293 26.1271C40.1884 25.6856 40.9449 24.958 41.4096 24.0304C41.7732 23.3046 41.8016 23.1615 41.8005 22.0614C41.7994 21.0092 41.7618 20.8 41.4679 20.2104C41.0696 19.4115 40.033 18.413 39.2385 18.0627C38.5167 17.7446 36.7215 17.6498 36.053 17.8946ZM23.325 18.9129C19.9263 20.1144 18.9526 24.2719 21.487 26.7606C23.8562 29.0869 27.8773 28.3538 29.2916 25.3377C29.7312 24.4003 29.8085 22.8261 29.4623 21.8621C28.9642 20.4748 27.8621 19.3871 26.4825 18.921C25.5701 18.6127 24.1842 18.6092 23.325 18.9129ZM49.8204 22.4446C49.5345 22.8004 49.5365 22.869 49.885 24.6655C49.9861 25.1866 50.1025 26.5458 50.1437 27.6859C50.2505 30.6369 49.9734 32.7233 49.1096 35.472L48.746 36.6287L47.807 36.6312C46.2752 36.6351 45.168 37.3245 44.4408 38.7271C44.0659 39.4503 43.9263 40.72 44.1376 41.4869C44.6988 43.5242 47.1849 44.7734 49.2427 44.0521C50.4826 43.6176 51.4406 42.623 51.8165 41.3801C52.1689 40.2147 51.9332 39.2223 51.0241 38.0427L50.4244 37.2649L50.8442 35.9399C52.1066 31.9556 52.3434 27.5864 51.5127 23.6026C51.3502 22.8231 51.2206 22.4837 51.0265 22.3293C50.6283 22.0127 50.1292 22.0605 49.8204 22.4446ZM32.3927 26.5596C32.3263 26.5814 32.1125 26.634 31.9175 26.6766C31.5781 26.7508 31.6006 26.772 32.4448 27.1729C33.9907 27.9072 35.3366 29.5163 35.7835 31.1645C35.887 31.5462 35.9489 32.4224 35.9498 33.5195L35.9512 35.2666H40.7215H45.4918L45.7982 34.9657L46.1046 34.6649L46.0641 32.1526C46.0251 29.727 46.0127 29.6173 45.7058 28.9746C45.2588 28.0384 44.6206 27.3961 43.6913 26.9468C42.9539 26.5903 42.7854 26.5574 41.4935 26.5192L40.0942 26.4777L39.4087 27.0668C38.0632 28.2229 36.7491 28.1879 35.3809 26.9593L34.871 26.5014L33.6921 26.5108C33.0438 26.5159 32.459 26.5379 32.3927 26.5596ZM6.39735 26.8153C5.33751 27.1749 4.49118 27.9875 4.03039 29.0876C3.76657 29.7173 3.74908 29.9143 3.74643 32.2758C3.74365 34.6369 3.75849 34.8075 3.98479 35.0297C4.21784 35.2585 4.38684 35.2666 8.97674 35.2666H13.7273L13.7857 33.3418C13.85 31.219 14.0144 30.5433 14.7358 29.4396C15.2741 28.6158 16.4119 27.6527 17.3143 27.257C17.7419 27.0694 18.0932 26.8827 18.095 26.842C18.101 26.7037 17.348 26.6199 16.0998 26.6199H14.8553L14.1752 27.2043C12.8873 28.311 11.3653 28.2633 10.2413 27.081L9.8028 26.6199L8.37155 26.6256C7.40327 26.6293 6.76454 26.6908 6.39735 26.8153ZM19.2676 28.4194C17.8581 28.5979 16.5773 29.542 15.9432 30.8698C15.6314 31.5228 15.6247 31.5895 15.5894 34.3842C15.5541 37.1726 15.5589 37.238 15.8132 37.4639C16.0657 37.6882 16.3192 37.6947 24.8766 37.6947H33.6802L33.9714 37.3624C34.2574 37.0358 34.2624 36.9905 34.2624 34.7327C34.2624 31.4525 34.0252 30.6234 32.7618 29.4897C31.7534 28.5847 31.0585 28.367 29.2078 28.3757L27.7117 28.3827L27.2174 28.8511C25.8009 30.1933 24.0378 30.2435 22.7689 28.9777C22.4485 28.6581 22.1215 28.394 22.0422 28.3908C20.7411 28.3378 19.8383 28.3472 19.2676 28.4194ZM3.26102 37.5094C2.20384 37.8263 1.15087 38.7449 0.696346 39.7467C0.310578 40.597 0.342303 41.9039 0.769447 42.7611C1.44702 44.1209 2.682 44.9691 4.134 45.0718C4.59963 45.1049 5.17273 45.0673 5.47563 44.9839L6.00458 44.8386L6.59301 45.4645C9.73549 48.8067 13.3276 51.1799 17.2343 52.4948C18.5846 52.9493 18.8761 52.9486 19.315 52.4898C19.5769 52.216 19.5809 52.185 19.4004 51.8134C19.2306 51.4637 19.0652 51.3716 17.7803 50.9115C14.1092 49.597 10.3624 47.1618 8.09615 44.6177C7.54874 44.0032 7.46599 43.8529 7.5865 43.6914C7.66563 43.5854 7.87685 43.2055 8.05562 42.8472C8.32643 42.305 8.38096 42.0369 8.3812 41.2482C8.38156 40.3958 8.3403 40.2254 7.97118 39.5519C7.1976 38.1404 5.93607 37.3892 4.37224 37.4088C3.92701 37.4144 3.42688 37.4596 3.26102 37.5094ZM41.6046 46.6391C38.7921 49.002 35.4155 50.7077 31.7489 51.6178C30.9751 51.81 30.2824 51.9673 30.2096 51.9674C30.1367 51.9676 29.9759 51.7474 29.8523 51.4782C29.5587 50.8389 28.7441 50.0478 28.0223 49.7011C27.2667 49.3383 25.8419 49.2562 25.0124 49.5278C24.0497 49.843 23.2836 50.5016 22.8028 51.4272C22.423 52.1582 22.3806 52.3366 22.3807 53.1995C22.3808 54.36 22.7382 55.23 23.5216 55.9765C24.3639 56.7792 24.9691 57.002 26.301 57C27.3046 56.9984 27.5225 56.9594 28.0549 56.6849C29.0637 56.1649 29.8608 55.196 30.1509 54.1373C30.2835 53.6535 30.3031 53.6387 30.9778 53.5089C35.1675 52.7029 39.5119 50.6342 42.6942 47.9295C43.7806 47.0062 43.9752 46.696 43.7815 46.1958C43.4694 45.3896 42.9713 45.491 41.6046 46.6391Z" fill="#66FF33"/>
</svg>
