<svg width="16" height="16" viewBox="0 0 16 16" fill="none" xmlns="http://www.w3.org/2000/svg">
<path d="M1.26154 0.0702629C0.703846 0.251063 0.226923 0.739612 0.0615385 1.30125C0.00769231 1.48974 0 2.18987 0 8.00243C0 14.2651 0.00384615 14.4997 0.0730769 14.7267C0.25 15.2922 0.734615 15.773 1.30385 15.9385C1.49231 15.9923 2.19231 16 8.00385 16C14.2654 16 14.5 15.9962 14.7269 15.9269C15.2923 15.75 15.7731 15.2653 15.9385 14.6959C15.9923 14.5074 16 13.8073 16 7.99859C16 2.18987 15.9923 1.48974 15.9385 1.30125C15.7731 0.731918 15.2923 0.247217 14.7269 0.0702629C14.5 0.00101948 14.2692 -0.00282669 7.98846 0.00101948C1.78462 0.00101948 1.46923 0.0048666 1.26154 0.0702629ZM4.57692 3.17466C4.88077 3.35161 4.93846 3.57473 4.91923 4.48643C4.90385 4.97498 4.89231 5.07499 4.82308 5.1904C4.64615 5.4943 4.42308 5.552 3.51154 5.53277C3.02308 5.51738 2.92308 5.50584 2.80769 5.43659C2.50385 5.25964 2.44615 5.03652 2.46538 4.12483C2.48077 3.50548 2.51923 3.37854 2.73462 3.22082C2.89615 3.09772 3.05385 3.07849 3.76923 3.08618C4.36923 3.09387 4.45769 3.10157 4.57692 3.17466ZM13.1923 3.79015C13.3885 3.90556 13.5 4.0902 13.5 4.30563C13.5 4.52105 13.3885 4.7057 13.1923 4.8211C13.0577 4.90189 13.0154 4.90189 9.84615 4.90189C6.67692 4.90189 6.63462 4.90189 6.5 4.8211C6.01538 4.54028 6.11923 3.85939 6.66538 3.7286C6.73077 3.70937 8.2 3.69783 9.92308 3.70167C13.0115 3.70937 13.0615 3.70937 13.1923 3.79015ZM4.57692 6.86762C4.88077 7.04457 4.93846 7.26769 4.91923 8.17939C4.90385 8.66794 4.89231 8.76795 4.82308 8.88336C4.64615 9.18726 4.42308 9.24496 3.51154 9.22573C3.02308 9.21034 2.92308 9.1988 2.80769 9.12956C2.50385 8.9526 2.44615 8.72948 2.46538 7.81779C2.48077 7.19845 2.51923 7.0715 2.73462 6.91378C2.89615 6.79068 3.05385 6.77145 3.76923 6.77914C4.36923 6.78683 4.45769 6.79453 4.57692 6.86762ZM13.1923 7.48311C13.3885 7.59852 13.5 7.78316 13.5 7.99859C13.5 8.21401 13.3885 8.39866 13.1923 8.51406C13.0577 8.59485 13.0154 8.59485 9.84615 8.59485C6.67692 8.59485 6.63462 8.59485 6.5 8.51406C6.01538 8.23324 6.11923 7.55235 6.66538 7.42156C6.73077 7.40233 8.2 7.39079 9.92308 7.39463C13.0115 7.40233 13.0615 7.40233 13.1923 7.48311ZM4.57692 10.5606C4.88077 10.7375 4.93846 10.9606 4.91923 11.8723C4.90385 12.3609 4.89231 12.4609 4.82308 12.5763C4.64615 12.8802 4.42308 12.9379 3.51154 12.9187C3.02308 12.9033 2.92308 12.8918 2.80769 12.8225C2.50385 12.6456 2.44615 12.4224 2.46538 11.5107C2.48077 10.8914 2.51923 10.7645 2.73462 10.6067C2.89615 10.4836 3.05385 10.4644 3.76923 10.4721C4.36923 10.4798 4.45769 10.4875 4.57692 10.5606ZM13.1923 11.1761C13.3885 11.2915 13.5 11.4761 13.5 11.6915C13.5 11.907 13.3885 12.0916 13.1923 12.207C13.0577 12.2878 13.0154 12.2878 9.84615 12.2878C6.67692 12.2878 6.63462 12.2878 6.5 12.207C6.01538 11.9262 6.11923 11.2453 6.66538 11.1145C6.73077 11.0953 8.2 11.0837 9.92308 11.0876C13.0115 11.0953 13.0615 11.0953 13.1923 11.1761Z" fill="#1A2B51"/>
</svg>
