<svg width="26" height="26" viewBox="0 0 26 26" fill="none" xmlns="http://www.w3.org/2000/svg">
<path fill-rule="evenodd" clip-rule="evenodd" d="M3.01766 0.0115499C2.23041 0.079861 1.55542 0.367898 1.03989 0.855474C0.629726 1.24341 0.371405 1.63289 0.174044 2.16083L0.0204227 2.57173L0.00660491 10.2867C-0.0088385 18.9175 -0.0295652 18.3917 0.357587 19.1855C0.640953 19.7666 1.17492 20.3146 1.72225 20.5861C2.44433 20.9443 2.23483 20.9318 7.53893 20.9341L12.3142 20.9362L15.3368 23.4259C17.3345 25.0714 18.4235 25.9357 18.5483 25.9746C18.7875 26.0493 19.0625 25.955 19.2176 25.745C19.3223 25.6033 19.325 25.5482 19.3389 23.2668L19.3531 20.9335L21.2947 20.9328C23.4687 20.932 23.6149 20.915 24.2778 20.5861C24.8251 20.3146 25.359 19.7666 25.6424 19.1855C26.0296 18.3917 26.0088 18.9175 25.9934 10.2867L25.9796 2.57173L25.826 2.16083C25.6286 1.63289 25.3703 1.24341 24.9601 0.855474C24.6136 0.527787 24.0138 0.197942 23.5411 0.0752384C23.3391 0.0227467 21.2362 0.00769776 13.254 0.00158571C7.73578 -0.00262595 3.12943 0.00184252 3.01766 0.0115499ZM23.4777 1.407C23.8584 1.56242 24.2196 1.85487 24.4192 2.1692C24.754 2.69669 24.738 2.254 24.7231 10.6144L24.7096 18.1857L24.573 18.4802C24.3822 18.8919 24.2106 19.1028 23.8929 19.316C23.4014 19.6459 23.3788 19.6483 20.8818 19.6489C18.8944 19.6495 18.608 19.6595 18.4522 19.7342C18.1023 19.9021 18.1083 19.8651 18.0801 22.0441L18.0547 24.0068L15.4725 21.8831C14.0524 20.7151 12.8202 19.7347 12.7344 19.7045C12.6278 19.6669 11.0401 19.6493 7.72186 19.6489C2.35685 19.6483 2.62614 19.6643 2.10706 19.316C1.7894 19.1028 1.6178 18.8919 1.42699 18.4802L1.29044 18.1857L1.27693 10.6144C1.26199 2.26094 1.24645 2.69602 1.57818 2.17337C1.86373 1.72344 2.37575 1.39328 2.91327 1.31244C3.05449 1.29123 7.67355 1.27695 13.1778 1.28075L23.1855 1.28768L23.4777 1.407ZM4.12034 5.34423C3.66649 5.73032 3.87299 6.38652 4.47605 6.47435C4.59599 6.49181 6.34003 6.49915 8.35174 6.49068C11.6932 6.47655 12.0199 6.46767 12.131 6.38816C12.5361 6.09822 12.5378 5.54182 12.1344 5.30088C12.0075 5.22507 11.6157 5.21686 8.13187 5.21686H4.27005L4.12034 5.34423ZM4.17033 9.94347C4.0064 10.0445 3.85588 10.3077 3.85588 10.4934C3.85588 10.661 4.03866 10.9342 4.21463 11.0296C4.38029 11.1194 4.75611 11.1235 13 11.1235C21.2439 11.1235 21.6197 11.1194 21.7854 11.0296C21.9613 10.9342 22.1441 10.661 22.1441 10.4934C22.1441 10.3077 21.9936 10.0445 21.8297 9.94347C21.6627 9.84054 21.5981 9.83977 13 9.83977C4.40193 9.83977 4.33726 9.84054 4.17033 9.94347ZM4.21463 14.5558C4.03718 14.652 3.85588 14.9247 3.85588 15.0954C3.85588 15.268 4.02245 15.5508 4.18202 15.6491C4.3335 15.7426 4.61509 15.7457 13 15.7457C21.3849 15.7457 21.6665 15.7426 21.818 15.6491C21.9775 15.5508 22.1441 15.268 22.1441 15.0954C22.1441 14.9247 21.9628 14.652 21.7854 14.5558C21.6197 14.466 21.2439 14.462 13 14.462C4.75611 14.462 4.38029 14.466 4.21463 14.5558Z" fill="#1A2B51"/>
</svg>
