<svg width="16" height="16" viewBox="0 0 16 16" fill="none" xmlns="http://www.w3.org/2000/svg">
<path d="M1.26154 0.0702629C0.703846 0.251063 0.226923 0.739612 0.0615385 1.30125C0.00769231 1.48974 0 2.18987 0 8.00243C0 14.2651 0.00384615 14.4997 0.0730769 14.7267C0.25 15.2922 0.734615 15.773 1.30385 15.9385C1.49231 15.9923 2.19231 16 8.00385 16C14.2654 16 14.5 15.9962 14.7269 15.9269C15.2923 15.75 15.7731 15.2653 15.9385 14.6959C15.9923 14.5074 16 13.8073 16 7.99859C16 2.18987 15.9923 1.48974 15.9385 1.30125C15.7731 0.731918 15.2923 0.247217 14.7269 0.0702629C14.5 0.00101948 14.2692 -0.00282669 7.98846 0.00101948C1.78462 0.00101948 1.46923 0.0048666 1.26154 0.0702629ZM14.2462 1.26663C14.4346 1.30894 14.5731 1.40896 14.6731 1.57822C14.75 1.70901 14.75 1.77826 14.75 7.99859C14.75 14.2189 14.75 14.2882 14.6731 14.419C14.5731 14.5882 14.4346 14.6882 14.2462 14.7305C14.0462 14.7767 1.95385 14.7767 1.75385 14.7305C1.56538 14.6882 1.42692 14.5882 1.32692 14.419C1.25 14.2882 1.25 14.2189 1.25 7.99859C1.25 1.77826 1.25 1.70901 1.32692 1.57822C1.42308 1.41665 1.56538 1.3051 1.73462 1.26663C1.91923 1.22431 14.0615 1.22047 14.2462 1.26663Z" fill="#A5A5A5"/>
<path d="M2.73981 3.15146C2.48212 3.30918 2.46289 3.38227 2.46289 4.30551C2.46289 5.06334 2.47058 5.14412 2.53981 5.25953C2.69751 5.51726 2.77058 5.5365 3.69366 5.5365C4.61674 5.5365 4.68981 5.51726 4.84751 5.25953C4.91674 5.14412 4.92443 5.06334 4.92443 4.30551C4.92443 3.54769 4.91674 3.4669 4.84751 3.3515C4.68981 3.09376 4.61674 3.07453 3.69366 3.07453C2.93597 3.07453 2.8552 3.08222 2.73981 3.15146Z" fill="#A5A5A5"/>
<path d="M6.43122 3.76725C6.2466 3.88263 6.1543 4.05569 6.1543 4.30568C6.1543 4.55566 6.2466 4.72873 6.43122 4.8441C6.5543 4.91717 6.63122 4.92102 9.8466 4.92102C13.062 4.92102 13.1389 4.91717 13.262 4.8441C13.4466 4.72873 13.5389 4.55566 13.5389 4.30568C13.5389 4.05569 13.4466 3.88263 13.262 3.76725C13.1389 3.69418 13.062 3.69033 9.8466 3.69033C6.63122 3.69033 6.5543 3.69418 6.43122 3.76725Z" fill="#A5A5A5"/>
<path d="M2.73981 6.84446C2.48212 7.00218 2.46289 7.07527 2.46289 7.99851C2.46289 8.75633 2.47058 8.83712 2.53981 8.95252C2.69751 9.21026 2.77058 9.22949 3.69366 9.22949C4.61674 9.22949 4.68981 9.21026 4.84751 8.95252C4.91674 8.83712 4.92443 8.75633 4.92443 7.99851C4.92443 7.24068 4.91674 7.1599 4.84751 7.04449C4.68981 6.78675 4.61674 6.76752 3.69366 6.76752C2.93597 6.76752 2.8552 6.77521 2.73981 6.84446Z" fill="#A5A5A5"/>
<path d="M6.43122 7.46037C6.2466 7.57574 6.1543 7.74881 6.1543 7.99879C6.1543 8.24878 6.2466 8.42184 6.43122 8.53722C6.5543 8.61029 6.63122 8.61414 9.8466 8.61414C13.062 8.61414 13.1389 8.61029 13.262 8.53722C13.4466 8.42184 13.5389 8.24878 13.5389 7.99879C13.5389 7.74881 13.4466 7.57574 13.262 7.46037C13.1389 7.3873 13.062 7.38345 9.8466 7.38345C6.63122 7.38345 6.5543 7.3873 6.43122 7.46037Z" fill="#A5A5A5"/>
<path d="M2.73981 10.5376C2.48212 10.6953 2.46289 10.7684 2.46289 11.6916C2.46289 12.4494 2.47058 12.5302 2.53981 12.6456C2.69751 12.9034 2.77058 12.9226 3.69366 12.9226C4.61674 12.9226 4.68981 12.9034 4.84751 12.6456C4.91674 12.5302 4.92443 12.4494 4.92443 11.6916C4.92443 10.7684 4.9052 10.6953 4.64751 10.5376C4.53212 10.4683 4.45135 10.4606 3.69366 10.4606C2.93597 10.4606 2.8552 10.4683 2.73981 10.5376Z" fill="#A5A5A5"/>
<path d="M6.43122 11.1532C6.2466 11.2686 6.1543 11.4417 6.1543 11.6917C6.1543 11.9416 6.2466 12.1147 6.43122 12.2301C6.5543 12.3032 6.63122 12.307 9.8466 12.307C13.062 12.307 13.1389 12.3032 13.262 12.2301C13.4466 12.1147 13.5389 11.9416 13.5389 11.6917C13.5389 11.4417 13.4466 11.2686 13.262 11.1532C13.1389 11.0802 13.062 11.0763 9.8466 11.0763C6.63122 11.0763 6.5543 11.0802 6.43122 11.1532Z" fill="#A5A5A5"/>
</svg>
