<svg width="80" height="80" viewBox="0 0 80 80" fill="none" xmlns="http://www.w3.org/2000/svg">
<circle cx="40" cy="40" r="40" fill="#FFD488"/>
<path fill-rule="evenodd" clip-rule="evenodd" d="M37.4387 6.06399C32.3994 6.5466 28.6514 7.61242 24.408 9.76944C19.3813 12.3244 14.8707 16.3647 11.5818 21.258C10.1892 23.3298 8.48751 26.8275 7.67043 29.2971C7.01091 31.2906 6.48702 33.5592 6.16684 35.8082C5.94439 37.371 5.94439 42.6168 6.16684 44.1795C6.72397 48.0935 7.75911 51.522 9.37639 54.8098C11.2061 58.5296 12.9984 61.0287 15.9573 63.9858C18.8839 66.9103 21.4236 68.7366 25.0063 70.493C27.5062 71.7185 29.1203 72.315 31.6547 72.9503C38.3049 74.6172 44.9746 74.2975 51.4719 72.0006C53.4414 71.3044 56.8794 69.5825 58.6469 68.4072C62.6206 65.7647 66.2685 62.0277 68.8716 57.9325C69.8292 56.4258 71.3685 53.2469 71.9963 51.4788C75.12 42.6827 74.5763 33.2418 70.4711 24.9928C68.8143 21.6638 66.9699 19.0547 64.3803 16.3768C61.5086 13.407 58.6918 11.358 54.9238 9.49744C50.9852 7.55276 47.3155 6.51471 42.9568 6.11222C41.6022 5.98718 38.5225 5.96021 37.4387 6.06399ZM52.8628 24.8945C56.713 26.1926 59.4831 28.8592 60.7182 32.4567C62.969 39.0122 59.2886 45.8876 52.4667 47.871C51.4748 48.1594 51.3676 48.162 39.1811 48.201L26.8957 48.2403L28.6878 50.0634C30.2557 51.6585 30.4997 51.9662 30.6385 52.5238C30.9191 53.6503 30.4342 54.7786 29.4549 55.278C28.8896 55.566 27.9619 55.6205 27.3751 55.3999C26.8806 55.2142 19.1432 47.5103 18.8136 46.8756C18.5121 46.2954 18.4831 45.472 18.7428 44.8729C18.8455 44.6362 20.7601 42.6258 23.031 40.3702C26.5969 36.8283 27.208 36.2755 27.7009 36.1456C29.4867 35.6752 31.1261 37.3145 30.6502 39.0949C30.5266 39.5578 30.1718 39.9919 28.7165 41.4614C27.7364 42.4513 26.9344 43.3063 26.9344 43.3615C26.9344 43.4167 32.2746 43.4427 38.8016 43.4192C50.6436 43.3767 50.6707 43.3759 51.5427 43.0824C55.8329 41.6382 57.733 36.8886 55.6158 32.9012C54.7438 31.2588 52.8037 29.8283 50.9025 29.4256C50.1699 29.2704 48.1929 29.235 40.1925 29.233C30.8295 29.2308 30.3584 29.2191 29.8875 28.979C29.2782 28.6682 28.9984 28.3665 28.7345 27.7353C28.4657 27.0926 28.4801 26.495 28.7801 25.8423C29.0491 25.257 29.3246 24.9713 29.9264 24.654C30.2819 24.4665 31.4811 24.4475 41.0288 24.4786L51.7326 24.5135L52.8628 24.8945Z" fill="#EA9601"/>
</svg>
