<svg width="52" height="52" viewBox="0 0 52 52" fill="none" xmlns="http://www.w3.org/2000/svg">
<g filter="url(#filter0_d_591_2212)">
<rect x="4" y="4" width="44" height="44" rx="8" fill="white"/>
</g>
<path fill-rule="evenodd" clip-rule="evenodd" d="M6 12.6668C6 8.98482 8.98482 6 12.6668 6H39.3332C43.0151 6 46 8.98482 46 12.6668V39.3332C46 43.0151 43.0151 46 39.3332 46H12.6668C8.98482 46 6 43.0151 6 39.3332V12.6668Z" fill="#CC99FF"/>
<path d="M38.1477 21.7674C37.0471 18.4654 34.7487 15.8109 31.641 14.2571C28.5657 12.7032 25.0372 12.4766 21.7676 13.5449C18.4981 14.6455 15.8112 16.9439 14.2897 20.0193C12.7035 23.127 12.4769 26.6555 13.5452 29.925C14.5811 33.0651 16.9119 35.7844 19.8901 37.3382C21.7352 38.3092 23.7747 38.7948 25.8141 38.7948C27.2061 38.7948 28.5657 38.5683 29.9253 38.1151C34.7811 36.4965 38.1477 32.2882 38.6981 27.3029C38.9246 25.4901 38.7304 23.5802 38.1477 21.7674ZM32.8388 23.1917L34.1984 21.8321C34.4574 21.5731 34.8459 21.5731 35.1048 21.8321C35.3638 22.091 35.3638 22.4795 35.1048 22.7385L33.7452 24.0981C33.6157 24.2276 33.4539 24.2923 33.292 24.2923C33.1301 24.2923 32.9683 24.2276 32.8388 24.0981C32.5798 23.8715 32.5798 23.4506 32.8388 23.1917ZM28.6305 16.6202C28.8894 16.3613 29.3103 16.3936 29.5369 16.6526L30.8317 18.0122C31.0907 18.2712 31.0583 18.692 30.7993 18.9186C30.6699 19.0481 30.508 19.0805 30.3462 19.0805C30.1843 19.0805 29.9901 19.0157 29.8606 18.8863L28.5657 17.5266C28.3715 17.3 28.3715 16.8792 28.6305 16.6202ZM25.8465 22.2206C26.3968 22.2206 26.9471 22.35 27.4651 22.609C28.3391 23.0298 28.9866 23.7744 29.2779 24.7132C29.5692 25.652 29.5045 26.6231 29.0836 27.4971C28.6629 28.3712 27.9183 29.0186 26.9795 29.31C25.0695 29.9574 23.0301 28.9215 22.3827 27.0116C22.0913 26.1052 22.1561 25.1017 22.5769 24.2276C22.9978 23.3536 23.7423 22.7061 24.6811 22.4148C25.0695 22.2853 25.458 22.2206 25.8465 22.2206ZM21.1849 18.0122L22.5446 16.6526C22.8035 16.3936 23.192 16.3936 23.4509 16.6526C23.7099 16.9116 23.7099 17.3 23.4509 17.559L22.0913 18.9186C21.9619 19.0481 21.8 19.1129 21.6382 19.1129C21.4763 19.1129 21.3144 19.0481 21.1849 18.9186C20.9259 18.692 20.9259 18.2712 21.1849 18.0122ZM16.6529 22.7385C16.3939 22.4795 16.3939 22.091 16.6529 21.8321C16.9119 21.5731 17.3003 21.5731 17.5593 21.8321L18.9189 23.1917C19.1779 23.4506 19.1779 23.8391 18.9189 24.0981C18.7894 24.2276 18.6275 24.2923 18.4657 24.2923C18.3039 24.2923 18.142 24.2276 18.0125 24.0981L16.6529 22.7385ZM17.6564 30.443C17.4946 30.443 17.3327 30.3783 17.2032 30.2487C16.9442 29.9898 16.9442 29.6014 17.2032 29.3423L18.5629 27.9827C18.8218 27.7237 19.2103 27.7237 19.4692 27.9827C19.7283 28.2417 19.7283 28.6302 19.4692 28.8891L18.1096 30.2487C18.0125 30.3783 17.8507 30.443 17.6564 30.443ZM36.2702 31.058C34.8783 33.842 32.4827 35.9138 29.5369 36.8849C26.4939 37.9209 23.2891 37.6618 20.5052 36.2052C20.149 36.011 19.8253 35.8167 19.5016 35.6225C20.5375 35.5901 21.3468 34.8132 21.3468 33.0003C21.3144 31.2523 25.4904 31.1552 25.5551 33.0003C25.717 36.8849 33.8747 34.716 33.6481 28.4683C33.5833 26.267 36.2379 26.2346 36.2379 27.4971C36.2379 28.533 36.691 28.9215 37.1443 28.8891C36.9175 29.6014 36.6263 30.3459 36.2702 31.058Z" fill="white"/>
<defs>
<filter id="filter0_d_591_2212" x="0" y="0" width="52" height="52" filterUnits="userSpaceOnUse" color-interpolation-filters="sRGB">
<feFlood flood-opacity="0" result="BackgroundImageFix"/>
<feColorMatrix in="SourceAlpha" type="matrix" values="0 0 0 0 0 0 0 0 0 0 0 0 0 0 0 0 0 0 127 0" result="hardAlpha"/>
<feOffset/>
<feGaussianBlur stdDeviation="2"/>
<feComposite in2="hardAlpha" operator="out"/>
<feColorMatrix type="matrix" values="0 0 0 0 0 0 0 0 0 0 0 0 0 0 0 0 0 0 0.25 0"/>
<feBlend mode="normal" in2="BackgroundImageFix" result="effect1_dropShadow_591_2212"/>
<feBlend mode="normal" in="SourceGraphic" in2="effect1_dropShadow_591_2212" result="shape"/>
</filter>
</defs>
</svg>
