<svg width="643" height="402" viewBox="0 0 643 402" fill="none" xmlns="http://www.w3.org/2000/svg">
<path d="M250.547 9.1159V12.6801H259.545V19.5164H250.547V23.6064H260.772V30.8517H241.432V1.87061H260.772V9.1159H250.547Z" fill="#1A2B51"/>
<path d="M280.755 30.8521L275.321 20.4516V30.8521H266.206V1.87101H279.703C281.781 1.82822 283.841 2.26825 285.721 3.15647C287.294 3.86376 288.602 5.04986 289.461 6.54538C290.315 8.018 290.759 9.69265 290.746 11.395C290.772 13.291 290.166 15.1417 289.024 16.6548C287.881 18.1679 286.267 19.2571 284.436 19.7505L290.746 30.8521H280.755ZM275.321 14.4334H278.885C279.604 14.4712 280.311 14.2423 280.871 13.7907C281.101 13.5516 281.277 13.2664 281.388 12.9541C281.498 12.6419 281.542 12.3096 281.514 11.9793C281.548 11.3142 281.317 10.6628 280.871 10.168C280.602 9.93091 280.286 9.75155 279.945 9.64101C279.603 9.53047 279.242 9.49107 278.885 9.52528H275.321V14.4334Z" fill="#1A2B51"/>
<path d="M310.203 30.8521L304.769 20.4516V30.8521H295.654V1.87101H309.152C311.23 1.82822 313.29 2.26825 315.17 3.15647C316.732 3.88002 318.036 5.0621 318.909 6.54538C319.743 8.02373 320.167 9.69803 320.136 11.395C320.187 13.2881 319.597 15.1428 318.462 16.6591C317.328 18.1754 315.715 19.2646 313.884 19.7505L320.195 30.8521H310.203ZM304.769 14.4334H308.334C309.052 14.4712 309.76 14.2423 310.32 13.7907C310.74 13.2774 310.965 12.6319 310.954 11.9686C310.944 11.3054 310.698 10.6674 310.262 10.168C310.007 9.9261 309.702 9.74313 309.369 9.63206C309.036 9.52099 308.682 9.48451 308.334 9.52528H304.769V14.4334Z" fill="#1A2B51"/>
<path d="M331.705 29.2147C329.45 27.9621 327.573 26.1255 326.272 23.8976C324.921 21.5762 324.234 18.9284 324.285 16.2432C324.243 13.5591 324.929 10.9138 326.272 8.58898C327.56 6.3659 329.441 4.54512 331.705 3.33031C333.988 2.04648 336.566 1.38178 339.184 1.40213C341.805 1.36792 344.386 2.03354 346.663 3.33031C348.928 4.54512 350.809 6.3659 352.097 8.58898C353.396 10.929 354.06 13.5675 354.026 16.2432C354.069 18.92 353.403 21.5606 352.097 23.8976C350.796 26.1255 348.919 27.9621 346.663 29.2147C344.384 30.5062 341.804 31.1714 339.184 31.1428C336.566 31.1632 333.988 30.4985 331.705 29.2147ZM343.391 20.9176C344.385 19.749 344.852 18.2299 344.852 16.2432C344.852 14.2566 344.385 12.6791 343.391 11.5105C342.842 10.9522 342.187 10.5088 341.465 10.2062C340.743 9.90356 339.968 9.74769 339.184 9.74769C338.401 9.74769 337.626 9.90356 336.904 10.2062C336.181 10.5088 335.527 10.9522 334.978 11.5105C333.959 12.872 333.442 14.5443 333.517 16.2432C333.441 17.9243 333.958 19.5786 334.978 20.9176C335.527 21.4759 336.181 21.9193 336.904 22.2219C337.626 22.5246 338.401 22.6804 339.184 22.6804C339.968 22.6804 340.743 22.5246 341.465 22.2219C342.187 21.9193 342.842 21.4759 343.391 20.9176Z" fill="#1A2B51"/>
<path d="M373.95 30.8521L368.457 20.4516V30.8521H359.342V1.87101H372.84C374.918 1.82822 376.978 2.26825 378.858 3.15647C380.43 3.86376 381.739 5.04986 382.597 6.54538C383.452 8.018 383.895 9.69265 383.883 11.395C383.888 13.2378 383.316 15.0358 382.247 16.5368C381.109 18.0925 379.485 19.2235 377.631 19.7505L383.883 30.8521H373.95ZM368.457 14.4334H372.021C372.74 14.4712 373.448 14.2423 374.008 13.7907C374.238 13.5516 374.413 13.2664 374.524 12.9541C374.635 12.6419 374.678 12.3096 374.651 11.9793C374.685 11.3142 374.454 10.6628 374.008 10.168C373.738 9.93091 373.423 9.75155 373.081 9.64101C372.74 9.53047 372.379 9.49107 372.021 9.52528H368.457V14.4334Z" fill="#1A2B51"/>
<path d="M392.297 29.916C391.829 29.5234 391.455 29.031 391.202 28.4749C390.949 27.9188 390.824 27.3131 390.836 26.7024C390.816 26.0904 390.937 25.4819 391.19 24.9244C391.443 24.3669 391.822 23.8756 392.297 23.4887C393.378 22.6595 394.703 22.2102 396.066 22.2102C397.428 22.2102 398.753 22.6595 399.834 23.4887C400.309 23.8756 400.688 24.3669 400.941 24.9244C401.195 25.4819 401.316 26.0904 401.295 26.7024C401.307 27.3131 401.182 27.9188 400.929 28.4749C400.677 29.031 400.302 29.5234 399.834 29.916C398.738 30.7096 397.419 31.1369 396.066 31.1369C394.712 31.1369 393.393 30.7096 392.297 29.916ZM401.003 0L399.951 19.3402H392.18L391.128 0H401.003Z" fill="#1A2B51"/>
<path d="M141.867 392.647C140.289 391.537 139.471 389.901 139.354 387.739H146.015C146.074 388.849 146.6 389.433 147.535 389.433C147.845 389.455 148.153 389.372 148.411 389.2C148.528 389.112 148.622 388.997 148.683 388.864C148.744 388.732 148.771 388.586 148.762 388.44C148.757 388.201 148.683 387.969 148.548 387.772C148.413 387.574 148.223 387.421 148.002 387.33C147.231 386.919 146.43 386.568 145.606 386.278C144.523 385.933 143.468 385.503 142.451 384.993C141.588 384.53 140.847 383.869 140.289 383.064C139.612 382.137 139.301 380.993 139.413 379.851C139.366 378.661 139.715 377.49 140.406 376.52C141.111 375.594 142.063 374.885 143.152 374.475C144.4 373.992 145.729 373.754 147.067 373.774C149.521 373.774 151.449 374.3 152.91 375.469C153.634 376.037 154.217 376.765 154.612 377.597C155.007 378.428 155.205 379.339 155.189 380.26H148.411C148.442 379.813 148.295 379.372 148.002 379.033C147.726 378.796 147.372 378.672 147.009 378.682C146.891 378.676 146.774 378.694 146.664 378.734C146.553 378.774 146.452 378.836 146.366 378.916C146.192 379.129 146.108 379.402 146.132 379.676C146.137 379.914 146.212 380.147 146.346 380.344C146.481 380.541 146.671 380.695 146.892 380.786C147.657 381.207 148.459 381.559 149.288 381.837C150.353 382.227 151.388 382.696 152.384 383.24C153.232 383.673 153.971 384.292 154.546 385.051C155.157 385.877 155.466 386.888 155.423 387.914C155.439 389.083 155.136 390.235 154.546 391.245C153.903 392.238 152.991 393.028 151.917 393.523C150.293 394.186 148.534 394.452 146.786 394.3C145.038 394.147 143.352 393.581 141.867 392.647Z" fill="#1A2B51"/>
<path d="M162.317 393.348C161.055 392.698 160.002 391.706 159.279 390.484C158.588 389.148 158.227 387.665 158.227 386.161C158.227 384.656 158.588 383.173 159.279 381.837C159.986 380.603 161.044 379.607 162.317 378.974C163.666 378.322 165.144 377.983 166.641 377.983C168.139 377.983 169.617 378.322 170.965 378.974C172.239 379.607 173.296 380.603 174.003 381.837C174.695 383.173 175.056 384.656 175.056 386.161C175.056 387.665 174.695 389.148 174.003 390.484C173.28 391.706 172.227 392.698 170.965 393.348C169.617 393.999 168.139 394.338 166.641 394.338C165.144 394.338 163.666 393.999 162.317 393.348ZM168.102 388.206C168.537 387.617 168.744 386.89 168.686 386.161C168.755 385.43 168.547 384.7 168.102 384.116C167.927 383.896 167.705 383.719 167.452 383.598C167.199 383.476 166.922 383.413 166.641 383.413C166.361 383.413 166.084 383.476 165.831 383.598C165.578 383.719 165.356 383.896 165.181 384.116C164.736 384.7 164.527 385.43 164.596 386.161C164.538 386.89 164.746 387.617 165.181 388.206C165.35 388.431 165.571 388.613 165.825 388.735C166.079 388.857 166.359 388.916 166.641 388.907C166.922 388.907 167.199 388.844 167.452 388.723C167.704 388.601 167.927 388.425 168.102 388.206Z" fill="#1A2B51"/>
<path d="M187.092 378.917C187.963 378.355 188.976 378.051 190.013 378.041V384.76H188.202C187.28 384.703 186.364 384.928 185.572 385.403C185.276 385.686 185.048 386.034 184.906 386.418C184.764 386.803 184.712 387.215 184.754 387.623V394.168H178.502V378.158H184.754V381.138C185.352 380.228 186.152 379.468 187.092 378.917Z" fill="#1A2B51"/>
<path d="M201.757 378.917C202.608 378.357 203.602 378.053 204.621 378.041V384.76H202.868C201.945 384.688 201.023 384.913 200.238 385.403C199.654 385.812 199.42 386.572 199.42 387.623V394.168H193.11V378.158H199.42V381.138C200.018 380.228 200.818 379.468 201.757 378.917Z" fill="#1A2B51"/>
<path d="M225.772 378.157L215.547 401.762H208.652L212.684 393.348L206.023 378.157H213.035L216.014 386.278L218.819 378.157H225.772Z" fill="#1A2B51"/>
<path d="M235.063 389.141L232.141 397.554H228.168L229.512 389.141H235.063Z" fill="#1A2B51"/>
<path d="M261.18 384.408C260.578 385.477 259.659 386.334 258.551 386.862C257.264 387.505 255.841 387.826 254.403 387.797H251.949V394.166H245.638V374.125H254.403C256.857 374.125 258.726 374.709 260.07 375.994C260.733 376.636 261.252 377.409 261.594 378.265C261.937 379.121 262.094 380.04 262.057 380.961C262.08 382.168 261.777 383.359 261.18 384.408ZM255.688 380.961C255.688 379.734 254.987 379.149 253.701 379.149H251.949V382.831H253.701C254.987 382.831 255.688 382.188 255.688 380.961Z" fill="#1A2B51"/>
<path d="M265.446 381.78C265.946 380.644 266.756 379.672 267.783 378.975C268.796 378.331 269.971 377.987 271.172 377.982C272.108 377.966 273.032 378.187 273.86 378.625C274.607 379.02 275.218 379.63 275.612 380.377V378.157H281.865V394.167H275.612V391.946C275.218 392.694 274.607 393.304 273.86 393.699C273.032 394.137 272.108 394.358 271.172 394.342C269.971 394.337 268.796 393.993 267.783 393.349C266.756 392.652 265.946 391.68 265.446 390.544C264.867 389.156 264.569 387.666 264.569 386.162C264.569 384.658 264.867 383.168 265.446 381.78ZM274.97 384.175C274.747 383.953 274.483 383.776 274.192 383.656C273.902 383.535 273.59 383.473 273.275 383.473C272.961 383.473 272.649 383.535 272.358 383.656C272.068 383.776 271.803 383.953 271.581 384.175C271.163 384.753 270.938 385.448 270.938 386.162C270.938 386.875 271.163 387.571 271.581 388.149C271.803 388.371 272.068 388.548 272.358 388.668C272.649 388.789 272.961 388.851 273.275 388.851C273.59 388.851 273.902 388.789 274.192 388.668C274.483 388.548 274.747 388.371 274.97 388.149C275.388 387.571 275.613 386.875 275.613 386.162C275.613 385.448 275.388 384.753 274.97 384.175Z" fill="#1A2B51"/>
<path d="M294.544 378.624C295.286 379.006 295.882 379.622 296.239 380.377V378.157H302.491V393.874C302.52 395.281 302.241 396.677 301.673 397.964C301.113 399.182 300.196 400.201 299.043 400.886C297.609 401.657 295.997 402.039 294.369 401.996C291.798 401.996 289.753 401.412 288.234 400.185C287.492 399.591 286.884 398.846 286.451 398C286.018 397.154 285.769 396.226 285.721 395.276H291.856C292.032 396.153 292.733 396.562 293.902 396.562C294.218 396.589 294.537 396.551 294.838 396.45C295.14 396.35 295.417 396.189 295.654 395.978C296.063 395.627 296.239 394.867 296.239 393.874V391.946C295.882 392.701 295.286 393.317 294.544 393.699C293.714 394.129 292.791 394.35 291.856 394.342C290.653 394.353 289.474 394.008 288.468 393.348C287.424 392.669 286.61 391.692 286.13 390.544C285.552 389.155 285.254 387.666 285.254 386.161C285.254 384.657 285.552 383.168 286.13 381.779C286.61 380.631 287.424 379.653 288.468 378.975C289.474 378.315 290.653 377.97 291.856 377.981C292.791 377.973 293.714 378.194 294.544 378.624ZM295.596 384.175C295.391 383.945 295.138 383.764 294.856 383.643C294.573 383.522 294.267 383.464 293.96 383.474C293.643 383.459 293.328 383.515 293.035 383.636C292.742 383.757 292.479 383.941 292.265 384.175C291.847 384.753 291.622 385.448 291.622 386.161C291.622 386.875 291.847 387.57 292.265 388.148C292.479 388.382 292.742 388.566 293.035 388.687C293.328 388.808 293.643 388.864 293.96 388.849C294.267 388.859 294.573 388.801 294.856 388.68C295.138 388.559 295.391 388.377 295.596 388.148C296.014 387.57 296.239 386.875 296.239 386.161C296.239 385.448 296.014 384.753 295.596 384.175Z" fill="#1A2B51"/>
<path d="M322.123 387.271H312.014C312.131 388.615 312.715 389.316 313.767 389.316C314.077 389.328 314.383 389.245 314.644 389.078C314.905 388.91 315.109 388.668 315.228 388.381H321.889C321.681 389.506 321.177 390.555 320.428 391.42C319.705 392.355 318.761 393.098 317.682 393.582C316.548 394.106 315.309 394.366 314.059 394.341C312.597 394.359 311.152 394.018 309.852 393.348C308.611 392.711 307.593 391.713 306.931 390.485C306.239 389.148 305.878 387.666 305.878 386.161C305.878 384.656 306.239 383.174 306.931 381.837C307.577 380.598 308.6 379.595 309.852 378.974C311.159 378.321 312.599 377.981 314.059 377.981C315.52 377.981 316.96 378.321 318.266 378.974C319.487 379.586 320.502 380.54 321.188 381.72C321.917 383.042 322.28 384.535 322.24 386.044C322.23 386.455 322.191 386.865 322.123 387.271ZM315.871 384.525C315.882 384.294 315.841 384.063 315.75 383.851C315.659 383.638 315.52 383.449 315.345 383.298C314.969 383.032 314.52 382.889 314.059 382.889C313.824 382.865 313.587 382.888 313.361 382.958C313.136 383.028 312.927 383.143 312.747 383.296C312.567 383.449 312.419 383.636 312.313 383.848C312.208 384.059 312.146 384.289 312.131 384.525H315.871Z" fill="#1A2B51"/>
<path d="M351.045 394.166H344.793L338.132 384.058V394.166H331.822V374.125H338.132L344.793 384.35V374.125H351.045V394.166Z" fill="#1A2B51"/>
<path d="M358.583 393.349C357.309 392.716 356.252 391.72 355.544 390.486C354.818 389.16 354.438 387.673 354.438 386.162C354.438 384.65 354.818 383.164 355.544 381.838C356.234 380.59 357.296 379.589 358.583 378.975C359.924 378.304 361.407 377.963 362.907 377.982C364.406 377.97 365.887 378.31 367.23 378.975C368.5 379.593 369.542 380.594 370.21 381.838C370.936 383.164 371.317 384.65 371.317 386.162C371.317 387.673 370.936 389.16 370.21 390.486C369.524 391.715 368.487 392.712 367.23 393.349C365.887 394.013 364.406 394.354 362.907 394.342C361.407 394.36 359.924 394.02 358.583 393.349ZM364.367 388.207C364.802 387.618 365.01 386.892 364.952 386.162C365.021 385.431 364.812 384.701 364.367 384.117C364.192 383.898 363.97 383.721 363.717 383.6C363.464 383.478 363.187 383.415 362.907 383.416C362.618 383.415 362.332 383.477 362.07 383.599C361.807 383.72 361.574 383.896 361.387 384.117C360.97 384.714 360.765 385.434 360.803 386.162C360.773 386.889 360.978 387.606 361.387 388.207C361.569 388.434 361.8 388.615 362.064 388.737C362.328 388.859 362.616 388.917 362.907 388.908C363.187 388.908 363.464 388.845 363.717 388.724C363.97 388.603 364.192 388.426 364.367 388.207Z" fill="#1A2B51"/>
<path d="M384.643 388.791V394.166H382.306C377.923 394.166 375.703 391.946 375.703 387.622V383.415H373.716V378.157H375.703V374.3H382.013V378.157H384.584V383.415H382.013V387.739C381.986 388.031 382.069 388.324 382.247 388.557C382.517 388.753 382.852 388.837 383.182 388.791H384.643Z" fill="#1A2B51"/>
<path d="M408.832 374.125V379.091H401.003V381.837H406.67V386.57H401.003V394.166H394.692V374.125H408.832Z" fill="#1A2B51"/>
<path d="M415.669 393.349C414.407 392.699 413.353 391.707 412.63 390.486C411.904 389.16 411.523 387.673 411.523 386.162C411.523 384.65 411.904 383.164 412.63 381.838C413.338 380.604 414.395 379.608 415.669 378.975C417.01 378.304 418.493 377.963 419.993 377.982C421.492 377.97 422.973 378.31 424.316 378.975C425.59 379.608 426.647 380.604 427.355 381.838C428.046 383.174 428.407 384.657 428.407 386.162C428.407 387.667 428.046 389.149 427.355 390.486C426.632 391.707 425.578 392.699 424.316 393.349C422.973 394.013 421.492 394.354 419.993 394.342C418.493 394.36 417.01 394.02 415.669 393.349ZM421.453 388.207C421.888 387.618 422.096 386.892 422.038 386.162C422.107 385.431 421.898 384.701 421.453 384.117C421.278 383.898 421.056 383.721 420.803 383.6C420.55 383.478 420.273 383.415 419.993 383.416C419.711 383.406 419.431 383.465 419.176 383.587C418.922 383.709 418.701 383.891 418.532 384.117C418.071 384.695 417.842 385.424 417.889 386.162C417.859 386.889 418.064 387.606 418.473 388.207C418.655 388.434 418.886 388.615 419.15 388.737C419.414 388.859 419.702 388.917 419.993 388.908C420.273 388.908 420.55 388.845 420.803 388.724C421.056 388.603 421.278 388.426 421.453 388.207Z" fill="#1A2B51"/>
<path d="M448.74 378.157V394.166H442.429V391.712C441.929 392.473 441.246 393.096 440.443 393.524C439.554 394.034 438.545 394.296 437.521 394.283C436.714 394.32 435.91 394.171 435.17 393.846C434.431 393.522 433.775 393.032 433.256 392.414C432.204 391.187 431.678 389.551 431.678 387.447V378.157H437.93V386.629C437.908 387.292 438.138 387.939 438.573 388.44C439.017 388.855 439.601 389.086 440.209 389.086C440.816 389.086 441.401 388.855 441.845 388.44C442.259 387.931 442.467 387.285 442.429 386.629V378.157H448.74Z" fill="#1A2B51"/>
<path d="M468.431 379.91C469.482 381.137 469.95 382.773 469.95 384.877V394.167H463.698V385.695C463.736 385.039 463.528 384.393 463.114 383.884C462.67 383.469 462.085 383.238 461.478 383.238C460.87 383.238 460.285 383.469 459.842 383.884C459.427 384.393 459.219 385.039 459.257 385.695V394.167H452.947V378.157H459.257V380.611C459.735 379.853 460.399 379.23 461.185 378.8C462.084 378.262 463.119 377.998 464.165 378.041C464.972 378.008 465.775 378.16 466.514 378.484C467.253 378.807 467.908 379.295 468.431 379.91Z" fill="#1A2B51"/>
<path d="M474.098 381.78C474.617 380.638 475.447 379.666 476.494 378.975C477.482 378.324 478.641 377.978 479.824 377.982C480.76 377.966 481.685 378.187 482.512 378.624C483.254 379.007 483.85 379.623 484.207 380.377V373.19H490.517V394.167H484.207V391.946C483.85 392.701 483.254 393.317 482.512 393.699C481.685 394.137 480.76 394.358 479.824 394.342C478.641 394.346 477.482 394 476.494 393.349C475.447 392.658 474.617 391.686 474.098 390.544C473.008 387.724 473.008 384.599 474.098 381.78ZM483.622 384.175C483.406 383.944 483.143 383.762 482.851 383.642C482.559 383.521 482.244 383.463 481.928 383.474C481.621 383.464 481.315 383.522 481.032 383.643C480.749 383.764 480.497 383.946 480.292 384.175C479.874 384.753 479.649 385.448 479.649 386.162C479.649 386.875 479.874 387.57 480.292 388.148C480.497 388.378 480.749 388.559 481.032 388.681C481.315 388.802 481.621 388.859 481.928 388.85C482.244 388.86 482.559 388.803 482.851 388.682C483.143 388.561 483.406 388.379 483.622 388.148C484.041 387.57 484.266 386.875 484.266 386.162C484.266 385.448 484.041 384.753 483.622 384.175Z" fill="#1A2B51"/>
<path d="M497.178 393.465C496.865 393.2 496.613 392.869 496.441 392.495C496.27 392.121 496.182 391.715 496.185 391.303C496.177 390.874 496.261 390.449 496.433 390.056C496.604 389.662 496.859 389.311 497.178 389.025C497.91 388.407 498.851 388.093 499.808 388.148C500.745 388.102 501.665 388.415 502.379 389.025C502.708 389.303 502.969 389.653 503.142 390.048C503.314 390.443 503.393 390.873 503.372 391.303C503.388 391.716 503.306 392.127 503.134 392.503C502.961 392.879 502.703 393.208 502.379 393.465C501.665 394.074 500.745 394.388 499.808 394.342C498.851 394.397 497.91 394.083 497.178 393.465ZM503.255 372.781L502.496 386.162H497.12L496.36 372.781H503.255Z" fill="#1A2B51"/>
<path d="M23.0215 283.677V225.598L116.509 92.2612H191.533V223.436H214.086V283.677H191.533V318.15H121.242V283.677H23.0215ZM126.851 171.667L92.9618 223.436H126.851V171.667Z" fill="white"/>
<path d="M260.713 114.873C276.1 94.1497 299.783 83.7881 331.764 83.7881C363.744 83.7881 387.389 94.1886 402.698 114.99C418.201 135.868 425.933 164.265 425.894 200.18C425.855 236.095 418.123 264.608 402.698 285.721C387.233 306.522 363.589 316.922 331.764 316.922C299.939 316.922 276.256 306.522 260.713 285.721C245.327 264.881 237.634 236.367 237.634 200.18C237.634 163.993 245.327 135.557 260.713 114.873ZM352.156 162.376C348.825 153.904 341.989 149.697 331.764 149.697C321.539 149.697 314.41 153.904 311.08 162.376C307.749 170.848 306.055 183.469 306.055 200.18C306.055 216.891 307.691 229.862 311.08 238.335C314.469 246.807 321.305 251.014 331.764 251.014C342.223 251.014 348.825 246.807 352.156 238.335C355.486 229.862 357.181 217.125 357.181 200.18C357.181 183.235 355.486 170.848 352.156 162.376Z" fill="white"/>
<path d="M451.603 283.677V225.598L545.148 92.2612H620.114V223.436H642.726V283.677H620.114V318.15H549.823V283.677H451.603ZM555.49 171.667L521.601 223.436H555.49V171.667Z" fill="white"/>
<path d="M189.897 93.8389V225.013H212.509V282.041H189.897V316.573H122.819V282.041H24.5991V226.124L117.327 93.8389H189.897ZM90.0403 225.013H128.487V166.292L125.507 170.791L91.6179 222.559L90.0403 225.013ZM191.533 92.2612H116.509L23.0215 225.598V283.677H121.242V318.15H191.533V283.677H214.086V223.436H191.533V92.2612ZM92.9618 223.436L126.851 171.667V223.436H92.9618Z" fill="#1A2B51"/>
<path d="M331.764 85.3662C347.365 85.3662 361.154 87.9955 372.665 93.0789C384.103 98.0384 394.023 105.942 401.412 115.983C408.95 126.15 414.734 138.42 418.532 152.327C422.33 166.233 424.317 182.418 424.317 200.18C424.317 217.943 422.33 234.245 418.532 248.268C414.734 262.291 408.95 274.561 401.412 284.728C394.023 294.77 384.103 302.673 372.665 307.633C361.154 312.716 347.365 315.287 331.764 315.287C316.163 315.287 302.199 312.716 290.63 307.633C279.216 302.685 269.332 294.777 261.999 284.728C254.462 274.561 248.735 262.291 244.937 248.268C241.14 234.245 239.211 218.06 239.211 200.18C239.211 182.301 241.14 166.174 244.937 152.151C248.735 138.128 254.462 125.975 261.999 115.808C269.353 105.808 279.234 97.9434 290.63 93.0204C302.199 87.9371 316.046 85.3662 331.764 85.3662ZM331.764 252.65C342.69 252.65 350.052 248.034 353.675 238.919C357.298 229.804 358.758 217.242 358.758 200.18C358.758 183.119 357.064 170.44 353.675 161.792C350.286 153.145 342.69 148.061 331.764 148.061C320.838 148.061 313.183 152.677 309.561 161.792C305.938 170.907 304.419 183.353 304.419 200.18C304.419 217.008 306.172 230.272 309.561 238.919C312.95 247.567 320.604 252.65 331.764 252.65ZM331.764 83.7885C299.745 83.7885 276.061 94.1501 260.713 114.873C245.366 135.596 237.673 164.032 237.634 200.18C237.634 236.407 245.327 264.921 260.713 285.721C276.1 306.522 299.783 316.923 331.764 316.923C363.55 316.923 387.194 306.522 402.698 285.721C418.201 264.921 425.933 236.407 425.894 200.18C425.894 164.266 418.162 135.869 402.698 114.99C387.233 94.1111 363.589 83.7106 331.764 83.7885ZM331.764 251.014C321.305 251.014 314.41 246.807 311.08 238.335C307.749 229.863 306.055 217.125 306.055 200.18C306.055 183.236 307.691 170.849 311.08 162.376C314.469 153.904 321.305 149.697 331.764 149.697C342.223 149.697 348.825 153.904 352.156 162.376C355.486 170.849 357.181 183.47 357.181 200.18C357.181 216.891 355.486 229.863 352.156 238.335C348.825 246.807 341.989 251.014 331.764 251.014Z" fill="#1F4168"/>
<path d="M618.536 93.8389V225.013H641.09V282.041H618.536V316.573H551.459V282.041H453.239V226.124L545.966 93.8389H618.536ZM518.621 225.013H557.068V166.292L554.147 170.791L520.257 222.559L518.621 225.013ZM620.114 92.2612H545.148L451.603 225.598V283.677H549.823V318.15H620.114V283.677H642.726V223.436H620.114V92.2612ZM521.601 223.436L555.49 171.667V223.436H521.601Z" fill="#1F4168"/>
<path d="M0 283.677V225.598L93.5459 92.2612H168.511V223.436H191.123V283.677H168.511V318.15H98.2203V283.677H0ZM103.888 171.667L69.9987 223.436H103.888V171.667Z" fill="#1A2B51"/>
<path d="M237.692 114.873C253.078 94.1497 276.762 83.7881 308.742 83.7881C340.723 83.7881 364.367 94.1886 379.676 114.99C395.179 135.868 402.911 164.265 402.872 200.18C402.833 236.095 395.101 264.608 379.676 285.721C364.211 306.522 340.567 316.922 308.742 316.922C276.917 316.922 253.234 306.522 237.692 285.721C222.344 264.881 214.651 236.367 214.612 200.18C214.573 163.993 222.266 135.557 237.692 114.873ZM329.134 162.376C325.804 153.904 319.026 149.697 308.742 149.697C298.459 149.697 291.389 153.904 288.058 162.376C284.728 170.848 283.033 183.469 283.033 200.18C283.033 216.891 284.728 229.862 288.058 238.335C291.389 246.807 298.283 251.014 308.742 251.014C319.201 251.014 325.804 246.807 329.134 238.335C332.465 229.862 334.159 217.125 334.159 200.18C334.159 183.235 332.523 170.848 329.134 162.376Z" fill="#1A2B51"/>
<path d="M428.64 283.677V225.598L522.128 92.2612H597.093V223.436H619.705V283.677H597.093V318.15H526.86V283.677H428.64ZM532.47 171.667L498.58 223.436H532.47V171.667Z" fill="#1A2B51"/>
</svg>
