<svg width="40" height="40" viewBox="0 0 40 40" fill="none" xmlns="http://www.w3.org/2000/svg">
<circle cx="20" cy="20" r="20" fill="#1A2B51"/>
<path fill-rule="evenodd" clip-rule="evenodd" d="M19.4558 12.0285C17.7165 12.2109 16.1878 13.2856 15.383 14.8918C15.2479 15.1614 15.0382 15.779 14.9749 16.0938C14.7456 17.2343 14.8924 18.3957 15.3958 19.4242C15.4708 19.5776 16.4576 21.1546 17.5885 22.9287C19.1143 25.3221 19.6718 26.1727 19.7495 26.2253C19.8915 26.3214 20.1098 26.3215 20.2515 26.2256C20.3283 26.1736 20.8934 25.3134 22.4049 22.9474C23.5319 21.1832 24.5229 19.5989 24.607 19.4268C25.1929 18.2278 25.2941 16.8372 24.8868 15.5842C24.6254 14.7805 24.2156 14.1083 23.6254 13.5151C22.5205 12.4046 21.0089 11.8657 19.4558 12.0285ZM20.5768 14.8834C21.413 15.1161 22.0655 15.7849 22.2767 16.6258C22.3012 16.7232 22.32 16.9543 22.32 17.1579C22.32 17.5428 22.2821 17.7465 22.1544 18.0498C21.8659 18.7347 21.252 19.2621 20.5301 19.4453C20.3078 19.5017 19.6937 19.5017 19.4714 19.4453C18.7495 19.2621 18.1356 18.7347 17.8471 18.0498C17.7194 17.7465 17.6815 17.5428 17.6815 17.1579C17.6815 16.773 17.7194 16.5692 17.8471 16.2659C18.1367 15.5784 18.7957 15.0155 19.4728 14.8773C19.5662 14.8582 19.6707 14.8361 19.7049 14.8281C19.8193 14.8015 20.4191 14.8395 20.5768 14.8834ZM15.9015 22.9015C13.637 23.5368 12.5966 24.6322 13.143 25.8058C13.2446 26.0239 13.5301 26.3506 13.8029 26.5609C14.7095 27.2598 16.4183 27.7634 18.5528 27.9606C19.1212 28.0131 20.8803 28.0131 21.4487 27.9606C23.5832 27.7634 25.292 27.2598 26.1986 26.5609C26.4714 26.3506 26.7569 26.0239 26.8585 25.8058C27.4096 24.6221 26.3267 23.5013 24.0369 22.8856C23.7309 22.8033 23.6603 22.7933 23.6291 22.8277C23.6082 22.8506 23.0821 23.6721 22.4598 24.6532C21.8375 25.6343 21.2742 26.5075 21.208 26.5935C20.6044 27.3785 19.3669 27.3759 18.7831 26.5884C18.7214 26.5052 18.1489 25.6167 17.511 24.6141C16.873 23.6114 16.335 22.7921 16.3153 22.7933C16.2957 22.7944 16.1095 22.8431 15.9015 22.9015Z" fill="white"/>
</svg>
