<svg width="11" height="6" viewBox="0 0 11 6" fill="none" xmlns="http://www.w3.org/2000/svg">
<path fill-rule="evenodd" clip-rule="evenodd" d="M10.412 5.9828C10.6346 5.93261 10.8366 5.77115 10.9376 5.56259C10.9884 5.4577 10.9973 5.41274 10.9969 5.26412C10.9959 4.93496 11.2024 5.15727 8.43036 2.50197C6.75848 0.900542 5.93411 0.124806 5.86736 0.0901833C5.71149 0.00934887 5.5274 -0.0190568 5.36547 0.0127454C5.29148 0.0272779 5.18668 0.0621271 5.13258 0.0901833C5.06582 0.124806 4.24146 0.900542 2.56957 2.50197C-0.202744 5.1575 0.00389004 4.9351 0.00326633 5.26412C0.00298595 5.41313 0.0120249 5.45813 0.0642319 5.56741C0.244871 5.9455 0.726274 6.10544 1.12065 5.91839C1.17671 5.89182 1.95543 5.16223 3.35335 3.82658L5.49997 1.77558L7.64658 3.82658C9.04997 5.16746 9.82301 5.89165 9.87928 5.91825C10.0431 5.99564 10.246 6.02022 10.412 5.9828Z" fill="#322E2F"/>
</svg>
