<svg width="65" height="65" viewBox="0 0 65 65" fill="none" xmlns="http://www.w3.org/2000/svg">
<path d="M32.5143 65.0001C50.4559 65.0001 65.0004 50.451 65.0004 32.5037C65.0004 14.5565 50.4559 0.00740528 32.5143 0.00740528C14.5728 0.00740528 0.0283203 14.5565 0.0283203 32.5037C0.0283203 50.451 14.5728 65.0001 32.5143 65.0001Z" fill="#E2CAB3"/>
<g style="mix-blend-mode:overlay" opacity="0.07">
<path d="M2.95018 35.4649C2.9469 29.2136 4.7462 23.0941 8.13234 17.84C11.5185 12.5859 16.3478 8.42027 22.0411 5.84264C27.7344 3.26501 34.0502 2.38476 40.231 3.30743C46.4119 4.2301 52.1956 6.91654 56.8885 11.0446C53.9553 7.70588 50.3686 5.00456 46.3501 3.10772C42.3316 1.21087 37.9669 0.158823 33.5257 0.0166331C29.0846 -0.125557 24.6615 0.645138 20.53 2.28105C16.3985 3.91697 12.6464 6.38332 9.50579 9.5276C6.36515 12.6719 3.90273 16.4272 2.2708 20.5614C0.638867 24.6956 -0.12787 29.1207 0.017999 33.5631C0.163868 38.0055 1.21924 42.3708 3.11886 46.389C5.01847 50.4071 7.72194 53.9927 11.0621 56.9241C5.83066 51.001 2.94547 43.3686 2.95018 35.4649Z" fill="black"/>
</g>
<mask id="mask0_581_697" style="mask-type:alpha" maskUnits="userSpaceOnUse" x="0" y="0" width="66" height="65">
<path d="M32.5143 65.0001C50.4559 65.0001 65.0004 50.451 65.0004 32.5037C65.0004 14.5565 50.4559 0.00740528 32.5143 0.00740528C14.5728 0.00740528 0.0283203 14.5565 0.0283203 32.5037C0.0283203 50.451 14.5728 65.0001 32.5143 65.0001Z" fill="#E2CAB3"/>
</mask>
<g mask="url(#mask0_581_697)">
<path d="M24.0567 25.8891C24.5565 27.8889 23.7492 29.7733 22.2498 30.1579C20.7505 30.5425 19.2127 29.2349 18.7129 27.2351C18.2131 25.2354 19.0204 23.351 20.5198 22.9664C22.0192 22.5818 23.5569 23.8894 24.0567 25.8891Z" fill="white"/>
<path d="M42.5488 25.8892C42.0874 27.889 42.8563 29.7734 44.3557 30.1579C45.855 30.5425 47.3928 29.235 47.8926 27.2352C48.3924 25.2354 47.5851 23.351 46.0857 22.9664C44.5864 22.5819 43.0486 23.8894 42.5488 25.8892Z" fill="#F4F1EF"/>
<g style="mix-blend-mode:overlay" opacity="0.5">
<path d="M49.7764 50.2711L43.7406 48.6559L43.2792 48.502C41.8814 48.0308 40.6557 47.1535 39.7586 45.9822C38.8615 44.8108 38.3339 43.3986 38.2429 41.9259L38.1661 39.9645C40.7419 37.7725 43.1255 34.196 44.5864 30.1964C45.9704 30.3887 47.4313 29.1196 47.8926 27.2352C48.354 25.3508 47.5851 23.351 46.0857 22.9665C46.1177 22.763 46.1305 22.557 46.1242 22.3511V22.1973C46.2011 20.3129 46.624 15.4288 48.008 12.9291H46.0857C46.0699 11.4375 45.7698 9.96259 45.2015 8.58346C45.2015 8.58346 44.7786 9.66026 43.2408 9.73718C43.2408 9.73718 40.5112 7.96814 42.395 6.04528C42.395 6.04528 39.8961 4.96849 35.3596 6.96826C35.4914 6.18473 35.9008 5.47485 36.5129 4.96848C36.5129 4.96848 33.9756 5.5838 32.5146 6.6606V66.2308H52.8905L54.4667 57.7318C54.7743 56.1253 54.4612 54.4619 53.5907 53.0772C52.7203 51.6926 51.3571 50.6897 49.7764 50.2711Z" fill="#51504F"/>
</g>
<path d="M43.7407 48.6558C42.2335 48.2543 40.8911 47.388 39.9042 46.1799C38.9173 44.9717 38.336 43.4832 38.2431 41.9258L37.6664 31.3885H27.8629L27.2094 42.3872C27.1198 43.9515 26.5351 45.4466 25.5399 46.6565C24.5446 47.8663 23.1905 48.7281 21.6733 49.1173L16.9061 50.3094C15.3082 50.7203 13.9263 51.7239 13.041 53.1166C12.1557 54.5093 11.8332 56.1867 12.1389 57.8086L13.7152 66.2307H52.8906L54.4669 57.7317C54.7744 56.1252 54.4614 54.4618 53.5909 53.0771C52.7204 51.6925 51.3573 50.6896 49.7766 50.271L43.7407 48.6558Z" fill="#F4F1EF"/>
<path d="M46.1243 22.351C46.1243 31.3115 39.2042 42.0796 33.3221 42.0796C27.44 42.0796 20.4814 31.3115 20.4814 22.351C20.4814 13.3905 26.2098 7.96802 33.3221 7.96802C40.4344 7.96802 46.1243 13.352 46.1243 22.351Z" fill="white"/>
<path d="M18.5589 59.9621C18.5603 62.0856 18.2494 64.1977 17.6362 66.2306H48.9305C48.2987 64.2019 47.9874 62.0869 48.0078 59.9621C48.0078 56.3087 48.8536 52.9629 50.276 50.4247L49.7762 50.2709L43.7404 48.6557L43.279 48.5019C41.5875 52.7706 37.743 55.7703 33.3218 55.7703C28.9006 55.7703 25.0177 52.7706 23.3261 48.4634C22.8064 48.7535 22.2505 48.9734 21.673 49.1172L16.9058 50.3094L16.3291 50.5016C17.8388 53.4237 18.6047 56.6732 18.5589 59.9621Z" fill="#57758E"/>
<path d="M46.0858 12.9292C46.07 11.4376 45.7699 9.96267 45.2016 8.58354C45.2016 8.58354 44.7787 9.66034 43.2409 9.73725C43.2409 9.73725 40.5113 7.96822 42.3951 6.04536C42.3951 6.04536 39.8962 4.96857 35.3597 6.96834C35.4915 6.1848 35.9009 5.47493 36.513 4.96856C36.513 4.96856 33.5143 5.69925 32.1687 6.96834C32.1687 6.96834 31.0538 4.96857 27.786 3.89176C27.786 3.89176 28.0167 7.66057 26.5558 8.27588C25.7869 8.04514 24.9795 7.42982 24.2106 6.16074C23.4676 7.42058 22.8741 8.76284 22.4422 10.1603C22.3086 10.2995 22.1924 10.4545 22.0961 10.6218C20.9191 10.4566 19.7196 10.5753 18.5977 10.9679C18.5977 10.9679 20.2508 10.9679 20.1355 17.4672V18.5055C20.1255 19.9868 20.2413 21.4663 20.4815 22.9281C20.4815 22.9281 21.2888 22.8896 22.0193 24.0818C22.5575 19.2362 25.8253 14.6982 25.8253 14.6982C26.1102 14.2696 26.5104 13.9303 26.9797 13.7193C27.4491 13.5084 27.9685 13.4345 28.478 13.5061C28.5549 13.583 33.2452 16.2365 34.0525 18.5055C34.0525 18.5055 34.783 16.1596 34.0525 15.1982C34.0525 15.1982 36.0517 16.5442 37.205 16.9288C37.205 16.9288 36.5515 15.6597 36.6668 15.1213C36.7821 14.5829 39.704 15.4289 40.5882 16.9288C40.5882 16.9288 40.4729 15.6981 41.0495 15.1982C42.8949 16.5442 43.856 19.8515 44.548 24.0818C44.8171 22.8896 46.0858 22.9281 46.0858 22.9281C46.0858 22.9281 46.2396 16.0442 48.0081 12.8907L46.0858 12.9292Z" fill="#544E49"/>
</g>
</svg>
