<svg width="65" height="65" viewBox="0 0 65 65" fill="none" xmlns="http://www.w3.org/2000/svg">
<path d="M32.5 65C50.4493 65 65 50.4493 65 32.5C65 14.5507 50.4493 0 32.5 0C14.5507 0 0 14.5507 0 32.5C0 50.4493 14.5507 65 32.5 65Z" fill="#9CD8EA"/>
<mask id="mask0_581_638" style="mask-type:alpha" maskUnits="userSpaceOnUse" x="0" y="0" width="65" height="65">
<path d="M32.5 65C50.4493 65 65 50.4493 65 32.5C65 14.5507 50.4493 0 32.5 0C14.5507 0 0 14.5507 0 32.5C0 50.4493 14.5507 65 32.5 65Z" fill="#9CD8EA"/>
</mask>
<g mask="url(#mask0_581_638)">
<g style="mix-blend-mode:overlay" opacity="0.07">
<path d="M2.91622 35.3418C2.92032 29.1074 4.72163 23.0062 8.10438 17.7693C11.4871 12.5323 16.3079 8.3816 21.9892 5.81427C27.6706 3.24694 33.9716 2.37187 40.1375 3.29389C46.3034 4.2159 52.0728 6.8959 56.7546 11.0129C53.8378 7.64944 50.2596 4.92269 46.243 3.00248C42.2264 1.08228 37.8574 0.00976132 33.4082 -0.148244C28.959 -0.306249 24.5249 0.453639 20.3822 2.08408C16.2395 3.71452 12.4769 6.18059 9.32885 9.32864C6.1808 12.4767 3.71474 16.2393 2.0843 20.382C0.453856 24.5247 -0.306033 28.9588 -0.148028 33.408C0.0099778 37.8572 1.08249 42.2262 3.0027 46.2428C4.9229 50.2594 7.64966 53.8376 11.0131 56.7544C5.79136 50.8442 2.91151 43.2283 2.91622 35.3418Z" fill="black"/>
</g>
</g>
<mask id="mask1_581_638" style="mask-type:alpha" maskUnits="userSpaceOnUse" x="0" y="0" width="65" height="65">
<path d="M32.5 65C50.4493 65 65 50.4493 65 32.5C65 14.5507 50.4493 0 32.5 0C14.5507 0 0 14.5507 0 32.5C0 50.4493 14.5507 65 32.5 65Z" fill="#9CD8EA"/>
</mask>
<g mask="url(#mask1_581_638)">
<path d="M24.0381 25.8459C24.5381 27.8459 23.7304 29.769 22.2304 30.1151C20.7304 30.4613 19.1919 29.1921 18.6919 27.2305C18.1919 25.269 18.9996 23.3075 20.4996 22.9228C21.9996 22.5382 23.5381 23.8844 24.0381 25.8459Z" fill="white"/>
<path d="M42.5381 25.8459C42.0766 27.8459 42.8458 29.769 44.3458 30.1151C45.8458 30.4613 47.3842 29.1921 47.8842 27.2305C48.3842 25.269 47.5766 23.3075 46.0766 22.9228C44.5766 22.5382 43.0381 23.8844 42.5381 25.8459Z" fill="#F4F1EF"/>
<g style="mix-blend-mode:overlay" opacity="0.5">
<path d="M43.731 48.6155L43.2694 48.5001C41.8679 48.0219 40.6404 47.1374 39.7432 45.9594C38.846 44.7813 38.3195 43.3629 38.231 41.8847L38.154 39.9232L38.231 39.8463L38.3848 39.6924L38.8079 39.3463C38.8848 39.2693 38.9233 39.1924 39.0002 39.1539L39.3079 38.8463L39.5002 38.6155L39.7694 38.3463L40.0387 38.077L40.3848 37.6539L40.6156 37.3463L40.8079 37.1155L41.0386 36.8078L41.1925 36.577L41.654 35.9616L41.7694 35.7309L42.0387 35.3462L42.154 35.1539L42.6925 34.2693L42.9617 33.8078L43.0386 33.6539L43.8079 32.1155V32.0001L44.0386 31.4616V31.3847L44.5002 30.2309C45.8848 30.3847 47.3463 29.1155 47.8079 27.2693C48.2694 25.4232 47.5002 23.3462 46.0002 22.9616C47.0771 16.4616 45.654 11.8847 44.0386 10.1539C42.4233 8.42317 38.0771 8.0001 38.0771 8.0001C36.6156 7.42317 37.5002 6.42317 37.5002 6.42317C36.154 5.84625 34.3079 7.00009 34.3079 7.00009C33.9814 6.70098 33.6198 6.44267 33.231 6.23086V66.1924H52.8079L54.4233 57.6155C54.7192 56.0296 54.4038 54.3904 53.5404 53.0276C52.677 51.6648 51.3297 50.6793 49.7694 50.2693L43.731 48.6155Z" fill="#51504F"/>
</g>
<path d="M43.7305 48.6151C42.2226 48.2136 40.8796 47.3472 39.8923 46.1389C38.9049 44.9306 38.3235 43.4419 38.2305 41.8843L37.6535 31.3458H27.8459L27.192 42.3458C27.1143 43.9138 26.5337 45.4151 25.5362 46.6274C24.5386 47.8396 23.1772 48.6984 21.6535 49.0766L16.8843 50.3074C15.2935 50.7181 13.9173 51.716 13.0325 53.1003C12.1477 54.4846 11.8199 56.1527 12.1151 57.7689L13.692 66.192H52.8843L54.4612 57.692C54.7596 56.0862 54.4425 54.427 53.573 53.0444C52.7035 51.6618 51.3454 50.6572 49.7689 50.2304L43.7305 48.6151Z" fill="#F4F1EF"/>
<path d="M46.1153 22.3073C46.1153 31.3073 39.1922 42.0381 33.3076 42.0381C27.423 42.0381 20.4614 31.3073 20.4614 22.3073C20.4614 13.3073 26.1922 7.92272 33.3076 7.92272C40.423 7.92272 46.1153 13.3073 46.1153 22.3073Z" fill="white"/>
<path d="M21.999 30.2309C24.3836 36.6155 29.1144 42.0386 33.3067 42.0386C37.499 42.0386 42.1913 36.6155 44.5759 30.2309C44.5759 30.2309 37.8836 37.5001 33.3067 37.5001C28.7298 37.5001 21.999 30.2309 21.999 30.2309Z" fill="#51504F"/>
<path d="M43.7305 48.6156L43.2689 48.5002C41.5766 52.7694 37.7305 55.7309 33.3074 55.7309C28.8843 55.7309 24.9997 52.7309 23.3074 48.4617C22.7787 48.7232 22.2245 48.9294 21.6535 49.0771L16.8843 50.3079C15.2935 50.7186 13.9173 51.7165 13.0325 53.1008C12.1477 54.4852 11.8199 56.1532 12.1151 57.7694L13.692 66.1925H52.8843L54.4612 57.6925C54.7596 56.0867 54.4425 54.4275 53.573 53.0449C52.7035 51.6623 51.3454 50.6577 49.7689 50.2309L43.7305 48.6156Z" fill="#57758E"/>
<path d="M20.4992 22.9229C20.4992 22.9229 20.3069 16.0383 18.5762 12.8845H20.4608C20.5006 11.3916 20.8134 9.91853 21.3839 8.53832C21.3839 8.53832 21.8069 9.61524 23.3454 9.69217C23.3454 9.69217 22.4608 5.76909 19.6916 5.76909C19.6916 5.76909 24.7685 3.26909 31.23 6.92294C31.0981 6.13931 30.6885 5.42936 30.0762 4.92294C30.0762 4.92294 33.0377 5.65371 34.3839 6.92294C34.3839 6.92294 36.23 5.76909 37.5762 6.34601C37.5762 6.34601 36.6916 7.34601 38.1531 7.92294C38.1531 7.92294 42.4608 8.34601 44.1146 10.0768C45.7685 11.8076 47.1531 16.3845 46.0762 22.9229C46.0762 22.9229 45.3069 22.8845 44.5762 24.0768C43.9992 19.2306 40.73 14.6922 40.73 14.6922C40.73 14.6922 39.4992 12.5768 36.8069 13.9229C35.4643 14.5223 34.0079 14.8241 32.5377 14.8076C31.23 14.6922 26.8839 14.1537 25.4992 15.1922C24.1146 16.2306 22.73 19.846 21.9992 24.0768C21.7685 22.8845 20.4992 22.9229 20.4992 22.9229Z" fill="#51504F"/>
<path fill-rule="evenodd" clip-rule="evenodd" d="M34.6507 30.9929C33.5217 30.4266 32.1564 30.4728 31.0024 31.5115L30.9958 31.5173L30.9892 31.5231C30.2524 32.1662 29.9253 33.0861 29.8173 34.3038C29.7635 34.9114 29.7676 35.5555 29.7882 36.2328C29.7942 36.4276 29.8017 36.6293 29.8094 36.834C29.8273 37.3133 29.8459 37.8086 29.8459 38.2692H27.5382C27.5382 37.8529 27.5223 37.4294 27.5051 36.9725C27.4971 36.7577 27.4887 36.5355 27.4816 36.3032C27.4602 35.603 27.4523 34.8482 27.5187 34.1C27.6509 32.6085 28.0918 30.9929 29.4651 29.7903C31.3869 28.0654 33.7875 27.9782 35.6853 28.9301C37.5546 29.8677 38.9665 31.8228 39.0377 34.1961L39.0377 34.1978C39.064 35.1164 39.0551 36.0536 39.0465 36.9644C39.0423 37.4073 39.0382 37.844 39.0382 38.2692H36.7305C36.7305 37.7964 36.7349 37.3359 36.7393 36.882C36.7478 35.9991 36.756 35.141 36.731 34.2649C36.6866 32.7923 35.8101 31.5744 34.6507 30.9929Z" fill="#51504F"/>
</g>
</svg>
