<svg width="65" height="65" viewBox="0 0 65 65" fill="none" xmlns="http://www.w3.org/2000/svg">
<path d="M32.5839 65C50.4867 65 64.9998 50.4869 64.9998 32.5841C64.9998 14.6813 50.4867 0.168213 32.5839 0.168213C14.6811 0.168213 0.167969 14.6813 0.167969 32.5841C0.167969 50.4869 14.6811 65 32.5839 65Z" fill="#D6D3EA"/>
<mask id="mask0_581_669" style="mask-type:alpha" maskUnits="userSpaceOnUse" x="0" y="0" width="66" height="65">
<path d="M32.5844 65C50.4872 65 65.0003 50.4869 65.0003 32.5841C65.0003 14.6813 50.4872 0.168213 32.5844 0.168213C14.6815 0.168213 0.168457 14.6813 0.168457 32.5841C0.168457 50.4869 14.6815 65 32.5844 65Z" fill="#D6D3EA"/>
</mask>
<g mask="url(#mask0_581_669)">
<path d="M23.2241 24.9883C23.7228 27.4052 22.9172 29.7069 21.4594 30.1672C20.0017 30.6276 18.3905 29.0547 17.9301 26.6379C17.4698 24.2211 18.237 21.881 19.6948 21.4207C21.1525 20.9603 22.7638 22.5715 23.2241 24.9883Z" fill="white"/>
<path d="M46.2926 26.2715C46.6149 23.8175 45.6518 21.6673 44.1417 21.469C42.6315 21.2707 41.146 23.0994 40.8237 25.5534C40.5015 28.0075 41.4645 30.1576 42.9747 30.356C44.4849 30.5543 45.9704 28.7256 46.2926 26.2715Z" fill="#F4F1EF"/>
<g style="mix-blend-mode:overlay" opacity="0.5">
<path d="M49.0793 50.2691L42.9798 48.6579L42.2892 48.4277L42.1358 48.351L41.5604 48.0824H41.4836L41.7138 47.7372L38.1845 44.6298C38.0311 44.2462 37.8776 43.8626 37.7625 43.479C40.6013 41.8678 42.481 39.029 42.481 35.7682C42.4803 35.1094 42.403 34.4528 42.2509 33.8118C42.8312 32.7322 43.3437 31.6176 43.7854 30.4743C43.9514 30.5988 44.1533 30.6661 44.3608 30.6661C44.6143 30.6596 44.8574 30.5636 45.047 30.3951C45.2366 30.2266 45.3604 29.9964 45.3966 29.7454C46.2535 28.9251 46.8192 27.8476 47.0078 26.6764C47.4681 24.4131 46.816 22.2264 45.5116 21.5743C45.5116 21.5743 46.6625 15.82 43.5935 11.6002C40.5246 7.38033 36.5733 5.07861 32.6987 5.53896V66.1893H52.1099L53.7211 57.5962C54.0163 56.0144 53.7017 54.3795 52.8405 53.0202C51.9794 51.6609 50.6356 50.678 49.0793 50.2691Z" fill="#51504F"/>
</g>
<path d="M32.4693 44.8215C38.0202 44.8215 42.5201 40.751 42.5201 35.7297C42.5201 30.7085 38.0202 26.6379 32.4693 26.6379C26.9184 26.6379 22.4185 30.7085 22.4185 35.7297C22.4185 40.751 26.9184 44.8215 32.4693 44.8215Z" fill="#4C423F"/>
<path d="M42.9804 48.6576C41.4807 48.2556 40.1464 47.3899 39.1681 46.1842C38.1898 44.9786 37.6175 43.4946 37.5329 41.9442L36.9191 31.3947H27.1368L26.523 42.3662C26.4274 43.9348 25.8378 45.4328 24.8385 46.6456C23.8393 47.8585 22.4818 48.7239 20.9606 49.1179L16.1653 50.3072C14.5918 50.7083 13.2293 51.692 12.3533 53.0593C11.4774 54.4266 11.1534 56.0756 11.4468 57.6727L13.0196 66.189H52.1105L53.7217 57.5959C54.0169 56.0141 53.7023 54.3792 52.8411 53.0199C51.98 51.6606 50.6362 50.6777 49.0799 50.2688L42.9804 48.6576Z" fill="#F4F1EF"/>
<path d="M45.3587 22.3798C45.3587 31.3565 38.4535 42.0595 32.5841 42.0595C26.7147 42.0595 19.8096 31.3565 19.8096 22.3798C19.8096 13.4031 25.5255 8.07076 32.5841 8.07076C39.6427 8.07076 45.3587 13.4031 45.3587 22.3798Z" fill="white"/>
<path d="M28.5559 7.57211C26.1775 7.87901 22.8016 8.07082 20.5766 12.7126C18.3516 17.3544 19.2723 21.6126 19.2723 21.6126C21.8809 21.4208 22.3796 26.6764 22.3796 26.6764C22.3796 26.6764 23.5305 24.3363 23.6072 22.7635C25.5253 22.5717 33.5046 20.6919 35.8447 15.398C41.5606 15.4363 42.1361 23.4156 42.0593 24.413L42.8266 25.7941C42.8266 25.7941 43.5938 21.5359 45.5119 21.5359C45.5119 21.5359 46.6628 15.7816 43.5938 11.5618C39.796 6.34453 33.0826 3.16048 28.5559 7.57211Z" fill="#4C423F"/>
<path fill-rule="evenodd" clip-rule="evenodd" d="M27.0986 23.0704C25.1494 23.0704 23.5693 24.6505 23.5693 26.5997C23.5693 28.5488 25.1494 30.129 27.0986 30.129C29.0478 30.129 30.6279 28.5488 30.6279 26.5997C30.6279 24.6505 29.0478 23.0704 27.0986 23.0704ZM22.4185 26.5997C22.4185 24.0149 24.5138 21.9195 27.0986 21.9195C29.6834 21.9195 31.7788 24.0149 31.7788 26.5997C31.7788 29.1844 29.6834 31.2798 27.0986 31.2798C24.5138 31.2798 22.4185 29.1844 22.4185 26.5997Z" fill="#282727"/>
<path fill-rule="evenodd" clip-rule="evenodd" d="M38.2617 23.0704C36.3125 23.0704 34.7324 24.6505 34.7324 26.5997C34.7324 28.5488 36.3125 30.129 38.2617 30.129C40.2109 30.129 41.791 28.5488 41.791 26.5997C41.791 24.6505 40.2109 23.0704 38.2617 23.0704ZM33.5815 26.5997C33.5815 24.0149 35.6769 21.9195 38.2617 21.9195C40.8465 21.9195 42.9419 24.0149 42.9419 26.5997C42.9419 29.1844 40.8465 31.2798 38.2617 31.2798C35.6769 31.2798 33.5815 29.1844 33.5815 26.5997Z" fill="#282727"/>
<path fill-rule="evenodd" clip-rule="evenodd" d="M34.157 27.1749H31.2031V26.024H34.157V27.1749Z" fill="#282727"/>
<path d="M20.5768 30.5891C21.1488 30.5891 21.6126 30.1254 21.6126 29.5533C21.6126 28.9813 21.1488 28.5176 20.5768 28.5176C20.0048 28.5176 19.541 28.9813 19.541 29.5533C19.541 30.1254 20.0048 30.5891 20.5768 30.5891Z" fill="white"/>
<path d="M44.361 30.5892C44.933 30.5892 45.3967 30.1254 45.3967 29.5534C45.3967 28.9814 44.933 28.5176 44.361 28.5176C43.7889 28.5176 43.3252 28.9814 43.3252 29.5534C43.3252 30.1254 43.7889 30.5892 44.361 30.5892Z" fill="white"/>
<path d="M49.0799 50.2689L42.9804 48.6577C42.4579 48.5167 41.9552 48.3105 41.4842 48.0439L41.7144 47.6987L38.1851 44.5913L32.3924 50.384L26.1778 44.1694L22.8403 47.6603L23.1472 48.1206C22.4803 48.575 21.7408 48.9123 20.9606 49.1181L16.1653 50.3073C14.5918 50.7084 13.2293 51.6921 12.3533 53.0594C11.4774 54.4267 11.1534 56.0757 11.4468 57.6728L13.0196 66.1891H52.1105L53.7217 57.5961C54.0169 56.0142 53.7023 54.3793 52.8411 53.02C51.98 51.6607 50.6362 50.6778 49.0799 50.2689Z" fill="white"/>
<path opacity="0.1" d="M25.1035 51.1896L29.8988 56.9055L32.3923 50.384L30.666 59.7059L25.1035 51.1896Z" fill="black"/>
<path opacity="0.1" d="M39.6809 51.1896L34.8856 56.9055L32.3921 50.384L34.1184 59.7059L39.6809 51.1896Z" fill="black"/>
<path d="M32.3924 51.4581L25.8325 52.2254L26.2161 48.6193L32.3924 50.1538V51.4581Z" fill="black"/>
<path d="M32.3921 51.4581L38.9904 52.2254L38.6067 48.6193L32.3921 50.1538V51.4581Z" fill="black"/>
<path d="M32.047 51.343L31.0496 53.8749L29.7837 64.5779L31.7018 63.0818L32.047 51.343Z" fill="black"/>
<path d="M32.6987 51.1129L33.6961 53.6448L34.9621 64.3094L33.044 62.8517L32.6987 51.1129Z" fill="black"/>
</g>
</svg>
