<svg width="36" height="36" viewBox="0 0 36 36" fill="none" xmlns="http://www.w3.org/2000/svg">
<path d="M19.1244 35.9877H16.8747C16.7979 35.9629 16.7192 35.9444 16.6394 35.9324C13.5414 35.6999 10.6786 34.7503 8.10363 33.0162C3.84512 30.1487 1.22234 26.1836 0.281213 21.1265C0.158417 20.4619 0.0937378 19.786 0 19.1149V16.8651C0.0206223 16.7517 0.044994 16.6383 0.0628041 16.5249C0.195912 15.6578 0.269965 14.7776 0.470563 13.9274C2.74839 4.2771 12.1269 -1.649 21.8428 0.406666C29.8002 2.09395 35.7478 9.18802 35.9878 17.3132C36.1265 22.032 34.6802 26.2183 31.5821 29.786C28.7991 32.9984 25.2886 34.9669 21.1004 35.7168C20.4461 35.8311 19.7834 35.8977 19.1244 35.9877ZM17.9864 2.51108C9.43096 2.52608 2.49717 9.47486 2.51967 18.0106C2.52687 22.111 4.16019 26.041 7.06133 28.9386C9.96246 31.8363 13.8945 33.4648 17.9948 33.467C26.54 33.4736 33.4831 26.5305 33.4785 17.9834C33.4738 9.43643 26.5287 2.49608 17.9864 2.51108Z" fill="#AA7D4B"/>
<path d="M17.4938 8.95654C18.7461 8.96498 19.6844 9.11965 20.5693 9.54147C22.6934 10.5548 23.4115 12.7426 22.2969 14.8152C21.8048 15.73 21.0943 16.4518 20.2966 17.0977C20.0875 17.2673 19.8794 17.4389 19.6816 17.6217C19.4253 17.8551 19.2195 18.1386 19.0769 18.4545C18.9342 18.7705 18.8577 19.1123 18.8521 19.4589C18.8427 19.6923 18.8521 19.9276 18.8389 20.161C18.8202 20.6147 18.6271 20.8725 18.1968 21.0206C18.1196 21.0479 18.0403 21.0689 17.9597 21.0834C16.6473 21.3102 16.173 20.9212 16.1458 19.5967C16.113 18.0322 16.6642 16.7424 17.9269 15.7778C18.3262 15.4723 18.7199 15.1554 19.0873 14.8123C19.5167 14.4111 19.8147 13.9275 19.8297 13.3125C19.8447 12.6976 19.5738 12.2327 19.0245 11.9421C18.4427 11.63 17.7665 11.5427 17.1245 11.6969C16.4826 11.8511 15.9197 12.236 15.5431 12.7782C15.0426 13.4963 14.5739 13.6528 13.8802 13.335C13.2362 13.0407 12.955 12.3798 13.1847 11.6168C13.5184 10.5098 14.3273 9.85268 15.3406 9.41023C16.0218 9.1196 16.7533 8.96546 17.4938 8.95654Z" fill="#AA7D4B"/>
<path d="M19.2819 24.6002C19.2761 25.0791 19.0838 25.5368 18.7457 25.876C18.4077 26.2153 17.9507 26.4093 17.4718 26.4168C16.4782 26.4168 15.6627 25.5732 15.6739 24.5599C15.6719 24.3199 15.7177 24.0819 15.8087 23.8599C15.8997 23.6378 16.0341 23.4362 16.204 23.2667C16.3739 23.0972 16.5759 22.9633 16.7982 22.8728C17.0204 22.7824 17.2585 22.7372 17.4985 22.7399C17.7385 22.7425 17.9755 22.7931 18.1957 22.8885C18.4159 22.9839 18.6148 23.1222 18.7809 23.2955C18.947 23.4687 19.0768 23.6733 19.1629 23.8974C19.2489 24.1214 19.2894 24.3603 19.2819 24.6002Z" fill="#AA7D4B"/>
</svg>
