<svg width="30" height="30" viewBox="0 0 30 30" fill="none" xmlns="http://www.w3.org/2000/svg">
<path fill-rule="evenodd" clip-rule="evenodd" d="M13.21 0.834508C12.3383 1.29354 11.026 1.9852 10.2937 2.37151L8.96244 3.07395L11.9812 4.58359L15 6.09322L18.0188 4.58359L21.0376 3.07395L19.7063 2.37151C15.3509 0.0735367 15.2049 0 15 0C14.8494 0 14.3738 0.221723 13.21 0.834508ZM8.84766 8.05211C8.84766 10.0391 8.86887 11.1221 8.91 11.2309C9.01582 11.511 9.22939 11.679 9.90035 12.0101C10.256 12.1856 10.5469 12.3503 10.5469 12.3761C10.5469 12.402 10.0043 13.4107 9.34119 14.6176L8.13551 16.812L7.26182 16.3745C6.72674 16.1065 6.31635 15.9369 6.20285 15.9369C6.03668 15.9369 4.03916 16.9238 0.83666 18.5881L0.120586 18.9602L3.15486 20.4718L6.18914 21.9833L9.21744 20.469L12.2457 18.9546L11.0887 18.3568C10.4523 18.028 9.88195 17.7225 9.82125 17.678C9.71678 17.6013 9.77689 17.4765 10.9345 15.3648L12.1582 13.1325L12.7148 13.4294C13.021 13.5927 13.4626 13.83 13.6963 13.9568L14.1211 14.1873V10.9162V7.64517L11.5135 6.34173C10.0793 5.62482 8.89277 5.03828 8.87678 5.03828C8.86078 5.03828 8.84766 6.39452 8.84766 8.05211ZM18.4717 6.34501L15.8789 7.64511V10.9162V14.1873L16.3037 13.9568C16.5374 13.83 16.979 13.5927 17.2852 13.4294L17.8418 13.1325L19.0655 15.3648C20.2231 17.4765 20.2832 17.6013 20.1788 17.678C20.118 17.7225 19.5477 18.028 18.9113 18.3568L17.7543 18.9546L20.7826 20.469L23.8109 21.9833L26.8451 20.4718L29.8794 18.9602L29.1633 18.5881C25.9608 16.9238 23.9633 15.9369 23.7971 15.9369C23.6837 15.9369 23.2733 16.1065 22.7382 16.3745L21.8645 16.812L20.6588 14.6176C19.9957 13.4107 19.4531 12.402 19.4531 12.3761C19.4531 12.3503 19.744 12.1856 20.0996 12.0101C20.7706 11.679 20.9842 11.511 21.09 11.2309C21.1621 11.0402 21.1799 5.03623 21.1084 5.04156C21.0842 5.04338 19.8977 5.62992 18.4717 6.34501ZM0 23.937C0 27.1756 0.000937488 27.1867 0.300059 27.4619C0.376758 27.5325 1.54025 28.1308 2.88574 28.7917L5.33203 29.9932V26.7574V23.5216L2.70996 22.2176C1.26785 21.5004 0.0681445 20.9145 0.0439453 20.9156C0.0197461 20.9166 0 22.2763 0 23.937ZM9.68262 22.2242L7.08984 23.5243V26.7622V30L9.53613 28.7756C10.8816 28.1022 12.04 27.4892 12.1103 27.4132C12.3333 27.1724 12.3633 26.9857 12.3633 25.8357V24.7262H15H17.6367V25.8357C17.6367 26.9857 17.6667 27.1724 17.8897 27.4132C17.96 27.4892 19.1184 28.1022 20.4639 28.7756L22.9102 30V26.7622V23.5244L20.3026 22.2209C18.8684 21.504 17.6818 20.9175 17.6658 20.9175C17.6498 20.9175 17.6367 21.3789 17.6367 21.9429V22.9683H15H12.3633V21.9429C12.3633 21.3789 12.3435 20.919 12.3193 20.9208C12.2952 20.9226 11.1087 21.5091 9.68262 22.2242ZM27.2806 22.2197L24.668 23.5219V26.7575V29.9932L27.1143 28.7917C28.4597 28.1308 29.6232 27.5325 29.6999 27.4619C29.9991 27.1867 30 27.1756 30 23.937C30 22.1606 29.978 20.9175 29.9466 20.9175C29.9173 20.9175 28.7176 21.5035 27.2806 22.2197Z" fill="#5E00F6"/>
</svg>
