<svg width="25" height="25" viewBox="0 0 25 25" fill="none" xmlns="http://www.w3.org/2000/svg">
<path fill-rule="evenodd" clip-rule="evenodd" d="M0 12.2283C0 5.47481 5.59642 0 12.5 0C19.4036 0 25 5.47481 25 12.2283C25 18.9818 19.4036 24.4565 12.5 24.4565C5.59642 24.4565 0 18.9818 0 12.2283Z" fill="#ED7D31"/>
<path d="M20.0029 4.32743C19.4213 4.22967 18.8325 4.17936 18.2423 4.17701C16.2288 4.17539 14.2573 4.73877 12.5628 5.79999C10.864 4.75271 8.89283 4.20315 6.8834 4.21659C6.29327 4.21895 5.70436 4.26926 5.12278 4.36701C4.72921 4.43322 4.44355 4.76905 4.44936 5.15872V14.6591C4.44283 15.0963 4.80075 15.4559 5.2488 15.4623C5.299 15.463 5.34916 15.4591 5.39864 15.4508C7.74752 15.054 10.1611 15.5993 12.0923 16.963L12.1896 17.0184H12.2788C12.4606 17.0923 12.6651 17.0923 12.8468 17.0184H12.9361L13.0334 16.963C14.9512 15.5687 17.366 14.9918 19.727 15.3637C20.1685 15.4381 20.5884 15.1491 20.6645 14.7183C20.6731 14.67 20.6771 14.6211 20.6763 14.572V5.07162C20.6589 4.69998 20.3787 4.39029 20.0029 4.32743ZM11.7515 14.8492C10.2504 14.0786 8.57954 13.6764 6.8834 13.6774C6.61566 13.6774 6.34791 13.6774 6.07205 13.6774V5.76041C6.34228 5.74521 6.61318 5.74521 6.8834 5.76041C8.61432 5.75854 10.3074 6.25419 11.7515 7.18547V14.8492ZM19.0536 13.7091C18.7778 13.7091 18.51 13.7091 18.2423 13.7091C16.5462 13.708 14.8753 14.1103 13.3742 14.8808V7.18547C14.8182 6.25419 16.5113 5.75854 18.2423 5.76041C18.5126 5.74521 18.7834 5.74521 19.0536 5.76041V13.7091ZM20.0029 16.9947C19.4213 16.8969 18.8325 16.8466 18.2423 16.8442C16.2288 16.8427 14.2573 17.4061 12.5628 18.4672C10.8684 17.4061 8.89686 16.8427 6.8834 16.8442C6.29327 16.8466 5.70436 16.8969 5.12278 16.9947C4.68022 17.0632 4.37839 17.4688 4.44862 17.9007C4.44887 17.9021 4.44911 17.9036 4.44936 17.9051C4.5352 18.3332 4.95968 18.6128 5.39864 18.5305C7.74752 18.1338 10.1611 18.679 12.0923 20.0427C12.374 20.2384 12.7517 20.2384 13.0334 20.0427C14.9646 18.679 17.3782 18.1337 19.727 18.5305C20.166 18.6128 20.5904 18.3332 20.6763 17.9051C20.7491 17.4737 20.4496 17.0664 20.0074 16.9954C20.0059 16.9951 20.0044 16.9949 20.0029 16.9947Z" fill="white"/>
</svg>
