<svg width="28" height="28" viewBox="0 0 28 28" fill="none" xmlns="http://www.w3.org/2000/svg">
<circle cx="14" cy="14" r="14" fill="#00B050" fill-opacity="0.2"/>
<circle cx="14" cy="14" r="11" fill="#00B050"/>
<path fill-rule="evenodd" clip-rule="evenodd" d="M19.2751 9.3183C19.0034 9.40386 18.995 9.41176 15.5462 12.8345L12.1528 16.2023L10.6174 14.6793C9.19113 13.2646 9.06957 13.1505 8.90841 13.0756C8.49878 12.8852 8.06317 12.9453 7.73818 13.2372C7.48033 13.4687 7.35288 13.8372 7.41492 14.1716C7.47842 14.514 7.43853 14.4694 9.57955 16.5911C11.4524 18.4472 11.5684 18.557 11.7269 18.6257C11.9277 18.7126 12.2056 18.7391 12.3914 18.6891C12.7056 18.6044 12.571 18.7311 16.593 14.7335C20.7597 10.592 20.5217 10.8457 20.585 10.4785C20.6727 9.9702 20.3517 9.47525 19.8329 9.31884C19.6868 9.2748 19.414 9.27454 19.2751 9.3183Z" fill="white"/>
</svg>
