<svg width="354" height="642" xmlns="http://www.w3.org/2000/svg" xmlns:xlink="http://www.w3.org/1999/xlink" overflow="hidden"><defs><clipPath id="clip0"><rect x="2486" y="689" width="354" height="642"/></clipPath><clipPath id="clip1"><rect x="2651" y="964" width="28" height="30"/></clipPath><clipPath id="clip2"><rect x="2651" y="964" width="28" height="30"/></clipPath><clipPath id="clip3"><rect x="2651" y="964" width="28" height="30"/></clipPath><clipPath id="clip4"><rect x="2651" y="1017" width="28" height="28"/></clipPath><clipPath id="clip5"><rect x="2651" y="1017" width="28" height="28"/></clipPath><clipPath id="clip6"><rect x="2651" y="1017" width="28" height="28"/></clipPath><clipPath id="clip7"><rect x="2651" y="1070" width="28" height="28"/></clipPath><clipPath id="clip8"><rect x="2651" y="1070" width="28" height="28"/></clipPath><clipPath id="clip9"><rect x="2651" y="1070" width="28" height="28"/></clipPath></defs><g clip-path="url(#clip0)" transform="translate(-2486 -689)"><path d="M282.845 6.88569 282.863 6.88569 282.845 6.88569M5.49462 6.05124C80.9801 1.82343 138.096 3.99709 204.133 6.50981 228.284 7.42694 253.233 8.3762 280.77 9.08246 285.474 66.6782 286.438 92.7976 267.637 146.454 253.683 186.276 228.982 213.001 209.126 234.476 192.882 252.052 178.849 267.23 175.275 284.344 171.163 304.053 185.195 319.943 197.576 333.956 199.646 336.295 201.816 338.721 204.041 341.211 215.72 354.266 228.959 369.064 236.907 382.115 264.182 426.898 270.684 488.052 273.282 542.332 253.559 544.125 86.6883 545.748 3.74618 543.74 8.36279 431.236 39.6395 393.12 60.3855 367.835 63.8361 363.63 67.0988 359.654 69.9439 355.729 74.2024 349.85 80.1541 343.82 86.4498 337.432 101.45 322.217 118.461 304.97 114.583 285.651 109.706 261.297 91.8967 244.399 74.6797 228.056 68.6681 222.351 62.4551 216.454 57.0129 210.41 6.85752 154.685 2.98018 72.2311 5.49462 6.05124M90.8825-0.836248C63.5976-0.836248 35.0417-0.148402 3.19553 1.67647 2.0393 1.74074 1.12624 2.67628 1.07565 3.83172-1.62703 71.2039 1.91067 155.91 53.6721 213.418 59.2293 219.591 65.5065 225.552 71.5821 231.316 88.29 247.178 105.571 263.576 110.174 286.532 113.579 303.517 98.1602 319.154 83.2423 334.277 76.8271 340.789 70.7608 346.938 66.3003 353.092 63.5333 356.912 60.3168 360.832 56.9074 364.987 35.6429 390.905 3.50771 430.066-0.837905 545.849-0.860668 546.45-0.640623 547.032-0.227633 547.472 0.185358 547.908 0.754439 548.165 1.35568 548.178 83.9444 550.283 268.596 548.697 276.269 546.413 277.255 546.12 277.921 545.189 277.875 544.157 275.31 488.804 268.89 425.985 240.747 379.776 232.584 366.372 219.203 351.414 207.396 338.211 205.175 335.731 203.009 333.314 200.953 330.98 189.27 317.759 176.027 302.769 179.68 285.266 182.997 269.368 196.64 254.611 212.43 237.525 232.565 215.748 257.62 188.642 271.882 147.94 291.205 92.7976 289.985 66.3846 285.088 6.70226 284.992 5.56054 284.051 4.67086 282.904 4.63872 254.596 3.93282 229.028 2.95612 204.308 2.01588 165.267 0.530057 129.336-0.836248 90.8825-0.836248" stroke="#000000" stroke-width="6.875" stroke-miterlimit="8" fill-rule="evenodd" transform="matrix(1 0 0 -1 2522.5 1278.5)"/><path d="M0 21.5002C0 9.62595 9.62589-8.09241e-15 21.5-1.07899e-14L317.5 0C329.374-5.39494e-15 339 9.62595 339 21.5002L339 21.5002C339 33.3744 329.374 43.0003 317.5 43.0003L21.5 43C9.62589 43 0 33.374 0 21.4998Z" stroke="#000000" stroke-width="10.3125" stroke-miterlimit="8" fill="#0D1C36" fill-rule="evenodd" transform="matrix(1 0 0 -1 2491 737)"/><path d="M170.477 162.639C183.554 163.635 196.705 162.574 209.568 159.426 210.496 159.199 211.278 158.433 211.693 157.353 212.108 156.274 212.102 155.007 211.68 153.928 188.598 95.3957 157.03 42.5019 120.389 0.961795 119.827 0.336197 119.119 0 118.404 0L117.391 0.226595C62.9113 25.3213 22.4 75.1888 0.221121 144.434-0.133153 145.561-0.0600872 146.828 0.428301 147.868 0.910922 148.9 1.7531 149.58 2.69335 149.705 18.5842 151.738 34.5299 150.214 50.1036 145.186 52.8445 144.302 55.5797 143.309 58.3206 142.308 65.5551 139.672 72.3926 137.186 79.4555 136.646 92.691 135.653 105.353 141.51 118.771 147.719 123.038 149.698 127.452 151.738 131.835 153.513 144.399 158.593 157.401 161.644 170.477 162.639ZM168.828 154.814C156.918 153.709 145.089 150.832 133.636 146.202 129.369 144.482 125.016 142.464 120.804 140.517 107.404 134.308 93.5639 127.872 79.1017 128.998 71.385 129.584 63.9126 132.306 56.6848 134.933 54.0044 135.911 51.3246 136.888 48.6384 137.757 35.0674 142.136 21.1973 143.723 7.34554 142.511 28.9442 78.5359 67.0203 32.2029 117.745 8.21898 152.305 47.7881 182.218 97.6481 204.501 152.786 192.728 155.25 180.738 155.919 168.828 154.814Z" stroke="#000000" stroke-width="4.58333" stroke-miterlimit="8" fill="#0D1C36" fill-rule="evenodd" transform="matrix(1 0 0 -1 2554.5 934.5)"/><path d="M162.174 146.485C174.135 147.589 186.176 146.92 198 144.459 175.622 89.3619 145.58 39.5393 110.873 0 59.9303 23.9659 21.6912 70.2641 0 134.191 13.9111 135.402 27.8405 133.816 41.4697 129.44 44.1674 128.573 46.8587 127.596 49.5506 126.619 56.8093 123.994 64.3137 121.274 72.0634 120.688 86.5876 119.563 100.487 125.994 113.944 132.199 118.175 134.144 122.546 136.16 126.832 137.879 138.333 142.506 150.213 145.381 162.174 146.485Z" stroke="#000000" stroke-width="4.58333" stroke-miterlimit="8" fill="#0D1C36" fill-rule="evenodd" transform="matrix(1 0 0 -1 2561.5 926.5)"/><path d="M9.23165-1.315C4.33486-1.315 0.143985 3.65013-0.873098 9.38604L-0.761937 9.30208-0.356242 9.4179 0.0494537 10.825C-0.317291 11.6726-0.684036 12.5334-1.04553 13.3877-0.928679 14.6465-0.639834 15.8988-0.150549 17.1066 0.63327 20.479 3.14534 22.451 4.94624 24.9495 6.54714 26.9984 8.15329 29.0346 9.75944 31.0774 10.7932 28.4757 11.8326 25.8938 12.8829 23.3179L13.7057 22.7206 14.0947 22.8167 14.5284 24.2172C13.3665 27.0561 12.2216 29.9015 11.0877 32.7662 13.9779 36.4664 16.8458 40.2045 19.5806 44.0908 21.3867 46.6409 23.1264 49.2552 24.8551 51.8822 25.9833 49.5314 27.1339 47.1993 28.3068 44.8869L29.0901 44.373 29.5462 44.5147 29.874 45.9536C28.5733 48.5097 27.3006 51.0982 26.0555 53.7126 28.5623 57.5407 31.0578 61.3689 33.6981 65.0559 35.7712 67.8629 37.7612 70.6057 39.6842 73.2969 40.7511 70.7792 41.8461 68.2868 42.9634 65.8141L43.7691 65.2486 44.1862 65.371 44.5696 66.7902C43.3302 69.5203 42.124 72.2884 40.9511 75.0828 45.6313 81.7114 49.8721 88.0193 53.796 94.1274L57.1807 85.3665 58.0144 84.7434 58.3812 84.8395 58.8424 86.2208 55.0354 96.0676C59.4486 103.005 63.467 109.691 67.2855 116.288 73.3661 116.076 79.4353 115.408 85.438 114.271 65.8014 70.4388 39.6619 30.6662 9.47585-1.30893 9.3927-1.315 9.3148-1.315 9.23165-1.315M85.9549 120.559C80.9692 121.484 75.9503 122.101 70.9148 122.416 72.7713 124.664 75.1447 125.685 77.5232 125.685 80.7692 125.685 84.0152 123.79 85.9549 120.559" fill="#264674" fill-rule="evenodd" transform="matrix(1 0 0 -1 2660 913)"/><path d="M118.491 139C119.177 138.991 119.818 138.667 120.239 138.125 132.376 122.377 148.439 110.792 163.971 99.5883 170.809 94.6568 177.879 89.561 184.565 84.1465 213.745 60.5416 227.246 34.0057 224.696 5.27345 224.591 4.05647 223.525 3.14921 222.294 3.24503 163.615 7.64352 103.828 4.80833 46.0136 2.07363L2.34949 0.00430661 2.24427 0C1.53041 0 0.852952 0.341658 0.432061 0.920538-0.0165762 1.52669-0.121799 2.31983 0.14378 3.02181 13.173 37.5472 34.2701 59.9168 53.1846 77.2459 58.6169 82.2229 64.278 87.1547 69.7514 91.9268 85.3345 105.5 101.448 119.538 116.72 138.179 117.155 138.708 117.754 138.995 118.491 139ZM118.418 133.207C103.448 115.345 87.8284 101.739 72.7077 88.563 67.0012 83.5903 61.6147 78.8957 56.2235 73.9596 38.2837 57.5241 18.3534 36.4853 5.5804 4.63069L45.7985 6.536C103.013 9.24773 162.155 12.0463 220.39 7.86675 221.928 34.1927 208.935 58.6772 181.737 80.6779 175.147 86.0106 168.127 91.0744 161.34 95.9693 146.265 106.845 130.701 118.066 118.418 133.207Z" stroke="#000000" stroke-width="4.58333" stroke-miterlimit="8" fill="#0D1C36" fill-rule="evenodd" transform="matrix(1 0 0 -1 2554.5 1259.5)"/><path d="M113.398 130C125.742 114.691 141.384 103.346 156.534 92.3501 163.354 87.401 170.41 82.2811 177.032 76.8894 204.366 54.6451 217.423 29.8894 215.877 3.2719 157.353 7.49775 97.9172 4.66818 40.418 1.92642L0 0C12.8365 32.2073 32.8659 53.4792 50.8948 70.0967 56.3128 75.0874 61.7261 79.834 67.461 84.8618 82.6568 98.1841 98.3539 111.94 113.398 130Z" stroke="#000000" stroke-width="4.58333" stroke-miterlimit="8" fill="#0D1C36" fill-rule="evenodd" transform="matrix(1 0 0 -1 2559.5 1255.5)"/><path d="M84.3836-0.628529C82.7192-0.628529 81.0591-0.1757 79.6028 0.792451 76.9106 2.37997 75.5375 5.37571 74.6431 8.41758L74.5972 8.54649C74.4891 8.80824 74.3351 9.18615 74.1519 9.64323L74.9468 8.11428 75.5499 7.74848 75.8622 7.82341 76.1535 8.7415 49.7023 59.6978 48.7826 59.9887 48.4914 59.0746 58.3528 40.0809C43.6273 58.414 32.7591 65.3366 19.7019 76.8219 18.1207 79.9384 16.5396 83.0549 14.9669 86.1671L14.0515 86.4661 13.7518 85.552C14.8005 83.4786 15.8532 81.4052 16.9059 79.3275 12.2374 83.5823 7.25249 88.5313 1.6978 94.8431-3.03323 99.871-0.424285 107.629 4.53543 109.977 15.387 97.3072 28.723 87.663 41.6678 78.3011 47.8381 73.8383 54.221 69.2216 60.2128 64.36 67.4322 58.5052 73.5527 52.4552 78.5625 46.2265 81.6125 41.531 84.3046 36.5447 86.5348 31.2174 88.3948 26.8295 90.184 22.4042 91.9316 17.9623 93.8706 13.7197 95.3895 8.99082 92.9388 4.5862 91.22 1.27865 87.7956-0.628529 84.3836-0.628529M73.0662 38.9256 72.8122 37.999C75.7914 32.7758 78.4587 27.2741 80.7347 21.6439L81.3628 21.2201 81.621 21.2699 81.9955 22.1549C79.6984 27.8392 77.0063 33.3948 73.994 38.6721L73.0662 38.9256M48.475 78.4009C46.9977 79.477 45.5207 80.545 44.0601 81.6005 32.1058 90.2474 19.8103 99.1398 9.61997 110.372 10.0777 110.239 10.5439 110.056 11.0055 109.823 14.942 107.799 17.5133 103.415 20.9879 100.577 28.436 93.5468 29.9755 92.6742 40.0322 85.07 42.8659 82.905 45.6911 80.6863 48.475 78.4009" fill="#264674" fill-rule="evenodd" transform="matrix(1 0 0 -1 2671 1245)"/><path d="M116.695-0.833745 97.7968-0.833745C97.5407 0.563527 97.4404 2.12603 97.5407 3.88552 97.4404 18.0112 98.5685 32.1412 98.1255 46.2763 97.5591 61.7718 97.7464 54.2807 96.148 65.4741 92.8597 82.6465 89.133 99.8514 83.3601 116.259L83.1591 116.795 82.6661 118.018C78.0303 128.387 73.4175 138.801 67.96 148.688 58.5245 165.44 54.4231 170.709 45.0879 183.95 42.1467 188.545 26.7513 206.465 18.0691 222.969 14.8495 227.518 11.9859 232.384 9.62469 237.511 8.58792 238.015 7.62883 238.804 6.84344 239.999 4.86125 243.147 4.13951 247.147 2.74673 250.666 0.417511 256.75-1.05295 263.224-0.874939 269.85-0.00719226 289.707 10.6525 306.894 22.4535 321.271 31.2543 332.185 44.3892 350.164 44.9649 351.259 53.5921 364.363 62.5709 377.435 68.5034 392.303 69.5129 395.505 78.3363 417.782 81.0539 429.562 86.9545 453.048 90.5761 477.062 93.6087 501.157 93.9741 502.802 94.7505 504.145 95.7779 505.166L106.995 505.166C107.164 504.983 107.324 504.795 107.479 504.598 104.259 455.055 96.5133 401.998 72.2531 362.008 64.3427 348.968 51.1668 334.183 39.5438 321.138 37.3286 318.65 35.1684 316.227 33.1085 313.89 20.7867 299.888 6.82042 284.012 10.9128 264.32 14.1781 248.622 26.2169 234.552 40.6809 218.763 46.3761 211.945 52.7973 205.347 60.1093 196.33 69.8142 184.922 79.0671 172.99 86.6668 159.781 92.0786 150.045 96.6047 139.731 101.194 129.514 109.347 108.685 114.969 85.8859 117.6 63.426 118.668 47.9026 117.75 32.3155 117.618 16.7647 117.609 15.3581 117.636 13.9514 117.664 12.5451 117.38 8.26566 117.056 3.81661 116.695-0.833745" fill="#BDCFE9" fill-rule="evenodd" transform="matrix(1 0 0 -1 2686 1258)"/><path d="M0 21.5002C0 9.62595 9.62589-8.09241e-15 21.5-1.07899e-14L317.5 0C329.374-5.39494e-15 339 9.62595 339 21.5002L339 21.5002C339 33.3744 329.374 43.0003 317.5 43.0003L21.5 43C9.62589 43 0 33.374 0 21.4998Z" stroke="#000000" stroke-width="10.3125" stroke-miterlimit="8" fill="#0D1C36" fill-rule="evenodd" transform="matrix(1 0 0 -1 2496 1312)"/><g clip-path="url(#clip1)"><g clip-path="url(#clip2)"><g clip-path="url(#clip3)"><path d="M13.9999 2.91665C13.9999 2.91665 6.70829 13.1833 6.70829 17.7916 6.70829 21.8165 9.97494 25.0832 13.9999 25.0832 18.0249 25.0832 21.2915 21.8165 21.2915 17.7916 21.2915 13.1541 13.9999 2.91665 13.9999 2.91665Z" transform="matrix(1 0 0 1.00001 2651 965)"/></g></g></g><g clip-path="url(#clip4)"><g clip-path="url(#clip5)"><g clip-path="url(#clip6)"><path d="M13.5001 2.81252C13.5001 2.81252 6.46879 12.7126 6.46879 17.1564 6.46879 21.0376 9.61881 24.1876 13.5001 24.1876 17.3814 24.1876 20.5314 21.0376 20.5314 17.1564 20.5314 12.6845 13.5001 2.81252 13.5001 2.81252Z" transform="matrix(1.03702 0 0 1 2651 1018)"/></g></g></g><g clip-path="url(#clip7)"><g clip-path="url(#clip8)"><g clip-path="url(#clip9)"><path d="M2665 1072.92C2665 1072.92 2657.71 1083.18 2657.71 1087.79 2657.71 1091.82 2660.97 1095.08 2665 1095.08 2669.02 1095.08 2672.29 1091.82 2672.29 1087.79 2672.29 1083.15 2665 1072.92 2665 1072.92Z"/></g></g></g></g></svg>