<svg width="42" height="49" viewBox="0 0 42 49" fill="none" xmlns="http://www.w3.org/2000/svg">
<path d="M31.6479 7.32462L30.8311 8.64203L34.0611 10.6448L34.878 9.32736L31.6479 7.32462Z" fill="black"/>
<path d="M31.1136 5.33632L30.2514 6.72692C30.0301 7.08398 30.14 7.5529 30.4971 7.77428L34.9677 10.5462C35.3248 10.7676 35.7937 10.6576 36.0151 10.3005L36.8773 8.90994C37.0987 8.55289 36.9887 8.08397 36.6316 7.86259L32.161 5.09067C31.8039 4.86929 31.335 4.97927 31.1136 5.33632Z" fill="#1A2B51"/>
<path d="M32.161 5.09651L30.4971 7.78012L31.1216 8.16736L32.7855 5.48375L32.161 5.09651Z" fill="#6B81B4"/>
<path d="M33.6852 5.94845L32.0117 8.6324L32.6363 9.02187L34.3099 6.33793L33.6852 5.94845Z" fill="#6B81B4"/>
<path d="M34.7381 6.6805L33.0742 9.36411L33.6988 9.75134L35.3627 7.06773L34.7381 6.6805Z" fill="#6B81B4"/>
<path d="M36.0106 7.48915L34.3467 10.1728L34.9712 10.56L36.6351 7.87639L36.0106 7.48915Z" fill="#6B81B4"/>
<path d="M10.2169 7.26508L6.98438 9.26933L9.15578 12.7714L12.3883 10.7672L10.2169 7.26508Z" fill="#322E2F"/>
<path d="M10.2052 7.26998L6.97266 9.27423L7.78646 10.5868L11.019 8.58251L10.2052 7.26998Z" fill="black"/>
<path d="M9.69602 5.03152L5.23147 7.79966C4.87441 8.02105 4.76443 8.48997 4.98581 8.84702L5.84802 10.2376C6.0694 10.5947 6.53832 10.7047 6.89538 10.4833L11.3599 7.71513C11.717 7.49375 11.827 7.02483 11.6056 6.66778L10.7434 5.27718C10.522 4.92013 10.0531 4.81014 9.69602 5.03152Z" fill="#1A2B51"/>
<path d="M9.6807 5.03306L9.05859 5.41878L10.7225 8.10239L11.3446 7.71666L9.6807 5.03306Z" fill="#6B81B4"/>
<path d="M8.4141 5.84387L7.79199 6.2296L9.4559 8.91321L10.078 8.52748L8.4141 5.84387Z" fill="#6B81B4"/>
<path d="M7.11625 6.63571L6.49414 7.02144L8.15805 9.70505L8.78016 9.31932L7.11625 6.63571Z" fill="#6B81B4"/>
<path d="M5.83891 7.43216L5.2168 7.81789L6.88071 10.5015L7.50282 10.1158L5.83891 7.43216Z" fill="#6B81B4"/>
<path d="M23.885 3.37288H17.9717V9.78278H23.885V3.37288Z" fill="#322E2F"/>
<path d="M23.885 3.37288H17.9717V5.77552H23.885V3.37288Z" fill="black"/>
<path d="M20.9262 49C32.4834 49 41.8524 39.631 41.8524 28.0738C41.8524 16.5166 32.4834 7.14763 20.9262 7.14763C9.36897 7.14763 0 16.5166 0 28.0738C0 39.631 9.36897 49 20.9262 49Z" fill="#1A2B51"/>
<path d="M20.9263 47.6078C31.7225 47.6078 40.4746 38.8557 40.4746 28.0595C40.4746 17.2632 31.7225 8.51112 20.9263 8.51112C10.13 8.51112 1.37793 17.2632 1.37793 28.0595C1.37793 38.8557 10.13 47.6078 20.9263 47.6078Z" fill="#6B81B4"/>
<path d="M20.9207 46.2988C31.0035 46.2988 39.1772 38.1251 39.1772 28.0422C39.1772 17.9594 31.0035 9.78566 20.9207 9.78566C10.8378 9.78566 2.66406 17.9594 2.66406 28.0422C2.66406 38.1251 10.8378 46.2988 20.9207 46.2988Z" fill="white"/>
<path d="M25.0168 0H16.8214C16.1715 0 15.6445 0.526924 15.6445 1.17692V3.73456C15.6445 4.38456 16.1715 4.91148 16.8214 4.91148H25.0168C25.6668 4.91148 26.1937 4.38456 26.1937 3.73456V1.17692C26.1937 0.526924 25.6668 0 25.0168 0Z" fill="#1A2B51"/>
<path d="M17.9675 0H16.8193V4.91148H17.9675V0Z" fill="#6B81B4"/>
<path d="M20.322 0H19.1738V4.91148H20.322V0Z" fill="#6B81B4"/>
<path d="M22.6775 0H21.5293V4.91148H22.6775V0Z" fill="#6B81B4"/>
<path d="M25.032 0H23.8838V4.91148H25.032V0Z" fill="#6B81B4"/>
</svg>
