<svg width="24" height="24" viewBox="0 0 24 24" fill="none" xmlns="http://www.w3.org/2000/svg">
<circle cx="12" cy="12" r="12" fill="#EC4648" fill-opacity="0.2"/>
<circle cx="11.9989" cy="12" r="9.42857" fill="#EC4648"/>
<path fill-rule="evenodd" clip-rule="evenodd" d="M8.48245 16.2623C8.24769 16.2115 8.02836 16.0598 7.88513 15.8492C7.68224 15.5509 7.65939 15.1805 7.82335 14.8479C7.88263 14.7276 7.94343 14.6639 9.24313 13.3611L10.601 11.9999L9.24313 10.6388C7.9433 9.33579 7.88265 9.27228 7.82336 9.152C7.59751 8.6937 7.73327 8.16882 8.15119 7.88457C8.44949 7.68168 8.81995 7.65883 9.15255 7.82278C9.27282 7.88207 9.33647 7.94287 10.6393 9.24258L12.0005 10.6004L13.3616 9.24258C14.6644 7.94287 14.7281 7.88207 14.8484 7.82278C15.1774 7.66058 15.5471 7.68163 15.8428 7.87937C16.2666 8.16284 16.4053 8.69006 16.1776 9.152C16.1183 9.27226 16.0575 9.33592 14.7578 10.6388L13.4 11.9999L14.7578 13.3611C16.0576 14.6641 16.1183 14.7276 16.1776 14.8479C16.4034 15.3062 16.2676 15.831 15.8497 16.1153C15.5519 16.3178 15.1843 16.3408 14.8484 16.1778C14.7273 16.1191 14.6729 16.0672 13.3616 14.7582L12.0005 13.3994L10.6393 14.7573C9.33634 16.0571 9.27283 16.1178 9.15255 16.1771C8.93819 16.2827 8.71037 16.3117 8.48245 16.2623Z" fill="white"/>
</svg>
