<svg width="14" height="14" viewBox="0 0 14 14" fill="none" xmlns="http://www.w3.org/2000/svg">
<path fill-rule="evenodd" clip-rule="evenodd" d="M6.47451 0.0131741C5.45854 0.110457 4.68628 0.326416 3.8423 0.749306C2.73155 1.30584 1.70161 2.25005 1.02424 3.33285C0.535198 4.11453 0.178422 5.12525 0.0343591 6.13698C-0.011453 6.45873 -0.011453 7.53874 0.0343591 7.86049C0.149095 8.6663 0.362273 9.37218 0.695336 10.0491C1.07216 10.8149 1.44125 11.3294 2.05061 11.9382C2.65332 12.5404 3.17634 12.9164 3.91418 13.278C4.42901 13.5303 4.76142 13.6531 5.28334 13.7839C6.65289 14.1271 8.02646 14.0613 9.36451 13.5884C9.77288 13.444 10.4808 13.0892 10.8421 12.8478C12.3757 11.8233 13.4477 10.2697 13.8401 8.50339C13.9315 8.09188 13.9784 7.70729 13.9954 7.23127C14.037 6.06451 13.7968 4.95408 13.2772 3.91028C12.936 3.2249 12.5562 2.68774 12.0229 2.13641C11.4354 1.52902 10.845 1.09959 10.0754 0.719951C9.26388 0.319576 8.50829 0.105943 7.61092 0.0231048C7.33194 -0.00263843 6.69771 -0.00819197 6.47451 0.0131741ZM7.9669 0.95082C9.68676 1.23955 11.1381 2.17698 12.1055 3.62393C12.5937 4.35416 12.9159 5.18918 13.0646 6.10962C13.1323 6.52931 13.1323 7.46816 13.0646 7.88785C12.7695 9.7145 11.7687 11.2312 10.2123 12.2106C9.54587 12.63 8.74283 12.924 7.88475 13.0627C7.46318 13.1308 6.52451 13.1306 6.10484 13.0623C4.30595 12.7697 2.82427 11.813 1.8402 10.309C1.38074 9.60671 1.07057 8.78607 0.925136 7.88785C0.857171 7.46794 0.857171 6.52953 0.925136 6.10962C1.14511 4.75106 1.72076 3.61526 2.66575 2.67529C3.71291 1.63371 5.02523 1.02211 6.50189 0.887515C6.79813 0.860513 7.64755 0.897227 7.9669 0.95082ZM6.61143 3.51404C5.79478 3.61792 5.10352 3.95594 4.5277 4.53305C4.01161 5.05032 3.70845 5.60586 3.55549 6.3148C3.48533 6.63994 3.48533 7.35753 3.55549 7.68267C3.70713 8.38548 4.01846 8.95659 4.52677 9.46443C5.03508 9.97226 5.60674 10.2833 6.31021 10.4348C6.63511 10.5048 7.35395 10.5049 7.67828 10.435C8.31319 10.2982 8.8968 10.0059 9.31467 9.61536L9.49006 9.45146L9.18236 9.1432L8.87468 8.83491L8.72681 8.96994C8.28865 9.37002 7.61439 9.62504 6.99479 9.62504C5.93955 9.62504 4.95017 8.95659 4.55971 7.97985C4.41554 7.6192 4.38232 7.43547 4.38232 6.99874C4.38232 6.562 4.41554 6.37827 4.55971 6.01762C4.80539 5.40298 5.34914 4.84667 5.95659 4.58844C6.88742 4.19269 8.00682 4.37013 8.72681 5.02753L8.87468 5.16257L9.18236 4.85428L9.49006 4.54601L9.31467 4.38212C8.90707 4.00119 8.34509 3.71454 7.73414 3.57595C7.5056 3.52411 6.82666 3.48668 6.61143 3.51404Z" fill="#A5A5A5"/>
</svg>
