<svg width="60" height="60" viewBox="0 0 60 60" fill="none" xmlns="http://www.w3.org/2000/svg">
<circle cx="30" cy="30" r="30" fill="#24AFE0" fill-opacity="0.2"/>
<path fill-rule="evenodd" clip-rule="evenodd" d="M29.0807 15.1236C28.9048 15.1972 28.6704 15.3204 28.5598 15.3974C28.4493 15.4743 25.678 18.2229 22.4014 21.5053C17.5935 26.3216 16.4163 27.5287 16.301 27.7604C15.7731 28.8221 15.9483 29.9868 16.7579 30.797C17.2606 31.3 17.9025 31.5607 18.6381 31.5607H19.0104V35.9472C19.0104 38.9167 19.0298 40.4276 19.0705 40.6244C19.2775 41.6248 20.0863 42.5284 21.0835 42.8732C21.4472 42.999 21.4727 43 24.1192 43C26.7292 43 26.7915 42.9975 26.9396 42.8869C27.0228 42.8247 27.1419 42.7056 27.2041 42.6223C27.3149 42.4738 27.3177 42.4001 27.3445 38.8082L27.3719 35.1456L27.5384 34.8756C27.7458 34.5392 28.1694 34.2703 28.5704 34.2204C28.7255 34.2012 29.4939 34.1935 30.2779 34.2035L31.7035 34.2216L31.9916 34.3813C32.2662 34.5336 32.4435 34.7149 32.6134 35.0172C32.6766 35.1298 32.6954 35.8093 32.7179 38.8126C32.7447 42.4001 32.7475 42.4738 32.8583 42.6223C32.9205 42.7056 33.0396 42.8247 33.1228 42.8869C33.2709 42.9975 33.3332 43 35.9432 43C38.5897 43 38.6152 42.999 38.9789 42.8732C39.9761 42.5284 40.7849 41.6248 40.9919 40.6244C41.0326 40.4276 41.052 38.9167 41.052 35.9472V31.5607H41.4243C42.4554 31.5607 43.3541 31.0105 43.7974 30.1079C43.9835 29.729 43.9854 29.7173 43.9854 28.982C43.9854 27.7308 44.6159 28.4737 37.5776 21.4309C30.5792 14.4281 31.2803 15.0297 30.0876 15.0044C29.4645 14.9911 29.3709 15.0022 29.0807 15.1236ZM30.4388 16.6911C30.7581 16.8466 42.2225 28.3294 42.3385 28.6099C42.4531 28.8872 42.4444 29.1222 42.3092 29.4016C42.1056 29.8225 41.9368 29.883 40.8777 29.9147C39.8822 29.9446 39.8116 29.9661 39.5476 30.3199C39.4359 30.4696 39.4342 30.5287 39.4071 35.4464L39.3797 40.4214L39.2277 40.6801C39.1441 40.8224 38.9944 41.0009 38.895 41.0768C38.5132 41.3681 38.3995 41.3815 36.3023 41.3815H34.3628V38.3117C34.3628 36.2976 34.3421 35.142 34.3026 34.9513C34.0897 33.922 33.2583 33.0318 32.197 32.6968C31.834 32.5823 31.7167 32.5757 30.0312 32.5757C28.0687 32.5757 27.9707 32.5887 27.2651 32.9443C26.5737 33.2928 25.9235 34.1595 25.7598 34.9513C25.7203 35.142 25.6996 36.2976 25.6996 38.3117V41.3815H23.7601C21.6629 41.3815 21.5492 41.3681 21.1674 41.0768C21.068 41.0009 20.9183 40.8224 20.8347 40.6801L20.6827 40.4214L20.6553 35.4464C20.6282 30.5288 20.6265 30.4696 20.5148 30.3199C20.2508 29.9661 20.1802 29.9446 19.1847 29.9147C18.1256 29.883 17.9568 29.8225 17.7532 29.4016C17.618 29.1222 17.6093 28.8872 17.7239 28.6099C17.8374 28.3355 29.3018 16.8496 29.62 16.6916C29.8981 16.5535 30.1558 16.5534 30.4388 16.6911Z" fill="#24AFE0"/>
</svg>
