<svg width="123" height="92" viewBox="0 0 123 92" fill="none" xmlns="http://www.w3.org/2000/svg">
<path d="M66.0806 84.1671C65.2883 85.4784 64.1571 86.5519 62.806 87.2744C61.455 87.997 59.9341 88.3419 58.4035 88.2728C56.8006 88.2447 54.1853 88.1603 51.8794 88.1884C46.3676 88.2165 43.0774 79.6958 50.2202 78.3179C56.4913 77.1086 55.4227 75.3089 58.0661 74.0997C58.9259 73.7086 59.8612 73.5114 60.8057 73.5222C61.7503 73.5329 62.6808 73.7514 63.5315 74.1619C64.3822 74.5725 65.1322 75.1652 65.7282 75.898C66.3242 76.6308 66.7518 77.4857 66.9805 78.4022C67.4174 80.1936 67.1875 82.0828 66.3337 83.7171C66.3056 83.7453 66.3056 83.7453 66.3056 83.7734C66.3056 83.8015 66.165 84.0265 66.0806 84.1671Z" fill="#E8EEFF"/>
<path d="M20.018 66.6756C9.89431 55.7645 10.2318 37.7107 19.7368 26.2653C22.4769 22.9601 25.8974 20.2846 29.7651 18.4211C33.6329 16.5576 37.8569 15.5499 42.1494 15.4667C45.8895 15.3824 49.5172 13.7795 51.6544 10.7142C54.6071 6.49604 57.9536 1.57482 64.7589 0.646818C72.4079 -0.42179 79.0726 4.75252 82.1097 10.5736C85.1468 16.3947 88.4933 17.3509 92.5146 19.6849C95.2349 21.251 97.6926 23.2342 99.798 25.5623C109.95 36.7545 110.203 53.4023 100.445 64.932C92.5427 74.2964 79.1289 80.2581 69.3989 74.437C60.9344 69.3752 57.4474 70.8938 50.5014 74.3245C40.3778 79.3301 29.1293 76.4618 20.018 66.6756Z" fill="#E8EEFF"/>
<path d="M43.7524 13.3857C47.4488 13.3857 50.4453 10.3892 50.4453 6.69286C50.4453 2.9965 47.4488 0 43.7524 0C40.0561 0 37.0596 2.9965 37.0596 6.69286C37.0596 10.3892 40.0561 13.3857 43.7524 13.3857Z" fill="#E8EEFF"/>
<path d="M37.3407 49.8027L31.1822 34.3641C29.748 30.7364 26.7671 26.0683 28.6231 24.9997C30.4791 23.9311 31.4072 29.1054 32.8413 34.2516C33.4319 36.4169 38.0156 49.3527 38.0719 49.4652C38.1281 49.5777 37.4813 50.1682 37.3407 49.8027Z" fill="#F07D18"/>
<path d="M36.0481 47.9186C36.0199 47.9749 33.2922 49.6621 32.7297 49.5497C32.1673 49.4372 33.0953 47.4406 33.1797 47.4125L34.417 46.5688C34.417 46.5688 36.4136 47.1594 36.0481 47.9186Z" fill="#FFB9A0"/>
<path d="M35.175 47.8906C35.1469 47.8625 34.1345 46.7096 34.2751 45.5566C34.4157 44.4036 34.8094 43.7568 34.9781 43.2225C35.1469 42.6882 35.4562 42.9694 35.5124 43.1944C35.5687 43.4194 35.5406 44.2068 35.5406 44.2068L36.5811 43.8693L37.1997 47.047C37.1997 47.047 35.8499 48.4812 35.175 47.8906Z" fill="#FFE5CF"/>
<path opacity="0.5" d="M35.175 47.8906C35.1469 47.8625 34.1345 46.7096 34.2751 45.5566C34.4157 44.4036 34.8094 43.7568 34.9781 43.2225C35.1469 42.6882 35.4562 42.9694 35.5124 43.1944C35.5687 43.4194 35.5406 44.2068 35.5406 44.2068L36.5811 43.8693L37.1997 47.047C37.1997 47.047 35.8499 48.4812 35.175 47.8906Z" fill="#FFB9A0"/>
<path d="M36.3287 45.8658C36.3287 45.8658 35.9069 46.0626 35.8226 46.2595C35.7382 46.4563 35.935 46.625 36.1881 46.625C36.6068 46.5612 37.0203 46.4672 37.4255 46.3438C37.7067 46.2595 37.5661 45.7252 37.313 45.7252C36.9798 45.7244 36.6483 45.7718 36.3287 45.8658Z" fill="#FFE5CF"/>
<path d="M35.7098 45.5284C35.7098 45.5284 35.3161 45.7815 35.2599 46.0064C35.2036 46.2314 35.4567 46.3439 35.7098 46.2595C36.2321 46.1186 36.7404 45.9304 37.2284 45.6971C37.4815 45.5565 37.2565 45.0503 36.9753 45.0503C36.6941 45.0503 35.9629 45.3878 35.7098 45.5284Z" fill="#FFE5CF"/>
<path d="M35.5705 44.8254C35.5705 44.8254 35.1487 45.1066 35.1205 45.3034C35.0924 45.5003 35.3174 45.6409 35.5705 45.5565C36.105 45.408 36.6308 45.2297 37.1453 45.0222C37.3702 44.8535 37.1453 44.3192 36.8922 44.3192C36.6391 44.3192 35.8236 44.6848 35.5705 44.8254Z" fill="#FFE5CF"/>
<path d="M35.4293 44.1785C35.4293 44.1785 35.0918 44.4035 35.0918 44.6285C35.0918 44.8534 35.2886 44.9378 35.5699 44.8535C36.0045 44.6853 36.4273 44.488 36.8353 44.2629C37.0603 44.0942 36.8072 43.588 36.5541 43.6161C36.301 43.6442 35.6542 44.0098 35.4293 44.1785Z" fill="#FFE5CF"/>
<path d="M1.34539 85.4888C0.987455 85.8182 0.666821 86.186 0.389271 86.5855C0.0236947 87.1479 0.417393 88.3852 0.726727 89.0601C1.03606 89.7351 2.92019 91.0568 3.53885 91.0568C4.15752 91.0568 3.90443 89.0883 4.10128 88.329C4.29813 87.5697 4.5231 86.9792 4.5231 86.9792C4.17249 86.472 3.69366 86.0668 3.13544 85.805C2.57721 85.5432 1.95954 85.4341 1.34539 85.4888Z" fill="#070540"/>
<path d="M3.53907 91.0567C2.9204 91.0567 1.0644 89.735 0.726946 89.0601C0.389491 88.3851 0.0801567 87.3728 0.305127 86.7541C0.24832 86.8224 0.201022 86.8981 0.16452 86.9791C-0.229177 87.5415 0.164521 88.7789 0.501976 89.4538C0.839431 90.1287 2.69543 91.4504 3.3141 91.4504C3.48283 91.4504 3.59532 91.2816 3.65156 91.0285L3.53907 91.0567Z" fill="#E6E8F4"/>
<path d="M29.8887 88.329C29.9144 88.5487 29.9615 88.7653 30.0293 88.9758C30.1418 89.1445 32.4196 89.7632 33.2632 89.8475C34.1069 89.9319 35.991 89.7351 36.0754 89.482C36.1597 89.2289 35.7941 88.4696 35.4286 88.104C34.6766 87.5305 33.8769 87.0225 33.0383 86.5855C32.5039 86.3324 29.973 87.5135 29.8887 88.329Z" fill="#070540"/>
<path d="M33.2635 89.8474C32.4198 89.763 30.142 89.1443 30.0295 88.9756C30.0187 89.0856 30.0487 89.1957 30.1139 89.285C30.2264 89.4537 32.4198 90.0723 33.2635 90.1567C34.1071 90.2411 35.9912 90.0723 36.0756 89.7911C36.0915 89.745 36.0972 89.696 36.0924 89.6474C36.0875 89.5989 36.0722 89.552 36.0475 89.5099C35.8787 89.7349 34.3039 89.9317 33.2635 89.8474Z" fill="#E6E8F4"/>
<path d="M14.1128 56.6926C14.1128 56.6926 12.0037 59.7015 11.5819 61.67C11.16 63.6385 10.3445 71.5406 10.2039 72.2717C10.1758 72.4405 8.3198 73.5091 7.47616 74.7464C4.97337 78.4865 1.28948 85.2075 1.23324 85.4325C1.177 85.6575 4.04537 86.2761 4.43906 87.2604C5.14209 86.6698 13.1567 75.7869 14.1128 74.7183C15.0689 73.6497 18.6965 68.4191 18.6965 68.4191C18.6965 68.4191 25.7269 75.2807 26.0643 75.7869C26.4018 76.2931 26.1487 77.5304 26.5986 79.2739C27.5266 82.8453 29.7201 88.0197 29.8888 88.2727C30.0575 88.5258 31.8854 86.5573 33.0384 86.5292C33.0384 86.5292 30.3669 76.5181 29.692 73.6216C29.0171 70.7251 23.5053 60.7983 22.9147 60.039C22.3242 59.2797 14.6752 56.7207 14.1128 56.6926Z" fill="#6B78B7"/>
<g style="mix-blend-mode:multiply" opacity="0.33">
<path d="M22.9151 60.039C22.3245 59.2797 14.6755 56.7207 14.1131 56.6926C14.1131 56.6926 12.004 59.7015 11.5822 61.67C11.526 62.0356 11.4135 62.598 11.3291 63.3011C11.3291 63.3011 13.382 59.9265 23.7868 61.4732L22.9151 60.039Z" fill="#6B78B7"/>
<path d="M20.9741 65.2132C20.243 66.1412 18.6963 68.419 18.6963 68.419L22.2958 71.9623C20.3836 69.5158 21.7053 64.2852 20.9741 65.2132Z" fill="#6B78B7"/>
</g>
<path d="M33.2352 51.8838C33.2352 51.8838 33.882 52.1369 34.4444 51.1807C35.0068 50.2246 35.4005 48.1999 35.4005 48.1999L32.7853 48.931C32.7853 48.931 32.0541 51.012 33.2352 51.8838Z" fill="#ACB3D8"/>
<path d="M23.2525 42.1538C22.0152 42.1538 18.9218 42.9694 17.8532 44.516C16.3065 46.7938 16.8971 50.5059 15.7722 52.1931C14.6474 53.8804 13.3257 55.2021 13.5506 56.6363C13.7756 58.0705 21.4246 60.6858 23.9555 59.9827C26.4864 59.2797 28.0331 52.3337 28.8486 50.3653C28.8486 50.3653 31.8857 51.7713 33.2355 51.8838C33.2355 51.8838 32.3919 50.5059 33.2355 48.5936C34.0792 46.6814 34.4166 46.5689 34.4166 46.5689C34.4166 46.5689 33.348 46.6251 30.9577 45.1066C28.5674 43.588 26.4021 42.1257 23.2525 42.1538Z" fill="#E6E8F4"/>
<g style="mix-blend-mode:multiply">
<path d="M30.9581 45.1065C28.5959 43.5598 26.4024 42.1256 23.2528 42.1538C22.6623 42.1538 21.2562 42.0694 22.5498 43.7004C24.4902 46.1751 29.777 47.0469 28.849 50.3652C28.849 50.3652 31.8861 51.7712 33.2359 51.8837C33.2359 51.8837 32.3923 50.5058 33.2359 48.5935C34.0795 46.6813 34.417 46.5688 34.417 46.5688C34.417 46.5688 33.3484 46.625 30.9581 45.1065Z" fill="#E6E8F4"/>
</g>
<path d="M22.1559 53.6273C22.1559 53.6273 22.5215 53.8803 25.1649 51.2932C27.8083 48.706 23.8151 49.1841 22.7746 49.9996C21.7341 50.8151 20.8342 52.5305 22.1559 53.6273Z" fill="#ACB3D8"/>
<path d="M26.5415 48.9027C26.5415 48.9027 33.7687 48.6778 34.2749 48.5934C34.781 48.509 35.8496 46.653 36.1027 46.4C36.3558 46.1469 37.8463 46.3437 38.0431 46.4C38.24 46.4562 38.1275 46.9061 38.0712 47.0186C38.015 47.1311 38.493 47.1592 38.5774 47.328C38.5954 47.508 38.5763 47.6899 38.5212 47.8623C38.5212 47.8623 38.8024 47.9747 38.8305 48.1154C38.8261 48.2415 38.7974 48.3656 38.7461 48.4809C38.7461 48.4809 39.0836 48.6215 39.0555 48.9027C39.0273 49.184 38.6055 49.5495 38.4087 49.4933C38.2118 49.437 37.6775 49.3808 37.4526 49.5495C37.3617 49.6016 37.2905 49.6822 37.2498 49.7787C37.2092 49.8752 37.2014 49.9824 37.2276 50.0838C37.2557 50.1963 36.6933 50.7869 36.0184 50.7587C35.3435 50.7306 34.4717 50.4494 32.8969 51.1524C31.3221 51.8555 27.9476 52.446 26.6259 52.446C25.3042 52.446 23.42 51.1524 23.3919 51.1524C23.3638 51.1524 25.1917 48.9309 26.5415 48.9027Z" fill="#FFE5CF"/>
<path opacity="0.5" d="M38.7472 48.4812C38.7985 48.3659 38.8271 48.2418 38.8316 48.1157C38.8034 47.9751 38.5222 47.8626 38.5222 47.8626C38.5773 47.6902 38.5965 47.5083 38.5785 47.3283C38.4941 47.1595 38.0723 47.0189 38.0723 47.0189C38.0723 47.0189 38.2129 46.4565 38.0442 46.4003C37.5993 46.3164 37.1469 46.2787 36.6943 46.2878C36.8349 46.2878 37.3411 46.344 37.4255 46.4846C37.5099 46.6252 37.4255 46.9627 37.538 47.1595C37.7939 47.5786 38.0285 48.0104 38.241 48.4531C38.3254 48.7062 38.2973 49.4374 37.9317 49.4374L38.4097 49.4936C38.6066 49.5498 39.0284 49.0718 39.0565 48.9031C39.0846 48.7343 38.7472 48.4812 38.7472 48.4812Z" fill="#FFB9A0"/>
<path d="M26.5413 48.9029C26.5413 48.8747 25.2477 48.5092 23.5604 46.85C21.8732 45.1908 19.4829 44.4878 18.3861 45.2471C17.2894 46.0064 16.502 48.3123 18.3299 49.9715C20.8889 52.2493 21.5076 53.6272 22.1544 53.6272C22.1544 53.6272 21.5638 53.4866 23.3355 51.8556C25.1071 50.2246 25.9226 49.8309 26.5413 48.9029Z" fill="#F3F4FA"/>
<path d="M24.1525 44.6004C24.1525 44.6004 24.6587 44.8254 24.8837 44.6848C25.1086 44.5442 24.7149 43.1381 24.3494 42.8569C23.9838 42.5757 24.0119 44.3473 24.1525 44.6004Z" fill="#ACB3D8"/>
<path d="M25.6704 41.0571C25.5808 41.2652 25.437 41.4454 25.254 41.579C25.071 41.7126 24.8554 41.7945 24.6299 41.8164C23.8425 41.8726 24.658 39.7916 24.658 39.7916H25.8673C25.8302 40.2174 25.7645 40.6402 25.6704 41.0571Z" fill="#070540"/>
<g style="mix-blend-mode:multiply">
<path d="M25.6704 41.0571C25.5808 41.2652 25.437 41.4454 25.254 41.579C25.071 41.7126 24.8554 41.7945 24.6299 41.8164C23.8425 41.8726 24.658 39.7916 24.658 39.7916H25.8673C25.8302 40.2174 25.7645 40.6402 25.6704 41.0571Z" fill="#070540"/>
</g>
<path d="M21.2839 39.7354C21.2839 39.7354 21.1714 38.4418 21.537 37.9075C21.9026 37.3732 24.6585 37.1763 25.1646 37.9918C25.6708 38.8074 25.1084 41.1977 25.1084 41.1977C25.1084 41.1977 21.6495 43.1661 21.2839 39.7354Z" fill="#D14122"/>
<path d="M22.2947 42.9412C22.2947 42.9412 22.2666 43.3911 22.2666 43.4755C22.8678 43.8937 23.4973 44.2696 24.1507 44.6004C24.1507 44.6004 25.1631 41.282 25.1068 41.282L22.2947 42.9412Z" fill="#FFB9A0"/>
<path d="M21.2822 39.7353C21.3103 39.7915 21.451 42.8005 21.4791 43.138C21.5072 43.4754 22.4352 43.5879 22.857 43.3911C23.4106 43.1191 23.9221 42.7686 24.3756 42.3506C24.469 42.1543 24.5352 41.9461 24.5724 41.7319C24.5724 41.7319 24.5443 41.9569 24.8817 41.9006C25.0419 41.8342 25.184 41.7308 25.2965 41.5988C25.4089 41.4668 25.4884 41.31 25.5285 41.1414C25.5567 40.4102 24.7974 40.2696 24.5724 41.282C24.5443 41.3663 24.2912 41.4226 24.2912 41.3663C24.2912 41.3101 24.3756 40.4665 24.3756 40.3258C24.3756 40.1852 24.0662 40.0165 24.0662 39.8759C24.0662 39.7353 24.2912 38.8073 24.235 38.6667C24.1787 38.5261 23.1664 38.9479 22.2665 38.7792C21.3666 38.6104 21.2822 38.9479 21.2822 39.7353Z" fill="#FFE5CF"/>
<path d="M21.3666 41.0008C22.1821 40.8039 22.9695 41.7881 24.2912 41.1414C24.3193 40.8601 24.3756 40.4383 24.3756 40.3258C24.3756 40.2134 24.0662 40.0165 24.0662 39.8759C24.0662 39.7353 24.2912 38.8073 24.235 38.6667C24.1787 38.5261 23.1664 38.9479 22.2665 38.7792C21.3666 38.6104 21.2822 38.9479 21.2822 39.7353C21.2822 39.7634 21.3385 40.3258 21.3666 41.0008Z" fill="#FFB9A0"/>
<path d="M25.6703 41.057C25.6703 41.057 25.8109 40.1852 25.2485 40.2696C23.983 40.4102 22.1833 39.2853 21.1428 39.4822C21.1428 39.4822 20.9459 38.0199 21.9864 37.4012C23.0269 36.7825 25.3891 37.12 25.8671 38.526C26.0036 38.9399 26.0564 39.3768 26.0226 39.8112C25.9888 40.2457 25.8691 40.6692 25.6703 41.057Z" fill="#070540"/>
<path d="M24.6582 40.4946C24.2343 40.6819 23.7701 40.7593 23.3084 40.7196C22.6054 40.6352 21.818 39.9041 20.2994 39.9603L20.2432 39.8197C20.5451 39.7999 20.8456 39.7624 21.143 39.7072C21.6289 39.6001 22.135 39.6293 22.6054 39.7916C23.1959 39.9603 24.6582 40.2415 24.6582 40.2415V40.4946Z" fill="#070540"/>
<path d="M24.6582 40.2415C24.2486 40.4756 23.779 40.5832 23.3084 40.5508C22.6054 40.4665 21.7336 39.7916 20.2432 39.8197C20.5363 39.6897 20.8367 39.577 21.143 39.4822C21.6289 39.3751 22.135 39.4043 22.6054 39.5666C23.2521 39.7634 24.3207 40.1853 24.6582 40.2415Z" fill="#6B78B7"/>
<path d="M38.3258 49.4933C38.2394 49.3641 38.1076 49.272 37.9565 49.2356C37.8053 49.1991 37.646 49.2208 37.5102 49.2965C37.1728 49.4371 36.9759 49.7745 37.0884 50.0276C37.1288 50.0944 37.182 50.1524 37.2449 50.1985C37.3079 50.2446 37.3793 50.2777 37.4551 50.296C37.531 50.3143 37.6097 50.3174 37.6867 50.3052C37.7637 50.2929 37.8376 50.2654 37.9039 50.2245C38.2414 50.0839 38.4382 49.7464 38.3258 49.4933Z" fill="#FF946E"/>
<path d="M110.541 55.4553L109.669 55.7928L111.244 60.0672L112.115 59.7297L112.987 59.4204L111.412 55.146L110.541 55.4553Z" fill="#ACB3D8"/>
<path d="M112.115 59.7296L110.85 60.2076L111.131 60.995L112.396 60.517L113.69 60.067L113.381 59.2515L112.115 59.7296Z" fill="#070540"/>
<path d="M110.23 54.6678L109.161 55.0615L109.442 55.8489L110.539 55.4552L111.608 55.0615L111.298 54.2741L110.23 54.6678Z" fill="#070540"/>
<path d="M111.074 45.7533L110.99 45.5284C110.062 43.0256 107.671 41.5633 105.675 42.3225C103.678 43.0818 102.778 45.7252 103.706 48.228L103.791 48.453C105.168 52.1369 108.431 52.3056 109.443 54.949L109.893 54.7803L109.696 54.3584C109.162 53.2617 108.262 52.6149 107.306 51.9119L106.631 51.3776C107.4 51.6985 108.26 51.7285 109.049 51.462C109.831 51.1468 110.471 50.5567 110.849 49.8028L110.68 50.6746C110.399 51.7994 110.174 52.8961 110.455 54.0772L110.596 54.5272L111.046 54.3584C110.062 51.6869 112.452 49.4372 111.074 45.7533ZM108.88 51.012C107.137 51.6588 105 50.3371 104.156 48.0593C103.312 45.7815 104.072 43.4193 105.843 42.7725C107.615 42.1257 109.696 43.4193 110.54 45.6971C111.383 47.9749 110.652 50.3652 108.88 51.012Z" fill="#6B78B7"/>
<path d="M109.704 42.0725L102.535 44.7387L102.596 44.9021L109.765 42.2359L109.704 42.0725Z" fill="#070540"/>
<path d="M109.943 42.6337L102.773 45.3L102.834 45.4634L110.003 42.7972L109.943 42.6337Z" fill="#070540"/>
<path d="M110.117 43.1785L102.947 45.8447L103.008 46.0081L110.177 43.3419L110.117 43.1785Z" fill="#070540"/>
<path d="M110.329 43.7496L103.16 46.4158L103.221 46.5792L110.39 43.913L110.329 43.7496Z" fill="#070540"/>
<path d="M110.502 44.2661L103.333 46.9323L103.394 47.0958L110.563 44.4295L110.502 44.2661Z" fill="#070540"/>
<path d="M110.74 44.8273L103.57 47.4936L103.631 47.657L110.8 44.9908L110.74 44.8273Z" fill="#070540"/>
<path d="M110.952 45.3982L103.783 48.0644L103.844 48.2278L111.013 45.5616L110.952 45.3982Z" fill="#070540"/>
<path d="M111.126 45.943L103.957 48.6092L104.018 48.7726L111.187 46.1064L111.126 45.943Z" fill="#070540"/>
<path d="M111.338 46.4859L104.169 49.1521L104.23 49.3155L111.399 46.6493L111.338 46.4859Z" fill="#070540"/>
<path d="M111.568 47.0206L104.398 49.6869L104.459 49.8503L111.628 47.1841L111.568 47.0206Z" fill="#070540"/>
<path d="M111.749 47.5917L104.58 50.258L104.641 50.4214L111.81 47.7552L111.749 47.5917Z" fill="#070540"/>
<path d="M111.951 48.1364L104.782 50.8026L104.843 50.966L112.012 48.2998L111.951 48.1364Z" fill="#070540"/>
<path d="M112.191 48.6695L105.021 51.3357L105.082 51.4991L112.252 48.8329L112.191 48.6695Z" fill="#070540"/>
<path d="M102.841 41.7314L102.683 41.7902L107.024 53.464L107.182 53.4051L102.841 41.7314Z" fill="#070540"/>
<path d="M103.457 41.5116L103.299 41.5704L107.64 53.2441L107.798 53.1853L103.457 41.5116Z" fill="#070540"/>
<path d="M104.017 41.2917L103.858 41.3506L108.2 53.0243L108.358 52.9655L104.017 41.2917Z" fill="#070540"/>
<path d="M104.659 41.062L104.501 41.1208L108.842 52.7945L109.001 52.7357L104.659 41.062Z" fill="#070540"/>
<path d="M105.246 40.842L105.088 40.9008L109.429 52.5745L109.587 52.5157L105.246 40.842Z" fill="#070540"/>
<path d="M105.834 40.6222L105.676 40.6811L110.017 52.3548L110.175 52.296L105.834 40.6222Z" fill="#070540"/>
<path d="M106.421 40.4025L106.263 40.4613L110.604 52.1351L110.762 52.0762L106.421 40.4025Z" fill="#070540"/>
<path d="M107.044 40.1989L106.886 40.2577L111.227 51.9315L111.385 51.8727L107.044 40.1989Z" fill="#070540"/>
<path d="M107.573 40.1912L107.415 40.2497L111.736 51.9311L111.894 51.8725L107.573 40.1912Z" fill="#070540"/>
<path d="M84.8099 82.1704C84.8099 82.1704 84.3037 83.4921 83.8256 83.4921C83.3476 83.4921 82.0821 83.0421 80.9292 83.1546C79.7762 83.2671 75.1081 85.6293 72.7177 85.6012L71.0586 89.4538C71.0586 89.4538 74.2082 88.1883 76.6266 87.8227C79.045 87.4572 86.0191 87.2603 87.144 86.8666C88.2688 86.4729 90.6872 81.1299 90.6872 81.1299L84.8099 82.1704Z" fill="#FFD2B3"/>
<path d="M84.8085 82.1704C84.7004 82.4667 84.5588 82.7497 84.3867 83.014C84.6961 82.9296 85.5116 83.3515 86.3833 84.2513C87.2551 85.1512 87.7332 85.4887 88.4643 85.3762C89.285 84.0042 90.0268 82.5864 90.6859 81.1299L84.8085 82.1704Z" fill="#FFB98B"/>
<path d="M72.5486 85.4324C72.5486 85.4324 73.6735 85.798 77.1324 84.3357C77.1324 84.3357 78.904 85.7699 77.8073 87.7665C76.4841 87.9573 75.1773 88.2487 73.8984 88.6382C72.3518 89.1725 70.8613 89.6225 70.8613 89.6225L72.5486 85.4324Z" fill="#E6E8F4"/>
<path d="M72.1843 84.645C72.1843 84.645 73.3373 85.4887 73.3654 86.4167C73.3935 87.3447 72.4936 87.5415 72.0999 88.3289C71.7062 89.1163 72.0718 89.4819 70.9751 89.8756C69.8784 90.2693 68.8379 90.0162 67.4037 90.8317C65.9695 91.6472 64.2822 90.8317 64.2822 90.8317L72.1843 84.645Z" fill="#070540"/>
<path d="M67.2349 90.1567C69.2596 88.7788 69.5127 87.7383 70.3845 87.1759C71.2562 86.6135 72.3248 85.6011 72.2124 84.7575C72.1561 84.5325 71.5937 84.0263 71.425 83.9419C71.2562 83.8576 63.7197 90.3536 63.7197 90.7192L64.3103 91.1129C64.8446 91.3378 66.0819 90.9723 67.2349 90.1567Z" fill="#E6E8F4"/>
<path d="M66.7569 89.8474C68.7816 88.4695 69.0347 87.429 69.9065 86.8384C70.7782 86.2479 71.8468 85.2918 71.7344 84.42C71.6219 83.5482 70.497 83.6326 69.5409 84.3638C68.5848 85.0949 68.866 85.7417 67.0943 86.3041C65.7405 86.7606 64.6197 87.7299 63.9729 89.0038C63.8042 89.3412 63.3542 90.3817 63.6636 90.691C63.9729 91.0004 65.4633 90.7192 66.7569 89.8474Z" fill="white"/>
<path d="M100.784 77.0523C100.784 77.0523 104.468 77.0805 105.537 77.2492C106.605 77.4179 107.336 79.7801 108.321 80.4831C109.305 81.1862 111.245 81.7205 113.27 84.3076C115.295 86.8948 115.154 87.2041 115.154 87.2041L118.191 86.9791C118.191 86.9791 107.899 74.1277 107.055 73.4528C106.212 72.7779 101.965 71.8218 101.965 71.8218C101.965 71.8218 101.094 76.1525 100.784 77.0523Z" fill="#FFD2B3"/>
<path d="M104.834 75.0276C104.974 74.4371 105.452 73.256 105.171 72.6654C103.709 72.2155 101.965 71.8218 101.965 71.8218C101.965 71.8218 101.094 76.1525 100.784 77.0523C100.784 77.0523 102.443 77.0523 103.849 77.1367C104.262 76.4761 104.592 75.7679 104.834 75.0276Z" fill="#FFB98B"/>
<path d="M114.814 86.473C115.208 87.0917 115.152 87.2041 115.152 87.2041L118.189 86.9792L117.795 86.473H114.814Z" fill="#FFD2B3"/>
<path d="M110.933 82.1986C110.905 82.1423 112.705 80.4551 113.07 80.4551C113.436 80.4551 116.838 85.1513 117.26 85.6013C117.682 86.0512 114.814 86.3886 114.448 86.1356C114.083 85.8825 113.436 84.7857 112.48 83.8015C111.523 82.8172 111.045 82.3392 110.933 82.1986Z" fill="#E6E8F4"/>
<path d="M113.999 85.6294C114.271 85.8287 114.584 85.9628 114.916 86.0213C115.247 86.0798 115.588 86.0612 115.911 85.9669C116.98 85.6575 116.108 84.7014 116.08 84.2796C116.052 83.8578 116.305 83.8015 116.699 84.2233C117.092 84.6452 120.889 86.3606 121.845 86.5855C122.801 86.8105 123.026 87.4292 122.998 87.7104C122.97 87.9916 120.973 88.2166 118.92 88.3291C116.867 88.4415 113.746 88.4415 113.634 88.2728C113.521 88.1041 113.577 85.6857 113.999 85.6294Z" fill="#070540"/>
<path d="M122.941 87.7946C122.631 88.0477 120.803 88.2164 118.919 88.3289C117.035 88.4414 113.942 88.4414 113.632 88.3008C113.589 88.4476 113.589 88.6039 113.632 88.7507C113.773 88.9195 116.866 88.9757 118.919 88.8632C120.972 88.7507 122.969 88.4976 122.997 88.2445C123.004 88.0924 122.985 87.9402 122.941 87.7946Z" fill="#E6E8F4"/>
<path d="M85.2585 71.3437C85.2585 71.3437 84.3586 72.7779 84.8929 75.4213C85.4272 78.0647 85.0616 81.8892 84.3867 82.4797C84.3867 82.4797 85.371 83.6046 87.3957 82.9297C89.4204 82.2547 90.7984 81.3267 92.0076 81.2424C92.0076 81.2424 92.3732 78.0928 92.2888 77.1086C92.2888 77.1086 99.8253 78.4021 100.5 78.3459C101.175 78.2897 104.128 74.0715 104.128 72.3561C104.128 72.3561 98.8973 70.247 95.8321 69.2346C92.7669 68.2222 85.2585 71.3437 85.2585 71.3437Z" fill="#5BCFDE"/>
<g style="mix-blend-mode:multiply" opacity="0.4">
<path d="M95.8333 69.2346C92.7399 68.2222 85.2597 71.3437 85.2597 71.3437C85.2597 71.3437 84.3598 72.7779 84.8941 75.4213C85.037 76.154 85.1217 76.8968 85.1472 77.6429C85.5409 76.0681 97.1268 76.9117 96.7894 69.5439L95.8333 69.2346Z" fill="#5BCFDE"/>
<path d="M92.1496 79.977C92.2575 79.0248 92.3045 78.0667 92.2902 77.1086C92.2902 77.1086 90.2092 76.7711 89.1968 76.6868C88.1845 76.6024 92.262 78.7396 92.1496 79.977Z" fill="#5BCFDE"/>
</g>
<path d="M102.864 58.5204C102.864 58.5204 108.994 57.9861 109.529 57.8174C110.063 57.6487 111.075 56.2707 111.244 56.1301C111.413 55.9895 112.65 56.102 112.847 56.1301C113.044 56.1583 112.903 56.9175 112.903 56.9175C113.078 57.3441 113.209 57.7868 113.297 58.2392C113.297 58.408 113.1 58.9141 112.903 58.886C112.706 58.8579 112.819 58.6329 112.622 58.5767C112.425 58.5204 112.116 59.2797 111.863 59.4203C111.61 59.5609 111.3 59.5891 110.766 59.5047C110.232 59.4203 106.66 61.2201 105.648 61.3888C104.636 61.5575 101.739 61.2763 101.514 61.2763C101.289 61.2763 101.992 58.6048 102.864 58.5204Z" fill="#FFD2B3"/>
<path d="M103.173 58.4923H102.864C101.992 58.5767 101.289 61.2482 101.514 61.2482L103.145 61.3607C103.033 61.1919 103.511 59.9265 103.173 58.4923Z" fill="#FFB98B"/>
<path d="M112.902 58.8859C113.099 58.914 113.296 58.4079 113.296 58.2391C113.208 57.7867 113.077 57.344 112.902 56.9174C112.902 56.9174 113.071 56.1863 112.846 56.13C112.398 56.0773 111.947 56.0585 111.496 56.0738C111.609 56.0738 111.946 56.0738 111.946 56.355C111.946 56.6362 112.424 57.508 112.537 57.6486C112.649 57.7892 112.705 58.2954 112.424 58.6891C112.508 58.6328 112.565 58.5766 112.621 58.5766C112.677 58.5766 112.705 58.8578 112.902 58.8859Z" fill="#FFB98B"/>
<path d="M94.5962 54.2742C94.6806 54.1336 98.1395 53.29 98.4488 53.1212C98.7581 52.9525 98.9831 52.2213 99.2081 51.9401C99.4331 51.6589 100.389 50.8996 100.474 50.7028C100.558 50.5059 100.586 50.3091 100.755 50.3091C100.923 50.3091 101.036 50.7028 100.98 51.0965C100.923 51.4902 100.361 51.9401 100.305 52.0526C100.249 52.1651 101.57 51.9683 101.795 52.0526C102.02 52.137 101.908 52.362 101.767 52.4182C101.627 52.4744 100.502 52.5307 100.445 52.615C100.389 52.6994 101.992 52.5869 102.161 52.6432C102.203 52.6618 102.239 52.693 102.262 52.7325C102.286 52.772 102.297 52.8179 102.294 52.8639C102.291 52.91 102.274 52.954 102.245 52.9899C102.216 53.0259 102.177 53.0521 102.133 53.065C101.936 53.1212 100.811 53.2056 100.727 53.2337C100.642 53.2618 102.273 53.1775 102.442 53.2337C102.502 53.2412 102.556 53.272 102.593 53.3195C102.63 53.3669 102.646 53.4271 102.639 53.4868C102.631 53.5465 102.601 53.6007 102.553 53.6376C102.506 53.6746 102.445 53.6911 102.386 53.6837C102.133 53.7118 100.755 53.8243 100.67 53.8805C100.586 53.9367 102.301 54.1336 102.414 54.2461C102.526 54.3586 102.442 54.6116 102.189 54.6398C101.936 54.6679 100.67 54.5273 100.558 54.5554C100.445 54.5835 99.6018 54.9772 99.2081 54.9491C99.0039 54.9124 98.7969 54.8936 98.5894 54.8929C97.6895 55.0335 95.1024 56.2989 94.9337 56.2989C94.7649 56.2989 94.4556 54.5554 94.5962 54.2742Z" fill="#FF946E"/>
<path d="M97.6619 53.3744C96.5371 53.6837 94.6529 54.1899 94.5967 54.2742C94.5405 54.3586 94.7654 56.299 94.9342 56.299C95.1029 56.299 96.9589 55.3991 98.0837 55.0335C97.8096 54.5233 97.6648 53.9536 97.6619 53.3744Z" fill="#F07D18"/>
<path d="M93.1053 51.1806C93.1053 51.1806 91.8679 49.6901 90.0401 50.3088C88.2122 50.9275 87.3404 53.4865 87.2842 56.8329C87.256 59.5607 87.7622 64.8475 87.003 66.591C86.2437 68.3345 84.5283 70.6405 84.2471 71.681C84.2471 71.681 86.9467 75.9554 91.3617 74.9149C97.4078 73.4807 96.0861 65.4381 96.761 61.8104C97.9984 61.8948 100.192 62.4572 100.979 62.5416C101.767 62.6259 103.088 59.6451 102.863 58.5202C101.151 57.9807 99.4787 57.323 97.8578 56.5517C96.5119 55.8975 95.3804 54.8732 94.5957 53.599L93.1053 51.1806Z" fill="#6B78B7"/>
<g style="mix-blend-mode:multiply" opacity="0.33">
<path d="M92.7113 53.9367C95.1016 56.6082 97.97 57.48 99.5448 57.3112L97.9137 56.5801C96.5452 55.9244 95.3936 54.8899 94.5954 53.5992L94.5392 53.4868C94.3705 53.6836 92.6551 53.8523 92.7113 53.9367Z" fill="#6B78B7"/>
</g>
<g style="mix-blend-mode:multiply" opacity="0.44">
<path d="M93.1057 51.1807C92.6152 50.6384 91.9469 50.2893 91.2216 50.1965C91.7278 50.2809 92.0933 51.3776 91.3341 51.5463C90.5748 51.715 89.7874 52.165 90.0405 52.0525C90.9404 51.6869 91.8684 51.6307 91.4184 51.7994C90.9685 51.9681 90.6873 52.3056 90.8279 52.2775C91.6715 52.1087 92.2902 52.2775 92.1496 52.4181C92.2621 52.5934 92.3842 52.7623 92.5152 52.9243C92.5433 52.9243 92.937 52.3618 93.3869 51.7432L93.1057 51.1807Z" fill="#6B78B7"/>
</g>
<g style="mix-blend-mode:multiply">
<path d="M94.5684 61.8668C94.1184 62.1199 96.4525 64.4258 96.3963 66.4506C96.5369 64.6789 96.5369 62.9916 96.7618 61.8105C96.6212 61.7824 95.0183 61.6418 94.5684 61.8668Z" fill="#6B78B7"/>
</g>
<path d="M92.1484 52.418C92.1484 52.418 92.8514 52.3336 93.1045 51.8556L96.9571 53.7678C95.6917 53.6272 94.9324 54.6958 94.6512 55.0052C94.37 55.3145 91.6422 53.4585 92.1484 52.418Z" fill="#FFB98B"/>
<path d="M93.8088 52.1932C93.8088 52.1932 93.2745 52.7556 93.162 52.6993C93.0495 52.6431 92.8808 52.2494 92.8527 52.1369C92.8246 52.0244 93.3308 51.687 93.2464 50.5621C93.162 49.4373 93.0777 48.0312 93.162 47.8062C93.2464 47.5813 97.5208 47.8625 97.7739 48.0031C98.027 48.1437 97.6052 49.6904 97.6333 49.8872C97.6614 50.0841 95.4961 52.6993 95.4961 52.6993L93.8088 52.1932Z" fill="#070540"/>
<path d="M94.0614 51.1808C93.5552 51.2089 93.6396 51.7432 93.7239 52.0244C93.8083 52.3057 94.2582 52.8118 94.4832 52.5588C94.5533 52.8656 94.6473 53.1665 94.7644 53.4586C94.9331 53.8242 96.7048 54.6116 97.1828 54.3585C97.6609 54.1054 97.5203 52.1369 97.5765 51.7151C97.6387 51.4552 97.7234 51.2011 97.8296 50.9558C97.7767 50.5583 97.7016 50.1639 97.6047 49.7747C97.5765 49.5498 97.0704 49.9997 96.4236 49.7747C95.7768 49.5498 94.7644 48.9874 94.8207 49.0998C94.8769 49.2123 95.7487 49.5779 95.8049 49.7466C95.8611 49.9154 95.5237 50.7027 95.5237 50.8152C95.5237 50.9277 95.1581 50.9558 95.1019 51.0683C95.0456 51.1808 95.0175 51.9682 95.0175 52.0807C95.0175 52.1932 94.7082 52.1088 94.6801 52.0244C94.6519 51.9401 94.5957 51.1527 94.0614 51.1808Z" fill="#FFD2B3"/>
<path d="M42.4033 42.8287C42.4033 42.8287 42.9095 44.1785 47.9432 45.6408C52.9769 47.1031 53.6799 44.0379 53.6799 44.0379L53.5112 40.6352C53.5112 40.6352 43.8937 39.3135 43.8375 39.2291C43.7813 39.1448 42.5439 41.057 42.4033 42.8287Z" fill="#ACB3D8"/>
<path d="M42.4596 57.0582C42.4596 57.0582 42.0097 60.9671 42.1503 61.9794C42.2909 62.9918 47.8308 68.0536 48.7025 68.4754C48.7025 68.4754 50.6991 66.5913 50.5866 66.3382C50.4742 66.0851 46.6778 62.2606 46.3122 61.7263C45.9466 61.192 46.4809 57.93 46.4809 57.93L42.4596 57.0582Z" fill="#450603"/>
<path d="M50.5303 66.085C51.0646 66.8443 53.1174 70.3313 54.2985 71.4843C54.2985 71.4843 53.961 73.1153 53.2299 73.5652C53.0612 73.6777 52.33 73.1434 52.1894 73.1715C51.7079 72.3406 51.1724 71.5421 50.5865 70.7812C49.9196 69.9449 49.206 69.1469 48.4493 68.3909C48.1118 68.0816 50.3053 65.7756 50.5303 66.085Z" fill="#E6E8F4"/>
<path d="M56.547 72.2435C56.6313 72.356 54.8597 76.293 53.9317 77.4741C53.538 77.9803 52.5256 78.8802 52.4694 78.7958C52.2928 78.4883 52.2052 78.1378 52.2163 77.7834C52.2726 77.4179 52.61 75.1682 52.5256 74.6338C52.4413 74.0995 51.907 73.1434 51.457 72.8341C51.6159 72.8157 51.7763 72.8157 51.9351 72.8341C52.2444 72.8341 52.9193 73.3965 52.9475 73.284C52.9756 73.1715 52.4413 72.4123 52.4132 72.0467C52.385 71.6811 53.6224 70.7812 53.4255 70.4438C53.2287 70.1063 53.7911 70.5 54.4098 71.0906C55.0284 71.6811 56.1252 71.5686 56.547 72.2435Z" fill="#6B78B7"/>
<path d="M53.9328 77.4741C54.8327 76.3492 56.4637 72.7497 56.5481 72.2717C56.6709 72.3563 56.7682 72.473 56.8293 72.6091C56.9137 72.7497 55.142 76.6586 54.214 77.8678C53.8203 78.3458 52.808 79.2738 52.7517 79.1895C52.6835 79.054 52.627 78.9129 52.583 78.7677C53.0812 78.3898 53.5341 77.9558 53.9328 77.4741Z" fill="#070540"/>
<g style="mix-blend-mode:multiply" opacity="0.4">
<path d="M51.9351 72.8341C52.2444 72.8341 52.9193 73.3966 52.9475 73.2841C52.9756 73.1716 52.4413 72.4123 52.4132 72.0467C52.385 71.6812 52.6944 71.5406 52.9756 71.2312C53.2006 72.9748 54.7753 74.7464 55.6752 75.3088C55.2718 76.2071 54.782 77.0642 54.2129 77.8679C53.8192 78.3459 52.8069 79.2739 52.7506 79.1896C52.6824 79.0541 52.6259 78.9129 52.5819 78.7677H52.4694C52.2928 78.4603 52.2052 78.1098 52.2163 77.7554C52.2726 77.3898 52.61 75.1401 52.5256 74.6058C52.4413 74.0715 51.907 73.1154 51.457 72.806C51.6169 72.797 51.7774 72.8064 51.9351 72.8341Z" fill="#6B78B7"/>
</g>
<path d="M49.968 60.9388C50.0242 61.0231 49.8555 61.923 50.0242 62.5136C50.193 63.1041 52.049 68.7565 52.1896 71.3437L49.3212 71.9623C49.3212 71.9623 45.7498 63.9478 45.5811 62.9635C45.4644 61.9272 45.4081 60.8849 45.4123 59.8421L49.968 60.9388Z" fill="#691813"/>
<path d="M45.5246 62.4573C45.4121 61.3887 45.4121 59.8421 45.4121 59.8421L49.9678 60.9388C50.024 61.0231 49.8834 61.7543 49.9678 62.3448C48.5898 61.8668 46.8182 61.8387 45.5246 62.4573Z" fill="#450603"/>
<path d="M52.4424 71.1187C52.4986 72.2716 52.7799 77.0804 53.286 79.0489C53.286 79.0489 52.2174 80.2581 51.1769 80.3706C50.7832 80.3987 50.2489 79.5269 49.9959 79.4707C50.02 78.2871 49.9636 77.1033 49.8271 75.9274C49.6623 74.6202 49.4181 73.3242 49.096 72.0467C48.9554 71.4843 52.4143 70.6687 52.4424 71.1187Z" fill="white"/>
<path d="M54.6637 81.158C54.6637 81.3549 53.5951 82.1704 52.6109 83.1265C51.6266 84.0826 50.9236 85.1231 49.1801 85.7699C48.477 86.0511 46.6773 85.6855 46.7054 85.5731C46.7205 85.1235 46.8565 84.6864 47.0991 84.3076C47.3803 83.9701 49.1801 81.8329 49.4332 81.2143C49.6863 80.5956 49.4894 79.2739 49.2082 78.6833C49.2082 78.6833 49.9675 78.599 50.2768 78.824C50.5861 79.0489 51.0642 79.9488 51.1486 79.8644C51.2329 79.7801 51.2048 78.6271 51.4017 78.2053C51.5985 77.7835 53.0608 77.8678 52.9764 77.4179C52.8921 76.9679 53.3983 77.671 53.6514 78.6833C53.792 79.1333 54.6356 80.1738 54.6637 81.158Z" fill="#6B78B7"/>
<path d="M49.1802 85.77C50.9237 85.1232 51.9361 83.7733 52.611 83.1266C53.2859 82.4798 54.467 81.5236 54.6357 81.2424C54.6963 81.4619 54.7154 81.6908 54.6919 81.9173C54.6919 82.1142 53.4546 83.0141 52.4985 83.9702C51.5424 84.9263 50.8112 85.9668 49.0677 86.6417C48.3365 86.8948 46.6211 86.5573 46.6211 86.4167C46.6199 86.1334 46.6481 85.8506 46.7055 85.5731C46.6774 85.6856 48.4771 86.0512 49.1802 85.77Z" fill="#070540"/>
<path d="M53.6805 44.0379C53.6805 44.0379 53.568 45.3877 53.6805 45.8095C53.793 46.2313 45.919 46.9344 45.4691 43.4192C45.4128 43.0536 45.3285 40.7758 45.216 40.7196C45.1035 40.6633 53.3712 42.2663 53.6805 44.0379Z" fill="#691813"/>
<path d="M45.4405 42.9693C45.3842 42.1819 45.2999 40.7758 45.2155 40.7196C45.1311 40.6633 53.3707 42.2663 53.68 44.0379C53.6778 44.1509 53.6684 44.2636 53.6519 44.3753C51.3178 42.7443 45.4405 42.9693 45.4405 42.9693Z" fill="#450603"/>
<path d="M45.4395 42.9975C45.4395 44.6286 43.2461 50.1403 41.5869 57.5081C41.8681 58.5486 44.4834 58.6048 44.4834 58.6048C44.4834 58.6048 44.3709 59.6735 44.3428 60.2078C44.8771 61.5013 49.6015 61.895 50.3045 61.2764C50.6138 60.1515 51.57 55.849 51.8793 54.696C52.1886 53.543 53.7634 51.5464 54.129 49.6623C54.4946 47.7782 54.129 45.5003 53.6228 45.0785C53.4822 46.119 45.5801 45.191 45.4395 42.9975Z" fill="#6B78B7"/>
<g style="mix-blend-mode:multiply" opacity="0.3">
<path d="M45.0186 45.1066C45.232 44.4202 45.3734 43.7133 45.4404 42.9975C45.581 45.191 53.4831 46.119 53.6237 45.0785C54.1017 45.4722 54.4111 47.4969 54.1861 49.2967C53.23 47.75 48.7024 45.3597 45.0186 45.1066Z" fill="#6B78B7"/>
</g>
<g style="mix-blend-mode:multiply" opacity="0.3">
<path d="M41.8965 57.958C43.2744 58.4361 45.5804 51.3495 45.3554 52.5587C44.9898 54.471 44.4836 58.6048 44.4836 58.6048C44.4836 58.6048 42.6558 58.5767 41.8965 57.958Z" fill="#6B78B7"/>
</g>
<path d="M54.0449 9.78632C52.8638 9.70196 54.298 6.15868 54.3823 5.45565C54.4667 4.75262 53.5668 5.34316 53.0606 5.68062C52.5544 6.01807 52.5263 7.03044 52.5263 7.03044L52.1045 10.1238C52.1045 10.1238 53.9324 10.0957 54.0449 9.78632Z" fill="#450603"/>
<g style="mix-blend-mode:multiply" opacity="0.5">
<path d="M54.0439 9.78621C52.8628 9.70185 54.297 6.15857 54.3813 5.45554C54.4657 4.75251 53.5658 5.34306 53.0596 5.68051C52.5535 6.01797 52.5253 7.03033 52.5253 7.03033L52.1035 10.1237C52.1035 10.1237 53.9314 10.0955 54.0439 9.78621Z" fill="#450603"/>
</g>
<path d="M58.1008 9.75998C60.2858 8.90809 61.3664 6.44623 60.5146 4.26125C59.6627 2.07627 57.2008 0.995588 55.0158 1.84748C52.8308 2.69936 51.7502 5.16123 52.602 7.34621C53.4539 9.53118 55.9158 10.6119 58.1008 9.75998Z" fill="#F07D18"/>
<path d="M54.5226 3.51512C54.7163 3.21886 54.9427 2.9453 55.1975 2.6996L54.2695 2.19342L54.6632 1.96845C54.9423 2.13162 55.2338 2.27266 55.5349 2.39027C55.7653 2.18977 56.0205 2.01966 56.2942 1.88409C56.5487 1.74001 56.8237 1.63569 57.1097 1.57475H57.166C57.4751 1.6065 57.7781 1.68225 58.0658 1.79972C57.5121 1.81925 56.9715 1.97371 56.4911 2.24967C56.3037 2.33595 56.1248 2.43951 55.9567 2.559C56.5356 2.75168 57.1277 2.90205 57.7284 3.00894C58.7126 3.17767 59.6125 3.34639 60.3999 3.96506C60.5271 4.23399 60.6215 4.51723 60.6811 4.8087C59.8656 3.79633 58.8532 3.62761 57.6721 3.40264C56.9682 3.26734 56.2732 3.08891 55.5912 2.86833C55.3302 3.09766 55.103 3.36275 54.9163 3.65573C57.1014 4.36581 59.0093 5.74261 60.3718 7.59271C60.3176 7.72935 60.2517 7.86107 60.1749 7.9864C58.8221 6.09604 56.9009 4.68714 54.6913 3.96506C54.366 4.5319 54.111 5.13628 53.932 5.76482C54.5788 6.07416 55.085 6.63658 55.5912 7.25525C56.0974 7.87392 56.9972 8.94253 58.3189 9.61744L57.8409 9.81429C56.8545 9.20791 55.9873 8.42644 55.2818 7.50834C54.8773 6.97813 54.3936 6.51337 53.8476 6.1304C53.6534 6.97942 53.5497 7.84666 53.5383 8.71756C53.4014 8.58044 53.2789 8.42967 53.1727 8.26762C53.185 7.49875 53.2888 6.73407 53.4821 5.98979C53.1092 5.87409 52.7148 5.84524 52.3291 5.90543V5.51173C52.7432 5.46445 53.1625 5.49304 53.5664 5.5961C53.7485 4.99093 53.9935 4.40656 54.2976 3.85258C53.8487 3.719 53.3867 3.63414 52.9196 3.59948L53.1727 3.23391C53.6293 3.29266 54.0806 3.38668 54.5226 3.51512Z" fill="#070540"/>
<path d="M51.4569 22.6095L50.5289 20.866C50.3039 20.3879 53.3129 11.7828 53.566 11.4172C54.1566 10.5173 55.7595 10.3486 55.8157 9.89867C55.8719 9.44873 55.647 9.56122 55.3658 9.5331C55.0846 9.50497 54.3534 9.64558 54.0441 9.70183C53.7347 9.75807 52.9755 9.87055 52.7505 9.6737C52.5255 9.47685 52.4693 8.01455 52.4974 7.64897C52.5255 7.2834 52.5818 6.66472 52.413 6.55224C52.2443 6.43975 51.9912 6.66473 51.8506 7.48024C51.71 8.29576 51.7662 10.7704 51.5975 11.2204C51.4288 11.6703 49.3197 15.6917 48.8979 16.5072C48.3316 17.7059 47.834 18.9358 47.4074 20.1911C47.295 20.6129 49.5165 25.0279 49.7978 25.5341C50.079 26.0403 51.6819 23.1157 51.4569 22.6095Z" fill="#450603"/>
<g style="mix-blend-mode:multiply" opacity="0.3">
<path d="M50.9782 21.7095L51.4563 22.6094C51.6812 23.1156 50.0783 26.0683 49.7971 25.534C49.5159 24.9997 49.2066 24.4091 48.7285 23.3968C49.6266 23.0651 50.4084 22.4788 50.9782 21.7095Z" fill="#450603"/>
</g>
<path d="M54.3827 25.7591C54.2702 25.7309 52.0767 23.5375 51.4018 22.3283C51.4018 22.3283 49.9114 23.3406 49.4896 24.8873C49.0678 26.434 53.4266 28.8243 54.4389 28.9649C55.4513 29.1055 55.7606 26.3215 54.3827 25.7591Z" fill="#FFB718"/>
<path d="M58.9375 26.9122C58.9375 26.9122 59.275 26.3216 60.4561 25.8154C61.6372 25.3092 62.0309 24.8031 61.7778 23.5095C61.5247 22.2159 60.1468 21.4004 59.5843 21.2879C59.0219 21.1754 58.6563 21.7378 58.6563 21.7378C58.6563 21.7378 57.2221 26.0123 58.9375 26.9122Z" fill="#330300"/>
<path d="M55.2822 24.2686C55.1978 24.606 55.929 25.2247 55.9571 25.3372C55.8556 25.7402 55.724 26.135 55.5634 26.5183L58.5161 28.065C58.6319 27.672 58.7728 27.2869 58.9379 26.912C58.8706 26.6037 58.8992 26.2823 59.0199 25.9907C59.1405 25.6992 59.3474 25.4515 59.6128 25.281C60.119 24.9154 59.5847 24.7748 59.5847 24.7748C59.5847 24.7748 55.7883 23.5374 55.2822 24.2686Z" fill="#450603"/>
<path d="M58.4599 25.0279C58.6849 25.2529 59.4442 25.6466 59.8098 25.0842C60.1753 24.5218 59.641 24.2687 58.938 24.4093C58.8255 24.4093 59.6129 23.5656 59.641 23.4813C59.6691 23.3969 59.6129 23.0876 59.7254 22.9751C59.8379 22.8626 60.2035 22.6376 60.1472 22.4127C60.0552 22.2062 59.9107 22.0275 59.7282 21.8943C59.5456 21.7611 59.3314 21.678 59.1067 21.6534C58.4076 21.7616 57.7432 22.0312 57.1664 22.4408C56.8851 22.6376 55.451 23.9593 55.2822 24.2687C55.6478 23.9593 56.4633 24.8592 57.3632 25.1967C57.545 25.2657 57.7416 25.2865 57.9338 25.2569C58.126 25.2274 58.3073 25.1485 58.4599 25.0279Z" fill="#691813"/>
<path d="M59.5567 29.6116C59.5567 29.6116 59.2192 31.2426 56.8008 35.967C55.226 38.9759 53.7356 41.8724 53.6793 44.0378C53.7637 43.616 42.7683 40.5789 42.4027 42.8286C42.4027 42.8286 42.009 40.4101 43.8087 37.7667C45.6085 35.1233 50.6422 27.7556 52.8357 26.8276C55.0291 25.8996 59.5567 29.6116 59.5567 29.6116Z" fill="#E6E8F4"/>
<path d="M57.1942 31.6364C52.8072 31.1021 49.742 33.8861 46.958 33.2955C49.039 30.4272 51.4855 27.3901 52.8354 26.8276C54.1852 26.2652 57.7566 28.2337 59.022 29.1898C58.9658 29.1898 58.094 31.7489 57.1942 31.6364Z" fill="#ACB3D8"/>
<path d="M51.1189 29.8368C51.1189 29.8368 50.5565 29.8368 50.4721 27.6715C50.3877 25.5062 54.1841 28.6276 54.1841 28.6276C54.1841 28.6276 52.3562 30.2868 51.1189 29.8368Z" fill="#FFB718"/>
<path d="M51.739 25.1966C51.739 25.1966 50.333 24.8591 49.883 24.4654C49.4331 24.0717 46.5928 17.8851 46.4241 17.4351C46.2554 16.9852 46.9584 16.3946 47.1553 16.0291C47.3521 15.6635 48.1395 15.1573 48.3645 14.9604C48.5894 14.7636 48.1676 14.5105 47.9145 14.5667C47.6614 14.623 46.8459 15.1292 46.621 15.1292C46.396 15.1292 46.3116 14.1449 46.2835 13.7794C46.2554 13.4138 46.4804 11.2484 46.4804 11.0235C46.4804 10.7985 46.0867 10.6579 46.0023 10.9391C45.9179 11.2203 45.5805 13.2169 45.5242 13.3294C45.468 13.4419 45.2993 13.4138 45.2993 13.3294C45.2993 13.245 45.3836 10.7985 45.3836 10.6017C45.3836 10.4048 45.018 10.2361 44.9337 10.5454C44.8493 10.8547 44.5962 13.1326 44.54 13.2169C44.4837 13.3013 43.8088 10.9953 43.7245 10.8266C43.6401 10.6579 43.2745 10.686 43.3026 10.9953C43.3308 11.3047 43.9494 13.4419 43.8932 13.5825C43.837 13.7231 42.7965 12.4577 42.684 12.3452C42.5715 12.2327 42.1497 12.317 42.3465 12.6545C42.5434 12.992 43.2745 13.9762 43.387 14.2293C43.4995 14.4824 43.6401 15.9728 43.7807 16.4509C43.9641 16.8125 44.2011 17.1444 44.4837 17.4351C44.5962 17.5757 46.4804 25.1966 46.8459 25.984C47.2115 26.7714 52.4421 29.3585 52.8639 29.696C53.2857 30.0334 53.8762 25.8996 51.739 25.1966Z" fill="#691813"/>
<path opacity="0.5" d="M51.429 25.1123L51.7384 25.1967C53.8756 25.8997 53.285 30.0054 52.8632 29.6961C52.2366 29.2959 51.5889 28.9298 50.9229 28.5993C51.879 28.0932 51.429 25.1685 51.429 25.1123Z" fill="#450603"/>
<path d="M59.5846 28.5712C59.3315 27.4464 58.291 26.434 56.1257 26.0966C53.9604 25.7591 51.7388 25.1967 51.7388 25.1967C52.8355 26.0966 52.6668 30.3991 51.1201 29.8367C51.1201 29.8367 55.3946 31.524 57.1943 31.6365C58.9941 31.7489 59.8096 29.5274 59.5846 28.5712Z" fill="#FEDA00"/>
<path d="M59.6412 76.6586L59.1069 76.771C58.9944 76.7992 58.9944 77.1929 59.0506 77.2772C59.1069 77.3616 59.6693 77.4459 59.6693 77.4459C59.6693 77.4459 59.7255 76.6867 59.6412 76.6586Z" fill="#070540"/>
<path d="M59.6405 77.6709L59.1343 77.8397C59.0499 77.8678 59.0781 78.2615 59.1343 78.3458C59.1905 78.4302 59.753 78.4583 59.753 78.4583C59.753 78.4583 59.753 77.7272 59.6405 77.6709Z" fill="#070540"/>
<path d="M60.0341 81.2424H59.528C59.4436 81.2424 59.3592 81.608 59.3874 81.6924C59.4155 81.7767 59.9217 81.9736 59.9217 81.9736C59.9217 81.9736 60.1185 81.2987 60.0341 81.2424Z" fill="#070540"/>
<path d="M59.7831 83.0422L59.3894 83.239C59.305 83.2671 59.3613 83.5765 59.4456 83.6327C59.53 83.689 59.9518 83.689 59.9518 83.689C59.9518 83.689 59.8674 83.0703 59.7831 83.0422Z" fill="#070540"/>
<path d="M60.0631 84.0825L59.81 84.4762C59.7819 84.5324 60.0069 84.7574 60.1194 84.7574C60.2688 84.7004 60.4105 84.6248 60.5412 84.5324C60.5412 84.5324 60.1475 84.0544 60.0631 84.0825Z" fill="#070540"/>
<path d="M69.5961 72.2999C69.7929 73.5091 64.3093 76.4899 62.8188 79.527C62.7063 79.7801 61.9189 81.2424 61.6659 81.3549C60.9628 81.6361 60.5972 80.5675 60.541 80.1738C60.3723 79.0771 60.5129 76.6868 61.6096 75.8713C62.7063 75.0558 64.1124 72.9186 64.7873 71.5969C65.4622 70.2752 66.812 68.4191 67.9088 68.391C69.0055 68.3629 69.5961 72.2999 69.5961 72.2999Z" fill="#E6E8F4"/>
<path d="M65.8546 69.9375L66.1358 69.6001C66.1077 69.6282 66.1077 69.6563 66.1077 69.7126C65.714 71.7373 66.8388 73.7339 67.7668 74.2401L67.9355 74.2963L67.7668 74.465L67.6824 74.4088C66.7263 73.9026 65.5733 71.9622 65.8546 69.9375Z" fill="#6B78B7"/>
<path d="M62.678 79.6675C63.0154 78.9926 62.1718 78.4021 61.525 79.1613L61.4688 80.7361L62.3124 80.9049C62.2843 80.8767 62.678 79.6675 62.678 79.6675Z" fill="#6B78B7"/>
<path d="M61.6091 75.8711C61.2998 76.068 60.2593 75.7586 59.6125 76.3773C58.9657 76.996 59.95 79.7237 59.8375 80.3705C59.725 81.0173 59.2751 81.8891 59.4438 83.2108C59.6125 84.5325 60.653 85.1511 61.4967 84.9824C62.3403 84.8137 62.1153 82.7608 62.3403 81.4673C62.5653 80.1737 63.1558 79.33 63.1558 79.33C63.1558 79.33 62.4528 79.3019 62.0028 80.4549C62.0964 80.2163 62.1169 79.9552 62.0618 79.7049C62.0068 79.4545 61.8786 79.2262 61.6935 79.0488C61.3033 78.616 61.0804 78.0581 61.0649 77.4755C61.0494 76.893 61.2424 76.324 61.6091 75.8711Z" fill="#ACB3D8"/>
<path d="M67.1496 62.6823C67.1496 62.6823 67.8526 63.1042 71.1991 62.9073C74.5455 62.7105 73.2519 61.1076 71.8458 60.9669C70.4398 60.8263 67.1215 61.7825 67.1496 62.6823Z" fill="#070540"/>
<path d="M75.2201 62.7104C75.2201 62.7104 74.292 66.0287 73.3922 67.5754C72.4923 69.1221 72.3517 70.1063 71.8174 70.6125C71.2831 71.1187 70.7488 71.428 69.4833 72.6935C68.8084 73.3965 67.093 71.0905 67.4867 69.0377C67.6554 68.2503 68.5272 68.3347 68.6397 67.5754C68.7522 66.8161 68.471 62.6823 68.4147 61.8668C68.3585 61.0513 74.8264 60.0389 75.2201 62.7104Z" fill="#FFD2B3"/>
<path d="M68.5567 63.9196C68.5005 62.9916 68.4442 62.1761 68.4161 61.8668C68.388 61.0513 74.8278 60.0389 75.2214 62.7104C75.2214 62.7104 75.1371 62.9916 75.0246 63.4416C73.1686 62.4573 69.3441 63.3853 68.5567 63.9196Z" fill="#FFB98B"/>
<path d="M74.517 49.6623C74.517 49.6623 76.0918 54.8366 75.9793 57.4518C75.8668 60.0671 75.2763 62.7949 75.1919 62.7949C75.1076 62.7949 75.445 61.895 72.8579 61.7825C70.2707 61.67 67.2617 62.1762 67.1492 62.6824C66.5025 62.6262 68.1054 60.2077 67.7398 56.1583C67.3742 52.1088 64.3652 50.6746 64.3652 50.6746C64.3652 50.6746 65.1526 49.9435 64.8995 49.1842C64.8995 49.1842 72.6048 50.5903 74.517 49.6623Z" fill="#6B78B7"/>
<g style="mix-blend-mode:multiply" opacity="0.3">
<path d="M74.517 49.6623C74.517 49.6623 76.0918 54.8366 75.9793 57.4518C75.8668 60.0671 75.2763 62.7949 75.1919 62.7949C75.1076 62.7949 75.445 61.895 72.8579 61.7825C70.2707 61.67 67.2617 62.1762 67.1492 62.6824C66.5025 62.6262 68.1054 60.2077 67.7398 56.1583C67.3742 52.1088 64.3652 50.6746 64.3652 50.6746C64.3652 50.6746 65.1526 49.9435 64.8995 49.1842C64.8995 49.1842 72.6048 50.5903 74.517 49.6623Z" fill="#6B78B7"/>
</g>
<path d="M68.3867 61.0514C68.3867 61.0514 69.5115 61.895 72.0987 59.111C74.6858 56.327 69.4272 56.0739 69.3147 56.102C69.2022 56.1302 67.1775 59.561 68.3867 61.0514Z" fill="#070540"/>
<path d="M75.2199 53.9084C75.2199 53.9084 79.4943 57.4236 80.5067 58.8577C80.8441 59.3358 80.3098 61.5574 80.2536 64.0039C79.5224 63.7509 76.654 63.9196 75.7823 64.2008C75.9791 63.1041 76.401 62.2042 76.3728 61.9511C76.3447 61.698 71.0298 59.3358 69.5956 58.3234C68.1614 57.3111 70.8329 52.2492 75.2199 53.9084Z" fill="#FFD2B3"/>
<path d="M75.2215 53.9085L75.6714 54.2741H75.6151C73.253 55.0615 72.2687 57.3393 72.0156 59.6172C71.1837 59.2256 70.3761 58.7842 69.5972 58.2955C68.1349 57.3393 70.8345 52.2494 75.2215 53.9085Z" fill="#FFB98B"/>
<path d="M75.2205 53.9085C75.7267 53.4867 66.3623 48.1155 64.5625 49.0717C62.7628 50.0278 63.7751 53.4867 64.3094 55.2021C65.2093 58.1548 67.0372 59.111 68.387 61.0513C68.0496 60.6295 68.1058 59.6453 69.8212 58.183C71.5366 56.7206 71.9865 53.9085 75.2205 53.9085Z" fill="#6B78B7"/>
<path d="M76.6549 72.8623C76.4861 71.1188 75.6425 67.0975 75.6706 64.1447C75.6987 64.0322 77.8078 62.9917 80.3106 63.9197C80.17 67.2943 79.7201 71.2313 79.6076 73.9309C79.5513 75.1401 80.1419 76.6024 80.1138 76.9118C80.0856 77.2211 78.2015 78.2897 76.2049 74.887C76.3736 74.7464 76.7955 74.3809 76.6549 72.8623Z" fill="#E6E8F4"/>
<path d="M80.2531 65.1571V65.3539C78.7726 64.865 77.1656 64.9249 75.7256 65.5226C75.7002 65.4505 75.6906 65.3738 75.6974 65.2977C77.1556 64.7331 78.7629 64.6835 80.2531 65.1571Z" fill="#6B78B7"/>
<path d="M80.6753 78.2896C80.4587 77.5102 80.3359 76.7078 80.3098 75.8993C80.3098 75.618 79.6348 75.8711 79.663 76.4898C79.6911 77.1085 80.8441 78.9926 80.6753 78.2896Z" fill="#6B78B7"/>
<path d="M76.7386 77.8397C76.5537 77.972 76.3558 78.0851 76.148 78.1772C76.0355 78.2616 75.6981 77.9241 75.7543 77.8116C75.8106 77.6991 76.0355 77.1367 76.1199 77.1367C76.3609 77.338 76.5696 77.5751 76.7386 77.8397Z" fill="#070540"/>
<path d="M78.8195 79.9488C78.8195 79.9769 78.3696 80.1176 78.2571 80.1738C78.1446 80.23 77.8915 79.8645 77.9759 79.7801C78.0603 79.6957 78.3133 79.2177 78.3977 79.2458C78.589 79.4458 78.7331 79.686 78.8195 79.9488Z" fill="#070540"/>
<path d="M79.6356 80.7081L79.1856 81.0174C79.0731 81.0737 78.7919 80.8487 78.8482 80.7362C78.9044 80.6237 79.045 80.1738 79.1013 80.1738C79.3131 80.3146 79.4948 80.4962 79.6356 80.7081Z" fill="#070540"/>
<path d="M80.6191 81.6079C80.6472 81.636 80.3378 81.8329 80.2535 81.9173C80.1691 82.0016 79.8879 81.7766 79.916 81.6923C79.9442 81.6079 80.0566 81.1861 80.1129 81.1861C80.1691 81.1861 80.5909 81.4954 80.6191 81.6079Z" fill="#070540"/>
<path d="M81.7163 81.9174L81.4632 82.283C81.407 82.3673 81.0977 82.2548 81.0977 82.1705C81.0977 82.0861 81.0977 81.6924 81.1258 81.6643C81.3401 81.6999 81.5427 81.7867 81.7163 81.9174Z" fill="#070540"/>
<path d="M76.0351 77.0524C75.8584 77.1819 75.6701 77.2948 75.4727 77.3898C75.3321 77.4461 75.0228 77.1367 75.079 77.0242C75.1685 76.7885 75.2815 76.5624 75.4165 76.3493C75.6778 76.5288 75.8904 76.7704 76.0351 77.0524Z" fill="#070540"/>
<path d="M81.0125 79.1896C80.5626 77.9804 80.1126 77.0242 79.972 76.4899C79.8314 75.9556 78.3972 76.6587 77.6942 76.3493C76.3163 75.7588 76.4288 74.662 76.4288 74.662C76.4288 74.662 75.1914 75.1401 75.1914 76.3212C75.1912 76.3689 75.2011 76.4162 75.2205 76.4598C75.2399 76.5034 75.2683 76.5425 75.3039 76.5743C75.8048 77.1853 76.3499 77.7587 76.9349 78.2897C78.1441 79.4145 78.9597 80.8206 80.2251 81.6642C81.4906 82.5079 82.1936 82.1985 82.3342 81.9455C82.4748 81.6924 81.2937 79.9207 81.0125 79.1896Z" fill="#ACB3D8"/>
<path d="M59.8937 38.4981L58.0377 39.2011C57.6722 39.3698 56.941 40.6072 55.9849 41.5352C55.0288 42.4632 53.9039 43.7005 53.7352 44.1786C53.5664 44.6566 53.9601 45.6409 53.8477 46.0908C53.6825 46.6766 53.4757 47.2499 53.229 47.8062C53.1446 47.9749 52.7791 47.9468 52.6384 47.6375C52.4978 47.3282 51.7104 47.8062 51.373 47.4125C51.1728 46.9678 51.0492 46.4924 51.0074 46.0065C50.9793 45.7252 51.9917 43.9536 52.2447 43.5318C52.4978 43.11 55.1975 38.1325 55.9568 37.5982C56.716 37.0639 57.5315 36.9233 58.3752 36.5296C58.3752 36.5296 59.8656 37.9919 59.8937 38.4981Z" fill="#FFD2B3"/>
<path d="M51.3726 47.4125C51.2806 47.2553 51.2141 47.0844 51.1758 46.9063C51.4194 46.9379 51.6665 46.9284 51.9069 46.8782C52.4975 46.7376 53.0599 45.5003 52.7787 46.2877C52.6098 46.7164 52.5612 47.1831 52.6381 47.6375C52.6381 47.6375 51.7101 47.8062 51.3726 47.4125Z" fill="#FFB98B"/>
<path d="M58.3771 36.5296C58.3771 36.5296 59.8676 37.9919 59.8957 38.4981L58.0397 39.2011C57.8936 39.3059 57.7613 39.4287 57.646 39.5667C58.0397 39.0605 57.4491 37.092 56.7461 37.1483C57.2804 36.9233 57.8147 36.7827 58.3771 36.5296Z" fill="#FFB98B"/>
<path d="M77.0484 39.4259C77.0484 39.4259 77.7795 39.4821 78.0326 38.1604C78.2857 36.8387 74.9111 35.8826 74.9111 35.8826C74.9111 35.8826 75.9516 38.9197 77.0484 39.4259Z" fill="#00B09D"/>
<path d="M77.8918 35.0109C77.8918 35.0109 81.5475 36.7826 82.1099 36.9232C82.6724 37.0638 83.3473 40.129 83.038 40.1009C81.9131 40.0446 76.0639 38.1324 75.8951 37.9918C75.7264 37.8512 76.2045 34.7297 77.8918 35.0109Z" fill="#FFD2B3"/>
<path opacity="0.4" d="M80.5068 36.2485C81.0277 36.5041 81.5629 36.7294 82.1097 36.9234C82.644 37.0921 83.3471 40.1292 83.0378 40.1011C82.2278 39.9748 81.4287 39.7868 80.6474 39.5387C81.4911 39.5949 80.788 36.9515 80.5068 36.2485Z" fill="#FFB98B"/>
<path d="M77.8922 35.0109L78.3421 35.2359C77.8641 35.2921 77.386 38.1886 77.4704 38.5542C76.9338 38.4012 76.4077 38.2133 75.8956 37.9918C75.6987 37.8512 76.2049 34.7297 77.8922 35.0109Z" fill="#FFB98B"/>
<path d="M83.263 37.092C83.3832 37.4543 83.5744 37.7889 83.8255 38.0763C84.3598 38.7512 84.0786 39.7917 83.4318 40.0448C82.785 40.2979 81.9132 39.7354 81.6601 38.9199C81.4859 38.4029 81.3911 37.8624 81.3789 37.317L83.263 37.092Z" fill="#FFE5CF"/>
<path d="M83.5994 35.6859C83.5994 35.6859 83.5432 36.9794 83.2901 37.4575C83.037 37.9356 81.8559 38.1043 81.3216 37.7668C80.7873 37.4294 80.5342 36.3889 80.5342 36.1358C80.5342 35.8827 80.6185 35.7421 81.0122 35.6859C81.4059 35.6296 83.5994 35.6859 83.5994 35.6859Z" fill="#FFB98B"/>
<path d="M82.8972 36.0796C82.8972 36.0796 82.8128 36.5576 82.9534 36.7263C83.094 36.8951 83.3471 36.7826 83.4596 36.5295C83.5736 36.1906 83.6583 35.8424 83.7127 35.489C83.7408 35.1797 83.2627 34.9266 83.1221 35.1516C82.9815 35.3765 82.9534 35.9108 82.8972 36.0796Z" fill="#FFE5CF"/>
<path d="M82.1953 36.6421C82.1953 36.6421 82.1953 37.0358 82.4765 37.0921C82.7577 37.1483 82.8702 37.0077 82.9264 36.7265C83.0352 36.1984 83.101 35.6623 83.1233 35.1236C83.0981 35.0563 83.0562 34.9966 83.0016 34.9501C82.9469 34.9035 82.8813 34.8717 82.8109 34.8576C82.7405 34.8436 82.6677 34.8477 82.5993 34.8696C82.5309 34.8916 82.4693 34.9306 82.4202 34.983C82.2234 35.3485 82.1671 36.3609 82.1953 36.6421Z" fill="#FFE5CF"/>
<path d="M81.4634 36.5012C81.4634 36.5012 81.4634 36.9793 81.7727 37.0355C82.082 37.0917 82.1664 36.8949 82.1945 36.6137C82.3127 36.0484 82.3879 35.475 82.4195 34.8983C82.3914 34.6171 81.7727 34.5608 81.6602 34.7858C81.5477 35.0108 81.4352 36.1919 81.4634 36.5012Z" fill="#FFE5CF"/>
<path d="M80.8433 36.0797C80.8433 36.0797 80.8995 36.5015 81.0964 36.614C81.2932 36.7264 81.4901 36.5858 81.5182 36.2765C81.5891 35.7925 81.6173 35.3032 81.6026 34.8142C81.5463 34.533 80.9276 34.533 80.8433 34.7861C80.7589 35.0392 80.787 35.7984 80.8433 36.0797Z" fill="#FFE5CF"/>
<path d="M71.6769 27.8681C71.6769 27.8681 71.93 26.1246 69.7084 25.8434C67.4868 25.5622 66.8119 26.9401 66.8119 28.3181C66.8119 29.696 66.5307 29.5835 65.1528 29.3304C63.7748 29.0773 61.9751 29.7804 61.9751 31.4676C61.9469 34.3641 63.2405 35.1515 66.2495 35.714C69.2585 36.2764 71.0582 32.6206 70.6083 30.9896C70.1583 29.3586 70.7208 27.7556 71.6769 27.8681Z" fill="#F07D18"/>
<path d="M74.517 49.6621C74.517 49.6621 76.0918 49.0153 75.7825 47.9186C75.4731 46.8218 73.9827 44.2628 74.3764 41.9006C74.7701 39.5384 75.1076 40.0165 74.6576 38.0199C74.6576 38.0199 76.2043 39.2572 77.0479 39.4259C77.0479 39.4259 76.3449 39.0322 76.5136 37.5137C76.6824 35.9951 77.4416 35.2921 77.8916 35.0109C76.6795 34.5041 75.5048 33.9121 74.3764 33.2393C73.1391 32.4237 71.5643 32.6206 69.6239 32.9018C67.0368 33.2955 64.0559 32.7331 62.4249 33.2674C60.7938 33.8017 59.3034 35.7421 57.5318 36.8669C57.1099 37.12 59.1066 39.8759 60.7657 39.2572C61.359 38.9367 61.9319 38.5799 62.4811 38.1886C62.7061 38.048 63.9434 38.9198 64.4215 41.8725C64.7027 43.5316 64.5621 47.4686 64.3371 48.1435C64.1121 48.8184 64.2809 49.0715 64.8995 49.184C65.5182 49.2965 70.8612 51.1806 74.517 49.6621Z" fill="#5BCFDE"/>
<g opacity="0.5">
<path d="M76.2884 39.1167C75.7174 38.7936 75.1721 38.4269 74.6574 38.02C74.6574 38.02 74.095 36.3327 74.1231 35.714C74.1512 35.0954 75.6416 38.7793 76.2884 39.1167Z" fill="#00B09D"/>
<path d="M69.5954 32.93H69.6236C70.889 32.7613 72.0139 32.6207 72.97 32.7613C72.4919 32.705 71.0859 32.7894 72.1264 33.2675C73.1668 33.7455 73.898 35.2641 72.9981 35.5734C72.0982 35.8828 69.6236 34.6173 69.6236 34.6173C69.469 34.0667 69.4593 33.4855 69.5954 32.93Z" fill="#00B09D"/>
</g>
<path d="M71.6771 32.2834C71.3055 32.418 70.9179 32.5031 70.5241 32.5365C70.5241 32.7052 70.7491 33.8582 70.6366 34.505C70.5241 35.1518 67.4589 33.6613 67.5714 33.0427C67.5714 33.0427 68.3869 31.5522 68.0776 30.4555C68.0776 30.4555 72.0145 32.1428 71.6771 32.2834Z" fill="#FFB98B"/>
<g style="mix-blend-mode:multiply" opacity="0.33">
<path d="M69.0624 30.8773C68.9936 30.8398 68.9132 30.8298 68.8374 30.8492C68.5814 30.8631 68.3402 30.9737 68.1625 31.1585C68.1777 30.921 68.1491 30.6827 68.0781 30.4555L69.0624 30.8773Z" fill="#FFB98B"/>
</g>
<g style="mix-blend-mode:multiply" opacity="0.33">
<path d="M68.8369 31.5238C68.8369 31.5238 71.9302 32.1706 71.6772 32.2831C71.3056 32.4177 70.918 32.5028 70.5242 32.5362C69.8673 32.3895 69.2755 32.0344 68.8369 31.5238Z" fill="#FFB98B"/>
</g>
<path d="M71.5642 27.5587C71.9298 28.2618 71.9017 31.7769 71.8454 32.1144C71.7892 32.4518 71.1987 32.3956 70.7768 32.2831C70.1204 32.1333 69.4868 31.8969 68.8927 31.5801C68.6959 31.4395 68.6396 30.9614 68.6115 30.7083C68.5834 30.4552 68.0491 30.6521 67.9366 30.2303C67.8241 29.8084 68.3865 29.8928 68.6115 29.9491C68.7228 30.0974 68.8172 30.2577 68.8927 30.4271C68.6959 28.9648 69.9332 28.8523 69.7363 27.7275C69.652 27.165 70.8893 27.5025 71.0018 27.4463C71.1143 27.39 71.2268 26.8557 71.5642 27.5587Z" fill="#FFD2B3"/>
<path opacity="0.5" d="M65.1252 40.8322C65.9126 41.9852 68.4435 43.2506 68.5279 43.7006C68.6122 44.1505 64.6753 42.4351 64.5628 43.6725C64.5541 43.0702 64.5072 42.469 64.4222 41.8727C63.9441 38.92 62.7068 38.0482 62.4818 38.1888C62.2568 38.3294 63.916 37.1202 64.3097 37.1483C64.7034 37.1764 64.3378 39.7074 65.1252 40.8322Z" fill="#00B09D"/>
<path d="M74.123 20.866L74.6291 19.5443L73.7574 18.8976L72.3794 19.4037L71.9014 20.5848L72.745 21.316L74.123 20.866Z" fill="#F4F3F3"/>
<path d="M71.9854 20.5003L72.4072 19.4599C72.4072 19.4317 72.4353 19.4317 72.4634 19.4036L73.7289 18.9537H73.8132L74.5163 19.5161C74.5725 19.5161 74.5725 19.5723 74.5444 19.6005L74.0944 20.7816V20.8378L72.8571 21.2315H72.7728L72.0416 20.5847C72.0263 20.576 72.0132 20.5639 72.0034 20.5492C71.9937 20.5346 71.9875 20.5178 71.9854 20.5003Z" fill="white"/>
<path d="M71.9026 20.5848L71.1152 21.569L71.4808 22.8626L72.4651 22.7501L72.7463 21.3159L71.9026 20.5848Z" fill="#070540"/>
<path d="M74.6288 19.5161L76.063 19.741L76.3723 19.3754C75.7413 18.829 74.9289 18.5382 74.0945 18.5599L73.7852 18.8693L74.6288 19.5161Z" fill="#F4F3F3"/>
<path d="M74.15 18.6164C74.9059 18.5909 75.6454 18.8408 76.231 19.3195C76.2872 19.3476 76.2872 19.4038 76.2591 19.4601L76.0623 19.6569H76.006L74.6843 19.4601H74.6562L73.925 18.9258C73.8969 18.8977 73.8688 18.8414 73.925 18.8133L74.0657 18.6446L74.15 18.6164Z" fill="white"/>
<path d="M73.7857 18.8695L74.0951 18.5602C73.4172 18.5864 72.762 18.8113 72.2109 19.207L72.3797 19.4038L73.7857 18.8695Z" fill="#070540"/>
<path d="M71.902 20.5566L72.3801 19.4036L72.2114 19.2068C72.0231 19.3441 71.853 19.5047 71.7052 19.6849C71.2605 20.1794 70.9762 20.7971 70.8896 21.4565L71.1427 21.5409L71.902 20.5566Z" fill="#F4F3F3"/>
<path d="M71.0302 21.4565C70.9739 21.4565 70.9458 21.4003 70.9739 21.3722C71.0544 20.7554 71.319 20.1771 71.7332 19.713C71.8573 19.5748 71.9887 19.4434 72.1269 19.3193C72.1831 19.2912 72.2113 19.3193 72.2394 19.3474H72.2675C72.2956 19.3756 72.3237 19.4318 72.2956 19.4599L71.8738 20.5285H71.8457L71.1427 21.4003C71.1398 21.4084 71.1352 21.4157 71.129 21.4217C71.1229 21.4278 71.1155 21.4323 71.1074 21.435C71.0992 21.4377 71.0906 21.4386 71.0821 21.4374C71.0736 21.4363 71.0654 21.4332 71.0583 21.4284L71.0302 21.4565Z" fill="white"/>
<path d="M71.1423 21.541L70.8892 21.4566C70.7976 22.2804 71.0074 23.1095 71.4797 23.7907V22.8345L71.1423 21.541Z" fill="#F4F3F3"/>
<path d="M71.2822 23.3407C71.0056 22.8233 70.879 22.2389 70.9167 21.6534C70.9448 21.5971 71.001 21.5409 71.0573 21.569L71.1135 21.6253L71.4228 22.8345H71.451V23.2844C71.4584 23.3068 71.4567 23.3312 71.4461 23.3523C71.4356 23.3734 71.4171 23.3894 71.3947 23.3969C71.3723 23.4044 71.3479 23.4026 71.3268 23.3921C71.3057 23.3815 71.2897 23.363 71.2822 23.3407Z" fill="white"/>
<path d="M73.5614 23.6782L73.0271 23.2001L72.4928 22.722L71.4805 22.8345V23.7906C71.6281 24.0131 71.8082 24.2121 72.0148 24.3812C72.2026 24.547 72.4105 24.6887 72.6334 24.803L73.5896 24.6905L73.5614 23.6782Z" fill="#F4F3F3"/>
<path d="M72.0425 24.3249C71.8555 24.1846 71.6938 24.0134 71.5645 23.8187V22.9751C71.5645 22.9527 71.5733 22.9313 71.5892 22.9154C71.605 22.8996 71.6264 22.8907 71.6488 22.8907L72.4643 22.7782H72.5206L73.5048 23.65L73.5611 23.7062V24.5218C73.5611 24.578 73.5329 24.6061 73.4767 24.6342L72.7174 24.7186H72.6612C72.4348 24.6221 72.2258 24.4891 72.0425 24.3249Z" fill="white"/>
<path d="M75.2207 21.822L74.6583 21.3439L74.124 20.8659L72.7461 21.3158L72.4648 22.75L73.0273 23.228L73.5616 23.7061L74.9395 23.228L75.2207 21.822Z" fill="#F4F3F3"/>
<path d="M72.5502 22.6659L72.8033 21.4004C72.8033 21.3855 72.8092 21.3712 72.8198 21.3606C72.8303 21.3501 72.8446 21.3442 72.8595 21.3442L74.0687 20.9223H74.1531L75.1374 21.766V21.8503L74.8843 23.0877L74.828 23.172L73.5907 23.5939H73.5063L72.5502 22.7502C72.5393 22.7232 72.5393 22.6929 72.5502 22.6659Z" fill="white"/>
<path d="M75.2207 21.8221L76.458 21.119L77.2173 21.9064L76.8798 23.3406L75.7831 23.9874L74.9395 23.2281L75.2207 21.8221Z" fill="#F4F3F3"/>
<path d="M74.9941 23.1438L75.2472 21.8784L75.3035 21.8221L76.4002 21.2034H76.4846L77.1314 21.8502C77.1415 21.8616 77.1493 21.875 77.1541 21.8895C77.1589 21.904 77.1608 21.9194 77.1595 21.9346L76.8501 23.2563V23.3125L75.894 23.8468H75.7815L75.0504 23.2001C75.0254 23.1888 75.0054 23.1688 74.9941 23.1438Z" fill="white"/>
<path d="M76.0644 19.7413L74.6302 19.5445L74.124 20.8662L74.6583 21.3442L75.2208 21.8223L76.4581 21.1193L76.0644 19.7413Z" fill="#070540"/>
<path d="M75.7831 23.9874L74.9113 24.8873L73.5896 24.6904L73.5615 23.7062L74.9395 23.2281L75.7831 23.9874Z" fill="#070540"/>
<path d="M76.4572 21.119L76.0635 19.7411L76.3728 19.3755C77.0114 19.9264 77.4141 20.7016 77.4977 21.5408L77.2165 21.9064L76.4572 21.119Z" fill="#F4F3F3"/>
<path d="M76.4851 21.0629L76.1195 19.7974C76.1183 19.7822 76.1201 19.7668 76.1249 19.7523C76.1298 19.7378 76.1375 19.7245 76.1477 19.7131L76.3164 19.5162H76.457C77.0013 20.0399 77.3488 20.735 77.4412 21.4847C77.4425 21.4999 77.4407 21.5153 77.4359 21.5298C77.431 21.5443 77.4233 21.5576 77.4131 21.5691L77.2725 21.7378C77.2444 21.794 77.1882 21.794 77.1319 21.7378L76.5132 21.1191L76.4851 21.0629Z" fill="white"/>
<path d="M77.2166 21.9066L77.4978 21.541C77.5538 22.2243 77.407 22.9091 77.076 23.5095L76.9072 23.3407L77.2166 21.9066Z" fill="#070540"/>
<path d="M75.7829 23.9594L76.9077 23.3407L77.0765 23.5094C76.8611 23.8991 76.5676 24.2401 76.2144 24.511C75.8612 24.782 75.4558 24.9772 75.0236 25.0842L74.9111 24.8592L75.7829 23.9594Z" fill="#F4F3F3"/>
<path d="M75.0223 24.8311L75.8097 24.0156H75.8378L76.822 23.4251H76.9626C76.9908 23.4532 77.0189 23.5094 76.9908 23.5376L76.6533 24.0156C76.2436 24.4666 75.7185 24.7972 75.1347 24.9717C75.0785 24.9999 75.0504 24.9717 75.0223 24.9436H74.9941C74.9941 24.8874 74.9941 24.8592 75.0223 24.8311Z" fill="white"/>
<path d="M74.9097 24.8593L75.0221 25.0842C74.2179 25.2875 73.367 25.1874 72.6318 24.803L73.588 24.6905L74.9097 24.8593Z" fill="#F4F3F3"/>
<path d="M73.5896 24.7468L74.8269 24.9155H74.9113C74.9211 24.9417 74.9208 24.9707 74.9104 24.9967C74.9 25.0227 74.8802 25.0439 74.855 25.0561C74.2741 25.1737 73.6725 25.1348 73.1115 24.9436C73.0891 24.9399 73.0692 24.9274 73.056 24.909C73.0428 24.8905 73.0375 24.8676 73.0412 24.8452C73.0449 24.8228 73.0574 24.8028 73.0759 24.7897C73.0943 24.7765 73.1173 24.7712 73.1396 24.7749L73.5614 24.7186L73.5896 24.7468Z" fill="white"/>
</svg>
