<svg width="16" height="16" viewBox="0 0 16 16" fill="none" xmlns="http://www.w3.org/2000/svg">
<path d="M2.65906 0.0570946C2.46354 0.188337 2.44399 0.250834 2.44399 0.785179V1.27578L1.83462 1.28828C1.35886 1.30078 1.18615 1.3164 1.06232 1.36015C0.570265 1.53201 0.234623 1.85699 0.0651731 2.32884C0.00651731 2.49446 0 2.59133 0 3.38191V4.25061H8H16V3.47565C16 3.05068 15.987 2.62258 15.9674 2.51946C15.9185 2.23197 15.7686 1.96011 15.534 1.73825C15.1625 1.3789 14.853 1.28203 14.0546 1.28203H13.556V0.819552C13.556 0.300831 13.5234 0.194587 13.3312 0.0727186C13.1845 -0.0210261 12.9401 -0.0241508 12.7837 0.0664692C12.5947 0.178963 12.5654 0.269583 12.5523 0.803928L12.5393 1.28203H12.0864H11.6334V0.813302C11.6334 0.294581 11.6138 0.225835 11.4379 0.0820932C11.3532 0.0133471 11.3043 0.000847816 11.1413 0.000847816C10.9589 0.000847816 10.936 0.0102224 10.809 0.122716L10.6721 0.247709L10.6623 0.763305L10.6525 1.28203H7.99674H5.3442V0.819552C5.3442 0.300831 5.31161 0.194587 5.11935 0.0727186C4.97597 -0.0210261 4.72179 -0.0241508 4.57189 0.0633445C4.38289 0.172713 4.35356 0.272708 4.34053 0.803928L4.3275 1.28203H3.87454H3.42159V0.813302C3.42159 0.307081 3.4053 0.241459 3.24562 0.0945926C3.12505 -0.0116515 2.79919 -0.0304003 2.65906 0.0570946ZM3.389 1.76637C3.389 2.25385 3.37271 2.32572 3.21303 2.46634C3.09572 2.57258 2.82851 2.59133 2.68187 2.50383C2.49613 2.39134 2.46354 2.28822 2.45051 1.77262L2.43747 1.31327H2.91324H3.389V1.76637ZM5.31161 1.757C5.31161 2.11948 5.30183 2.22572 5.25295 2.31322C5.09328 2.61945 4.6664 2.6507 4.45784 2.36947C4.38941 2.27572 4.38289 2.22885 4.37312 1.78825L4.36008 1.31327H4.83584H5.31161V1.757ZM11.6008 1.7695C11.6008 2.2851 11.5682 2.39446 11.389 2.50071C11.1772 2.6257 10.8937 2.5632 10.7503 2.35697C10.6982 2.27885 10.6884 2.20385 10.6884 1.78825V1.31327H11.1446H11.6008V1.7695ZM13.5234 1.76637C13.5234 2.25385 13.5071 2.32572 13.3475 2.46634C13.2301 2.57258 12.9629 2.59133 12.8163 2.50383C12.6305 2.39134 12.598 2.28822 12.5849 1.77262L12.5719 1.31327H13.0477H13.5234V1.76637Z" fill="#1A2B51"/>
<path d="M0 9.94409C0 13.9814 0.00651731 14.7876 0.0456212 14.9094C0.208554 15.4188 0.60611 15.8 1.13727 15.9563C1.26436 15.9938 2.34949 16 8.00326 16C14.6411 16 14.7226 16 14.9083 15.9375C15.3971 15.775 15.7263 15.4657 15.9218 14.9813C15.9804 14.8344 15.9837 14.6407 15.9935 9.97534L16 5.12561H8H0V9.94409ZM8.60285 6.50365C8.95153 6.55365 9.51853 6.74114 9.83136 6.91301C10.7862 7.43798 11.4379 8.25356 11.7018 9.25038C11.8094 9.66285 11.8224 10.3847 11.7312 10.8128C11.288 12.897 9.13727 14.1845 7.00611 13.6408C6.61181 13.5376 6.04481 13.2752 5.71242 13.0345C4.64684 12.2627 4.06029 10.9909 4.20041 9.7566C4.2558 9.28162 4.36008 8.93789 4.57841 8.50979C5.3279 7.04737 6.90509 6.25992 8.60285 6.50365Z" fill="#1A2B51"/>
<path d="M7.62438 7.36308C7.14536 7.44432 6.76409 7.58181 6.41868 7.79743C5.84189 8.15366 5.4313 8.68175 5.22601 9.32859C5.14454 9.58483 5.13477 9.65357 5.13477 10.1098C5.13477 10.566 5.14454 10.6348 5.22601 10.891C5.80279 12.7065 7.9698 13.4409 9.63497 12.3847C9.85656 12.2441 10.202 11.9159 10.3584 11.6941C10.6452 11.2847 10.7885 10.916 10.8537 10.416C11.0232 9.06611 10.1042 7.78493 8.71603 7.43495C8.46511 7.37245 7.8199 7.3287 7.62438 7.36308ZM9.52417 8.87862C9.72621 8.97861 9.83049 9.16922 9.79138 9.36921C9.77183 9.46921 9.63497 9.61608 8.8366 10.3848C8.32173 10.8816 7.86226 11.3066 7.81338 11.3316C7.69607 11.391 7.49403 11.3879 7.39627 11.3254C7.2757 11.2472 6.39587 10.4098 6.28507 10.2692C6.15798 10.1035 6.15147 9.89106 6.2753 9.75044C6.43497 9.5692 6.6533 9.51608 6.83578 9.6067C6.88466 9.6317 7.07041 9.79419 7.24963 9.96606C7.42886 10.141 7.58853 10.2817 7.60809 10.2817C7.62438 10.2817 7.95676 9.97855 8.34128 9.60983C8.7258 9.2411 9.08751 8.91924 9.13965 8.89424C9.25371 8.83487 9.42641 8.82862 9.52417 8.87862Z" fill="#1A2B51"/>
</svg>
