<svg width="26" height="26" viewBox="0 0 26 26" fill="none" xmlns="http://www.w3.org/2000/svg">
<path fill-rule="evenodd" clip-rule="evenodd" d="M5.41714 0.0715925C5.16889 0.147168 4.78078 0.432354 4.66833 0.621852C4.62508 0.694736 4.59435 1.08165 4.57688 1.77286L4.55057 2.81405L3.18251 2.84153C1.69063 2.8715 1.60155 2.88683 1.09236 3.20224C0.582231 3.51826 0.169812 4.11758 0.0528419 4.71314C0.0174826 4.89294 -0.000565304 8.16138 1.34939e-05 14.2614C0.000802763 22.2448 0.0117473 23.5857 0.0786247 23.8905C0.243477 24.6416 0.725457 25.3353 1.32209 25.6801C1.91299 26.0217 1.11146 25.9997 12.9958 25.9997C24.8801 25.9997 24.0785 26.0217 24.6694 25.6801C25.2661 25.3353 25.748 24.6416 25.9129 23.8905C26.0266 23.3721 26.0302 5.17833 25.9166 4.66124C25.7436 3.87318 25.195 3.25212 24.4116 2.95728C24.2185 2.8846 23.9351 2.86413 22.809 2.84153L21.4409 2.81405L21.4146 1.77286C21.3972 1.08165 21.3664 0.694736 21.3232 0.621852C21.2021 0.417778 20.8149 0.144527 20.5359 0.0662088C20.3135 0.00383859 20.0093 -0.00824944 18.9822 0.00460044C17.7831 0.0196343 17.6918 0.027456 17.4881 0.132642C17.217 0.27262 17.0151 0.500413 16.9444 0.745932C16.9145 0.849798 16.89 1.36339 16.8898 1.88713L16.8895 2.83945H12.9958H9.10203L9.10171 1.88713C9.10155 1.36339 9.07698 0.849798 9.04709 0.745932C8.97643 0.500413 8.77453 0.27262 8.50345 0.132642C8.29818 0.0266433 8.21531 0.0200406 6.971 0.00983182C5.95253 0.00150225 5.60172 0.0154695 5.41714 0.0715925ZM7.78658 2.99304V4.72107L6.87892 4.7072L5.97126 4.69328L5.95742 2.97912L5.94353 1.26496H6.86508H7.78658V2.99304ZM20.1393 2.97912L20.1255 4.69328H19.1257H18.126L18.1122 2.97912L18.0983 1.26496H19.1257H20.1532L20.1393 2.97912ZM4.57688 4.5917C4.60577 5.14923 4.66465 5.30104 4.95389 5.56372C5.32779 5.90331 5.36515 5.91062 6.80978 5.92825C8.32449 5.94668 8.43957 5.92489 8.77611 5.55585C9.03162 5.27564 9.10203 5.04699 9.10203 4.49693V4.05841H12.9958H16.8895V4.49693C16.8895 5.04699 16.9599 5.27564 17.2154 5.55585C17.5519 5.92489 17.667 5.94668 19.1817 5.92825C20.6264 5.91062 20.6637 5.90331 21.0376 5.56372C21.3269 5.30104 21.3857 5.14923 21.4146 4.5917L21.4409 4.0838L22.5627 4.07009C23.8112 4.0548 24.0042 4.0835 24.2913 4.32678C24.6728 4.65016 24.6745 4.66103 24.6758 6.83916L24.6769 8.78189H12.9958H1.31457L1.31573 6.83916C1.31699 4.6878 1.32046 4.66347 1.67032 4.34644C1.95614 4.08746 2.12373 4.0608 3.39298 4.07283L4.55057 4.0838L4.57688 4.5917ZM24.6647 16.8956C24.6515 23.3733 24.645 23.8019 24.5573 23.9819C24.4297 24.2442 24.1072 24.5788 23.9025 24.6616C23.6488 24.764 2.34088 24.7633 2.08663 24.6607C1.99224 24.6226 1.81939 24.4867 1.70257 24.3585C1.28763 23.9036 1.31457 24.428 1.31457 16.8009V10.0008H12.9967H24.6788L24.6647 16.8956ZM12.4433 11.6945C12.3564 11.7322 12.2498 11.8033 12.2065 11.8526C12.1631 11.9019 11.7842 12.5968 11.3646 13.3968L10.6016 14.8513L8.94502 15.0903C8.03388 15.2218 7.23088 15.3589 7.16058 15.3951C6.86661 15.5462 6.75942 15.9361 6.93154 16.228C6.98221 16.3139 7.55043 16.8709 8.19437 17.4658C8.83831 18.0606 9.36533 18.5842 9.36559 18.6293C9.36585 18.6744 9.23357 19.4215 9.07161 20.2896C8.7929 21.7838 8.78143 21.8776 8.8563 22.0506C8.89976 22.1511 9.00142 22.2751 9.08214 22.3262C9.39132 22.5217 9.54344 22.473 11.1355 21.6688C11.95 21.2573 12.642 20.9207 12.6732 20.9207C12.7044 20.9207 13.3672 21.2415 14.146 21.6336C14.9249 22.0258 15.6415 22.3686 15.7385 22.3955C16.1165 22.5001 16.5212 22.2081 16.5212 21.8307C16.5212 21.7209 16.3928 20.9474 16.2359 20.1118L15.9507 18.5926L16.6174 17.9664C18.3838 16.3074 18.4583 16.2308 18.4952 16.0371C18.5402 15.8002 18.4175 15.5393 18.2038 15.4174C18.0975 15.3568 17.5052 15.2493 16.3787 15.0862L14.7108 14.8446L13.9454 13.3538C13.4492 12.3874 13.1336 11.8304 13.0484 11.7705C12.8667 11.6429 12.6308 11.6133 12.4433 11.6945ZM13.2263 14.7624C13.5269 15.3421 13.8226 15.8595 13.8833 15.9123C13.9692 15.987 14.2571 16.045 15.182 16.1739C15.8355 16.2649 16.3813 16.35 16.3947 16.363C16.4081 16.3759 16.0454 16.7355 15.5888 17.1619C15.1321 17.5884 14.7297 17.9858 14.6945 18.045C14.5967 18.2099 14.6119 18.405 14.813 19.5602C14.9153 20.1482 14.9922 20.6351 14.984 20.6423C14.9757 20.6495 14.5072 20.4128 13.9429 20.1161C13.0743 19.6596 12.8805 19.5767 12.68 19.5759C12.4784 19.5751 12.2889 19.6553 11.4041 20.1156C10.8325 20.413 10.3644 20.63 10.3639 20.598C10.3633 20.566 10.4496 20.0327 10.5558 19.4129C10.7238 18.4312 10.74 18.2657 10.681 18.1283C10.6438 18.0416 10.2246 17.608 9.74949 17.1648C8.92097 16.3919 8.89166 16.3578 9.03331 16.3312C9.1145 16.3159 9.64268 16.2424 10.207 16.1679C10.7713 16.0933 11.2987 16 11.3789 15.9605C11.4936 15.9041 11.6451 15.6561 12.0887 14.7986C12.3988 14.1991 12.6587 13.7085 12.6661 13.7085C12.6735 13.7085 12.9256 14.1827 13.2263 14.7624Z" fill="#1A2B51"/>
</svg>
