<svg width="63" height="30" viewBox="0 0 63 30" fill="none" xmlns="http://www.w3.org/2000/svg">
<rect x="8.25" y="4.25" width="54.5" height="20.5" rx="10.25" fill="white" stroke="#ED7D31" stroke-width="0.5"/>
<path fill-rule="evenodd" clip-rule="evenodd" d="M0 15C0 6.71577 6.7157 0 15 0C23.2843 0 30 6.71577 30 15C30 23.2843 23.2843 30 15 30C6.7157 30 0 23.2843 0 15Z" fill="#ED7D31"/>
<path d="M24.0025 5.30827C23.3046 5.18836 22.598 5.12665 21.8897 5.12375C19.4736 5.12178 17.1078 5.81285 15.0744 7.11461C13.0358 5.82995 10.6704 5.15583 8.2591 5.17231C7.55094 5.1752 6.84425 5.23692 6.14636 5.35683C5.67408 5.43805 5.33129 5.85 5.33826 6.32798V17.9818C5.33042 18.5181 5.75992 18.9592 6.29758 18.9671C6.35782 18.9679 6.41802 18.9632 6.47739 18.953C9.29604 18.4662 12.1924 19.1351 14.5098 20.8079L14.6266 20.8758H14.7336C14.9517 20.9665 15.1971 20.9665 15.4152 20.8758H15.5223L15.6392 20.8079C17.9404 19.0975 20.8382 18.3898 23.6715 18.8462C24.2013 18.9374 24.7051 18.5828 24.7965 18.0544C24.8068 17.9952 24.8115 17.9352 24.8106 17.875V6.22115C24.7898 5.76527 24.4534 5.38538 24.0025 5.30827ZM14.1008 18.2149C12.2995 17.2697 10.2945 16.7763 8.2591 16.7776C7.93782 16.7776 7.61652 16.7776 7.28549 16.7776V7.06606C7.60976 7.04741 7.93484 7.04741 8.2591 7.06606C10.3362 7.06377 12.368 7.67176 14.1008 8.81414V18.2149ZM22.8633 16.8165C22.5324 16.8165 22.211 16.8165 21.8897 16.8165C19.8544 16.8152 17.8494 17.3085 16.048 18.2538V8.81414C17.7809 7.67176 19.8126 7.06377 21.8897 7.06606C22.2141 7.04742 22.5391 7.04742 22.8633 7.06606V16.8165ZM24.0025 20.8468C23.3046 20.7268 22.598 20.6652 21.8897 20.6622C19.4736 20.6603 17.1078 21.3514 15.0744 22.6531C13.041 21.3514 10.6753 20.6603 8.2591 20.6622C7.55094 20.6652 6.84425 20.7268 6.14636 20.8468C5.61529 20.9308 5.2531 21.4284 5.33737 21.9582C5.33766 21.9598 5.33796 21.9617 5.33826 21.9635C5.44126 22.4887 5.95064 22.8317 6.47739 22.7308C9.29604 22.2441 12.1924 22.9128 14.5098 24.5857C14.8478 24.8258 15.3011 24.8258 15.6392 24.5857C17.9566 22.9128 20.8529 22.2439 23.6715 22.7308C24.1982 22.8317 24.7075 22.4887 24.8106 21.9635C24.8979 21.4343 24.5386 20.9347 24.0079 20.8476C24.0062 20.8473 24.0043 20.847 24.0025 20.8468Z" fill="white"/>
</svg>
