<svg width="16" height="16" viewBox="0 0 16 16" fill="none" xmlns="http://www.w3.org/2000/svg">
<path d="M7.5623 0.0562325C7.28406 0.14377 7.15275 0.228181 6.84011 0.503297C6.67754 0.643982 5.15498 1.99143 3.45423 3.49519C0.115238 6.44956 0.190272 6.37766 0.0558369 6.81222C-0.00356457 7.0123 -0.00356457 7.10297 0.00268822 10.9546L0.0120674 14.8938L0.127744 15.1376C0.284064 15.4659 0.534175 15.716 0.862446 15.8723L1.1063 15.988L3.38857 15.9974C5.62394 16.0036 5.67396 16.0036 5.77401 15.9411C5.83028 15.9067 5.90219 15.8348 5.93658 15.7785C5.99598 15.6785 5.99911 15.6159 5.99911 13.3931C5.99911 12.1363 6.01474 10.9827 6.03037 10.8233C6.18669 9.33204 7.8343 8.5317 9.06923 9.34141C9.59133 9.68218 9.90397 10.198 9.96963 10.8233C9.98526 10.9827 10.0009 12.1363 10.0009 13.3931C10.0009 15.6159 10.004 15.6785 10.0634 15.7785C10.0978 15.8348 10.1697 15.9067 10.226 15.9411C10.326 16.0036 10.3761 16.0036 12.6114 15.9974L14.8937 15.988L15.1376 15.8723C15.4658 15.716 15.7159 15.4659 15.8723 15.1376L15.9879 14.8938L15.9973 10.9546C16.0036 7.10297 16.0036 7.0123 15.9442 6.81222C15.8097 6.37453 15.8973 6.45894 12.4051 3.37014C10.6262 1.7976 9.10362 0.45015 9.01608 0.375117C8.83475 0.218801 8.61277 0.100001 8.3908 0.0406008C8.17195 -0.0187988 7.77177 -0.0125465 7.5623 0.0562325Z" fill="#1A2B51"/>
</svg>
