<svg width="44" height="51" viewBox="0 0 44 51" fill="none" xmlns="http://www.w3.org/2000/svg">
<path fill-rule="evenodd" clip-rule="evenodd" d="M20.5744 0.142252C19.7676 0.364928 19.1558 0.731871 18.141 1.60146C17.6211 2.04701 17.1519 2.45171 17.0985 2.50073C16.9128 2.671 17.8937 3.29111 18.8638 3.61651C20.0584 4.01732 21.7341 3.97976 23.0242 3.52325C23.82 3.24169 24.4797 3.20921 24.9872 3.42651L25.3375 3.57665L25.2885 2.95037C25.1769 1.52504 24.1759 0.420323 22.7063 0.100606C22.0266 -0.0472477 21.2022 -0.0311074 20.5744 0.142252ZM23.0269 4.82504C21.6223 5.21739 20.0317 5.24907 18.8236 4.90893C18.6078 4.84815 18.6049 4.86001 18.6049 5.80541V6.76357H14.34H10.0753L9.81471 6.21759C8.8716 4.24159 6.09234 4.32309 5.22582 6.35219C5.14088 6.55105 5.06877 6.99143 5.06546 7.33077C5.0469 9.23931 7.03904 10.5173 8.68821 9.65478C9.12691 9.42533 9.7077 8.78061 9.89945 8.31005L10.0425 7.95915H14.3753C18.4153 7.95915 18.7121 7.9709 18.7654 8.1335C19.0809 9.09425 19.7263 9.84059 20.6132 10.2701C21.684 10.7888 23.0539 10.6361 24.0045 9.8923L24.4378 9.55325H27.684H30.9304L31.1415 10.0005C31.4028 10.5538 32.0742 11.1734 32.5811 11.3291C34.2923 11.8546 35.9023 10.6799 35.9023 8.90565C35.9023 7.86539 35.2776 6.88492 34.3661 6.49446C33.8447 6.27119 32.8853 6.30207 32.3677 6.55892C31.869 6.80641 31.2841 7.42602 31.0827 7.92029L30.945 8.25804H28.1036H25.2621L25.2967 6.72212L25.3312 5.1861L24.9459 4.92477C24.4113 4.56201 24.0381 4.54268 23.0269 4.82504ZM20.5452 6.4581C20.7693 6.88741 20.5434 7.46099 20.1504 7.46099C19.9579 7.46099 19.674 7.10471 19.674 6.8632C19.674 6.37042 20.3382 6.06156 20.5452 6.4581ZM24.2386 6.58921C24.3724 6.8353 24.3724 6.891 24.2384 7.13649C23.8531 7.84268 23.0968 7.16847 23.4708 6.45212C23.6208 6.16478 24.0497 6.2414 24.2386 6.58921ZM20.6458 12.824C20.6458 14.4406 20.7158 14.373 18.9775 14.4352C17.0659 14.5035 17.0306 14.5236 15.2724 16.5351L13.8913 18.1155L9.40409 18.1186L4.91696 18.1216L4.8501 17.8093C4.81181 17.6307 4.56942 17.2721 4.2835 16.9711C3.42611 16.0684 2.30243 15.9054 1.23687 16.5292C-0.149305 17.3409 -0.419583 19.2588 0.676882 20.5031C1.18226 21.0765 1.86956 21.3451 2.67962 21.2857C3.71097 21.2101 4.4526 20.6635 4.85117 19.6854L5.00132 19.3172H8.83885C10.9496 19.3172 12.6765 19.3545 12.6765 19.4C12.6765 19.4457 11.605 20.7031 10.2954 22.1943C8.9858 23.6856 7.91431 24.9447 7.91431 24.9925C7.91431 25.0402 8.10917 25.1556 8.34747 25.2489C8.88676 25.46 9.83852 25.413 10.3926 25.1478C10.6384 25.0301 11.7475 23.979 13.4093 22.2889C16.2253 19.4248 16.314 19.3598 16.771 19.8283L16.9781 20.0406L16.9161 26.6281C16.882 30.2513 16.8276 33.5408 16.7953 33.9381L16.7364 34.6604H13.3653H9.99431L9.87982 34.3366C9.56941 33.4591 8.58189 32.7674 7.63927 32.7674C6.89763 32.7674 6.41539 32.9408 5.9244 33.3838C5.14389 34.0881 4.85369 35.194 5.18646 36.1963C5.36023 36.7199 6.01809 37.4362 6.5466 37.6773C7.07073 37.9164 8.00742 37.9372 8.51104 37.721C9.034 37.4964 9.62374 36.904 9.82588 36.4001L10.0038 35.9563L13.3568 35.9559L16.7097 35.9555L16.4778 42.5063C16.3316 46.6355 16.2053 49.1491 16.1364 49.3061C16.0762 49.443 15.8527 49.6379 15.6394 49.7395C15.4263 49.841 15.1494 50.0203 15.024 50.1382C14.8181 50.3318 14.523 50.807 14.523 50.9452C14.523 50.9754 15.3759 51 16.4182 51H18.3133V49.8589C18.3133 48.774 18.6242 46.2719 20.3666 33.3318C20.6015 31.5879 20.7361 31.2542 21.3281 30.9493C22.1908 30.5049 23.128 30.9756 23.3611 31.9704C23.602 32.9984 25.6996 49.2826 25.6996 50.1248V51H27.5972H29.4948L29.3558 50.726C29.1664 50.3529 28.7943 50.0115 28.2472 49.7089L27.7891 49.4555L27.7278 48.808C27.6941 48.4519 27.6344 47.0509 27.5949 45.6946L27.5232 43.2287H30.2567H32.9901L33.146 43.6281C33.3416 44.1291 34.1103 44.8474 34.6178 45.0033C35.6719 45.3271 36.807 44.98 37.4293 44.1436C38.4245 42.8059 37.9202 40.8438 36.4108 40.1804C35.8861 39.9499 34.9783 39.9631 34.4396 40.2091C33.9035 40.454 33.3729 40.9929 33.1347 41.5344L32.959 41.9335H30.204C27.6453 41.9335 27.4488 41.9211 27.4478 41.7592C27.4471 41.6633 27.3602 39.3431 27.2545 36.6032C27.1489 33.8634 27.062 31.0725 27.0613 30.4012L27.0602 29.1807H33.0359H39.0116L39.1537 29.5294C39.5172 30.4213 40.3391 31.0432 41.287 31.1434C43.2153 31.3475 44.6013 29.2584 43.7378 27.4492C42.7838 25.4502 39.9984 25.564 39.1537 27.6364L39.0116 27.9851H33.0359H27.0602V23.9059V19.8266L27.2762 19.6715C27.395 19.5863 27.577 19.5164 27.6807 19.5164C27.7975 19.5164 28.9089 20.5728 30.599 22.2904C33.5861 25.3257 33.6794 25.3947 34.8019 25.3947C35.4147 25.3947 36.1331 25.1324 36.0594 24.9357C36.0319 24.862 34.0626 22.586 31.6834 19.8779C28.133 15.8367 27.2741 14.9118 26.8929 14.7194C26.4918 14.517 26.2408 14.4782 25.0533 14.4352C23.2261 14.369 23.2699 14.4085 23.2699 12.8245V11.6431L22.8568 11.719C22.3364 11.8147 21.7014 11.8158 21.1075 11.7221L20.6458 11.6493V12.824ZM20.4439 19.986C20.9855 20.2149 21.2242 20.2563 22.0064 20.2563C22.8001 20.2563 23.0245 20.2162 23.6046 19.9714C24.2191 19.712 24.3016 19.6992 24.5272 19.8291C24.8006 19.9864 24.8735 20.2012 24.7812 20.5777C24.7149 20.8491 24.1854 21.1373 23.319 21.3738C22.7371 21.5328 21.3341 21.5492 20.7916 21.4035C20.0796 21.2123 19.3769 20.8874 19.2819 20.7056C19.1217 20.3989 19.1749 20.0353 19.4041 19.8708C19.6856 19.6686 19.6958 19.6697 20.4439 19.986ZM20.567 23.6511C21.0705 23.8373 21.4339 23.9002 22.0064 23.9002C22.579 23.9002 22.9424 23.8373 23.4459 23.6511C23.8164 23.5141 24.2095 23.402 24.3195 23.402C24.7873 23.402 25.0036 24.1021 24.64 24.4393C24.5384 24.5337 24.1339 24.7286 23.741 24.8727C23.1421 25.0924 22.8624 25.1345 22.0064 25.1345C21.1505 25.1345 20.8708 25.0924 20.2718 24.8727C19.879 24.7286 19.4745 24.5337 19.3729 24.4393C19.0093 24.1021 19.2256 23.402 19.6934 23.402C19.8034 23.402 20.1965 23.5141 20.567 23.6511Z" fill="#19AF00"/>
</svg>
