<svg width="8" height="5" viewBox="0 0 8 5" fill="none" xmlns="http://www.w3.org/2000/svg">
<path fill-rule="evenodd" clip-rule="evenodd" d="M0.0296736 0.906563C0.0565619 0.98001 0.277124 1.22139 1.90096 2.95445C3.38708 4.54053 3.75682 4.92675 3.81993 4.9589C3.87754 4.98824 3.92481 4.99871 3.99971 4.99871C4.2058 4.99871 4.07861 5.12188 6.10447 2.96043C7.85904 1.08843 7.93704 1.00263 7.96867 0.91018C8.01064 0.787542 8.01045 0.691191 7.96804 0.570319C7.93998 0.490338 7.90437 0.44228 7.75309 0.280184C7.52917 0.0402586 7.47567 0.00755277 7.30603 0.00693575C7.21487 0.00660245 7.16401 0.0150701 7.11844 0.0381409C7.07602 0.0595948 6.56408 0.593407 5.52776 1.69669L3.99963 3.32359L2.47157 1.6958C1.63114 0.800528 0.918893 0.0548439 0.8888 0.0387244C0.858708 0.0226216 0.783874 0.00596901 0.722484 0.00171801C0.550665 -0.0101671 0.472595 0.0352073 0.246531 0.278317C0.0950809 0.441196 0.0597353 0.489089 0.0315183 0.569719C-0.00989276 0.687974 -0.0104868 0.796844 0.0296736 0.906563Z" fill="#322E2F"/>
</svg>
