<svg width="7" height="13" viewBox="0 0 7 13" fill="none" xmlns="http://www.w3.org/2000/svg">
<path fill-rule="evenodd" clip-rule="evenodd" d="M5.73081 0.0482199C5.62799 0.0919134 5.29006 0.450327 2.86378 3.08905C0.64326 5.504 0.102553 6.10484 0.057535 6.20739C0.016461 6.301 0.00180503 6.37782 0.00180503 6.49953C0.00180503 6.83442 -0.170636 6.62774 2.8554 9.91976C5.4762 12.7709 5.59632 12.8977 5.72575 12.9491C5.89744 13.0173 6.03233 13.017 6.20155 12.9481C6.31353 12.9025 6.38081 12.8446 6.60774 12.5988C6.94364 12.2349 6.98943 12.148 6.99029 11.8723C6.99076 11.7242 6.9789 11.6415 6.9466 11.5675C6.91657 11.4985 6.16923 10.6666 4.62464 8.98261L2.34697 6.4994L4.62587 4.01629C5.87926 2.6506 6.92322 1.4932 6.94579 1.4443C6.96833 1.3954 6.99164 1.2738 6.9976 1.17404C7.01424 0.894831 6.95071 0.767968 6.61036 0.400613C6.38233 0.154507 6.31528 0.0970702 6.20239 0.0512175C6.03684 -0.0160754 5.88442 -0.0170408 5.73081 0.0482199Z" fill="#322E2F"/>
</svg>
