<svg width="39" height="39" viewBox="0 0 39 39" fill="none" xmlns="http://www.w3.org/2000/svg">
<path fill-rule="evenodd" clip-rule="evenodd" d="M0 19.5C0 8.7305 8.73041 0 19.5 0C30.2696 0 39 8.7305 39 19.5C39 30.2696 30.2696 39 19.5 39C8.73041 39 0 30.2696 0 19.5Z" fill="#ED7D31"/>
<path d="M31.2033 6.90076C30.2961 6.74488 29.3775 6.66465 28.4567 6.66089C25.3158 6.65832 22.2402 7.55672 19.5968 9.24901C16.9466 7.57894 13.8716 6.70259 10.7369 6.72401C9.81633 6.72777 8.89762 6.80801 7.99037 6.96389C7.3764 7.06947 6.93077 7.60501 6.93983 8.22639V23.3764C6.92965 24.0735 7.488 24.647 8.18696 24.6572C8.26526 24.6583 8.34352 24.6521 8.42071 24.6389C12.085 24.0061 15.8502 24.8756 18.8628 27.0503L19.0147 27.1386H19.1538C19.4373 27.2564 19.7563 27.2564 20.0399 27.1386H20.1791L20.331 27.0503C23.3227 24.8268 27.0898 23.9068 30.773 24.5C31.4617 24.6186 32.1167 24.1577 32.2355 23.4707C32.2489 23.3937 32.255 23.3157 32.2538 23.2375V8.08751C32.2268 7.49486 31.7896 7.001 31.2033 6.90076ZM18.3311 23.6794C15.9894 22.4506 13.3829 21.8092 10.7369 21.8109C10.3193 21.8109 9.90157 21.8109 9.47123 21.8109V9.18589C9.89279 9.16165 10.3154 9.16165 10.7369 9.18589C13.4372 9.18291 16.0784 9.9733 18.3311 11.4584V23.6794ZM29.7224 21.8614C29.2922 21.8614 28.8744 21.8614 28.4567 21.8614C25.8109 21.8597 23.2043 22.5011 20.8625 23.7299V11.4584C23.1152 9.9733 25.7565 9.18291 28.4567 9.18589C28.8784 9.16166 29.3009 9.16166 29.7224 9.18589V21.8614ZM31.2033 27.1008C30.2961 26.9448 29.3775 26.8647 28.4567 26.8609C25.3158 26.8584 22.2402 27.7568 19.5968 29.449C16.9535 27.7568 13.8779 26.8584 10.7369 26.8609C9.81633 26.8647 8.89762 26.9448 7.99037 27.1008C7.29997 27.2101 6.82912 27.8569 6.93868 28.5456C6.93906 28.5478 6.93944 28.5502 6.93983 28.5526C7.07374 29.2353 7.73593 29.6812 8.42071 29.55C12.085 28.9173 15.8502 29.7867 18.8628 31.9614C19.3022 32.2735 19.8915 32.2735 20.331 31.9614C23.3436 29.7867 27.1088 28.9171 30.773 29.55C31.4577 29.6812 32.1199 29.2353 32.2538 28.5526C32.3674 27.8646 31.9003 27.2151 31.2104 27.1019C31.2081 27.1015 31.2057 27.1011 31.2033 27.1008Z" fill="white"/>
</svg>
