<svg width="33" height="27" viewBox="0 0 33 27" fill="none" xmlns="http://www.w3.org/2000/svg">
<path fill-rule="evenodd" clip-rule="evenodd" d="M1.65972 0.0418639C1.04024 0.196323 0.47028 0.672807 0.178275 1.28029C-0.0542819 1.7641 -0.0602749 2.67296 0.165945 3.14979C0.401946 3.64713 0.681964 3.9471 1.15514 4.20958L1.59084 4.45121H16.5045H31.4182L31.77 4.26131C32.2918 3.97973 32.5061 3.76742 32.7659 3.27451C32.9797 2.86906 33 2.77858 33 2.23156C33 1.68412 32.9797 1.59428 32.765 1.18692C32.5114 0.705785 32.2217 0.421388 31.7303 0.170956L31.4182 0.011916L16.6423 0.00113491C8.51554 -0.00485461 1.77338 0.0134665 1.65972 0.0418639ZM1.65972 11.3163C1.04024 11.4707 0.47028 11.9472 0.178275 12.5547C-0.0542819 13.0385 -0.0602749 13.9474 0.165945 14.4242C0.401946 14.9215 0.681964 15.2215 1.15514 15.484L1.59084 15.7256H16.5045H31.4182L31.77 15.5357C32.2918 15.2541 32.5061 15.0418 32.7659 14.5489C32.9797 14.1435 33 14.053 33 13.506C33 12.9585 32.9797 12.8687 32.765 12.4613C32.5114 11.9802 32.2217 11.6958 31.7303 11.4454L31.4182 11.2863L16.6423 11.2755C8.51554 11.2695 1.77338 11.2879 1.65972 11.3163ZM1.65972 22.5907C1.04024 22.7451 0.47028 23.2216 0.178275 23.8291C-0.0542819 24.3129 -0.0602749 25.2217 0.165945 25.6986C0.401946 26.1959 0.681964 26.4959 1.15514 26.7584L1.59084 27H16.5045H31.4182L31.77 26.8101C32.2918 26.5285 32.5061 26.3162 32.7659 25.8233C32.9797 25.4178 33 25.3274 33 24.7804C33 24.2329 32.9797 24.1431 32.765 23.7357C32.5114 23.2546 32.2217 22.9702 31.7303 22.7197L31.4182 22.5607L16.6423 22.5499C8.51554 22.5439 1.77338 22.5623 1.65972 22.5907Z" fill="white"/>
</svg>
