<svg width="9" height="15" viewBox="0 0 9 15" fill="none" xmlns="http://www.w3.org/2000/svg">
<path fill-rule="evenodd" clip-rule="evenodd" d="M0.0258026 14.1982C0.101079 14.5018 0.343273 14.7772 0.656111 14.9149C0.813457 14.9842 0.88089 14.9963 1.10382 14.9957C1.59756 14.9944 1.2641 15.2761 5.24704 11.496C7.64919 9.2161 8.81279 8.09197 8.86473 8.00094C8.98598 7.78839 9.02859 7.53737 8.98088 7.31654C8.95908 7.21565 8.90681 7.07274 8.86473 6.99897C8.81279 6.90794 7.64919 5.7838 5.24704 3.50396C1.26376 -0.27647 1.59734 0.00530437 1.10382 0.00445337C0.880303 0.00407189 0.812808 0.0163972 0.648886 0.0875893C0.0817501 0.333915 -0.158159 0.990372 0.122414 1.52816C0.162275 1.6046 1.25665 2.6665 3.26012 4.57275L6.33664 7.49995L3.26012 10.4272C1.24881 12.3409 0.162523 13.395 0.122631 13.4718C0.00653583 13.6951 -0.0303305 13.9718 0.0258026 14.1982Z" fill="#1A2B51"/>
</svg>
