<svg width="20" height="20" viewBox="0 0 20 20" fill="none" xmlns="http://www.w3.org/2000/svg">
<path fill-rule="evenodd" clip-rule="evenodd" d="M9.10299 0.0236656C7.1704 0.212879 5.38422 0.924853 3.81813 2.13021C3.05548 2.71717 2.06507 3.82029 1.49272 4.72015C1.24554 5.10879 0.76437 6.09359 0.592 6.56357C0.399273 7.08911 0.193862 7.8922 0.0927815 8.51536C-0.0309271 9.27808 -0.0309271 10.7262 0.0927815 11.4889C0.267696 12.5672 0.544396 13.4388 1.01801 14.4038C1.53547 15.4581 2.07353 16.2054 2.93514 17.0665C3.7968 17.9277 4.54453 18.4654 5.59938 18.9826C6.56493 19.4559 7.43708 19.7325 8.51593 19.9073C9.27908 20.0309 10.728 20.0309 11.4912 19.9073C12.57 19.7325 13.4422 19.4559 14.4077 18.9826C15.4626 18.4654 16.2103 17.9277 17.072 17.0665C17.9336 16.2054 18.4717 15.4581 18.9891 14.4038C19.3328 13.7035 19.5057 13.2446 19.6908 12.5408C19.9374 11.6036 20 11.0899 20 10.0021C20 8.91445 19.9374 8.40069 19.6908 7.46346C19.5057 6.75971 19.3328 6.30076 18.9891 5.60048C18.4717 4.54623 17.9336 3.79893 17.072 2.93777C16.2103 2.07664 15.4626 1.5389 14.4077 1.02173C13.4431 0.548814 12.5537 0.266677 11.5108 0.1027C10.9353 0.0122408 9.65041 -0.0299369 9.10299 0.0236656ZM8.67252 5.07525C8.80609 5.13555 9.35805 5.66257 10.956 7.25567C12.1151 8.41117 13.1193 9.4358 13.1875 9.53264C13.3002 9.69251 13.3116 9.73574 13.3116 10.0021C13.3116 10.2686 13.3002 10.3118 13.1875 10.4717C13.1193 10.5685 12.1151 11.5931 10.956 12.7486C8.73821 14.9597 8.68227 15.008 8.33976 15.009C8.16692 15.0096 7.82887 14.8676 7.72533 14.751C7.61246 14.6239 7.49979 14.3332 7.49979 14.1691C7.49979 13.8311 7.56345 13.7562 9.4861 11.8313L11.3131 10.0021L9.4861 8.17301C7.56345 6.24813 7.49979 6.17321 7.49979 5.83524C7.49979 5.6711 7.61246 5.38036 7.72533 5.25328C7.82887 5.13672 8.16692 4.99473 8.33976 4.99528C8.42589 4.99552 8.57563 5.03151 8.67252 5.07525Z" fill="#1A2B51"/>
</svg>
