<svg width="27" height="27" viewBox="0 0 27 27" fill="none" xmlns="http://www.w3.org/2000/svg">
<path d="M17.4863 19.036L14.4034 15.9673C12.0983 17.6501 9.48217 18.2724 6.61144 17.5087C4.43365 16.9431 2.70839 15.6703 1.46394 13.8037C-0.996685 10.0844 -0.28961 5.07835 3.09021 2.13692C4.7649 0.708809 6.90767 -0.0511422 9.10794 0.00267458C11.3082 0.0564913 13.4113 0.920294 15.0141 2.42857C16.617 3.93685 17.607 5.98353 17.7944 8.17647C17.9818 10.3694 17.3534 12.5544 16.0297 14.3128L19.0842 17.3956C20.0742 16.8724 20.1731 16.8865 21.0782 17.7916L26.4237 23.1512C27.1873 23.9148 27.1873 24.3532 26.452 25.1169C25.957 25.6118 25.4621 26.1209 24.9388 26.6017C24.4156 27.0825 23.8924 27.1108 23.3833 26.6159C21.394 24.6361 19.4142 22.6562 17.4438 20.6764C16.8782 20.0966 17.0337 19.531 17.4863 19.036ZM16.4964 8.93898C16.5047 7.43986 16.0684 5.97193 15.2425 4.72081C14.4166 3.46968 13.2382 2.49157 11.8564 1.91014C10.4746 1.32871 8.95142 1.17008 7.47947 1.45432C6.00752 1.73856 4.65292 2.4529 3.58695 3.507C2.52098 4.56111 1.79153 5.90763 1.49083 7.37631C1.19013 8.84498 1.33169 10.3698 1.89762 11.7581C2.46354 13.1463 3.42841 14.3355 4.67021 15.1754C5.91201 16.0152 7.37496 16.468 8.87408 16.4764C9.87 16.4839 10.8576 16.2946 11.7802 15.9195C12.7028 15.5444 13.5423 14.9908 14.2504 14.2905C14.9586 13.5902 15.5215 12.757 15.9069 11.8387C16.2924 10.9203 16.4927 9.93492 16.4964 8.93898V8.93898Z" fill="#A5A5A5"/>
<path d="M9.73679 8.86864L11.3065 10.3394C11.66 10.6788 11.8156 11.0606 11.4055 11.4424C10.9954 11.8242 10.6701 11.6121 10.3732 11.2868L8.88831 9.71713L7.50244 11.2727C7.17719 11.6262 6.79536 11.8101 6.41354 11.4141C6.03172 11.0182 6.21556 10.6363 6.5691 10.3111L8.09638 8.93935C7.50244 8.35955 7.02163 7.92116 6.54082 7.46864C6.06 7.01611 6.03172 6.73328 6.42769 6.3656C6.82365 5.99792 7.16304 6.18176 7.47416 6.52115L8.95901 8.07672L10.3732 6.49287C10.6843 6.15348 11.0661 6.04034 11.4338 6.37974C11.8015 6.71913 11.6742 7.1151 11.3489 7.42621L9.73679 8.86864Z" fill="#A5A5A5"/>
</svg>
