<svg width="53" height="48" viewBox="0 0 53 48" fill="none" xmlns="http://www.w3.org/2000/svg">
<path fill-rule="evenodd" clip-rule="evenodd" d="M1.61406e-06 0.0636661C0.00113738 0.212132 0.271504 0.69717 0.582649 1.10901C0.991038 1.64949 1.91355 2.66116 3.38312 4.17992C4.0059 4.82352 4.75886 5.60582 5.05632 5.91822C5.51766 6.40277 8.46291 8.90155 8.5727 8.90155C8.59201 8.90155 8.89429 8.69492 9.24443 8.44241C9.91556 7.9584 10.1433 7.82759 10.2057 7.89031C10.2701 7.95498 10.1125 8.15748 9.39062 8.93744C8.07183 10.3624 7.4404 11.5488 6.27424 14.7935C5.31133 17.4726 5.09353 18.5003 5.23858 19.6809C5.38796 20.8966 5.73286 21.6905 6.67446 22.9857L7.13342 23.617L6.98723 23.6483C6.57019 23.7376 6.46272 23.9084 6.08695 25.0797C5.47747 26.9794 5.26719 28.6117 5.3169 31.0573C5.35432 32.8994 5.40565 33.3798 5.57791 33.501C5.64156 33.5458 5.80371 33.6863 5.93827 33.8132C6.07278 33.9401 6.20269 34.044 6.22697 34.044C6.2512 34.044 6.37137 34.0037 6.49398 33.9544C6.70805 33.8685 6.72649 33.8695 6.95624 33.9816C7.08788 34.0458 7.22936 34.0983 7.27068 34.0983C7.312 34.0983 7.45024 34.0006 7.57783 33.8811C7.95187 33.5309 7.97924 33.594 7.73938 34.2539C7.55901 34.75 7.56674 34.8587 7.8363 35.6235C8.20445 36.6677 8.60326 37.4026 9.77894 39.2034L10.5407 40.3702L10.4427 40.5332C10.3887 40.6228 10.1831 40.9618 9.98581 41.2864C9.49695 42.0907 9.356 42.55 9.356 43.3388V43.9394L9.05584 44.2154C8.75973 44.4877 8.75735 44.4924 8.88006 44.556C8.94848 44.5915 9.11138 44.6383 9.2421 44.6601C9.40938 44.688 9.5473 44.7622 9.70787 44.9108C9.83335 45.0269 9.96169 45.1219 9.99306 45.1219C10.0244 45.1219 10.1678 45.1727 10.3115 45.2348C10.538 45.3325 10.6018 45.3391 10.7892 45.2846C11.0569 45.2066 12.1917 44.7024 12.8444 44.3714C13.3181 44.1312 13.3271 44.1231 13.1809 44.0692C13.0818 44.0326 13.041 43.9867 13.061 43.9341C13.0778 43.8903 13.2952 43.547 13.5442 43.1713C13.7932 42.7956 14.2587 42.0239 14.5787 41.4564C15.6059 39.6349 15.5877 39.6624 15.7511 39.6797C15.8304 39.688 16.2067 39.8381 16.5873 40.0131C18.2447 40.7751 19.4605 41.0105 22.4984 41.1577C23.9121 41.2261 24.6478 41.2999 25.0369 41.4123C25.2649 41.4781 25.3534 41.483 25.4312 41.4342C25.4864 41.3996 25.5537 41.385 25.5808 41.4019C25.6079 41.4186 25.9161 41.7921 26.2658 42.2318C27.0739 43.2481 28.0693 44.2505 28.637 44.6198C29.4135 45.125 29.4753 45.1735 29.4753 45.277C29.4753 45.5071 29.031 45.8519 28.6006 45.9559C28.3605 46.0138 28.1632 46.2254 27.885 46.7229C27.5962 47.2395 27.6021 47.2916 27.9491 47.2932C28.202 47.2944 28.4228 47.4005 28.8378 47.7203C29.0375 47.8741 29.211 48 29.2234 48C29.2357 48 29.3832 47.8167 29.5512 47.5927C29.719 47.3687 29.8741 47.1857 29.8957 47.186C29.9173 47.1863 30.0419 47.2718 30.1725 47.3761C30.3031 47.4803 30.4267 47.5656 30.4471 47.5656C30.4825 47.5656 32.1854 45.779 33.9409 43.9001C35.9116 41.7909 36.4425 41.1103 36.9904 39.9902C37.8679 38.1963 38.3316 36.2731 38.5941 33.3381C38.6994 32.1606 38.7196 30.316 38.6307 29.9984C38.3741 29.0817 38.2369 28.4478 38.2369 28.1791C38.2369 27.8891 38.2513 27.852 38.422 27.7015C38.5239 27.6117 40.124 26.3957 41.9781 24.9991C47.0608 21.1706 47.7587 20.61 47.8382 20.2919C47.8926 20.0744 47.6945 19.7576 46.6486 18.3897C46.1347 17.7175 45.6991 17.1431 45.6807 17.1131C45.5624 16.9209 50.7177 13.1854 52.227 12.3698L52.6622 12.1346L52.6983 11.0204C52.7836 8.38707 52.8992 5.26582 52.9486 4.2642C53.0196 2.82337 53.0175 2.38514 52.9396 2.38514C52.8634 2.38514 51.5782 3.42119 49.4119 5.22873C44.3629 9.44176 42.4754 10.9286 39.9135 12.711C38.7572 13.5154 37.9825 14.0278 37.2363 14.4817C36.9686 14.6445 36.7062 14.8163 36.6531 14.8635C36.5612 14.9453 36.5629 14.9547 36.6903 15.0615C36.7637 15.1231 37.951 16.1053 39.3286 17.2441C40.7063 18.3829 41.943 19.4125 42.0767 19.5321L42.3199 19.7495L42.1194 20.041C41.6119 20.7788 40.3279 22.2155 39.0674 23.4559C38.566 23.9493 38.0536 24.433 37.9286 24.5308L37.7014 24.7087L37.543 24.204C37.4559 23.9264 37.1364 22.9295 36.8331 21.9887C36.5298 21.0479 36.1754 19.8627 36.0457 19.355C35.7789 18.3112 35.5198 17.5302 35.0098 16.2325C34.1685 14.0916 33.2318 12.4782 32.209 11.4078C31.7506 10.9281 31.4773 10.7479 31.2081 10.7479C31.1177 10.7479 31.0437 10.7334 31.0437 10.7158C31.0437 10.6982 31.1532 10.555 31.2871 10.3977C31.5374 10.1036 31.5701 10.0419 31.4762 10.0419C31.4463 10.0419 30.7497 10.3003 29.9281 10.6162C29.1065 10.9321 28.4144 11.1703 28.3901 11.1457C28.2737 11.0274 27.0415 9.52256 27.0415 9.49867C27.0415 9.48362 27.3883 9.28829 27.8122 9.06456C28.236 8.84089 29.021 8.39202 29.5564 8.06717C31.3621 6.97155 32.3325 6.55032 33.8179 6.21706C33.8729 6.20473 33.762 6.35803 33.5615 6.57139C32.9517 7.22048 32.3758 8.59229 32.3105 9.55156L32.2827 9.96046L32.4058 9.79755C32.4735 9.70795 32.7119 9.45044 32.9356 9.22525C33.6352 8.52104 34.5729 7.83182 38.0147 5.49173C41.307 3.25329 42.3936 2.4516 42.6771 2.05171L42.7925 1.88913L42.6105 1.91959C42.5103 1.93632 42.112 1.99969 41.7253 2.06035C41.3386 2.12095 40.1288 2.34142 39.0367 2.55022C33.3422 3.63895 29.5773 4.49846 27.3968 5.20766C26.8115 5.398 26.2238 5.55461 26.0248 5.57329C25.6837 5.60527 25.6778 5.60365 25.7374 5.49189C25.7708 5.42917 25.8223 5.36286 25.8519 5.34451C26.1659 5.14967 24.9586 4.80196 23.499 4.66675C22.7322 4.59577 20.2823 4.59567 19.3829 4.66659C18.0683 4.77031 16.8616 4.96411 15.1237 5.35059C14.6521 5.45545 14.2573 5.53234 14.2463 5.52143C14.2355 5.51046 14.3009 5.41103 14.3917 5.30042C14.4825 5.1898 14.5479 5.07245 14.5369 5.0396C14.5145 4.97204 14.4998 4.96585 11.1408 3.6087C6.16164 1.59692 3.47772 0.667248 1.24339 0.180256C0.34614 -0.0152911 -0.000863731 -0.0478188 1.61406e-06 0.0636661ZM10.4863 12.4476C10.5768 12.4919 10.6688 12.6341 10.7737 12.8919C11.393 14.4139 11.1354 15.4096 10.0279 15.7741C9.77213 15.8583 9.55492 15.8794 8.95037 15.879C7.84901 15.8782 7.68464 15.782 7.57215 15.0724C7.49941 14.6131 7.5748 13.9822 7.74451 13.6302C7.89298 13.3223 8.50083 12.6996 8.80386 12.5451C9.22231 12.3317 10.1408 12.2785 10.4863 12.4476ZM23.3848 12.3789C24.7653 12.5792 25.6344 14.1083 25.0707 15.3446C24.8803 15.7621 24.6925 15.9857 24.3258 16.2316C23.8875 16.5255 23.4098 16.6669 22.8557 16.6669C21.7757 16.6669 21.0035 16.2083 20.5885 15.3204C20.4376 14.9975 20.4182 14.9011 20.4173 14.4676C20.4164 14.0496 20.4372 13.934 20.5611 13.6684C20.8568 13.0351 21.4688 12.5721 22.228 12.4075C22.6568 12.3146 22.9001 12.3085 23.3848 12.3789ZM28.7626 17.2664C29.3998 17.6936 29.9174 18.4254 29.9955 19.0091C30.0667 19.5423 29.675 20.1442 29.0478 20.4655C28.6556 20.6664 28.0456 20.794 27.479 20.7937C26.6175 20.7932 26.4098 20.6756 26.1796 20.0576C25.8434 19.1556 25.968 18.1285 26.4754 17.619C26.7999 17.2933 27.4662 17.0567 28.0764 17.0506C28.4085 17.0473 28.4598 17.0635 28.7626 17.2664ZM14.8637 17.4502C15.4121 17.7367 15.4036 18.2557 14.8455 18.5568C14.6101 18.6839 13.8234 18.6815 13.589 18.553C13.2302 18.3563 13.1326 17.7903 13.4204 17.5754C13.7402 17.3367 14.5174 17.2692 14.8637 17.4502ZM17.7076 20.3925C17.7546 20.4107 17.7931 20.473 17.7931 20.5309C17.7931 20.6732 17.1396 20.9838 16.6014 21.0974C16.1391 21.1949 15.7179 21.1685 15.154 21.0066C14.6654 20.8663 14.529 20.8741 13.9427 21.0757C13.1245 21.3571 12.3183 21.289 11.8213 20.8965C11.6573 20.7669 11.6467 20.711 11.7763 20.6592C11.8283 20.6385 13.0391 20.6007 14.4669 20.5753C16.499 20.5391 17.1159 20.5119 17.3064 20.4497C17.6065 20.3517 17.6031 20.3523 17.7076 20.3925ZM22.7925 25.9573C22.4788 26.2879 21.3396 26.737 20.4435 26.8834C20.25 26.915 19.033 26.9523 17.739 26.9662L15.3864 26.9916L15.5757 26.8738C15.8716 26.6896 16.0083 26.542 16.0083 26.4068C16.0083 26.3384 16.0553 26.2572 16.1128 26.2263C16.2613 26.1465 17.2929 26.0733 19.1993 26.0074C20.8081 25.9517 22.3946 25.856 22.4399 25.8119C22.4522 25.7998 22.5724 25.7899 22.7069 25.7899H22.9513L22.7925 25.9573ZM27.3663 28.1346C27.1864 29.5589 26.8423 30.8325 26.1998 32.4517C25.9488 33.0842 25.7435 33.6558 25.7435 33.7218C25.7435 33.7879 25.7832 33.8711 25.8316 33.9067C25.8801 33.9423 25.9353 34.0672 25.9541 34.1842C25.9852 34.3771 26.0061 34.3995 26.177 34.4241C26.3385 34.4474 26.3829 34.4881 26.4878 34.7084C26.6362 35.0202 26.7632 35.1065 27.1433 35.1538C27.5935 35.2099 27.8929 35.0359 28.5213 34.353C30.1236 32.6118 30.9136 31.5438 32.2336 29.334C32.4864 28.9107 32.7014 28.5876 32.7113 28.6161C32.7212 28.6445 32.6635 28.8659 32.5832 29.1081C32.4429 29.5312 32.4404 29.5583 32.5195 29.8043C32.6169 30.1071 32.5806 30.3752 32.3712 30.9005C31.791 32.3558 29.619 34.9295 28.664 35.2935C28.5599 35.3332 28.3133 35.4603 28.116 35.576C27.6301 35.8611 27.4432 35.8861 27.1378 35.7064C26.9791 35.613 26.8174 35.5645 26.6643 35.5645C26.4572 35.5645 26.4079 35.5378 26.2131 35.3202C26.089 35.1815 25.946 35.0754 25.8825 35.075C25.7204 35.0738 25.6576 35.0188 25.566 34.7979C25.5212 34.6898 25.3967 34.5342 25.2895 34.452C25.1822 34.3698 25.0945 34.2722 25.0945 34.235C25.0945 34.1288 26.9602 28.6443 27.3095 27.7237C27.4116 27.4547 27.4328 27.6082 27.3663 28.1346Z" fill="#FFB000"/>
</svg>
