<svg width="21" height="19" viewBox="0 0 21 19" fill="none" xmlns="http://www.w3.org/2000/svg">
<path d="M6.0616 6.57676L20.6703 3.99662L19.9601 0L0 3.54133L0.659419 7.25972L0.710144 17.2008C0.710144 17.7572 1.16666 18.2126 1.72464 18.2126H19.9855C20.5434 18.2126 21 17.7572 21 17.2008V6.57676H6.0616ZM17.4493 1.46712L19.1485 1.16358L19.1992 1.46712L17.8043 3.44015L15.8261 3.81957L17.4493 1.46712ZM13.3406 2.20069L15.3442 1.84655L13.6956 4.19904L11.692 4.55314L13.3406 2.20069ZM9.20652 2.93425L11.2101 2.58012L9.56156 4.93256L7.55796 5.28672L9.20652 2.93425ZM5.0978 3.66783L7.10141 3.31368L5.45291 5.66614L3.44927 6.02024L5.0978 3.66783ZM2.96738 4.04724L1.49638 6.14673L1.16666 4.35078L2.96738 4.04724ZM16.942 12.9005H4.76808V9.86511H16.942V12.9005Z" fill="white"/>
</svg>
