<svg width="20" height="20" viewBox="0 0 20 20" fill="none" xmlns="http://www.w3.org/2000/svg">
<path fill-rule="evenodd" clip-rule="evenodd" d="M10.897 0.0236656C12.8296 0.212879 14.6158 0.924853 16.1819 2.13021C16.9445 2.71717 17.9349 3.82029 18.5073 4.72015C18.7545 5.10879 19.2356 6.09359 19.408 6.56357C19.6007 7.08911 19.8061 7.8922 19.9072 8.51536C20.0309 9.27808 20.0309 10.7262 19.9072 11.4889C19.7323 12.5672 19.4556 13.4388 18.982 14.4038C18.4645 15.4581 17.9265 16.2054 17.0649 17.0665C16.2032 17.9277 15.4555 18.4654 14.4006 18.9826C13.4351 19.4559 12.5629 19.7325 11.4841 19.9073C10.7209 20.0309 9.27196 20.0309 8.5088 19.9073C7.42995 19.7325 6.55781 19.4559 5.59225 18.9826C4.5374 18.4654 3.78967 17.9277 2.92802 17.0665C2.0664 16.2054 1.52835 15.4581 1.01089 14.4038C0.667204 13.7035 0.494326 13.2446 0.309155 12.5408C0.0625591 11.6036 0 11.0899 0 10.0021C0 8.91445 0.0625591 8.40069 0.309155 7.46346C0.494326 6.75971 0.667204 6.30076 1.01089 5.60048C1.52835 4.54623 2.0664 3.79893 2.92802 2.93777C3.78967 2.07664 4.5374 1.5389 5.59225 1.02173C6.55687 0.548814 7.44628 0.266677 8.48923 0.1027C9.06467 0.0122408 10.3496 -0.0299369 10.897 0.0236656ZM11.3275 5.07525C11.1939 5.13555 10.642 5.66257 9.04396 7.25567C7.8849 8.41117 6.88074 9.4358 6.81251 9.53264C6.69984 9.69251 6.68841 9.73574 6.68841 10.0021C6.68841 10.2686 6.69984 10.3118 6.81251 10.4717C6.88074 10.5685 7.8849 11.5931 9.04396 12.7486C11.2618 14.9597 11.3177 15.008 11.6602 15.009C11.8331 15.0096 12.1711 14.8676 12.2747 14.751C12.3875 14.6239 12.5002 14.3332 12.5002 14.1691C12.5002 13.8311 12.4366 13.7562 10.5139 11.8313L8.68689 10.0021L10.5139 8.17301C12.4366 6.24813 12.5002 6.17321 12.5002 5.83524C12.5002 5.6711 12.3875 5.38036 12.2747 5.25328C12.1711 5.13672 11.8331 4.99473 11.6602 4.99528C11.5741 4.99552 11.4244 5.03151 11.3275 5.07525Z" fill="#1A2B51"/>
</svg>
