<svg width="26" height="26" viewBox="0 0 26 26" fill="none" xmlns="http://www.w3.org/2000/svg">
<mask id="mask0_2176_266" style="mask-type:alpha" maskUnits="userSpaceOnUse" x="0" y="0" width="26" height="26">
<rect width="26" height="26" fill="white"/>
</mask>
<g mask="url(#mask0_2176_266)">
<path fill-rule="evenodd" clip-rule="evenodd" d="M10.5576 0.0689656C10.0674 0.206238 9.52121 0.64133 9.30711 1.06509C9.16796 1.34045 8.92672 1.55822 8.6644 1.64518C8.45809 1.71359 8.36063 1.71725 8.03951 1.66866C7.33799 1.56249 6.64706 1.79643 6.19813 2.2922C5.88454 2.63846 5.73006 2.98344 5.66738 3.47749C5.63938 3.69821 5.59238 3.95166 5.56301 4.04065C5.48291 4.28318 5.1679 4.53673 4.79122 4.66186C4.15329 4.87374 3.74144 5.23524 3.46109 5.82926C3.24185 6.29393 3.23467 6.84474 3.44042 7.42417C3.67025 8.0714 3.62076 8.28282 3.11466 8.81656C2.90804 9.03449 2.70234 9.31295 2.62266 9.48264C2.50005 9.74377 2.48575 9.83271 2.48575 10.3333C2.48575 10.8535 2.49639 10.9134 2.63849 11.1943C2.7225 11.3603 2.92617 11.6348 3.09103 11.8042C3.41461 12.1366 3.57754 12.4271 3.57932 12.675C3.57993 12.761 3.52071 13.0011 3.44775 13.2087C3.27219 13.7077 3.24256 14.0672 3.34424 14.4634C3.55274 15.2758 3.97254 15.692 4.9207 16.0263C5.05573 16.0739 5.21973 16.1619 5.28516 16.2216L5.40405 16.3304L3.92911 18.8715C1.31605 23.3736 1.48346 23.0696 1.51269 23.2595C1.54538 23.4713 1.62511 23.5692 1.83718 23.6576C1.99232 23.7224 2.08962 23.7037 3.31374 23.374C4.03451 23.1799 4.66704 23.0137 4.71938 23.0046C4.80334 22.9901 4.85772 23.1511 5.18287 24.3769C5.43836 25.3401 5.5824 25.7968 5.65302 25.8673C5.80801 26.022 6.12115 26.0458 6.28667 25.9156C6.3632 25.8554 7.13336 24.578 8.06471 22.9666L9.70782 20.1238L9.93241 20.278C10.2799 20.5167 10.6652 20.6313 11.1171 20.6302C11.5721 20.6292 11.8358 20.5439 12.3602 20.2279C12.6637 20.045 12.7537 20.015 12.9999 20.015C13.2461 20.015 13.336 20.045 13.6396 20.2279C14.1646 20.5443 14.4372 20.6329 14.8848 20.6329C15.3289 20.6329 15.7225 20.5149 16.0669 20.2783L16.291 20.1245L17.935 22.9673C18.8617 24.5698 19.6378 25.8563 19.7136 25.9159C19.8786 26.0458 20.192 26.0218 20.3468 25.8673C20.4174 25.7968 20.5614 25.3401 20.8169 24.3769C21.1421 23.1511 21.1965 22.9901 21.2804 23.0046C21.3328 23.0137 21.9653 23.1799 22.686 23.374C23.9102 23.7037 24.0075 23.7224 24.1626 23.6576C24.3747 23.5692 24.4544 23.4713 24.4871 23.2595C24.5163 23.0697 24.687 23.3797 22.071 18.8715L20.5964 16.3304L20.7314 16.2159C20.8057 16.153 20.9695 16.0651 21.0955 16.0206C21.6028 15.8416 21.8408 15.7088 22.092 15.4645C22.7061 14.8674 22.8615 14.0943 22.5476 13.1977C22.4771 12.9962 22.4199 12.761 22.4205 12.675C22.4223 12.4271 22.5852 12.1366 22.9088 11.8042C23.0736 11.6348 23.2773 11.3603 23.3613 11.1943C23.5034 10.9134 23.514 10.8535 23.514 10.3333C23.514 9.83271 23.4997 9.74377 23.3771 9.48264C23.2974 9.31295 23.0917 9.03449 22.8851 8.81656C22.379 8.28282 22.3295 8.0714 22.5594 7.42417C22.7651 6.84474 22.7579 6.29393 22.5387 5.82926C22.2584 5.23524 21.8465 4.87374 21.2086 4.66186C20.8319 4.53673 20.5169 4.28318 20.4368 4.04065C20.4074 3.95166 20.3604 3.69821 20.3324 3.47749C20.2697 2.98344 20.1153 2.63846 19.8017 2.2922C19.3527 1.79643 18.6618 1.56249 17.9603 1.66866C17.3323 1.76365 16.987 1.58902 16.6527 1.00736C16.1068 0.0576321 14.8297 -0.288165 13.9064 0.263718C13.1822 0.696575 12.9676 0.734082 12.538 0.502737C11.7313 0.0683049 11.6365 0.0326782 11.2305 0.0115868C10.9722 -0.00188121 10.7399 0.0179396 10.5576 0.0689656ZM11.8087 1.279C12.3103 1.57733 12.5183 1.6404 12.9999 1.6404C13.4806 1.6404 13.6896 1.57723 14.1868 1.28154C14.9365 0.835625 15.4528 0.947537 15.8509 1.64223C16.2979 2.42195 17.1155 2.82335 17.9832 2.68898C18.7842 2.56492 19.2624 2.92698 19.3393 3.7158C19.4282 4.62801 19.9093 5.2886 20.6811 5.55812C21.1675 5.72802 21.3495 5.83556 21.4991 6.04175C21.7308 6.36086 21.7485 6.62062 21.5728 7.12147C21.4539 7.46066 21.4275 7.61837 21.4307 7.97006C21.4363 8.578 21.568 8.89376 22.011 9.36107C22.4295 9.80262 22.5212 9.97257 22.5212 10.307C22.5212 10.659 22.4315 10.838 22.0697 11.2082C21.4067 11.8865 21.2448 12.6464 21.5764 13.5236C21.74 13.9564 21.7399 14.1345 21.5756 14.4635C21.4301 14.7551 21.2619 14.8811 20.812 15.0356C19.9771 15.3223 19.4736 15.9173 19.3613 16.75C19.2791 17.3598 19.2599 17.4226 19.0994 17.605C19.0124 17.7039 18.8511 17.8307 18.7409 17.8869C18.5608 17.9785 18.4824 17.9853 17.969 17.9538C17.5065 17.9254 17.3398 17.9351 17.0953 18.0046C16.5384 18.1632 16.1579 18.4891 15.7351 19.1697C15.565 19.4436 15.2462 19.6169 14.9124 19.6169C14.6136 19.6169 14.5207 19.584 14.155 19.348C13.7713 19.1004 13.4345 18.9986 12.9999 18.9986C12.5616 18.9986 12.2282 19.1007 11.832 19.3563C11.6559 19.4699 11.417 19.5802 11.3012 19.6014C10.8748 19.6794 10.4568 19.4957 10.2405 19.1353C9.86505 18.5098 9.45248 18.1607 8.90452 18.0046C8.65997 17.9351 8.49332 17.9254 8.0308 17.9538C7.51736 17.9853 7.43895 17.9785 7.25891 17.8869C7.14873 17.8307 6.98738 17.7039 6.90042 17.605C6.73993 17.4226 6.72068 17.3598 6.63845 16.75C6.52618 15.9173 6.02273 15.3223 5.18781 15.0356C4.73791 14.8811 4.56974 14.7551 4.42417 14.4635C4.25991 14.1345 4.25976 13.9564 4.42335 13.5236C4.75497 12.6464 4.59306 11.8865 3.93008 11.2082C3.56827 10.838 3.47861 10.659 3.47861 10.307C3.47861 9.97257 3.57026 9.80262 3.98878 9.36107C4.43175 8.89376 4.56352 8.578 4.56907 7.97006C4.57228 7.61837 4.54591 7.46066 4.42697 7.12147C4.25131 6.62062 4.26903 6.36086 4.50064 6.04175C4.65029 5.83556 4.83226 5.72802 5.31871 5.55812C6.08825 5.28937 6.57165 4.62766 6.65989 3.72215C6.73845 2.91549 7.19267 2.57462 8.03559 2.68974C8.37341 2.73583 8.50223 2.73146 8.79057 2.66392C9.36541 2.52929 9.83969 2.17734 10.1326 1.66815C10.3172 1.34716 10.4483 1.21207 10.6832 1.10056C11.014 0.943573 11.3286 0.99348 11.8087 1.279ZM12.2362 3.24899C9.16226 3.59555 6.66905 5.86 6.01606 8.89839C5.85099 9.66647 5.85088 10.9865 6.0159 11.7249C6.54421 14.0891 8.06802 15.9552 10.2147 16.867C10.7822 17.1081 11.0972 17.0512 11.218 16.6857C11.2675 16.5358 11.2621 16.478 11.1837 16.3198C11.1024 16.1559 11.0288 16.1055 10.6044 15.9234C8.46985 15.0077 7.03987 12.9625 6.90902 10.6382C6.73855 7.60998 8.8089 4.96985 11.8543 4.33207C12.3604 4.22611 13.4881 4.21249 14.0182 4.30595C16.4492 4.73464 18.3427 6.51221 18.9437 8.93C19.0596 9.39579 19.0782 9.58017 19.0804 10.2825C19.0824 10.8925 19.0595 11.2036 18.9888 11.5276C18.5582 13.5005 17.229 15.1278 15.3974 15.9247C14.9758 16.1081 14.8966 16.1623 14.8161 16.3224C14.7376 16.4785 14.7322 16.5357 14.7818 16.6857C14.9041 17.0556 15.2165 17.1081 15.8077 16.8581C17.9244 15.9627 19.48 14.0475 19.985 11.7151C20.1328 11.0327 20.145 9.70011 20.0099 9.02361C19.8161 8.05387 19.4419 7.15136 18.8955 6.33596C18.5371 5.8012 17.7348 4.96756 17.2005 4.5747C16.7853 4.26951 15.8168 3.76179 15.3453 3.60221C14.3302 3.2586 13.2447 3.13525 12.2362 3.24899ZM12.6814 5.83485C12.5784 5.91571 12.4687 6.19381 12.1313 7.23023L11.7098 8.52469L10.2885 8.53958L8.8672 8.55452L8.71873 8.72051C8.55972 8.89818 8.53416 9.05528 8.63003 9.26527C8.66557 9.34313 9.13084 9.71831 9.77564 10.1891C10.3728 10.6251 10.8614 11.0125 10.8614 11.0498C10.8614 11.0872 10.686 11.6617 10.4716 12.3265C10.2573 12.9912 10.0816 13.5989 10.0813 13.6768C10.0805 13.8775 10.2543 14.0863 10.467 14.1401C10.6951 14.1979 10.7214 14.1828 12.0119 13.2521L13.0016 12.5384L14.061 13.3006C14.6437 13.7198 15.1813 14.0905 15.2556 14.1243C15.5381 14.2528 15.9198 13.9951 15.9185 13.6768C15.9182 13.5989 15.7425 12.9912 15.5282 12.3265C15.3138 11.6617 15.1384 11.0875 15.1384 11.0504C15.1384 11.0134 15.6264 10.6272 16.223 10.1923C16.882 9.7118 17.3315 9.34908 17.3686 9.26787C17.4656 9.05527 17.4406 8.89879 17.2811 8.72051L17.1326 8.55452L15.7113 8.53958L14.29 8.52469L13.8685 7.23023C13.4061 5.80994 13.3619 5.73386 12.9999 5.73386C12.8875 5.73386 12.7575 5.77508 12.6814 5.83485ZM13.2237 8.5164C13.4602 9.24063 13.5419 9.42349 13.653 9.47726C13.6998 9.49992 14.1011 9.53026 14.5446 9.5447L15.3511 9.57097L14.7356 10.019C14.397 10.2655 14.0971 10.5098 14.0691 10.562C13.9807 10.7268 14.0124 10.9374 14.2253 11.6024C14.3393 11.9581 14.4245 12.2571 14.4148 12.2668C14.4051 12.2765 14.1265 12.0913 13.7957 11.8552C12.999 11.2867 13.0079 11.2867 12.2086 11.8563C11.8765 12.0929 11.5963 12.2781 11.586 12.2679C11.5757 12.2576 11.6605 11.9581 11.7744 11.6024C11.9955 10.9121 12.0233 10.6949 11.9112 10.5352C11.8724 10.4801 11.5732 10.2406 11.2462 10.003L10.6516 9.57097L11.4566 9.5447C11.8994 9.53026 12.3 9.49992 12.3468 9.47726C12.4579 9.42349 12.5396 9.24063 12.7761 8.5164C12.8833 8.18794 12.9841 7.91924 12.9999 7.91924C13.0157 7.91924 13.1164 8.18794 13.2237 8.5164ZM12.816 16.4545C12.6632 16.5189 12.4907 16.7545 12.4907 16.8988C12.4907 17.062 12.6208 17.3057 12.7425 17.3707C12.7964 17.3995 12.9122 17.4231 12.9999 17.4231C13.2129 17.4231 13.3394 17.349 13.4322 17.17C13.5454 16.9513 13.5265 16.783 13.369 16.6106C13.2187 16.446 12.9898 16.3813 12.816 16.4545ZM6.2602 18.4179C6.38565 18.5396 6.64135 18.7144 6.82847 18.8062C7.16716 18.9725 7.1719 18.9732 7.93304 18.9732C8.60294 18.9732 8.71796 18.9855 8.86297 19.0731C8.95396 19.128 9.02845 19.1942 9.02845 19.2202C9.02845 19.2462 8.39449 20.3636 7.61965 21.7034C6.71656 23.2649 6.19732 24.115 6.17313 24.0718C6.15236 24.0348 6.02542 23.5814 5.89106 23.0643C5.62141 22.0265 5.52085 21.8446 5.21652 21.8446C5.1319 21.8446 4.63567 21.961 4.11378 22.1031C3.59189 22.2453 3.1531 22.3498 3.13859 22.3353C3.11552 22.3123 5.60002 17.9631 5.73658 17.7874C5.77716 17.7352 5.81713 17.7745 5.91066 17.9582C5.97746 18.0893 6.13474 18.2962 6.2602 18.4179ZM21.6024 20.0821C22.3092 21.3069 22.8759 22.3208 22.8616 22.335C22.8473 22.3493 22.4099 22.2448 21.8896 22.1028C21.3693 21.9608 20.8729 21.8446 20.7865 21.8446C20.4785 21.8446 20.3792 22.0234 20.1087 23.0643C19.9744 23.5814 19.8474 24.0348 19.8267 24.0718C19.8025 24.115 19.2832 23.2649 18.3801 21.7034C17.6053 20.3636 16.9713 19.2462 16.9713 19.2202C16.9713 19.1942 17.0458 19.128 17.1368 19.0731C17.2818 18.9855 17.3968 18.9732 18.066 18.9732C18.8148 18.9732 18.8363 18.9701 19.1633 18.8154C19.5457 18.6345 19.9621 18.2425 20.1029 17.9308C20.1774 17.7658 20.2088 17.737 20.2569 17.7894C20.2901 17.8255 20.8956 18.8572 21.6024 20.0821Z" fill="#1A2B51"/>
</g>
</svg>
