<svg width="26" height="30" viewBox="0 0 26 30" fill="none" xmlns="http://www.w3.org/2000/svg">
<path fill-rule="evenodd" clip-rule="evenodd" d="M10.239 0.0795757C9.68487 0.237966 9.06746 0.739996 8.82543 1.22895C8.66813 1.54667 8.39542 1.79795 8.09889 1.89828C7.86566 1.97722 7.7555 1.98144 7.39249 1.92538C6.59946 1.80287 5.81841 2.0728 5.31093 2.64485C4.95644 3.04437 4.78181 3.44243 4.71095 4.01249C4.6793 4.26717 4.62617 4.55961 4.59296 4.66229C4.50242 4.94213 4.14632 5.23469 3.72051 5.37907C2.99938 5.62355 2.5338 6.04066 2.21689 6.72606C1.96904 7.26222 1.96093 7.89778 2.19352 8.56635C2.45333 9.31315 2.39739 9.5571 1.82527 10.173C1.5917 10.4244 1.35917 10.7457 1.26909 10.9415C1.13049 11.2428 1.11432 11.3454 1.11432 11.9231C1.11432 12.5232 1.12635 12.5923 1.28699 12.9165C1.38196 13.1081 1.61219 13.4247 1.79856 13.6202C2.16434 14.0037 2.34852 14.339 2.35053 14.625C2.35122 14.7242 2.28429 15.0013 2.20181 15.2408C2.00335 15.8166 1.96985 16.2314 2.08479 16.6886C2.32049 17.6259 2.79505 18.1062 3.86688 18.4919C4.01952 18.5468 4.20491 18.6483 4.27887 18.7173L4.41327 18.8428L2.74595 21.7748C-0.207941 26.9695 -0.0186927 26.6188 0.0143452 26.8379C0.0512969 27.0823 0.141432 27.1952 0.381157 27.2973C0.556534 27.372 0.666526 27.3504 2.05032 26.97C2.8651 26.746 3.58013 26.5542 3.6393 26.5438C3.73421 26.527 3.79568 26.7129 4.16324 28.1272C4.45206 29.2386 4.61489 29.7656 4.69472 29.8469C4.86993 30.0253 5.2239 30.0529 5.41102 29.9026C5.49753 29.8331 6.36814 28.3592 7.42098 26.4999L9.27841 23.2198L9.53229 23.3977C9.92512 23.6731 10.3607 23.8053 10.8715 23.8041C11.3859 23.8029 11.6839 23.7045 12.2768 23.3399C12.6199 23.1288 12.7216 23.0943 12.9999 23.0943C13.2782 23.0943 13.3799 23.1288 13.723 23.3399C14.3166 23.705 14.6246 23.8072 15.1306 23.8072C15.6327 23.8072 16.0776 23.671 16.4669 23.3981L16.7202 23.2206L18.5787 26.5007C19.6263 28.3497 20.5036 29.8342 20.5893 29.903C20.7759 30.0529 21.1301 30.0251 21.305 29.8469C21.3849 29.7656 21.5477 29.2386 21.8365 28.1272C22.2041 26.7129 22.2656 26.527 22.3605 26.5438C22.4196 26.5542 23.1347 26.746 23.9494 26.97C25.3332 27.3504 25.4432 27.372 25.6186 27.2973C25.8583 27.1952 25.9485 27.0823 25.9854 26.8379C26.0185 26.6189 26.2114 26.9766 23.2542 21.7748L21.5872 18.8428L21.7399 18.7107C21.8238 18.638 22.009 18.5366 22.1515 18.4853C22.7249 18.2787 22.9939 18.1255 23.2779 17.8436C23.9721 17.1547 24.1477 16.2627 23.7929 15.2281C23.7132 14.9956 23.6485 14.7242 23.6492 14.625C23.6512 14.339 23.8354 14.0037 24.2012 13.6202C24.3876 13.4247 24.6178 13.1081 24.7128 12.9165C24.8734 12.5923 24.8854 12.5232 24.8854 11.9231C24.8854 11.3454 24.8693 11.2428 24.7307 10.9415C24.6406 10.7457 24.4081 10.4244 24.1745 10.173C23.6024 9.5571 23.5464 9.31315 23.8062 8.56635C24.0388 7.89778 24.0307 7.26222 23.7829 6.72606C23.466 6.04066 23.0004 5.62355 22.2793 5.37907C21.8534 5.23469 21.4973 4.94213 21.4068 4.66229C21.3736 4.55961 21.3205 4.26717 21.2888 4.01249C21.218 3.44243 21.0433 3.04437 20.6888 2.64485C20.1813 2.0728 19.4003 1.80287 18.6073 1.92538C17.8974 2.03498 17.5071 1.83349 17.1291 1.16233C16.512 0.0664985 15.0684 -0.332498 14.0246 0.30429C13.206 0.80374 12.9634 0.847017 12.4778 0.580081C11.5658 0.0788133 11.4586 0.0377056 10.9997 0.0133694C10.7077 -0.00217063 10.4451 0.0206996 10.239 0.0795757ZM11.6533 1.47577C12.2204 1.82 12.4554 1.89277 12.9999 1.89277C13.5433 1.89277 13.7795 1.81988 14.3416 1.4787C15.1891 0.964183 15.7727 1.09331 16.2228 1.89488C16.728 2.79456 17.6523 3.25771 18.6332 3.10266C19.5387 2.95952 20.0792 3.37728 20.1662 4.28746C20.2666 5.34001 20.8106 6.10224 21.683 6.41321C22.2329 6.60925 22.4386 6.73334 22.6077 6.97124C22.8696 7.33946 22.8896 7.63917 22.691 8.21708C22.5566 8.60846 22.5267 8.79042 22.5304 9.19622C22.5366 9.89769 22.6856 10.262 23.1864 10.8012C23.6595 11.3107 23.7631 11.5068 23.7631 11.8927C23.7631 12.2989 23.6617 12.5054 23.2527 12.9326C22.5033 13.7152 22.3202 14.592 22.6951 15.6042C22.88 16.1035 22.8799 16.309 22.6942 16.6886C22.5296 17.0252 22.3395 17.1705 21.8309 17.3488C20.8871 17.6796 20.318 18.3662 20.1911 19.327C20.0981 20.0305 20.0764 20.103 19.8949 20.3135C19.7966 20.4276 19.6142 20.5739 19.4897 20.6387C19.2862 20.7444 19.1975 20.7523 18.6171 20.7159C18.0943 20.6831 17.9059 20.6943 17.6294 20.7746C16.9999 20.9575 16.5697 21.3336 16.0919 22.1189C15.8996 22.435 15.5392 22.6349 15.1618 22.6349C14.824 22.6349 14.7191 22.5969 14.3056 22.3246C13.8719 22.0389 13.4912 21.9214 12.9999 21.9214C12.5044 21.9214 12.1275 22.0392 11.6797 22.3342C11.4806 22.4653 11.2105 22.5925 11.0796 22.617C10.5976 22.707 10.1251 22.4951 9.88051 22.0792C9.45614 21.3575 8.98976 20.9546 8.37033 20.7746C8.09388 20.6943 7.90549 20.6831 7.38264 20.7159C6.80224 20.7523 6.7136 20.7444 6.51008 20.6387C6.38552 20.5739 6.20312 20.4276 6.10482 20.3135C5.9234 20.103 5.90164 20.0305 5.80868 19.327C5.68177 18.3662 5.11265 17.6796 4.16882 17.3488C3.66025 17.1705 3.47014 17.0252 3.30558 16.6886C3.1199 16.309 3.11973 16.1035 3.30466 15.6042C3.67953 14.592 3.4965 13.7152 2.74705 12.9326C2.33804 12.5054 2.23669 12.2989 2.23669 11.8927C2.23669 11.5068 2.34029 11.3107 2.81341 10.8012C3.31416 10.262 3.46311 9.89769 3.46939 9.19622C3.47301 8.79042 3.4432 8.60846 3.30875 8.21708C3.11017 7.63917 3.1302 7.33946 3.39203 6.97124C3.56119 6.73334 3.7669 6.60925 4.3168 6.41321C5.18672 6.10312 5.73317 5.3396 5.83292 4.29479C5.92173 3.36403 6.43519 2.97072 7.38805 3.10354C7.76995 3.15673 7.91557 3.15169 8.24151 3.07375C8.89133 2.91841 9.42748 2.51232 9.75861 1.92479C9.96731 1.55441 10.1155 1.39854 10.381 1.26988C10.7549 1.08874 11.1106 1.14632 11.6533 1.47577ZM12.1365 3.74883C8.66168 4.14871 5.84328 6.76154 5.10511 10.2674C4.91851 11.1536 4.91839 12.6767 5.10493 13.5287C5.70215 16.2566 7.42472 18.4099 9.85144 19.4619C10.493 19.7401 10.849 19.6744 10.9856 19.2527C11.0416 19.0798 11.0355 19.013 10.9468 18.8306C10.8548 18.6414 10.7717 18.5833 10.2919 18.3732C7.87896 17.3166 6.26247 14.9568 6.11454 12.2749C5.92184 8.78075 8.26223 5.73444 11.7048 4.99854C12.277 4.87628 13.5518 4.86056 14.151 4.9684C16.8991 5.46304 19.0395 7.51409 19.719 10.3038C19.8499 10.8413 19.871 11.054 19.8735 11.8644C19.8758 12.5682 19.8499 12.9272 19.7699 13.3011C19.2832 15.5775 17.7806 17.4552 15.7101 18.3746C15.2335 18.5863 15.1439 18.6488 15.0529 18.8335C14.9643 19.0136 14.9581 19.0797 15.0142 19.2527C15.1525 19.6796 15.5056 19.7401 16.1739 19.4516C18.5668 18.4185 20.3252 16.2086 20.8961 13.5174C21.0631 12.73 21.077 11.1924 20.9242 10.4119C20.7051 9.29292 20.2821 8.25157 19.6644 7.31072C19.2593 6.69369 18.3524 5.7318 17.7483 5.2785C17.2791 4.92636 16.1842 4.34053 15.6513 4.15639C14.5037 3.75992 13.2766 3.61759 12.1365 3.74883ZM12.6398 6.73252C12.5234 6.82581 12.3994 7.1467 12.018 8.34258L11.5416 9.83618L9.93484 9.85336L8.32814 9.8706L8.1603 10.0621C7.98055 10.2671 7.95165 10.4484 8.06003 10.6907C8.10021 10.7805 8.62617 11.2134 9.35507 11.7567C10.0302 12.2598 10.5825 12.7067 10.5825 12.7498C10.5825 12.7929 10.3842 13.4558 10.1418 14.2229C9.8995 14.9899 9.70093 15.6911 9.70059 15.781C9.69967 16.0125 9.89617 16.2534 10.1366 16.3155C10.3944 16.3822 10.4242 16.3647 11.883 15.2908L13.0018 14.4674L14.1994 15.3468C14.8581 15.8306 15.4658 16.2582 15.5498 16.2972C15.8692 16.4455 16.3006 16.1482 16.2992 15.781C16.2988 15.6911 16.1003 14.9899 15.8579 14.2229C15.6156 13.4558 15.4173 12.7932 15.4173 12.7505C15.4173 12.7077 15.969 12.2622 16.6434 11.7604C17.3884 11.2059 17.8964 10.7874 17.9384 10.6937C18.0481 10.4484 18.0198 10.2678 17.8395 10.0621L17.6716 9.8706L16.0649 9.85336L14.4582 9.83618L13.9817 8.34258C13.459 6.70378 13.4091 6.61599 12.9999 6.61599C12.8728 6.61599 12.7259 6.66355 12.6398 6.73252ZM13.2528 9.82662C13.5202 10.6623 13.6126 10.8733 13.7382 10.9353C13.7911 10.9614 14.2447 10.9965 14.7461 11.0131L15.6578 11.0434L14.9619 11.5604C14.5792 11.8448 14.2402 12.1267 14.2086 12.1869C14.1087 12.3771 14.1444 12.6201 14.3852 13.3874C14.514 13.7978 14.6103 14.1428 14.5993 14.154C14.5883 14.1652 14.2734 13.9515 13.8994 13.6791C12.9988 13.0232 13.009 13.0231 12.1054 13.6803C11.7299 13.9534 11.4133 14.1671 11.4016 14.1552C11.3899 14.1433 11.4858 13.7978 11.6146 13.3874C11.8645 12.5909 11.8959 12.3403 11.7691 12.156C11.7253 12.0924 11.3871 11.816 11.0174 11.5419L10.3453 11.0434L11.2553 11.0131C11.7558 10.9965 12.2086 10.9614 12.2616 10.9353C12.3872 10.8733 12.4796 10.6623 12.7469 9.82662C12.8681 9.44762 12.982 9.13758 12.9999 9.13758C13.0178 9.13758 13.1316 9.44762 13.2528 9.82662ZM12.792 18.986C12.6193 19.0603 12.4243 19.3321 12.4243 19.4987C12.4243 19.6869 12.5713 19.9681 12.7089 20.0431C12.7698 20.0764 12.9008 20.1035 12.9999 20.1035C13.2407 20.1035 13.3837 20.0181 13.4885 19.8115C13.6165 19.5592 13.5951 19.365 13.4172 19.166C13.2473 18.9761 12.9884 18.9015 12.792 18.986ZM5.38109 21.2515C5.52291 21.3919 5.81197 21.5935 6.02349 21.6995C6.40636 21.8913 6.41171 21.8921 7.27213 21.8921C8.02941 21.8921 8.15944 21.9064 8.32336 22.0074C8.42621 22.0708 8.51042 22.1472 8.51042 22.1772C8.51042 22.2072 7.79377 23.4965 6.91787 25.0423C5.89698 26.8442 5.31001 27.8251 5.28267 27.7752C5.25919 27.7325 5.1157 27.2093 4.9638 26.6127C4.65898 25.4152 4.5453 25.2054 4.20129 25.2054C4.10563 25.2054 3.54467 25.3396 2.95471 25.5036C2.36475 25.6677 1.86872 25.7883 1.85232 25.7715C1.82625 25.745 4.63481 20.7266 4.78917 20.5239C4.83505 20.4637 4.88023 20.509 4.98596 20.721C5.06148 20.8723 5.23927 21.111 5.38109 21.2515ZM22.7245 23.1716C23.5235 24.5849 24.164 25.7547 24.1478 25.7711C24.1317 25.7876 23.6373 25.667 23.0491 25.5032C22.4609 25.3394 21.8998 25.2054 21.8022 25.2054C21.4539 25.2054 21.3417 25.4116 21.036 26.6127C20.8841 27.2093 20.7406 27.7325 20.7171 27.7752C20.6898 27.8251 20.1028 26.8442 19.0819 25.0423C18.206 23.4965 17.4893 22.2072 17.4893 22.1772C17.4893 22.1472 17.5735 22.0708 17.6764 22.0074C17.8403 21.9064 17.9703 21.8921 18.7268 21.8921C19.5732 21.8921 19.5976 21.8885 19.9672 21.71C20.3994 21.5014 20.8702 21.049 21.0293 20.6894C21.1136 20.499 21.1491 20.4658 21.2034 20.5262C21.241 20.5679 21.9254 21.7584 22.7245 23.1716Z" fill="#1A2B51"/>
</svg>
