<svg width="16" height="17" viewBox="0 0 16 17" fill="none" xmlns="http://www.w3.org/2000/svg">
<path d="M7.74113 0.061162C7.60171 0.130871 7.58843 0.154108 7.14694 1.05037C6.90129 1.55494 6.66229 2.04623 6.61913 2.13917C6.57598 2.23544 6.52951 2.31511 6.51623 2.31511C6.49963 2.31511 5.96187 2.39809 5.32121 2.49436C4.04652 2.69021 3.97349 2.71345 3.87059 2.92589C3.80088 3.07527 3.8042 3.301 3.87722 3.4371C3.9071 3.49685 4.3154 3.89187 4.78013 4.31345C5.43075 4.90764 5.62328 5.10017 5.61664 5.14996C5.61001 5.1898 5.51706 5.73088 5.40752 6.35826C5.18179 7.65951 5.18179 7.67279 5.41747 7.87196C5.66644 8.08772 5.70295 8.07777 6.93781 7.44374L8.00005 6.89602L9.01914 7.45038L10.0415 8.00474L10.2739 8.00806C10.4465 8.00806 10.5328 7.99146 10.5992 7.94831C10.7254 7.86532 10.8216 7.69934 10.8216 7.55992C10.8216 7.49685 10.732 6.92922 10.6225 6.29519L10.4233 5.14L11.0108 4.56573C11.3362 4.24706 11.7113 3.88523 11.8474 3.75909C11.9801 3.62963 12.1129 3.48025 12.1362 3.4205C12.1992 3.27776 12.1959 3.06531 12.1295 2.92589C12.0266 2.71013 11.9503 2.68689 10.6789 2.49436C10.0349 2.39477 9.50047 2.31511 9.48719 2.31511C9.47391 2.31511 9.44071 2.26531 9.41416 2.20556C9.39092 2.14913 9.15192 1.65784 8.88636 1.12008C8.35856 0.0445642 8.35192 0.0379252 8.0432 0.00473022C7.92038 -0.00854778 7.85067 0.00473022 7.74113 0.061162Z" fill="#1A2B51"/>
<path d="M5.20911 9.10017C4.96347 9.26615 4.97675 9.06698 4.98671 12.5624C4.99667 15.6761 4.99667 15.6894 5.06638 15.7823C5.10289 15.8321 5.18588 15.9085 5.24563 15.9516L5.35517 16.0247H8.00082H10.6465L10.756 15.9516C10.8158 15.9085 10.8987 15.8321 10.9353 15.7823C11.005 15.6894 11.005 15.6827 11.005 12.5126C11.005 9.47528 11.0016 9.33254 10.9419 9.24623C10.9087 9.19644 10.8324 9.12341 10.7726 9.08689C10.6664 9.0205 10.6166 9.0205 7.9975 9.0205H5.32862L5.20911 9.10017Z" fill="#1A2B51"/>
<path d="M0.378424 11.374C0.245643 11.4072 0.139419 11.4836 0.0630706 11.5998C0.0033195 11.6861 0 11.8022 0 13.6844C0 15.613 0.0033195 15.6794 0.0663901 15.7857C0.102905 15.8454 0.179253 15.9218 0.239004 15.9583C0.345229 16.0213 0.411619 16.0247 2.23403 16.0247C4.0166 16.0247 4.11951 16.0213 4.10291 15.9649C4.02656 15.7193 4.0166 15.4371 4.0166 13.4753V11.3442L2.25062 11.3475C1.27801 11.3508 0.434855 11.3608 0.378424 11.374Z" fill="#1A2B51"/>
<path d="M11.9842 13.8072C11.9842 15.4504 11.9709 15.7226 11.8979 15.9649C11.8813 16.0213 11.9842 16.0247 13.7668 16.0247C15.5892 16.0247 15.6556 16.0213 15.7618 15.9583C15.8215 15.9218 15.8979 15.8454 15.9344 15.7857C15.9975 15.6794 16.0008 15.613 16.0008 14.013V12.35L15.9244 12.2371C15.7684 12.0014 15.8282 12.0081 13.8033 12.0081H11.9842V13.8072Z" fill="#1A2B51"/>
</svg>
