<svg width="22" height="22" viewBox="0 0 22 22" fill="none" xmlns="http://www.w3.org/2000/svg">
<circle cx="11" cy="11" r="11" fill="#1A2B51"/>
<path fill-rule="evenodd" clip-rule="evenodd" d="M16.2755 6.31842C16.0039 6.40398 15.9955 6.41188 12.5467 9.83466L9.15333 13.2025L7.61787 11.6794C6.19162 10.2647 6.07005 10.1506 5.9089 10.0757C5.49927 9.88529 5.06365 9.94545 4.73866 10.2373C4.48082 10.4689 4.35337 10.8373 4.4154 11.1717C4.47891 11.5141 4.43902 11.4695 6.58004 13.5913C8.45292 15.4473 8.56887 15.5571 8.72741 15.6258C8.92818 15.7128 9.20605 15.7393 9.39192 15.6892C9.70605 15.6046 9.5715 15.7312 13.5935 11.7336C17.7602 7.59214 17.5222 7.84578 17.5855 7.47861C17.6732 6.97033 17.3522 6.47537 16.8334 6.31896C16.6873 6.27492 16.4145 6.27466 16.2755 6.31842Z" fill="white"/>
</svg>
