<svg width="28" height="28" viewBox="0 0 28 28" fill="none" xmlns="http://www.w3.org/2000/svg">
<circle cx="14" cy="14" r="14" fill="#EC4648" fill-opacity="0.2"/>
<circle cx="14" cy="14" r="11" fill="#EC4648"/>
<path fill-rule="evenodd" clip-rule="evenodd" d="M9.89555 18.9727C9.62165 18.9134 9.36577 18.7364 9.19867 18.4908C8.96197 18.1428 8.93531 17.7106 9.12659 17.3225C9.19576 17.1822 9.26668 17.1079 10.783 15.5879L12.3671 13.9999L10.783 12.4119C9.26653 10.8918 9.19578 10.8177 9.12661 10.6773C8.86311 10.1427 9.0215 9.5303 9.50907 9.19867C9.85708 8.96196 10.2893 8.93531 10.6773 9.12659C10.8176 9.19576 10.8919 9.26669 12.4119 10.783L13.9999 12.3672L15.5879 10.783C17.1079 9.26669 17.1821 9.19576 17.3224 9.12659C17.7063 8.93736 18.1377 8.96191 18.4826 9.19261C18.977 9.52333 19.1388 10.1384 18.8732 10.6773C18.804 10.8176 18.7331 10.8919 17.2168 12.4119L15.6326 13.9999L17.2168 15.5879C18.7332 17.1081 18.804 17.1822 18.8732 17.3225C19.1367 17.8572 18.9783 18.4695 18.4907 18.8012C18.1433 19.0375 17.7144 19.0643 17.3224 18.8741C17.1812 18.8056 17.1178 18.745 15.5879 17.2179L13.9999 15.6327L12.4119 17.2168C10.8917 18.7333 10.8177 18.8041 10.6773 18.8732C10.4272 18.9965 10.1614 19.0303 9.89555 18.9727Z" fill="white"/>
</svg>
