<svg width="39" height="39" viewBox="0 0 39 39" fill="none" xmlns="http://www.w3.org/2000/svg">
<rect width="39" height="39" rx="19.5" fill="#E3E3E3" fill-opacity="0.5"/>
<path fill-rule="evenodd" clip-rule="evenodd" d="M18.0999 11.0096C16.8736 11.1497 16.118 11.3586 15.2347 11.8018C14.4985 12.1712 13.9519 12.5574 13.353 13.1311C10.9401 15.4428 10.3104 19.05 11.8018 22.0175C13.4318 25.2608 17.051 26.913 20.5508 26.0115C21.5128 25.7637 22.3435 25.3551 23.3361 24.6416C23.3778 24.6117 23.7768 24.9867 25.0324 26.2364C26.8441 28.0393 26.8401 28.0362 27.2578 27.9868C27.7831 27.9246 28.1086 27.4242 27.9667 26.8969C27.9199 26.7232 27.7836 26.5755 26.2611 25.048C25.0008 23.7836 24.6157 23.375 24.6456 23.3339C25.422 22.2667 25.8765 21.2758 26.1194 20.1202C26.2468 19.5139 26.2949 18.3738 26.2191 17.7587C26.0858 16.678 25.724 15.6049 25.2023 14.7432C24.3998 13.4177 23.3132 12.4248 21.9394 11.7619C21.1889 11.3997 20.5684 11.205 19.7797 11.0842C19.3941 11.0251 18.3642 10.9794 18.0999 11.0096ZM19.8213 12.8108C21.3824 13.1419 22.6788 14.0105 23.5535 15.3111C24.9057 17.3218 24.9093 19.9024 23.5626 21.9358C23.2052 22.4755 22.4771 23.2028 21.9365 23.5602C20.8067 24.3069 19.4924 24.6489 18.1674 24.5407C16.0755 24.37 14.2699 23.1615 13.3391 21.3094C11.9603 18.5658 12.8696 15.2579 15.4578 13.6022C16.1088 13.1857 17.0363 12.8521 17.8645 12.7365C18.2968 12.6761 19.3805 12.7173 19.8213 12.8108Z" fill="#A5A5A5"/>
</svg>
