<svg width="13" height="7" viewBox="0 0 13 7" fill="none" xmlns="http://www.w3.org/2000/svg">
<path fill-rule="evenodd" clip-rule="evenodd" d="M0.0482197 1.26919C0.0919131 1.37201 0.450326 1.70994 3.08905 4.13622C5.504 6.35674 6.10484 6.89745 6.20739 6.94246C6.301 6.98354 6.37782 6.99819 6.49953 6.99819C6.83442 6.99819 6.62774 7.17064 9.91976 4.1446C12.7709 1.5238 12.8977 1.40368 12.9491 1.27425C13.0173 1.10256 13.017 0.967667 12.9481 0.798447C12.9025 0.686474 12.8446 0.619192 12.5988 0.392258C12.2349 0.0563616 12.148 0.0105733 11.8723 0.00970979C11.7242 0.00924345 11.6415 0.0210981 11.5675 0.0533971C11.4985 0.0834326 10.6666 0.83077 8.98261 2.37536L6.4994 4.65303L4.01629 2.37413C2.65059 1.12074 1.4932 0.0767817 1.4443 0.0542139C1.3954 0.03167 1.27379 0.00835652 1.17404 0.00240512C0.894831 -0.0142346 0.767967 0.0492901 0.400612 0.389645C0.154506 0.617675 0.0970699 0.684723 0.0512172 0.797607C-0.0160757 0.963163 -0.017041 1.11558 0.0482197 1.26919Z" fill="#BABABA"/>
</svg>
