<svg width="16" height="16" viewBox="0 0 16 16" fill="none" xmlns="http://www.w3.org/2000/svg">
<path fill-rule="evenodd" clip-rule="evenodd" d="M6.47114 0.05709C6.21445 0.137392 5.99188 0.297213 5.84739 0.504909C5.72933 0.674549 5.6853 0.818172 5.45768 1.77576L5.37222 2.13536L4.99958 2.31563C4.79464 2.41476 4.4856 2.58609 4.31286 2.69632L3.99874 2.89676L3.33455 2.69463C2.56994 2.46191 2.33849 2.42861 2.04717 2.50944C1.81896 2.57277 1.54524 2.73787 1.43417 2.87918C1.25517 3.10692 0.101507 5.05617 0.0527193 5.21334C-0.0162516 5.43548 -0.013958 5.63617 0.0601898 5.8635C0.149999 6.13887 0.243806 6.24972 0.821654 6.76333L1.34937 7.23238L1.35032 7.9985L1.35127 8.76462L0.823129 9.23367C0.532632 9.49164 0.2576 9.75184 0.211893 9.81188C0.10534 9.95188 0 10.2773 0 10.4665C0 10.5475 0.0237548 10.6903 0.0528176 10.7837C0.126638 11.021 1.35085 13.0325 1.52064 13.1955C1.59436 13.2663 1.75048 13.3677 1.86762 13.4209C2.05985 13.5083 2.1093 13.5173 2.37548 13.514C2.64406 13.5108 2.72974 13.4921 3.33613 13.3049L4.00188 13.0993L4.31178 13.2984C4.48219 13.4079 4.78713 13.5779 4.98939 13.676C5.19162 13.7742 5.36184 13.8583 5.36757 13.8629C5.37334 13.8674 5.44929 14.1716 5.53638 14.5387C5.62344 14.9059 5.7119 15.2485 5.73297 15.3001C5.79889 15.4616 6.01636 15.7081 6.18149 15.8084C6.49797 16.0007 6.56393 16.0072 8.0823 15.9971L9.45432 15.988L9.67214 15.8856C9.92542 15.7666 10.1887 15.5125 10.2702 15.3084C10.2996 15.235 10.393 14.8812 10.478 14.5221L10.6323 13.8692L10.9962 13.6919C11.1963 13.5943 11.5071 13.4211 11.6869 13.3068L12.0138 13.0991L12.6828 13.3059C13.2971 13.4957 13.376 13.5129 13.6474 13.5152C13.918 13.5174 13.9615 13.509 14.1613 13.4151C14.2991 13.3503 14.4318 13.2566 14.5211 13.1609C14.6758 12.9951 15.8905 10.9989 15.9594 10.7972C16.0244 10.6071 16.0096 10.2643 15.9276 10.0596C15.8279 9.81057 15.7402 9.71288 15.1725 9.21875L14.6669 8.77863V7.9985V7.21837L15.1715 6.77797C15.7158 6.30282 15.857 6.14109 15.9453 5.8919C16.0153 5.69418 16.0143 5.34548 15.9433 5.15777C15.8588 4.93453 14.6739 3.00045 14.5211 2.83634C14.4316 2.74022 14.2996 2.64688 14.1613 2.58193C13.9619 2.48821 13.9175 2.47949 13.6474 2.4813C13.3752 2.48312 13.299 2.49963 12.6824 2.69028L12.0129 2.89729L11.6864 2.68987C11.5069 2.5758 11.1965 2.40275 10.9967 2.30535L10.6334 2.12823L10.4806 1.48025C10.3965 1.12384 10.3028 0.769891 10.2724 0.693686C10.1887 0.484802 9.92764 0.231452 9.67214 0.111375L9.45432 0.00899665L8.06104 0.00227359C6.75312 -0.0040117 6.65567 -0.000665794 6.47114 0.05709ZM9.27342 1.04188C9.29629 1.06821 9.39963 1.44736 9.50301 1.88448C9.61759 2.36892 9.71775 2.72052 9.75949 2.78503C9.83213 2.89716 9.89635 2.93447 10.2883 3.09226C10.6259 3.22816 10.9787 3.42606 11.3686 3.69824C11.5823 3.84737 11.7408 3.93486 11.8204 3.94756C11.9188 3.96325 12.1076 3.91747 12.7771 3.71572C13.236 3.57747 13.6359 3.46434 13.666 3.46434C13.696 3.46434 13.7354 3.48194 13.7534 3.50343C13.7916 3.54889 14.8406 5.27653 14.9199 5.42457C14.9492 5.47935 14.9644 5.54611 14.9537 5.57288C14.9429 5.59965 14.6471 5.87664 14.2962 6.18846C13.9453 6.50029 13.6347 6.80239 13.606 6.8598C13.5605 6.95098 13.5587 7.00702 13.5921 7.30155C13.6408 7.72983 13.641 8.26508 13.5928 8.68994C13.5581 8.99545 13.5601 9.03138 13.6173 9.14233C13.6558 9.21697 13.9144 9.47141 14.297 9.8111C14.6367 10.1127 14.9284 10.3837 14.9453 10.4134C14.9667 10.4509 14.9592 10.4988 14.9208 10.5698C14.8357 10.7271 13.7907 12.4493 13.7534 12.4936C13.7354 12.5151 13.6966 12.5326 13.6673 12.5325C13.6379 12.5325 13.2413 12.4199 12.7858 12.2824C12.3302 12.1448 11.928 12.0323 11.8919 12.0323C11.7746 12.0323 11.6212 12.1131 11.304 12.3419C11.1022 12.4875 10.8257 12.6439 10.5176 12.7868C9.81945 13.1105 9.81844 13.1111 9.75176 13.2187C9.71798 13.2733 9.6053 13.6762 9.50137 14.1141C9.39747 14.552 9.29429 14.9311 9.27211 14.9566C9.23777 14.9961 9.05009 15.003 8.01219 15.003C6.89175 15.003 6.78847 14.9986 6.74201 14.9483C6.71419 14.9182 6.60731 14.5349 6.50449 14.0964C6.40164 13.658 6.30551 13.278 6.29083 13.2521C6.23139 13.147 6.0924 13.0595 5.77317 12.9263C5.37888 12.7617 4.99035 12.543 4.6045 12.2685C4.43766 12.1497 4.27858 12.0623 4.20588 12.0493C4.1068 12.0315 3.92849 12.0744 3.21987 12.2865C2.55733 12.4848 2.34193 12.5378 2.29963 12.5128C2.26926 12.4949 1.97309 12.033 1.64147 11.4865C1.13057 10.6446 1.04302 10.482 1.06808 10.4215C1.08433 10.3822 1.3803 10.1022 1.72578 9.79934C2.46611 9.15033 2.48361 9.12382 2.42709 8.73604C2.38171 8.42462 2.38171 7.57238 2.42709 7.26096C2.48361 6.87318 2.46611 6.84667 1.72578 6.19766C1.3803 5.89481 1.0842 5.61453 1.06779 5.57485C1.04239 5.51337 1.12732 5.35558 1.64118 4.5096C1.97296 3.96344 2.26893 3.50214 2.29888 3.48454C2.34006 3.46031 2.56418 3.51556 3.21811 3.71115C3.92888 3.92373 4.10457 3.96591 4.2046 3.94799C4.27934 3.93461 4.4412 3.84465 4.6239 3.71497C5.01934 3.43426 5.36518 3.24079 5.77389 3.07165C6.29034 2.85789 6.27258 2.88631 6.50374 1.90424C6.61059 1.45039 6.71806 1.05989 6.74253 1.0365C6.77851 1.0022 7.02281 0.994004 8.00943 0.994004C9.0669 0.994004 9.23738 1.00045 9.27342 1.04188ZM7.7326 4.67258C7.68755 4.6789 7.54302 4.69923 7.41144 4.71777C7.09856 4.76186 6.67278 4.90085 6.36085 5.06071C5.50532 5.49918 4.89316 6.23643 4.62711 7.1487C4.54674 7.42429 4.53887 7.50009 4.53887 7.9985C4.53887 8.49532 4.5469 8.57309 4.6259 8.84279C5.02685 10.2118 6.17812 11.1495 7.65989 11.3138C8.06255 11.3585 8.54911 11.3168 8.96418 11.202C10.1528 10.8733 11.0702 9.97299 11.3935 8.81796C11.4686 8.54951 11.4784 8.45485 11.4784 7.9985C11.4784 7.54214 11.4686 7.44749 11.3935 7.17904C11.0701 6.02367 10.1541 5.12406 8.96654 4.79563C8.5785 4.68831 8.01877 4.6325 7.7326 4.67258ZM8.64026 5.74868C9.35176 5.92232 10.0047 6.48193 10.2802 7.15421C10.408 7.46616 10.4327 7.60246 10.4327 7.9985C10.4327 8.39453 10.408 8.53084 10.2802 8.84279C10.1528 9.15362 9.98757 9.38611 9.70173 9.65666C9.22024 10.1124 8.69649 10.3181 8.0111 10.3208C7.05649 10.3246 6.22903 9.83224 5.81609 9.01478C5.64214 8.67043 5.57009 8.3728 5.57009 7.9985C5.57009 7.01149 6.202 6.14684 7.16966 5.80981C7.64361 5.64474 8.13135 5.62444 8.64026 5.74868Z" fill="#A5A5A5"/>
</svg>
