<svg width="24" height="23" viewBox="0 0 24 23" fill="none" xmlns="http://www.w3.org/2000/svg">
<path d="M5.3645 5.71759L2.73732 8.32375C-0.224553 11.2855 -0.92891 16.3006 1.34623 19.6851C0.902596 20.1963 0.957513 20.9703 1.46876 21.4139C1.91526 21.8013 2.57472 21.8148 3.03669 21.4459C6.4176 23.9675 11.6404 23.3125 14.6902 20.2626L17.3175 17.6389C16.4264 16.1069 14.6761 13.7649 11.9503 11.0496C9.22438 8.33431 6.89656 6.5875 5.3645 5.71759Z" fill="#F4B183"/>
<path d="M22.7616 12.3597C22.7616 12.3245 22.7369 12.2858 22.7229 12.247C21.9833 10.4861 20.4372 8.02091 20.8669 5.96061C20.9359 5.54363 20.7949 5.1194 20.49 4.82666L20.2506 4.56245C21.2367 3.82643 22.0114 3.39675 22.4799 3.40033V1.28726C21.5183 1.28726 20.2083 1.96693 18.7432 3.06921L18.1939 2.51986C17.9018 2.21405 17.4764 2.07408 17.0598 2.14653C15.0031 2.57621 12.5273 1.03011 10.7734 0.290602L10.6607 0.251783C8.55461 -0.524306 6.21811 0.553831 5.44193 2.65992C5.28058 3.09792 5.19579 3.56043 5.19141 4.02722C8.17788 5.36546 12.33 9.45073 12.9393 10.0671C13.5486 10.6833 17.6444 14.8355 18.9792 17.815C21.2218 17.7977 23.0257 15.9659 23.0085 13.7233C23.005 13.258 22.9214 12.7968 22.7616 12.3597Z" fill="#F4B183"/>
</svg>
