<svg width="17" height="17" viewBox="0 0 17 17" fill="none" xmlns="http://www.w3.org/2000/svg">
<path d="M15.4915 0.153593C14.9127 0.053784 14.3265 0.0024123 13.7391 3.50318e-06C11.7351 -0.00163796 9.77285 0.573599 8.0863 1.65716C6.39542 0.587818 4.43348 0.026704 2.43347 0.040421C1.84611 0.0428298 1.25994 0.0942015 0.681092 0.194012C0.289372 0.261615 0.00505061 0.60451 0.0108333 1.00238V10.7028C0.00433345 11.1492 0.360575 11.5164 0.806526 11.5229C0.85649 11.5236 0.906415 11.5197 0.955667 11.5112C3.29353 11.106 5.6958 11.6628 7.61793 13.0552L7.71483 13.1118H7.80366C7.98455 13.1872 8.18804 13.1872 8.36893 13.1118H8.45778L8.55468 13.0552C10.4635 11.6315 12.867 11.0424 15.2169 11.4223C15.6564 11.4982 16.0742 11.2031 16.15 10.7632C16.1586 10.7139 16.1625 10.6639 16.1618 10.6139V0.91346C16.1445 0.533986 15.8655 0.217778 15.4915 0.153593ZM7.27875 10.8968C5.78469 10.1101 4.12166 9.69939 2.43347 9.70044C2.16698 9.70044 1.9005 9.70044 1.62593 9.70044V1.61674C1.89489 1.60121 2.16451 1.60121 2.43347 1.61674C4.15628 1.61484 5.84149 2.12092 7.27875 3.0718V10.8968ZM14.5467 9.73277C14.2721 9.73277 14.0056 9.73277 13.7391 9.73277C12.0509 9.73172 10.3879 10.1424 8.89384 10.9292V3.0718C10.3311 2.12092 12.0163 1.61484 13.7391 1.61674C14.0081 1.60123 14.2777 1.60123 14.5467 1.61674V9.73277ZM15.4915 13.0875C14.9127 12.9877 14.3265 12.9363 13.7391 12.9339C11.7351 12.9323 9.77285 13.5075 8.0863 14.5911C6.39974 13.5075 4.43751 12.9323 2.43347 12.9339C1.84611 12.9363 1.25994 12.9877 0.681092 13.0875C0.240613 13.1575 -0.059802 13.5717 0.0100984 14.0126C0.0103414 14.0141 0.0105824 14.0156 0.0108333 14.0171C0.0962722 14.4542 0.518753 14.7397 0.955667 14.6558C3.29353 14.2506 5.6958 14.8073 7.61793 16.1997C7.89829 16.3996 8.2743 16.3996 8.55468 16.1997C10.4768 14.8073 12.8791 14.2505 15.2169 14.6558C15.6538 14.7397 16.0763 14.4542 16.1618 14.0171C16.2342 13.5766 15.9361 13.1608 15.496 13.0882C15.4946 13.088 15.493 13.0878 15.4915 13.0875Z" fill="white"/>
</svg>
