<svg width="16" height="16" viewBox="0 0 16 16" fill="none" xmlns="http://www.w3.org/2000/svg">
<path d="M2.4827 0.041379C1.99805 0.160146 1.48525 0.566452 1.24761 1.01964C0.872386 1.73849 0.941176 2.62611 1.41646 3.20119C1.48525 3.28246 1.53527 3.35434 1.52902 3.36059C1.52277 3.36684 1.43522 3.42623 1.3289 3.49499C0.762947 3.86066 0.30643 4.48575 0.0969318 5.18897C0.0343952 5.39838 0.0250147 5.50464 0.0125073 6.30163L0 7.183L0.125073 7.31739L0.253273 7.45179L1.16318 7.46116L2.07309 7.47054L2.04808 7.67994C2.03557 7.79559 2.02306 8.19252 2.02306 8.56132C2.02619 9.3458 2.07622 9.67397 2.30448 10.3616C2.76725 11.7649 3.78034 13.0307 4.97166 13.6902C5.09674 13.7589 5.10612 13.7714 5.08736 13.8589C5.02482 14.1621 5.00606 14.4996 5.01544 15.0653C5.02482 15.6748 5.02795 15.7061 5.09674 15.8061C5.2437 16.0124 5.0811 15.9999 8.02032 15.9999H10.6906L10.7938 15.9311C10.8501 15.8905 10.9252 15.8092 10.9564 15.7498C11.0127 15.6467 11.0158 15.5873 11.0033 14.8591C10.9939 14.4028 10.9721 14.0121 10.9502 13.9214C10.922 13.812 10.922 13.7652 10.947 13.7558C11.0534 13.7214 11.76 13.2182 12.0039 12.9994C12.9513 12.1681 13.6549 10.9179 13.9238 9.59271C13.9863 9.28329 13.9957 9.13952 13.9988 8.56132C13.9988 8.19252 13.9863 7.79559 13.9738 7.67994L13.9488 7.47054L14.8556 7.46116L15.7655 7.45179L15.8812 7.33302L16 7.21738V6.33288C16 5.50777 15.9969 5.43588 15.9281 5.2046C15.8374 4.89206 15.6842 4.56076 15.5153 4.3076C15.3371 4.04194 14.9212 3.63563 14.6805 3.48561C14.571 3.41685 14.4835 3.36059 14.4835 3.35747C14.4835 3.35122 14.5366 3.28246 14.6054 3.20119C14.9713 2.76051 15.1057 2.08541 14.9525 1.48533C14.7712 0.775856 14.2021 0.200776 13.5267 0.041379C13.2202 -0.0305061 12.6355 -0.0055027 12.3604 0.0913858C11.1096 0.535198 10.6344 2.17918 11.463 3.19807L11.5974 3.36059L11.4755 3.43248L11.3535 3.50124L11.1284 3.36059C9.28669 2.21356 6.7352 2.21356 4.89349 3.36059L4.66836 3.50124L4.54641 3.43248L4.42447 3.36059L4.55892 3.19807C4.84972 2.83864 4.99668 2.37608 4.96854 1.88851C4.91851 1.00714 4.31503 0.253908 3.49267 0.0445042C3.26754 -0.0117531 2.71722 -0.0148792 2.4827 0.041379ZM3.43014 1.06027C3.73344 1.20717 3.96482 1.54159 3.99922 1.88539C4.01173 2.00728 3.99922 2.11354 3.94919 2.27294C3.75845 2.9074 3.03303 3.17932 2.45144 2.83239C2.16064 2.66049 2.0043 2.38858 1.98241 2.02916C1.97303 1.84163 1.98241 1.75724 2.03557 1.61972C2.24507 1.0634 2.89857 0.803986 3.43014 1.06027ZM13.5235 1.08527C14.1864 1.4447 14.2208 2.42609 13.5861 2.82302C13.0076 3.18557 12.2666 2.91365 12.0696 2.26981C11.8069 1.40094 12.7262 0.650839 13.5235 1.08527ZM8.98652 3.5575C9.41802 3.64501 9.90268 3.81378 10.2967 4.01693L10.6375 4.19196L10.5437 4.32948C10.3967 4.54201 10.2091 4.95769 10.1309 5.23273C10.0715 5.45151 10.0621 5.57965 10.0528 6.29538C10.0403 7.20488 10.0496 7.25489 10.2591 7.39553C10.3654 7.46741 10.3654 7.46741 11.6537 7.46741H12.9451L12.9857 7.67682C13.0139 7.81746 13.0295 8.105 13.0264 8.51444C13.0264 9.03638 13.0139 9.19266 12.9576 9.45519C12.8106 10.1397 12.5511 10.7522 12.1665 11.3305C11.8663 11.7805 11.2785 12.3743 10.8407 12.665L10.528 12.8744L10.4499 12.7713C10.2685 12.5369 9.90268 12.1899 9.68693 12.0462L9.45554 11.8962L9.58061 11.7368C9.8589 11.3836 9.99023 10.9992 9.99023 10.5303C9.99023 9.96151 9.80575 9.51145 9.40238 9.10514C9.19914 8.89886 9.10221 8.82698 8.88646 8.72384C8.56439 8.57069 8.37678 8.53006 8.00156 8.53006C7.43873 8.53006 7.01348 8.70821 6.6195 9.10514C6.21614 9.51145 6.03166 9.95839 6.03166 10.5303C6.03166 10.9992 6.16299 11.3836 6.44127 11.7368L6.56635 11.8962L6.33496 12.0462C6.11921 12.1899 5.75337 12.5369 5.57201 12.7713L5.49384 12.8744L5.18116 12.665C4.7434 12.3743 4.15556 11.7805 3.85538 11.3305C3.47078 10.7522 3.21126 10.1397 3.0643 9.45519C3.00801 9.19266 2.99551 9.03638 2.99551 8.51444C2.99238 8.105 3.00801 7.81746 3.03615 7.67682L3.0768 7.46741H4.36818C5.65644 7.46741 5.65644 7.46741 5.76275 7.39553C5.97225 7.25489 5.98163 7.20488 5.96912 6.29538C5.95974 5.57965 5.95036 5.45151 5.89095 5.23273C5.81278 4.95769 5.62517 4.54201 5.47821 4.32948L5.38441 4.19196L5.7221 4.02006C6.23803 3.7544 6.80711 3.57937 7.38558 3.49811C7.71702 3.45436 8.63944 3.48561 8.98652 3.5575ZM3.52394 4.04506C3.94606 4.15758 4.3463 4.42637 4.6027 4.77329C4.88411 5.15147 5.00919 5.58278 5.00919 6.15786V6.49853H2.97049H0.934923L0.956811 6.11098C0.978698 5.64841 1.05687 5.32337 1.21634 5.02332C1.64159 4.21384 2.60465 3.8044 3.52394 4.04506ZM13.5611 4.04506C13.9113 4.1357 14.1958 4.29822 14.4522 4.55763C14.8587 4.96707 15.0276 5.39213 15.0651 6.11098L15.087 6.49853H13.0514H11.0127V6.15786C11.0127 5.59528 11.1315 5.17334 11.4004 4.79829C11.8726 4.1357 12.7418 3.83253 13.5611 4.04506ZM8.37678 9.56458C8.92711 9.77086 9.18038 10.4397 8.91147 10.9773C8.81454 11.1711 8.64882 11.3273 8.44245 11.4242C8.27672 11.4992 8.20481 11.5149 7.99531 11.5149C7.77018 11.5117 7.72328 11.5024 7.54817 11.4055C7.06039 11.1461 6.8634 10.5897 7.08227 10.1084C7.31991 9.59584 7.8546 9.37081 8.37678 9.56458ZM8.52687 12.5806C9.05218 12.7056 9.57749 13.1245 9.80262 13.5933C9.96521 13.9371 10.0152 14.1496 10.034 14.6309L10.0528 15.0622H8.01407H5.9785V14.7559C5.9785 14.0308 6.16924 13.5089 6.57886 13.0994C7.0854 12.5963 7.79832 12.4056 8.52687 12.5806Z" fill="#A5A5A5"/>
</svg>
