<svg width="26" height="26" viewBox="0 0 26 26" fill="none" xmlns="http://www.w3.org/2000/svg">
<path fill-rule="evenodd" clip-rule="evenodd" d="M12.8333 0.0430739C12.7743 0.0668959 12.6771 0.148571 12.6173 0.224507C12.5191 0.349357 12.5087 0.425343 12.5087 1.01856C12.5087 1.88306 12.6033 2.07582 13.0276 2.07582C13.4396 2.07582 13.5388 1.84918 13.5164 0.958976L13.4996 0.289472L13.3336 0.141359C13.1656 -0.00858271 13.0281 -0.0356047 12.8333 0.0430739ZM8.08213 1.49169C8.00911 1.53131 7.92125 1.63178 7.8868 1.71488C7.76128 2.01776 7.84213 2.14627 8.71691 3.03469C9.66892 4.00154 9.86288 4.15834 10.1065 4.15834C10.3663 4.15834 10.5777 3.929 10.5777 3.64725C10.5777 3.43763 10.5581 3.4133 9.65037 2.49613C9.14034 1.98078 8.66126 1.52679 8.5858 1.48733C8.41405 1.39742 8.25302 1.39884 8.08213 1.49169ZM17.4123 1.511C17.3285 1.56331 16.854 2.01725 16.3579 2.51975C15.4765 3.41254 15.4559 3.43829 15.4559 3.64741C15.4559 3.929 15.6674 4.15834 15.9272 4.15834C16.1708 4.15834 16.3648 4.00154 17.3168 3.03469C17.9293 2.41268 18.1452 2.16028 18.1727 2.03437C18.2716 1.58165 17.8092 1.26338 17.4123 1.511ZM12.6051 3.00279C12.4668 3.09432 12.3461 3.2913 11.9985 3.9928C11.7598 4.47442 11.5426 4.88986 11.5157 4.91597C11.4889 4.94207 11.045 5.02416 10.5292 5.09831C10.0133 5.17252 9.53314 5.26349 9.46205 5.30047C9.144 5.46595 9.00264 5.77732 9.07373 6.15588C9.09969 6.29439 9.26017 6.48268 9.8487 7.06523L10.5909 7.79985L10.4258 8.77015C10.323 9.37357 10.273 9.80669 10.2934 9.91564C10.3576 10.2572 10.6736 10.5075 11.0407 10.5075C11.1449 10.5075 11.5233 10.3411 12.1094 10.0376L13.0168 9.56781L13.9242 10.0376C14.5104 10.3411 14.8888 10.5075 14.993 10.5075C15.3601 10.5075 15.6761 10.2572 15.7403 9.91564C15.7607 9.80669 15.7107 9.37357 15.6079 8.77015L15.4428 7.79985L16.185 7.06523C16.7735 6.48268 16.934 6.29439 16.96 6.15588C17.0311 5.77732 16.8897 5.46595 16.5716 5.30047C16.5005 5.26349 16.0203 5.17252 15.5045 5.09831C14.9887 5.02416 14.5447 4.94207 14.518 4.91597C14.4911 4.88986 14.2739 4.47442 14.0352 3.9928C13.5435 3.00061 13.4401 2.88851 13.0168 2.88851C12.854 2.88851 12.7228 2.92493 12.6051 3.00279ZM13.3994 4.97407C13.5943 5.36686 13.8034 5.73495 13.8643 5.7921C13.9509 5.87352 14.1489 5.92218 14.7789 6.01681C15.2211 6.08329 15.6055 6.138 15.633 6.13846C15.6605 6.13891 15.4146 6.40827 15.0866 6.737C14.6786 7.14584 14.4744 7.3898 14.4402 7.50885C14.402 7.64193 14.4204 7.86136 14.5186 8.44126C14.5893 8.85838 14.6365 9.21017 14.6237 9.22307C14.6107 9.23592 14.2932 9.08446 13.9179 8.88652C13.3782 8.60177 13.1899 8.52655 13.0168 8.52655C12.8438 8.52655 12.6555 8.60177 12.1157 8.88652C11.7405 9.08446 11.4229 9.23592 11.41 9.22307C11.3972 9.21017 11.4444 8.85838 11.5151 8.44126C11.6132 7.86136 11.6317 7.64193 11.5935 7.50885C11.5593 7.3898 11.3551 7.14584 10.9471 6.737C10.6191 6.40827 10.3656 6.13927 10.3839 6.13927C10.6189 6.13927 11.918 5.9074 12.0514 5.84167C12.2041 5.7664 12.2831 5.64835 12.6103 5.00704C12.8199 4.59622 13.0035 4.26007 13.0183 4.26002C13.0331 4.25997 13.2046 4.58129 13.3994 4.97407ZM12.28 11.1651C11.808 11.289 11.4287 11.4736 11.0736 11.7523C10.2847 12.3714 9.82131 13.3854 9.87899 14.3661C9.92584 15.1634 10.3066 15.9884 10.8655 16.5033C10.9969 16.6243 11.0818 16.731 11.0541 16.7403C11.0264 16.7494 10.829 16.8566 10.6154 16.9782C9.84169 17.419 9.22993 18.002 8.78586 18.722L8.55989 19.0884L8.43819 18.9585C8.24809 18.7558 7.69116 18.3594 7.30019 18.1485C7.10455 18.043 6.93702 17.9512 6.92792 17.9446C6.91883 17.9379 7.01644 17.8357 7.1449 17.7173C7.92938 16.9945 8.30536 15.7592 8.04895 14.7471C7.73725 13.5167 6.92015 12.6924 5.70425 12.3815C4.55894 12.0887 3.27379 12.5375 2.52402 13.492C2.23458 13.8605 2.05764 14.2327 1.9273 14.7471C1.67089 15.7592 2.04687 16.9945 2.83134 17.7173C2.9598 17.8357 3.05742 17.9391 3.04832 17.9473C3.03923 17.9554 2.89364 18.0312 2.72484 18.1158C1.73837 18.6099 0.842254 19.5715 0.417341 20.5916C0.0554388 21.4607 0.0432941 21.5555 0.02058 23.6956L0 25.633L0.152393 25.8035L0.304837 25.974L12.9862 25.987L25.6674 26L25.8337 25.8514L26 25.7028L25.9972 23.7305C25.9941 21.5434 25.9864 21.4803 25.6163 20.5916C25.1914 19.5715 24.2953 18.6099 23.3089 18.1158C23.14 18.0312 22.9945 17.9554 22.9854 17.9473C22.9763 17.9391 23.0739 17.8357 23.2023 17.7173C23.9868 16.9945 24.3628 15.7592 24.1064 14.7471C23.7947 13.5167 22.9776 12.6924 21.7617 12.3815C20.6164 12.0887 19.3312 12.5375 18.5815 13.492C18.292 13.8605 18.1151 14.2327 17.9847 14.7471C17.7283 15.7592 18.1043 16.9945 18.8888 17.7173C19.0172 17.8357 19.1149 17.9379 19.1058 17.9446C19.0967 17.9512 18.9291 18.043 18.7335 18.1485C18.3425 18.3594 17.7856 18.7558 17.5955 18.9585L17.4738 19.0884L17.2478 18.722C16.8038 18.002 16.192 17.419 15.4183 16.9782C15.2047 16.8566 15.0073 16.7494 14.9796 16.7403C14.9519 16.731 15.0368 16.6243 15.1682 16.5033C15.9582 15.7753 16.3348 14.5432 16.0777 13.528C15.9473 13.0137 15.7704 12.6415 15.481 12.2729C14.7297 11.3165 13.4245 10.8648 12.28 11.1651ZM13.5167 12.1594C14.5831 12.4107 15.2894 13.4716 15.1102 14.5527C14.8277 16.2569 12.7438 16.9282 11.5233 15.7082C10.3715 14.557 10.8913 12.5925 12.4579 12.1758C12.8692 12.0664 13.1062 12.0627 13.5167 12.1594ZM5.40043 13.3527C6.23943 13.5107 6.93875 14.2364 7.08143 15.097C7.31528 16.5078 6.06194 17.7606 4.65061 17.5268C3.50001 17.3363 2.70578 16.2371 2.89481 15.097C3.09136 13.9114 4.21477 13.1293 5.40043 13.3527ZM21.4579 13.3527C22.2969 13.5107 22.9962 14.2364 23.1389 15.097C23.3727 16.5078 22.1194 17.7606 20.7081 17.5268C19.0032 17.2445 18.3316 15.1615 19.5521 13.9416C20.0735 13.4204 20.7339 13.2163 21.4579 13.3527ZM14.0753 17.5143C15.3995 17.894 16.4272 18.9191 16.8368 20.2689C16.9444 20.6232 16.9505 20.7427 16.968 22.8121L16.9863 24.9835H16.4752H15.9641V24.0907V23.1979L15.8156 23.0495C15.7058 22.9397 15.6188 22.901 15.4819 22.901C15.0252 22.901 14.9478 23.0848 14.9478 24.1692V24.9835H11.9976H9.04735L9.0657 22.8121C9.08318 20.7421 9.08928 20.6233 9.197 20.2684C9.60733 18.9161 10.6615 17.8678 11.9604 17.5202C12.5089 17.3734 12.5373 17.3703 13.1439 17.3897C13.5122 17.4015 13.8298 17.4439 14.0753 17.5143ZM6.04654 18.7334C6.75566 18.9367 7.55594 19.4391 7.96454 19.9375L8.15535 20.1703L8.09615 20.6144C8.05987 20.8871 8.037 21.8163 8.037 23.021V24.9835H4.52693H1.0168L1.03713 23.4216C1.05573 21.9931 1.06701 21.828 1.16935 21.4875C1.57454 20.1393 2.63235 19.0869 3.93163 18.7393C4.48013 18.5925 4.50858 18.5893 5.11516 18.6087C5.48352 18.6205 5.80111 18.663 6.04654 18.7334ZM22.104 18.7334C23.4286 19.1132 24.46 20.1423 24.8644 21.4879C24.9666 21.8279 24.978 21.9935 24.9966 23.4216L25.0169 24.9835H21.5068H17.9967V23.021C17.9967 21.8163 17.9738 20.8871 17.9375 20.6144L17.8783 20.1703L18.0691 19.9375C18.3087 19.6452 18.8905 19.201 19.3027 18.9956C19.5795 18.8577 20.101 18.6903 20.4866 18.6155C20.7789 18.5588 21.7393 18.6288 22.104 18.7334ZM15.1664 21.0101C14.9154 21.2072 14.9153 21.6331 15.1663 21.8088C15.4802 22.0286 15.9641 21.7822 15.9641 21.4026C15.9641 21.0161 15.4689 20.7725 15.1664 21.0101Z" fill="#1A2B51"/>
</svg>
