<svg width="16" height="16" viewBox="0 0 16 16" fill="none" xmlns="http://www.w3.org/2000/svg">
<path d="M2.54936 0.040977C1.96129 0.181624 1.49521 0.62232 1.31378 1.20054C1.22932 1.47558 1.21994 1.92253 1.29501 2.2132C1.45454 2.8383 1.9738 3.32275 2.61192 3.44777C2.81211 3.4884 2.81837 3.49153 2.69638 3.49465C2.49305 3.49778 2.1083 3.58529 1.84242 3.68843C0.897749 4.05412 0.247116 4.85425 0.0469207 5.91379C0.0156402 6.07006 0 6.34823 0 6.67329V7.18899L0.121994 7.32026L0.247116 7.45154L2.94975 7.46091L5.65238 7.46716L5.75873 7.39528C5.94016 7.27338 5.97457 7.16399 5.97457 6.68266C5.97457 5.68563 5.70868 4.95739 5.12687 4.35729C4.69207 3.91347 4.08836 3.60717 3.47213 3.52278L3.19061 3.48528L3.37829 3.44465C3.95698 3.329 4.47623 2.84455 4.66392 2.24758C4.73586 2.01317 4.74837 1.57247 4.69207 1.32556C4.54505 0.71921 4.04456 0.203503 3.44085 0.0441022C3.2344 -0.0121565 2.76832 -0.0121565 2.54936 0.040977Z" fill="#1A2B51"/>
<path d="M12.5755 0.0472274C11.7997 0.250385 11.293 0.919242 11.293 1.73187C11.293 2.25383 11.4681 2.67577 11.8247 3.0102C12.0437 3.21648 12.3346 3.38214 12.5536 3.41964C12.6975 3.44777 12.7381 3.49778 12.613 3.49778C12.4503 3.49778 12.0343 3.61967 11.7716 3.74469C11.1022 4.06662 10.6423 4.52607 10.3201 5.19493C10.1137 5.62624 10.0668 5.86691 10.0511 6.52951C10.0355 7.18274 10.0543 7.26088 10.2576 7.39528L10.3639 7.46716L13.0666 7.46091L15.7661 7.45154L15.8818 7.33277L16.0007 7.21712V6.56702C16.0007 5.98568 15.9944 5.89504 15.9287 5.67313C15.6034 4.54795 14.6838 3.70406 13.5796 3.51653L13.3418 3.47903L13.5608 3.41026C14.3866 3.16022 14.9121 2.30071 14.7651 1.4412C14.6556 0.787971 14.1301 0.209754 13.4982 0.0441017C13.2668 -0.0152826 12.8038 -0.0152826 12.5755 0.0472274Z" fill="#1A2B51"/>
<path d="M7.34549 2.53213C6.9795 2.56651 6.50404 2.66653 6.13493 2.78529C5.83777 2.87906 5.16211 3.17598 5.16211 3.21349C5.16211 3.22286 5.21529 3.26662 5.27785 3.31038C5.34041 3.35414 5.51558 3.50416 5.66572 3.64793L5.93787 3.90422L6.17247 3.81046C7.34236 3.34163 8.80628 3.36039 9.95741 3.85422L10.0763 3.90735L10.3515 3.64793C10.5017 3.50416 10.6769 3.35414 10.7394 3.31038C10.802 3.26662 10.8552 3.22286 10.8552 3.21349C10.8552 3.17598 10.1764 2.87593 9.88233 2.78217C9.10658 2.53838 8.2057 2.45087 7.34549 2.53213Z" fill="#1A2B51"/>
<path d="M2.00195 8.65177C2.00195 10.0957 2.65571 11.6366 3.72863 12.7243C3.96324 12.9618 4.40742 13.3431 4.45121 13.3431C4.4606 13.3431 4.51377 13.2619 4.56695 13.1619C4.62326 13.065 4.73899 12.8806 4.82658 12.7555L4.98611 12.5243L4.87663 12.443C4.6389 12.2617 4.20097 11.8085 3.97262 11.5022C3.38142 10.7177 3.03108 9.75507 2.98103 8.77053L2.96226 8.3736H2.48054H2.00195V8.65177Z" fill="#1A2B51"/>
<path d="M13.0344 8.75491C12.9781 9.99886 12.4244 11.2241 11.5235 12.0929C11.3703 12.243 11.1982 12.3992 11.1388 12.443L11.0293 12.5243L11.1888 12.7555C11.2764 12.8806 11.3922 13.065 11.4485 13.165C11.5016 13.2619 11.5548 13.3431 11.5642 13.3431C11.608 13.3431 12.0522 12.9618 12.2868 12.7243C13.3597 11.6366 14.0135 10.0957 14.0135 8.65177V8.3736H13.5317H13.0531L13.0344 8.75491Z" fill="#1A2B51"/>
<path d="M7.57671 8.57367C7.09812 8.69244 6.66645 9.02687 6.46 9.44568C5.94387 10.4959 6.46312 11.6773 7.57045 11.9711L7.71121 12.0086L7.47348 12.0492C6.51943 12.2149 5.63419 12.915 5.2557 13.8058C5.07427 14.2339 5.02422 14.5152 5.02422 15.1403C5.02109 15.6811 5.02422 15.7061 5.09304 15.8061C5.24006 16.0124 5.0774 15.9999 8.01776 15.9999H10.6891L10.7923 15.928C10.9988 15.7904 11.0176 15.7092 11.0019 15.0935C10.9832 14.4902 10.93 14.2027 10.7611 13.8058C10.3826 12.915 9.49107 12.2117 8.54327 12.0492L8.30554 12.0117L8.45882 11.9711C9.05627 11.8211 9.55676 11.3147 9.71316 10.7021C9.76947 10.4833 9.7726 10.1333 9.72568 9.89888C9.60055 9.28941 9.06879 8.73619 8.45882 8.57992C8.23047 8.52053 7.81131 8.51741 7.57671 8.57367Z" fill="#1A2B51"/>
</svg>
