<svg width="12" height="20" viewBox="0 0 12 20" fill="none" xmlns="http://www.w3.org/2000/svg">
<path fill-rule="evenodd" clip-rule="evenodd" d="M1.34186 18.5742C3.74479 18.7078 5.5621 18.641 7.66268 18.5582C8.43289 18.5296 9.22537 18.4978 10.1006 18.4755C10.2502 16.6423 10.282 15.8116 9.68368 14.1025C9.23811 12.8358 8.45198 11.986 7.82181 11.3017C7.30622 10.7416 6.85745 10.2578 6.74288 9.71355C6.61239 9.08656 7.05796 8.58051 7.45262 8.13494C7.51945 8.06174 7.58629 7.98217 7.65949 7.9026C8.03187 7.48567 8.45198 7.01463 8.70659 6.60088C9.57547 5.17504 9.78235 3.23042 9.8651 1.50222C9.23811 1.44493 3.9262 1.394 1.28775 1.45766C1.43416 5.03818 2.43033 6.25079 3.08915 7.05601C3.20054 7.18968 3.30239 7.31699 3.39469 7.44111C3.53155 7.62889 3.71932 7.81985 3.91983 8.02354C4.39724 8.50731 4.9383 9.05792 4.81417 9.67218C4.65822 10.4488 4.0917 10.9866 3.54427 11.5054C3.35331 11.6868 3.15599 11.8746 2.98094 12.0656C1.38641 13.8447 1.26229 16.4704 1.34186 18.5742ZM4.05987 18.7938C3.19099 18.7938 2.28393 18.7715 1.26865 18.7142C1.23046 18.711 1.20182 18.6824 1.20182 18.6442C1.11589 16.499 1.22728 13.8033 2.87591 11.9733C3.05414 11.7759 3.25147 11.5882 3.44562 11.4036C3.97712 10.8975 4.52772 10.3756 4.67413 9.64672C4.78234 9.10566 4.29221 8.60916 3.81799 8.12857C3.6143 7.9217 3.42015 7.72437 3.28011 7.53023C3.19099 7.40929 3.08915 7.28516 2.98094 7.15149C2.30303 6.32717 1.28139 5.07956 1.14453 1.394C1.14453 1.37491 1.15089 1.35581 1.16362 1.34308C1.17635 1.33035 1.19545 1.3208 1.21455 1.3208C3.84345 1.25397 9.71869 1.30489 9.96375 1.37809C9.99558 1.38764 10.0179 1.41628 10.0147 1.45129C9.93193 3.2145 9.72824 5.21323 8.8339 6.68363C8.57292 7.11011 8.14963 7.58752 7.77089 8.00763C7.70087 8.0872 7.63085 8.16358 7.5672 8.23678C7.19482 8.6569 6.77471 9.1343 6.88928 9.69127C6.99431 10.1973 7.43034 10.6684 7.93321 11.2094C8.57293 11.9032 9.37178 12.7657 9.8269 14.0611C10.4412 15.8148 10.403 16.6582 10.247 18.5551C10.2438 18.5901 10.2152 18.6187 10.177 18.6219C9.2763 18.6442 8.46153 18.676 7.6754 18.7046C6.42779 18.7524 5.28202 18.7938 4.05987 18.7938Z" fill="black"/>
<path d="M4.05956 18.9053C3.11748 18.9053 2.20405 18.8799 1.26198 18.8258C1.16968 18.8194 1.09648 18.7462 1.09012 18.6539C1.00418 16.4897 1.11876 13.7653 2.79285 11.9066C2.97427 11.7061 3.17477 11.5151 3.36892 11.3305C3.88769 10.8372 4.42557 10.328 4.56561 9.63097C4.66109 9.1472 4.19324 8.6698 3.73811 8.20831L3.73493 8.20512C3.52805 7.99507 3.33391 7.79774 3.18751 7.59723C3.10157 7.47947 2.99972 7.35535 2.89151 7.22486C2.20405 6.38781 1.16968 5.12428 1.02964 1.40372C1.02646 1.35598 1.04555 1.30824 1.07738 1.27323C1.11239 1.23822 1.15695 1.21594 1.20469 1.21594C3.71583 1.15229 9.70883 1.19366 9.98891 1.27641C10.0685 1.29869 10.1226 1.37508 10.1194 1.45783C10.0366 3.23377 9.82977 5.24841 8.92271 6.74109C8.65854 7.17712 8.22888 7.65452 7.85014 8.07782L7.84378 8.08418C7.77376 8.16057 7.70692 8.23695 7.64327 8.31015C7.28681 8.71117 6.88579 9.1663 6.99082 9.66916C7.08948 10.1466 7.51596 10.6049 8.00609 11.1364C8.65536 11.8366 9.46058 12.7086 9.92207 14.0263C10.5459 15.8022 10.5045 16.652 10.3486 18.568C10.3422 18.6603 10.2658 18.7303 10.1735 18.7335C9.28235 18.7557 8.47713 18.7876 7.69737 18.8162H7.67191C6.44657 18.8608 5.28489 18.9053 4.05956 18.9053ZM1.44658 18.4725C3.7954 18.5998 5.58725 18.5298 7.65918 18.4534H7.67191C8.40711 18.4247 9.16778 18.3961 10.0016 18.3738C10.1417 16.6233 10.1671 15.8181 9.58152 14.144C9.14549 12.8964 8.36574 12.0562 7.74193 11.3814C7.21361 10.8086 6.75848 10.3152 6.63754 9.74236C6.49431 9.06127 6.96217 8.53294 7.37274 8.06827C7.43321 8.00143 7.49686 7.92823 7.56051 7.85821L7.57961 7.83911C7.94881 7.42537 8.36574 6.96069 8.61399 6.55331C9.4574 5.16884 9.66427 3.28787 9.75021 1.61378C8.78267 1.55967 3.92907 1.5183 1.40201 1.57559C1.56433 5.03198 2.53187 6.21276 3.17478 6.99889C3.28617 7.13574 3.3912 7.26305 3.4835 7.39036C3.61399 7.56859 3.79858 7.75637 3.9959 7.95687L3.99909 7.96006C4.49559 8.46292 5.05893 9.03581 4.92526 9.70735C4.76294 10.5158 4.18368 11.0664 3.62353 11.5979C3.43257 11.7793 3.23843 11.9639 3.06656 12.1548C1.51023 13.8703 1.37656 16.4165 1.44658 18.4725Z" fill="black"/>
<path fill-rule="evenodd" clip-rule="evenodd" d="M0.165039 0.849805C0.165039 1.22855 0.470577 1.53408 0.849317 1.53408H10.2701C10.6488 1.53408 10.9544 1.22855 10.9544 0.849805C10.9544 0.471065 10.6488 0.165527 10.2701 0.165527H0.849317C0.470577 0.165527 0.165039 0.471065 0.165039 0.849805Z" fill="#1A2B51"/>
<path d="M10.2705 1.69956H0.849776C0.381921 1.69956 0 1.31763 0 0.849778C0 0.381923 0.381921 0 0.849776 0H10.2705C10.7384 0 11.1203 0.381923 11.1203 0.849778C11.1203 1.31763 10.7384 1.69956 10.2705 1.69956ZM10.2705 0.331H0.849776C0.563334 0.331 0.330996 0.563336 0.330996 0.849778C0.330996 1.13622 0.563334 1.36856 0.849776 1.36856H10.2705C10.557 1.36856 10.7893 1.13622 10.7893 0.849778C10.7893 0.563336 10.557 0.331 10.2705 0.331Z" fill="black"/>
<path fill-rule="evenodd" clip-rule="evenodd" d="M7.61255 2.64483C8.02948 2.61301 8.44641 2.64801 8.85698 2.74668C8.88562 2.75304 8.91108 2.77851 8.92381 2.81352C8.93654 2.84852 8.93654 2.88672 8.92381 2.92173C8.18861 4.7836 7.18606 6.46724 6.01802 7.79124C5.99892 7.81033 5.97664 7.82306 5.95436 7.82306L5.92253 7.8167C4.18797 7.01785 2.89898 5.42968 2.19243 3.22726C2.1797 3.19226 2.18288 3.15088 2.19879 3.11905C2.2147 3.08723 2.24017 3.06495 2.27199 3.06176C2.77804 2.99811 3.28409 3.04585 3.78059 3.20499C3.86652 3.23363 3.95564 3.26546 4.04157 3.29728C4.27072 3.38003 4.49033 3.4596 4.71311 3.4787C5.13323 3.51052 5.53743 3.32274 5.96391 3.12542C6.10077 3.06176 6.24081 2.99811 6.38085 2.94082C6.78187 2.77214 7.19561 2.67666 7.61255 2.64483ZM7.55844 2.89308C7.1797 2.92809 6.80415 3.02039 6.43814 3.16679C6.30128 3.2209 6.16442 3.28455 6.03075 3.34821C5.60427 3.54553 5.16506 3.74923 4.70357 3.71422C4.4585 3.69512 4.2198 3.60919 3.99065 3.52644C3.90471 3.49461 3.81878 3.46278 3.73603 3.43732C3.30318 3.29728 2.86397 3.24636 2.42158 3.28455C3.10904 5.32147 4.32165 6.79506 5.93527 7.5589C7.03648 6.29856 7.98811 4.71358 8.69785 2.95674C8.31911 2.88035 7.93718 2.85807 7.55844 2.89308Z" fill="#0D1C36"/>
<path d="M5.9542 7.89325H5.94466L5.89692 7.8837L5.89055 7.88052C4.13689 7.07211 2.83517 5.47122 2.12225 3.24652C2.10634 3.19242 2.10952 3.13513 2.1318 3.08421C2.15726 3.0301 2.205 2.99191 2.25911 2.98554C2.7747 2.9187 3.29348 2.96963 3.79952 3.13195C3.88546 3.16059 3.97139 3.18923 4.06369 3.22424C4.28966 3.30699 4.5029 3.38338 4.71614 3.39929C5.11716 3.43112 5.51181 3.24652 5.93193 3.05238C6.05287 2.99509 6.20564 2.92507 6.35204 2.86778C6.75624 2.70547 7.17954 2.60362 7.60284 2.57179C8.02932 2.53996 8.4558 2.57498 8.86955 2.67682C8.92365 2.68955 8.96503 2.73093 8.98731 2.78822C9.0064 2.83914 9.0064 2.89961 8.98731 2.95053C8.24892 4.82195 7.24001 6.51196 6.06878 7.83914C6.04014 7.87415 5.99876 7.89325 5.9542 7.89325ZM5.94466 7.74366L5.95739 7.74684C5.95739 7.74684 5.96057 7.74366 5.96375 7.74048C7.12543 6.42603 8.1248 4.74875 8.85682 2.89324C8.86319 2.87733 8.86319 2.85505 8.85682 2.83596C8.85045 2.82323 8.84409 2.81686 8.84091 2.81368C8.43989 2.71501 8.02932 2.68319 7.61875 2.71183C7.20818 2.74366 6.8008 2.83914 6.40933 2.99827C6.26611 3.05556 6.11652 3.12558 5.99558 3.17969C5.55955 3.3802 5.14898 3.57116 4.70659 3.53933C4.47107 3.52023 4.24829 3.44067 4.01595 3.35473C3.92365 3.31972 3.8409 3.29108 3.75815 3.26244C3.2712 3.10648 2.7747 3.05874 2.28138 3.1224C2.2782 3.1224 2.27184 3.12876 2.26547 3.13831C2.25911 3.15422 2.25592 3.1765 2.26229 3.1956C2.96248 5.38211 4.23556 6.95117 5.94466 7.74366ZM5.95102 7.64818L5.9001 7.6259C4.27056 6.85569 3.04205 5.36301 2.34822 3.31018L2.31958 3.22106L2.41188 3.21151C2.86382 3.17332 3.31576 3.22424 3.75497 3.36746C3.8409 3.39611 3.93001 3.42794 4.01276 3.45976C4.23873 3.54251 4.47107 3.62526 4.70659 3.64436C5.1458 3.67937 5.57865 3.47886 5.9924 3.28471L6.00513 3.27835C6.13562 3.21788 6.27247 3.15422 6.40933 3.10012C6.77852 2.95053 7.16363 2.85823 7.54873 2.82004C7.93702 2.78503 8.3253 2.80731 8.70723 2.88688L8.79317 2.90597L8.76134 2.98554C8.04842 4.74557 7.09042 6.34328 5.98603 7.6068L5.95102 7.64818ZM2.52009 3.35155C3.198 5.29936 4.36923 6.72202 5.91601 7.46995C6.97585 6.24461 7.90201 4.70738 8.59583 3.01419C8.25847 2.95053 7.91156 2.93462 7.56783 2.96645C7.19546 3.00145 6.82308 3.09057 6.4698 3.23697C6.33931 3.29108 6.20245 3.35155 6.07515 3.41202L6.06242 3.41839C5.62957 3.6189 5.18082 3.82577 4.70341 3.79076C4.4488 3.77167 4.20691 3.68255 3.97139 3.5998C3.88546 3.56797 3.79953 3.53615 3.71678 3.51068C3.31894 3.38019 2.9211 3.32609 2.52009 3.35155Z" fill="black"/>
<path fill-rule="evenodd" clip-rule="evenodd" d="M7.5715 2.90273C7.95342 2.86773 8.33534 2.89 8.7109 2.96639C7.99798 4.72005 7.04317 6.30503 5.93878 7.56537C4.31879 6.80153 3.09982 5.32794 2.40918 3.2942C2.85157 3.25601 3.29397 3.30694 3.72999 3.44697C3.81593 3.47562 3.90186 3.50426 3.9878 3.53609C4.22013 3.61884 4.45883 3.70477 4.7039 3.72387C5.16539 3.75888 5.60778 3.55519 6.03744 3.35786C6.17112 3.29739 6.31115 3.23055 6.44801 3.17645C6.81083 3.03004 7.18957 2.93774 7.5715 2.90273Z" fill="#1A2B51"/>
<path d="M5.95693 7.65437L5.90601 7.63209C4.27011 6.86188 3.03523 5.36919 2.33822 3.31954L2.30957 3.23043L2.40187 3.22088C2.85381 3.18269 3.30894 3.23361 3.75133 3.37683C3.83726 3.40548 3.92638 3.4373 4.00913 3.46595C4.23828 3.5487 4.47062 3.63145 4.70614 3.65054C5.14853 3.68555 5.58138 3.48504 5.99831 3.2909L6.01104 3.28453C6.14471 3.22406 6.27838 3.16041 6.41524 3.1063C6.78443 2.95672 7.16953 2.86442 7.561 2.82623C7.94929 2.79122 8.34076 2.8135 8.72269 2.89306L8.80862 2.91216L8.7768 2.99173C8.06388 4.75175 7.09952 6.34628 5.99195 7.60981L5.95693 7.65437ZM2.5069 3.36092C3.188 5.30872 4.36559 6.7282 5.91874 7.47614C6.98494 6.2508 7.91111 4.71674 8.60811 3.02355C8.26757 2.9599 7.92065 2.94399 7.57692 2.97581C7.20136 3.01082 6.82899 3.09994 6.47253 3.24634C6.34204 3.30045 6.20518 3.36092 6.07469 3.42139L6.06196 3.42776C5.62594 3.62826 5.17717 3.83514 4.69659 3.80013C4.44197 3.78103 4.19691 3.69192 3.96139 3.60917C3.87546 3.57734 3.78952 3.54552 3.70359 3.52005C3.31212 3.38956 2.9111 3.33546 2.5069 3.36092Z" fill="black"/>
<path fill-rule="evenodd" clip-rule="evenodd" d="M5.83661 7.17691C5.68066 7.17691 5.54699 7.01777 5.51516 6.83636L5.51834 6.83955L5.53107 6.83636L5.5438 6.79181C5.53107 6.76634 5.52152 6.7377 5.50879 6.70905C5.51197 6.66768 5.52152 6.62949 5.53744 6.5913C5.5629 6.48308 5.64246 6.42261 5.69975 6.34304C5.75067 6.27939 5.8016 6.21256 5.85252 6.1489C5.88435 6.23165 5.91936 6.3144 5.95119 6.39715L5.97665 6.41625L5.98938 6.41306L6.00211 6.36851C5.96391 6.27939 5.92891 6.18709 5.8939 6.09798C5.9862 5.98022 6.07849 5.86246 6.16443 5.73833C6.22171 5.65558 6.27582 5.57283 6.33311 5.49008C6.36812 5.56647 6.40631 5.63967 6.4445 5.71287L6.46997 5.72879L6.48588 5.7256L6.49542 5.68105C6.45405 5.5983 6.41268 5.51873 6.37449 5.4328C6.45405 5.31185 6.53362 5.18773 6.61637 5.07315C6.6832 4.98404 6.74686 4.89811 6.80733 4.81217C6.84234 4.89174 6.87735 4.97131 6.91236 5.05087L6.93782 5.06997L6.95055 5.06679L6.96328 5.02223C6.92509 4.9363 6.8869 4.84718 6.8487 4.75807C6.99829 4.54801 7.13196 4.3475 7.25609 4.15336L7.3643 4.43343L7.38976 4.45253L7.40249 4.44935L7.4184 4.40479L7.29747 4.09289C7.4375 3.87328 7.56481 3.66004 7.68893 3.44998C7.88307 3.45635 8.07404 3.47863 8.26819 3.51364C7.64438 4.90765 6.81051 6.17436 5.84934 7.19282C5.84298 7.17691 5.83979 7.17691 5.83661 7.17691ZM8.28091 3.29721C8.12178 3.26857 7.96264 3.24947 7.80351 3.23674C7.86398 3.16672 7.93719 3.13171 8.01357 3.13171C8.11542 3.1349 8.21726 3.19537 8.28091 3.29721Z" fill="#344C81"/>
<path fill-rule="evenodd" clip-rule="evenodd" d="M5.95772 13.7396C5.98 13.7396 5.9991 13.7492 6.01183 13.7683C6.39693 14.268 6.90934 14.6371 7.40266 14.9936C7.61908 15.1496 7.84506 15.3119 8.0583 15.4837C8.98764 16.2349 9.41731 17.0783 9.33456 17.9949C9.33137 18.0331 9.29636 18.0617 9.25817 18.0585C7.38993 17.9185 5.48668 18.0076 3.64709 18.0967L2.25626 18.1636H2.25308C2.2308 18.1636 2.20852 18.154 2.19579 18.1349C2.18306 18.1158 2.17669 18.0904 2.18624 18.0681C2.59999 16.9701 3.27153 16.2571 3.87306 15.7065C4.04493 15.5474 4.22634 15.3914 4.40139 15.2387C4.89789 14.8058 5.4103 14.3602 5.89725 13.7651C5.91635 13.7492 5.93544 13.7396 5.95772 13.7396ZM5.95454 13.9242C5.47713 14.4939 4.98064 14.9268 4.50005 15.3437C4.31864 15.5028 4.14677 15.6524 3.97491 15.8084C3.40521 16.3303 2.76867 17.0019 2.36447 18.014L3.64391 17.9535C5.46441 17.8676 7.34855 17.7785 9.20088 17.9121C9.24862 17.0751 8.83487 16.2953 7.96918 15.5951C7.75912 15.4265 7.53634 15.2641 7.31991 15.1082C6.84251 14.7644 6.34601 14.4048 5.95454 13.9242Z" fill="#0D1C36"/>
<path d="M2.25866 18.2367C2.21092 18.2367 2.16637 18.2145 2.1409 18.1763C2.11226 18.1381 2.10589 18.0871 2.12181 18.0394C2.54192 16.9255 3.21984 16.2062 3.82773 15.6492C3.99959 15.4933 4.17464 15.3373 4.3465 15.1877L4.35605 15.1814C4.84937 14.7517 5.3586 14.3061 5.84236 13.7173C5.87101 13.6823 5.9092 13.6632 5.95376 13.6632C5.99832 13.6632 6.03969 13.6855 6.06515 13.7205C6.44389 14.2138 6.94995 14.5798 7.44008 14.9331C7.65968 15.0922 7.88565 15.2546 8.09889 15.4264C9.04734 16.1934 9.48655 17.0591 9.4038 18.0012C9.39743 18.0808 9.32741 18.1381 9.24784 18.1317C7.38597 17.9917 5.48909 18.0808 3.65268 18.1699H3.64631L2.25866 18.2367ZM5.95376 14.0388C5.49227 14.5798 5.01169 14.9968 4.5502 15.401C4.36878 15.5601 4.19692 15.7097 4.02505 15.8656C3.484 16.3621 2.87929 16.9955 2.47509 17.9407L3.63995 17.8866C5.43816 17.8007 7.29685 17.7148 9.13008 17.8389C9.14918 17.0528 8.74498 16.3208 7.92385 15.6556C7.71697 15.4869 7.49418 15.3278 7.27776 15.1718C6.81627 14.8344 6.34205 14.4939 5.95376 14.0388Z" fill="black"/>
<path fill-rule="evenodd" clip-rule="evenodd" d="M5.9561 13.8988C6.34757 14.3858 6.84726 14.7486 7.32784 15.0955C7.54426 15.2514 7.77024 15.4169 7.98029 15.5888C8.84917 16.2954 9.2661 17.0847 9.21518 17.9313C7.3533 17.7976 5.45961 17.8867 3.62956 17.9726L2.34375 18.0331C2.75113 17.0083 3.39086 16.3304 3.96374 15.8021C4.13561 15.6429 4.30747 15.4933 4.49206 15.331C4.97902 14.9109 5.4787 14.4749 5.9561 13.8988Z" fill="#1A2B51"/>
<path d="M2.23828 18.1159L2.27965 18.0109C2.6934 16.9702 3.33948 16.2859 3.91873 15.7544C4.09378 15.5952 4.26565 15.4425 4.44706 15.2833C4.93083 14.86 5.42733 14.424 5.90155 13.8543L5.95884 13.7875L6.01613 13.8575C6.40124 14.3381 6.89455 14.6945 7.37195 15.0415C7.59156 15.2006 7.81753 15.3629 8.02759 15.538C8.91556 16.2604 9.34204 17.0688 9.29111 17.9409L9.28793 18.0141L9.21473 18.0077C7.35604 17.874 5.46553 17.9632 3.63866 18.0491L2.23828 18.1159ZM5.95565 14.0134C5.49098 14.5577 5.0104 14.981 4.54573 15.3884C4.36113 15.5507 4.18927 15.7003 4.0174 15.8594C3.47316 16.3623 2.86527 17.002 2.45788 17.96L3.62911 17.9027C5.43688 17.8168 7.30512 17.7276 9.14789 17.855C9.16699 17.0593 8.75961 16.3177 7.93529 15.6462C7.72523 15.4775 7.50244 15.3152 7.28602 15.156C6.82135 14.8187 6.34394 14.4718 5.95565 14.0134Z" fill="black"/>
<path fill-rule="evenodd" clip-rule="evenodd" d="M8.57965 17.7211C8.52554 17.7211 8.47463 17.7052 8.42688 17.6766C8.34095 17.6257 8.29639 17.5302 8.26775 17.4347V17.4315C8.26457 17.422 8.2582 17.4124 8.25501 17.3965L8.28048 17.4442L8.29958 17.457L8.30912 17.4538L8.31867 17.4252L7.47526 15.802L7.44662 15.7924L7.43707 15.8211L7.75215 16.4258C7.28429 15.8434 6.93738 15.6206 6.52045 15.2577C6.46953 15.1591 6.41861 15.0604 6.37087 14.9617L6.34222 14.9522L6.33267 14.9808C6.3645 15.0477 6.39951 15.1113 6.43452 15.1782C6.28493 15.0413 6.1258 14.8854 5.95075 14.6849C5.80117 14.5257 5.88392 14.2775 6.03987 14.2043C6.38678 14.6085 6.81007 14.914 7.22064 15.2132C7.41797 15.3564 7.62166 15.5028 7.80944 15.6556C8.03859 15.8434 8.23274 16.0343 8.39187 16.2316C8.49054 16.3812 8.57329 16.5404 8.64649 16.709C8.70696 16.8491 8.76106 16.9891 8.81835 17.1323C8.87882 17.266 8.92974 17.4188 8.85018 17.5588C8.79607 17.6607 8.68786 17.7211 8.57965 17.7211ZM8.22001 16.464L8.21046 16.4926C8.30594 16.6581 8.38869 16.8332 8.46189 17.0146L8.48099 17.0273H8.49054L8.50327 16.9987C8.43006 16.8173 8.34413 16.6422 8.24865 16.4735L8.22001 16.464ZM7.43707 15.2068C7.38933 15.1718 7.34159 15.14 7.29703 15.105C6.91511 14.8313 6.52682 14.548 6.20218 14.1884C6.21809 14.1915 6.23083 14.1979 6.24674 14.2043C6.37087 14.2679 6.45362 14.408 6.56501 14.4971C6.80053 14.7199 6.85145 14.7485 7.16972 14.9904C7.25884 15.0636 7.34795 15.1336 7.43707 15.2068Z" fill="#344C81"/>
<path fill-rule="evenodd" clip-rule="evenodd" d="M10.0862 18.1414H9.48465C9.4751 18.0968 9.47192 18.0459 9.4751 17.9918C9.47192 17.543 9.50693 17.0911 9.4942 16.6423C9.47511 16.149 9.48147 16.3877 9.43055 16.0313C9.32552 15.4838 9.20776 14.9364 9.02316 14.4145L9.0168 14.3985L9.00089 14.3604C8.85448 14.0294 8.70807 13.6984 8.53302 13.3833C8.23385 12.8486 8.10336 12.6831 7.80419 12.2598C7.71189 12.1134 7.22176 11.5437 6.94487 11.0185C6.84302 10.8753 6.75073 10.7194 6.67752 10.557C6.6457 10.5411 6.61387 10.5157 6.58841 10.4775C6.52475 10.3788 6.50247 10.2515 6.45791 10.1369C6.38471 9.94278 6.33698 9.73591 6.34334 9.52585C6.37199 8.8925 6.70934 8.34826 7.0849 7.88995C7.36498 7.54304 7.78191 6.97015 7.80101 6.93514C8.07472 6.51821 8.36116 6.10128 8.54894 5.63024C8.58076 5.5284 8.86084 4.81866 8.94996 4.4431C9.13774 3.69517 9.25232 2.93132 9.35098 2.16429C9.36371 2.11337 9.38599 2.06881 9.421 2.03699H9.77746C9.78382 2.04335 9.78701 2.04972 9.79337 2.05608C9.69152 3.63152 9.44328 5.32152 8.67307 6.5946C8.42163 7.00835 8.00152 7.47938 7.63233 7.89632C7.56231 7.97588 7.49229 8.05227 7.42863 8.12547C7.03716 8.57105 6.59159 9.07709 6.72208 9.70408C6.82711 10.2038 7.20903 10.6525 7.67052 11.1554C7.85193 11.3718 8.05562 11.5819 8.28796 11.8683C8.59668 12.2311 8.89267 12.6099 9.13456 13.03C9.30642 13.3387 9.44964 13.6697 9.59605 13.9943C9.85703 14.6563 10.0353 15.382 10.118 16.0981C10.153 16.5914 10.1212 17.0879 10.118 17.5844C10.118 17.629 10.118 17.6735 10.118 17.7181C10.1085 17.8518 10.0989 17.995 10.0862 18.1414Z" fill="#BDCFE9"/>
<path fill-rule="evenodd" clip-rule="evenodd" d="M0.325195 19.1502C0.325195 19.529 0.630733 19.8345 1.00947 19.8345H10.4302C10.809 19.8345 11.1145 19.529 11.1145 19.1502C11.1145 18.7715 10.809 18.4659 10.4302 18.4659H1.00947C0.630733 18.4659 0.325195 18.7715 0.325195 19.1502Z" fill="#1A2B51"/>
<path d="M10.4307 20H1.00993C0.542077 20 0.160156 19.618 0.160156 19.1502C0.160156 18.6823 0.542077 18.3004 1.00993 18.3004H10.4307C10.8985 18.3004 11.2805 18.6823 11.2805 19.1502C11.2805 19.618 10.8985 20 10.4307 20ZM1.00993 18.6314C0.72349 18.6314 0.491153 18.8637 0.491153 19.1502C0.491153 19.4366 0.72349 19.669 1.00993 19.669H10.4307C10.7171 19.669 10.9495 19.4366 10.9495 19.1502C10.9495 18.8637 10.7171 18.6314 10.4307 18.6314H1.00993Z" fill="black"/>
<path d="M5.70206 8.88342C5.70206 8.88342 5.46973 9.21124 5.46973 9.35764C5.46973 9.48495 5.57476 9.58998 5.70206 9.58998C5.82937 9.58998 5.9344 9.48495 5.9344 9.35764C5.9344 9.21124 5.70206 8.88342 5.70206 8.88342Z" fill="black"/>
<path d="M5.70206 10.5664C5.70206 10.5664 5.46973 10.8815 5.46973 11.0215C5.46973 11.1457 5.57476 11.2443 5.70206 11.2443C5.82937 11.2443 5.9344 11.1425 5.9344 11.0215C5.9344 10.8815 5.70206 10.5664 5.70206 10.5664Z" fill="black"/>
<path d="M5.70206 12.2247C5.70206 12.2247 5.46973 12.5525 5.46973 12.699C5.46973 12.8263 5.57476 12.9313 5.70206 12.9313C5.82937 12.9313 5.9344 12.8263 5.9344 12.699C5.9344 12.5525 5.70206 12.2247 5.70206 12.2247Z" fill="black"/>
</svg>
