<svg width="20" height="17" viewBox="0 0 20 17" fill="none" xmlns="http://www.w3.org/2000/svg">
<path fill-rule="evenodd" clip-rule="evenodd" d="M1.00589 0.0263587C0.630447 0.123611 0.285018 0.423619 0.108045 0.806106C-0.0328982 1.11073 -0.0365302 1.68297 0.100572 1.9832C0.243603 2.29634 0.413312 2.48521 0.700083 2.65048L0.964144 2.80261H10.0027H19.0413L19.2545 2.68304C19.5708 2.50575 19.7007 2.37208 19.8581 2.06173C19.9877 1.80644 20 1.74948 20 1.40506C20 1.06037 19.9877 1.0038 19.8576 0.74732C19.7039 0.444383 19.5283 0.265319 19.2305 0.107639L19.0413 0.00750269L10.0862 0.000714575C5.16093 -0.00305661 1.07478 0.0084789 1.00589 0.0263587ZM1.00589 7.12505C0.630447 7.2223 0.285018 7.52231 0.108045 7.9048C-0.0328982 8.20942 -0.0365302 8.78166 0.100572 9.0819C0.243603 9.39504 0.413312 9.58391 0.700083 9.74917L0.964144 9.90131H10.0027H19.0413L19.2545 9.78174C19.5708 9.60445 19.7007 9.47077 19.8581 9.16043C19.9877 8.90514 20 8.84817 20 8.50375C20 8.15907 19.9877 8.1025 19.8576 7.84601C19.7039 7.54308 19.5283 7.36401 19.2305 7.20633L19.0413 7.1062L10.0862 7.09941C5.16093 7.09564 1.07478 7.10717 1.00589 7.12505ZM1.00589 14.2237C0.630447 14.321 0.285018 14.621 0.108045 15.0035C-0.0328982 15.3081 -0.0365302 15.8804 0.100572 16.1806C0.243603 16.4937 0.413312 16.6826 0.700083 16.8479L0.964144 17H10.0027H19.0413L19.2545 16.8804C19.5708 16.7031 19.7007 16.5695 19.8581 16.2591C19.9877 16.0038 20 15.9469 20 15.6024C20 15.2578 19.9877 15.2012 19.8576 14.9447C19.7039 14.6418 19.5283 14.4627 19.2305 14.305L19.0413 14.2049L10.0862 14.1981C5.16093 14.1943 1.07478 14.2059 1.00589 14.2237Z" fill="white"/>
</svg>
