<svg width="17" height="11" viewBox="0 0 17 11" fill="none" xmlns="http://www.w3.org/2000/svg">
<path fill-rule="evenodd" clip-rule="evenodd" d="M7.55186 10.9526C5.45381 10.6327 3.34125 9.4349 1.34736 7.43482C0.692875 6.77831 0.197945 6.20191 0.0867632 5.96669C0.0144051 5.81368 0 5.73605 0 5.49959C0 5.12134 0.079045 4.95879 0.501982 4.46721C1.95962 2.77301 3.86432 1.31226 5.51951 0.619251C6.66423 0.139975 7.52914 -0.0268792 8.71149 0.00344879C9.83931 0.0324089 10.7321 0.255248 11.878 0.793812C13.2092 1.41946 14.81 2.63908 16.0402 3.96484C16.9113 4.90361 17 5.04541 17 5.49959C17 5.88829 16.9232 6.03976 16.4498 6.58393C15.1727 8.05232 13.6827 9.26267 12.224 10.0166C11.2262 10.5323 10.3686 10.8201 9.43147 10.9537C8.9946 11.0159 7.96352 11.0153 7.55186 10.9526ZM9.14014 9.12127C9.62569 9.03446 10.1095 8.83901 10.546 8.55332C10.8031 8.38506 11.3772 7.80933 11.5449 7.55149C11.9605 6.91273 12.156 6.2631 12.1583 5.51231C12.1621 4.32147 11.6367 3.26786 10.6791 2.5454C10.0475 2.06896 9.31647 1.82954 8.49325 1.82954C6.46286 1.82954 4.83559 3.46294 4.84167 5.49492C4.84463 6.4822 5.17392 7.31454 5.83849 8.01455C6.23394 8.4311 6.65545 8.72197 7.14486 8.91608C7.36449 9.00323 7.7843 9.1181 7.98434 9.14583C8.21859 9.17829 8.90254 9.16375 9.14014 9.12127ZM8.11871 8.10043C7.47491 7.9993 6.87555 7.65705 6.46941 7.15863C6.26339 6.90576 6.02728 6.43242 5.9498 6.11683C5.86713 5.78015 5.87432 5.16322 5.96484 4.82751C6.21308 3.90702 6.92273 3.20451 7.86791 2.9435C8.192 2.85402 8.83335 2.86106 9.17531 2.95788C10.5656 3.35148 11.3736 4.72504 11.0435 6.13351C10.9741 6.42985 10.7349 6.90786 10.5306 7.15863C10.1927 7.57331 9.62636 7.93434 9.13209 8.05022C8.85154 8.11601 8.36982 8.13987 8.11871 8.10043Z" fill="#898989"/>
</svg>
