<svg width="25" height="25" viewBox="0 0 25 25" fill="none" xmlns="http://www.w3.org/2000/svg">
<path fill-rule="evenodd" clip-rule="evenodd" d="M0 12.5C0 5.59647 5.59642 0 12.5 0C19.4036 0 25 5.59647 25 12.5C25 19.4036 19.4036 25 12.5 25C5.59642 25 0 19.4036 0 12.5Z" fill="#FF6600"/>
<path d="M20.0019 4.42356C19.4203 4.32363 18.8315 4.2722 18.2413 4.26979C16.2279 4.26815 14.2563 4.84404 12.5619 5.92885C10.863 4.85829 8.89185 4.29652 6.88242 4.31026C6.29229 4.31267 5.70338 4.3641 5.12181 4.46402C4.72823 4.5317 4.44258 4.875 4.44838 5.27332V14.9849C4.44186 15.4317 4.79977 15.7994 5.24782 15.8059C5.29802 15.8066 5.34819 15.8026 5.39766 15.7942C7.74654 15.3885 10.1601 15.9459 12.0913 17.3399L12.1887 17.3965H12.2779C12.4596 17.472 12.6641 17.472 12.8458 17.3965H12.9351L13.0325 17.3399C14.9502 15.9146 17.365 15.3249 19.7261 15.7051C20.1676 15.7812 20.5874 15.4857 20.6636 15.0453C20.6722 14.996 20.6761 14.946 20.6753 14.8958V5.18429C20.658 4.80439 20.3777 4.48781 20.0019 4.42356ZM11.7505 15.1791C10.2494 14.3914 8.57857 13.9803 6.88242 13.9813C6.61468 13.9813 6.34694 13.9813 6.07108 13.9813V5.88838C6.34131 5.87285 6.6122 5.87285 6.88242 5.88838C8.61335 5.88647 10.3065 6.39313 11.7505 7.34511V15.1791ZM19.0526 14.0137C18.7768 14.0137 18.509 14.0137 18.2413 14.0137C16.5452 14.0126 14.8743 14.4238 13.3732 15.2115V7.34511C14.8172 6.39313 16.5104 5.88647 18.2413 5.88838C18.5116 5.87285 18.7824 5.87285 19.0526 5.88838V14.0137ZM20.0019 17.3723C19.4203 17.2723 18.8315 17.221 18.2413 17.2185C16.2279 17.2169 14.2563 17.7928 12.5619 18.8776C10.8674 17.7928 8.89589 17.2169 6.88242 17.2185C6.29229 17.221 5.70338 17.2723 5.12181 17.3723C4.67924 17.4424 4.37742 17.857 4.44765 18.2985C4.44789 18.2999 4.44813 18.3014 4.44838 18.3029C4.53422 18.7406 4.9587 19.0264 5.39766 18.9423C7.74654 18.5367 10.1601 19.094 12.0913 20.4881C12.373 20.6881 12.7507 20.6881 13.0325 20.4881C14.9636 19.094 17.3772 18.5366 19.7261 18.9423C20.165 19.0264 20.5895 18.7406 20.6753 18.3029C20.7481 17.8619 20.4487 17.4456 20.0064 17.373C20.005 17.3728 20.0034 17.3725 20.0019 17.3723Z" fill="white"/>
</svg>
