<svg width="56" height="45" viewBox="0 0 56 45" fill="none" xmlns="http://www.w3.org/2000/svg">
<path fill-rule="evenodd" clip-rule="evenodd" d="M53.46 1.72009C52.0349 5.70312 51.1916 9.31684 50.6815 13.6253C50.4427 15.6426 50.3029 26.0037 50.5093 26.3843C50.6409 26.6269 50.6289 26.6301 49.5888 26.6301H48.535V27.5508V28.4715H49.9064H51.2778L50.8785 36.0385C50.4913 43.3774 50.4855 43.6186 50.6879 44.0393C51.0008 44.6898 51.4955 44.9865 52.2675 44.9865C53.0384 44.9865 53.5342 44.6899 53.8455 44.0425C54.0456 43.6266 54.0401 43.3688 53.6825 36.4159C53.4789 32.4579 53.2905 29.0513 53.2638 28.8456L53.2153 28.4715H54.6077H56V27.5508V26.6301H55.0673H54.1347L54.105 13.3151L54.0754 0L53.46 1.72009ZM0.0352257 6.4612L0.0704514 11.151L0.439622 11.9198C0.939313 12.9605 1.61315 13.6511 2.60764 14.1421C3.05775 14.3642 3.49971 14.546 3.58964 14.546C3.72506 14.546 3.74151 14.7992 3.68505 16.0134C3.60247 17.7942 2.93761 40.5347 2.9137 42.4014C2.89446 43.9005 3.0111 44.265 3.65542 44.7184C4.18883 45.0939 5.16675 45.0939 5.70015 44.7184C6.34448 44.265 6.46112 43.9005 6.44187 42.4014C6.41796 40.5347 5.7531 17.7942 5.67052 16.0134C5.61407 14.7992 5.63051 14.546 5.76593 14.546C5.85587 14.546 6.29782 14.3642 6.74794 14.1421C7.74242 13.6511 8.41626 12.9605 8.91595 11.9198L9.28512 11.151L9.32035 6.4612L9.35557 1.77141H8.41638H7.47718V4.25096C7.47718 6.73027 7.47718 6.73062 7.19082 7.01304C6.81209 7.38684 6.27601 7.38684 5.89727 7.01304C5.61092 6.73062 5.61092 6.73027 5.61092 4.25096V1.77141H4.67779H3.74466V4.25096C3.74466 6.73027 3.74466 6.73062 3.4583 7.01304C3.07957 7.38684 2.54348 7.38684 2.16475 7.01304C1.87839 6.73062 1.87839 6.73027 1.87839 4.25096V1.77141H0.939197H0L0.0352257 6.4612ZM26.3148 6.45073C21.9273 6.97 18.5389 8.57028 15.5202 11.5486C12.8301 14.203 11.2466 17.1579 10.553 20.8183C10.2594 22.3677 10.2577 25.4418 10.5496 26.9179C11.2623 30.5221 12.7771 33.4265 15.2835 35.9941C22.2224 43.1023 33.7605 43.1284 40.6682 36.0516C43.2419 33.415 44.7394 30.5624 45.4634 26.9179C45.7501 25.475 45.7492 22.2535 45.4618 20.8183C44.6847 16.9372 42.9721 13.8253 40.1728 11.2075C37.2997 8.52091 33.93 6.96021 29.992 6.49227C29.0604 6.38167 27.0874 6.35935 26.3148 6.45073ZM30.2073 9.31662C36.6508 10.2504 41.8077 15.3385 42.7541 21.6961C43.096 23.993 42.9051 26.2317 42.1818 28.4105C41.4162 30.7166 40.3165 32.467 38.5188 34.2407C36.7212 36.0144 34.9472 37.0995 32.6099 37.8549C23.8392 40.6896 14.589 34.9988 13.2425 25.9396C12.5703 21.4166 14.1531 16.7148 17.4142 13.5474C18.5206 12.473 18.8096 12.2341 19.7828 11.5887C21.6121 10.3759 24.1931 9.44701 26.3731 9.21684C27.3977 9.10877 29.0738 9.15239 30.2073 9.31662ZM25.9065 11.1554C22.4832 11.6892 19.1882 13.7588 17.1913 16.6291C16.2223 18.0221 15.4061 20.0737 15.1138 21.8514C14.5991 24.9828 15.3937 28.5232 17.1913 31.107C19.2208 34.0241 22.5051 36.0632 26.0232 36.5903C28.8705 37.0171 31.4956 36.577 34.0951 35.2375C40.2065 32.0879 42.7804 24.6145 39.856 18.5104C38.482 15.6425 36.595 13.7317 33.7798 12.358C31.2411 11.1191 28.6631 10.7253 25.9065 11.1554Z" fill="#0004CF"/>
</svg>
