<svg width="8" height="8" viewBox="0 0 8 8" fill="none" xmlns="http://www.w3.org/2000/svg">
<path fill-rule="evenodd" clip-rule="evenodd" d="M0.716437 7.97818C0.49732 7.93074 0.292619 7.78916 0.158935 7.59262C-0.0304278 7.31421 -0.0517547 6.96844 0.101271 6.65801C0.156605 6.54576 0.213346 6.48634 1.4264 5.27034L2.69371 3.99994L1.4264 2.72954C0.213221 1.51341 0.156621 1.45414 0.101286 1.34187C-0.109512 0.914125 0.0171982 0.424243 0.407259 0.158937C0.685666 -0.0304279 1.03143 -0.051754 1.34186 0.101272C1.45411 0.156607 1.51352 0.213349 2.72952 1.42641L3.99991 2.69373L5.2703 1.42641C6.48629 0.213349 6.54571 0.156607 6.65795 0.101272C6.96505 -0.0501127 7.31013 -0.0304747 7.58607 0.154089C7.98162 0.418661 8.11106 0.910732 7.89854 1.34187C7.84321 1.45412 7.78647 1.51354 6.57341 2.72954L5.3061 3.99994L6.57341 5.27034C7.78659 6.48647 7.84319 6.54574 7.89853 6.65801C8.10933 7.08576 7.98262 7.57564 7.59256 7.84094C7.31462 8.03 6.97149 8.05142 6.65795 7.89931C6.54497 7.84451 6.4942 7.79602 5.2703 6.5743L3.99991 5.30615L2.72952 6.57347C1.5134 7.78666 1.45412 7.84326 1.34186 7.89859C1.14179 7.99719 0.929159 8.02426 0.716437 7.97818Z" fill="#EC4648"/>
</svg>
