<svg width="52" height="52" viewBox="0 0 52 52" fill="none" xmlns="http://www.w3.org/2000/svg">
<g filter="url(#filter0_d_591_2205)">
<rect x="4" y="4" width="44" height="44" rx="8" fill="white"/>
</g>
<path fill-rule="evenodd" clip-rule="evenodd" d="M6 12.6668C6 8.98481 8.98481 6 12.6668 6H39.3332C43.0151 6 46 8.98481 46 12.6668V39.3332C46 43.0151 43.0151 46 39.3332 46H12.6668C8.98481 46 6 43.0151 6 39.3332V12.6668Z" fill="#CCCC00"/>
<path d="M36.798 26L38.0522 25.4545L38.1337 25.4202C39.7519 24.6806 40.4639 22.7695 39.7245 21.1515C39.0073 19.5824 37.1811 18.8569 35.5827 19.5061L34.2942 20.0688L30.2742 21.8125C32.754 19.2611 32.696 15.1824 30.1446 12.7026C27.5932 10.2228 23.5145 10.2808 21.0347 12.8322C18.6175 15.3191 18.6029 19.2733 21.0016 21.7781L17.0632 20.0601L15.7747 19.4975C14.1452 18.7836 12.2453 19.5258 11.5314 21.1553C10.8174 22.7849 11.5596 24.6847 13.1892 25.3987L13.2708 25.433L14.5249 26L19.5198 28.1474C19.659 29.2551 19.5019 30.38 19.0646 31.4072C18.5197 32.1898 17.8759 32.8987 17.1491 33.516C16.5308 34.0393 15.8278 34.4532 15.0704 34.7401C14.6666 34.9204 14.1684 35.1395 13.5113 35.4616C12.575 35.9211 12.1026 36.6643 12.1799 37.5489C12.3087 39.0394 13.9966 40.624 16.1097 41.2381C16.5476 41.3677 17.0017 41.4341 17.4583 41.4357C19.6916 41.4357 21.1648 39.7735 22.2385 38.5581C22.406 38.3692 24.0381 36.3849 25.6744 34.4007C27.2978 36.3849 28.9299 38.3692 29.1103 38.5581C30.184 39.7735 31.6572 41.4357 33.8905 41.4357C34.3471 41.4341 34.8012 41.3677 35.2391 41.2381C37.3522 40.624 39.0402 39.0394 39.1688 37.5489C39.2463 36.6643 38.7737 35.9211 37.8374 35.4616C37.1805 35.1395 36.682 34.9204 36.2783 34.7401C35.5074 34.4572 34.791 34.0431 34.1611 33.516C33.3803 32.8523 32.694 32.085 32.121 31.2354C31.7362 30.2636 31.6018 29.2106 31.7302 28.1732L36.798 26ZM34.8139 21.2241L36.1023 20.6743C36.0263 21.7041 36.4174 22.7134 37.1676 23.423C37.4316 23.6592 37.7356 23.8467 38.0651 23.9771C37.9922 24.0329 36.6651 24.66 36.6651 24.66C36.5399 24.5769 36.4205 24.4851 36.3085 24.3851C35.4195 23.577 34.8868 22.4497 34.8268 21.2498L34.8139 21.2241ZM15.0274 24.3636C14.9153 24.4637 14.7962 24.5555 14.6709 24.6385C14.6709 24.6385 13.3438 24.0114 13.2708 23.9556C13.5995 23.8306 13.9045 23.6505 14.1727 23.423C14.9167 22.7183 15.3073 21.7182 15.2378 20.6958L16.5263 21.2455C16.4551 22.4413 15.9167 23.5612 15.0274 24.3636ZM18.4117 39.9926C18.1465 39.1624 17.7072 38.3981 17.1233 37.7507C16.5291 37.0803 15.7965 36.5467 14.9759 36.1874L15.5685 35.9211C15.895 35.7751 16.1784 35.6506 16.4275 35.5174C17.8644 36.424 18.9573 37.7843 19.5327 39.3827C19.1927 39.6427 18.8146 39.8483 18.4117 39.9926ZM27.7832 14.713C28.2576 14.713 28.6421 15.0976 28.6421 15.572C28.6421 16.0464 28.2576 16.431 27.7832 16.431C27.3088 16.431 26.9242 16.0464 26.9242 15.572C26.9242 15.0976 27.3088 14.713 27.7832 14.713ZM23.4883 14.713C23.9627 14.713 24.3473 15.0976 24.3473 15.572C24.3473 16.0464 23.9627 16.431 23.4883 16.431C23.0139 16.431 22.6293 16.0464 22.6293 15.572C22.6293 15.0976 23.0139 14.713 23.4883 14.713ZM25.5713 32.0386C25.0969 32.0386 24.7123 31.654 24.7123 31.1796C24.7123 30.7052 25.0969 30.3206 25.5713 30.3206C26.0457 30.3206 26.4303 30.7052 26.4303 31.1796C26.4303 31.654 26.0457 32.0386 25.5713 32.0386ZM25.5713 28.5769C25.0969 28.5769 24.7123 28.1923 24.7123 27.7179C24.7123 27.2435 25.0969 26.859 25.5713 26.859C26.0457 26.859 26.4303 27.2435 26.4303 27.7179C26.4303 28.1923 26.0457 28.5769 25.5713 28.5769ZM25.5713 25.1066C25.0969 25.1066 24.7123 24.7221 24.7123 24.2477C24.7123 23.7733 25.0969 23.3887 25.5713 23.3887C26.0457 23.3887 26.4303 23.7733 26.4303 24.2477C26.4279 24.7204 26.0441 25.1023 25.5713 25.1023V25.1066ZM28.96 18.8104C27.8847 20.6546 25.518 21.2779 23.6738 20.2027C23.0973 19.8665 22.6176 19.3869 22.2814 18.8104C22.1615 18.6057 22.2302 18.3426 22.4349 18.2226C22.4353 18.2224 22.4357 18.2222 22.4361 18.222C22.6407 18.1021 22.9038 18.1707 23.0238 18.3754C23.024 18.3757 23.0242 18.3762 23.0245 18.3766C23.8596 19.8116 25.7 20.2979 27.1351 19.4627C27.5851 19.2009 27.9594 18.8266 28.2213 18.3766C28.3189 18.1604 28.5734 18.0644 28.7895 18.1621C29.0057 18.2597 29.1017 18.5142 29.004 18.7303C28.9919 18.757 28.9772 18.7824 28.96 18.8061V18.8104ZM33.2248 36.896C33.6983 36.3637 34.2449 35.9008 34.8482 35.5217C35.1188 35.6549 35.398 35.7794 35.7072 35.9254L36.2999 36.1917C34.669 36.9184 33.421 38.3006 32.864 39.9969C32.4489 39.8547 32.059 39.6474 31.7087 39.3827C32.0544 38.4615 32.575 37.6154 33.242 36.8917L33.2248 36.896Z" fill="white"/>
<defs>
<filter id="filter0_d_591_2205" x="0" y="0" width="52" height="52" filterUnits="userSpaceOnUse" color-interpolation-filters="sRGB">
<feFlood flood-opacity="0" result="BackgroundImageFix"/>
<feColorMatrix in="SourceAlpha" type="matrix" values="0 0 0 0 0 0 0 0 0 0 0 0 0 0 0 0 0 0 127 0" result="hardAlpha"/>
<feOffset/>
<feGaussianBlur stdDeviation="2"/>
<feComposite in2="hardAlpha" operator="out"/>
<feColorMatrix type="matrix" values="0 0 0 0 0 0 0 0 0 0 0 0 0 0 0 0 0 0 0.25 0"/>
<feBlend mode="normal" in2="BackgroundImageFix" result="effect1_dropShadow_591_2205"/>
<feBlend mode="normal" in="SourceGraphic" in2="effect1_dropShadow_591_2205" result="shape"/>
</filter>
</defs>
</svg>
